<svg width="450" height="250" viewBox="0 0 450 250" fill="none" xmlns="http://www.w3.org/2000/svg">
<path d="M68.1208 193.063C70.0018 192.13 71.9939 191.296 74.1393 190.756C78.5005 189.66 83.3964 189.774 87.9419 191.08C91.1565 192.004 94.1587 193.508 97.061 194.964C98.503 195.686 99.9929 196.43 101.501 197.105C105.518 198.898 111.366 200.746 116.436 199.387C116.508 199.474 116.577 199.56 116.654 199.653C119.157 202.761 121.126 206.184 123.03 209.497C125.711 214.161 128.486 218.987 132.815 223.044C133.328 223.526 133.863 223.994 134.411 224.447C130.26 226.25 125.267 226.082 121.708 225.596C117.76 225.063 113.845 223.931 110.059 222.842C109.278 222.618 108.496 222.393 107.714 222.176C104.61 221.304 100.996 220.365 97.4015 220.27C96.7473 220.253 96.11 220.27 95.4854 220.298C93.9997 216.936 92.4438 213.599 89.8158 210.54C83.6707 203.378 74.7204 198.971 68.1208 193.063Z" fill="#DAE1F0"/>
<path d="M50.3299 138.148C52.4205 139.74 54.7066 141.223 56.9181 142.656C60.9164 145.248 65.0483 147.929 67.9942 151.261C71.0893 154.759 72.8394 158.928 74.4502 163.028C70.9542 162.827 67.326 161.093 63.3784 157.734C62.7214 157.175 62.063 156.589 61.4271 156.022C58.8948 153.769 56.278 151.439 52.8791 149.985C49.9683 148.739 46.7818 148.265 43.6629 148.146C42.83 146.861 41.9915 145.561 41.1474 144.244C38.518 140.125 36.0729 135.803 35.6607 131.657C35.3794 128.829 36.2727 126.101 38.2986 124.403C41.0546 129.503 45.1822 134.229 50.3299 138.148Z" fill="#DAE1F0"/>
<path d="M84.6204 159.566C84.3165 160.023 84.014 160.48 83.7186 160.939C80.8078 165.47 79.6978 169.511 80.39 172.992C78.6145 170.16 77.3864 167.018 76.1216 163.78C74.3673 159.289 72.5538 154.646 69.0874 150.72C66.0205 147.255 61.8028 144.513 57.7257 141.869C55.5381 140.45 53.2759 138.984 51.2289 137.426C46.1136 133.531 42.0296 128.815 39.3594 123.733C42.166 122.584 46.1291 122.748 49.8207 123.901C54.8994 125.485 59.5645 128.59 63.9172 131.763C72.3203 137.894 79.8554 143.77 88.1684 148.834C88.3667 150.161 88.3219 151.511 88.0362 152.824C87.4945 155.231 86.0328 157.434 84.6204 159.566Z" fill="#DAE1F0"/>
<path d="M52.5034 150.594C55.7391 151.98 58.2996 154.257 60.7728 156.458C61.4129 157.029 62.0742 157.618 62.7424 158.183C66.97 161.781 70.9021 163.599 74.7315 163.743L74.8328 163.999C77.1246 169.862 79.4937 175.934 85.5797 180.138C88.3554 182.055 91.6531 183.376 94.8424 184.654C96.155 185.179 97.5154 185.72 98.8054 186.299C105.65 189.342 111.539 193.638 115.915 198.758C111.194 199.951 105.698 198.198 101.895 196.502C100.409 195.835 98.9307 195.097 97.4999 194.38C94.5455 192.902 91.5025 191.373 88.1866 190.422C83.4455 189.06 78.3387 188.94 73.7946 190.083C71.5436 190.651 69.4615 191.52 67.5074 192.5C63.9664 189.2 61.1836 185.407 60.016 180.416C57.3669 169.112 51.0122 159.466 44.1355 148.871C46.9886 149.012 49.8811 149.475 52.5034 150.594Z" fill="#DAE1F0"/>
<path d="M92.68 78.0732C85.1478 71.0419 73.8691 70.802 69.069 77.5707C69.0423 77.6067 69.0169 77.6427 68.9916 77.68C65.6574 82.4471 64.5826 89.2411 68.035 95.2556C69.8076 98.3448 72.7001 101.171 73.3683 104.429C74.4938 109.95 68.9171 113.146 66.3256 117.502C63.8158 121.719 64.2407 127.699 67.4019 132.668C70.3563 137.313 75.5982 141.387 76.2158 146.359C76.6209 149.629 74.8399 152.331 73.1376 154.815C70.4322 158.766 67.7466 162.838 66.6759 167.646C65.6053 172.455 66.365 178.188 69.9581 182.799C72.9237 186.602 77.6212 189.462 79.505 193.675C81.3535 197.806 79.9003 201.926 80.3265 206.129C81.1341 214.064 89.2206 221.82 97.7559 224.048C101.319 224.991 105.073 225.088 108.686 224.331C109.476 224.171 110.295 224.188 111.077 224.382C114.832 225.261 118.586 225.394 121.987 224.566C129.708 222.682 134.781 215.207 132.44 207.241C131.199 203.02 128.099 198.809 128.318 194.713C128.542 190.546 132.142 187.862 133.621 184.153C135.413 179.658 133.902 173.908 130.908 169.014C127.914 164.119 123.593 159.897 119.29 155.797C116.587 153.218 113.715 150.417 112.819 147.135C111.466 142.146 115.132 138.262 116.264 133.705C117.477 128.829 115.527 122.817 111.322 118.456C106.975 113.952 100.074 110.491 99.0221 104.971C98.4003 101.714 100.193 98.9871 100.753 95.9486C101.843 90.0314 98.0584 83.1334 92.801 78.1825L92.68 78.0732Z" fill="#6C8AC5"/>
<path d="M101.104 127.961C103.696 128.044 106.335 128.306 108.956 128.963C114.275 130.296 119.41 133.228 123.417 137.226C126.247 140.05 128.481 143.371 130.651 146.583C131.726 148.182 132.837 149.825 134.015 151.406C137.15 155.615 142.195 160.933 148.442 162.398C148.463 162.531 148.488 162.665 148.508 162.798C149.211 167.536 149.132 172.303 149.071 176.912C148.972 183.409 148.871 190.126 150.899 196.92C151.141 197.728 151.412 198.53 151.71 199.327C146.158 198.861 140.955 195.814 137.487 193.259C133.633 190.421 130.185 186.98 126.851 183.652C126.162 182.966 125.472 182.281 124.781 181.595C122.034 178.887 118.788 175.818 115.028 173.654C114.345 173.254 113.66 172.908 112.975 172.588C113.522 168.163 113.977 163.724 113.116 158.969C111.107 147.841 104.388 138.026 101.104 127.961Z" fill="#DAE1F0"/>
<path d="M116.897 59.4115C118.112 62.3008 119.604 65.1874 121.048 67.9794C123.657 73.0263 126.356 78.2411 127.378 83.4786C128.452 88.968 127.681 94.4067 126.803 99.6841C123.216 97.4665 120.457 93.5431 118.385 87.7072C118.04 86.737 117.711 85.7375 117.4 84.7753C116.134 80.9291 114.825 76.9524 112.133 73.4581C109.827 70.4648 106.74 68.1273 103.503 66.2175C103.429 64.3731 103.359 62.51 103.295 60.6282C103.103 54.7417 103.237 48.7473 105.423 44.1095C106.916 40.9457 109.585 38.5575 112.809 37.9165C112.505 44.9038 113.904 52.2949 116.897 59.4115Z" fill="#DAE1F0"/>
<path d="M156.852 123.589C155.742 124.466 154.508 125.257 153.314 126.022C151.839 126.968 150.314 127.948 148.983 129.107C144.995 132.586 142.812 137.719 142.889 143.333C141.752 141.412 140.51 139.55 139.169 137.751C138.137 136.369 137.027 135.002 135.95 133.669C133.438 130.567 130.839 127.359 129.198 123.918C128.198 121.831 127.511 119.622 127.155 117.356C127.436 112.118 131.28 107.504 138.616 103.629C139.216 103.312 139.822 103.003 140.431 102.696C143.335 101.213 146.34 99.6801 148.516 97.3453C149.538 96.2415 150.377 94.9984 151.008 93.6577C154.059 99.0365 157.51 104.302 161.682 109.503C162.666 110.728 163.579 112.001 164.418 113.319C162.666 117.264 160.287 120.875 156.852 123.589Z" fill="#DAE1F0"/>
<path d="M150.59 177.248C150.66 172.584 150.731 167.766 150.027 162.922C149.117 156.733 146.932 150.528 143.64 144.636L143.959 144.681C143.549 138.844 145.665 133.445 149.766 129.868C151.057 128.742 152.56 127.779 154.013 126.847C155.221 126.071 156.471 125.271 157.609 124.371C160.971 121.716 163.343 118.241 165.102 114.442C173.917 129.434 167.798 142.751 172.516 158.611C175.383 168.247 183.008 176.515 186.459 186.072C189.478 194.435 188.959 202.94 186.913 210.139C185.986 213.407 184.737 216.525 182.749 218.895C179.821 222.384 175.536 223.998 170.988 224.876C163.502 216.747 155.462 207.151 152.372 196.839C150.392 190.249 150.494 183.636 150.59 177.248Z" fill="#DAE1F0"/>
<path d="M124.116 182.165C124.805 182.845 125.493 183.529 126.178 184.216C129.555 187.578 133.034 191.055 136.969 193.955C140.627 196.651 146.155 199.871 152.081 200.291C155.739 209.435 162.773 217.859 169.446 225.139C168.657 225.264 167.862 225.372 167.07 225.466C164.341 225.806 161.588 225.927 158.838 225.826C156.043 225.956 153.241 225.87 150.46 225.569C144.22 224.933 137.578 223.623 131.692 219.201C128.578 216.864 125.845 213.771 123.359 210.523C117.884 203.37 113.306 194.896 112.324 186.521C111.793 181.997 112.331 177.747 112.861 173.505C113.455 173.79 114.049 174.094 114.641 174.438C118.259 176.517 121.429 179.514 124.116 182.165Z" fill="#DAE1F0"/>
<path d="M139.797 101.838C139.186 102.15 138.576 102.46 137.968 102.779C132.01 105.928 128.28 109.575 126.817 113.676C126.719 109.649 127.398 105.607 128.1 101.439C129.074 95.6621 130.081 89.6876 128.877 83.5279C127.816 78.0812 125.068 72.7557 122.395 67.6075C120.968 64.8449 119.49 61.9889 118.302 59.1596C115.326 52.087 113.967 44.7345 114.341 37.8019C118.048 38.191 122.155 40.6392 125.35 43.9816C129.745 48.5794 132.739 54.5552 135.358 60.4257C140.413 71.7536 144.707 82.3245 150.337 92.4756C149.71 93.9981 148.81 95.4062 147.676 96.6376C145.59 98.8859 142.646 100.384 139.797 101.838Z" fill="#DAE1F0"/>
<path d="M111.342 73.8845C113.908 77.2163 115.187 81.0997 116.422 84.8566C116.743 85.8295 117.073 86.8357 117.422 87.8179C119.641 94.0669 122.664 98.2502 126.65 100.602C126.63 100.712 126.612 100.822 126.593 100.933C125.327 108.481 124.006 116.288 127.816 124.244C129.553 127.875 132.222 131.174 134.804 134.357C135.866 135.668 136.965 137.022 137.975 138.378C143.321 145.538 146.867 153.48 148.283 161.433C142.515 159.993 137.779 154.978 134.811 150.993C133.652 149.436 132.549 147.794 131.482 146.218C129.283 142.955 127.008 139.582 124.088 136.668C119.911 132.503 114.556 129.443 109.011 128.053C106.255 127.362 103.499 127.094 100.805 127.014C99.1276 121.476 98.5677 115.851 100.478 109.878C104.81 96.3458 104.156 82.4551 103.544 67.2491C106.485 69.0335 109.264 71.1872 111.342 73.8845Z" fill="#DAE1F0"/>
<path d="M369.13 230.591L158.336 230.07C148.132 230.046 140.93 221.885 142.249 211.842L162.551 57.5324C163.718 49.295 166.933 45.5888 177.137 45.6128L400.825 46.1339C408.176 46.1339 412.553 50.3252 411.647 57.5324L392.623 212.453C391.304 222.495 379.336 230.616 369.13 230.591Z" fill="#324B7F"/>
<path d="M398.603 50.5771L180.476 50.1093C170.756 50.0866 168.287 53.2344 166.985 62.3847L148.355 209.754C147.053 218.904 153.279 218.133 162.998 218.15L365.902 218.623C375.623 218.647 384.631 219.464 385.934 210.315L405.053 64.0279C406.107 58.0895 405.792 50.5771 398.603 50.5771Z" fill="white"/>
<path d="M409.162 218.718H149.881C146.724 218.718 144.166 220.317 144.166 222.279V229.718C144.166 231.685 146.724 233.279 149.881 233.279H409.081C412.238 233.279 413.394 231.679 413.394 229.718V222.279C413.394 220.313 412.319 218.718 409.162 218.718Z" fill="#324B7F"/>
<path d="M293.365 218.718H23.251C19.9449 218.718 18.7041 220.317 18.7041 222.279V229.718C18.7041 231.685 19.9449 233.279 23.251 233.279H293.365C296.672 233.279 299.353 231.679 299.353 229.718V222.279C299.353 220.313 296.672 218.718 293.365 218.718Z" fill="#1C2A47"/>
<path d="M418.443 203.889C412.914 212.409 417.458 223.276 416.935 233.235H368.907C368.842 233.008 368.766 232.78 368.708 232.554C365.57 221.226 364.42 208.52 370.849 198.463C374.074 193.416 379.098 189.225 380.759 183.565C384.05 172.353 372.936 159.926 378.331 149.438C380.038 146.119 383.175 143.635 385.333 140.551C390.616 133 389.351 123.238 389.082 114.243C389.002 111.568 389.188 108.544 391.353 106.779C396.009 102.972 403.274 107.775 406.022 111.413C410.793 117.733 414.002 127.174 412.847 134.855C412.064 140.059 409.29 145.14 410.219 150.323C411.444 157.166 418.475 161.517 423.543 166.617C430.525 173.655 434.119 184.779 428.624 192.871C425.837 196.972 421.138 199.733 418.443 203.889Z" fill="#91A7D3"/>
<path d="M385.429 221.323C388.542 224.655 391.734 227.9 394.925 230.997C394.383 226.865 394.077 222.709 394.008 218.546L393.946 218.478C390.991 215.222 388.076 211.88 385.033 208.255L385.571 207.686C388.442 211.105 391.198 214.273 393.982 217.353C393.94 213.166 394.096 208.982 394.378 204.814C391.845 201.739 389.172 198.395 386.187 194.591L386.741 194.044C389.544 197.614 392.073 200.776 394.461 203.69C394.767 199.476 395.192 195.277 395.665 191.102C393.695 188.568 391.736 186.033 389.788 183.497L387.819 180.937L388.382 180.393L390.351 182.956C392.16 185.304 393.975 187.652 395.794 189.999C396.062 187.67 396.338 185.348 396.621 183.033C396.847 181.168 397.072 179.293 397.294 177.41C394.147 173.345 391.692 170.213 389.349 167.289L389.9 166.735C392.136 169.533 394.477 172.513 397.422 176.31C397.904 172.139 398.349 167.941 398.688 163.728C395.734 160.106 392.971 156.807 390.227 153.649L390.756 153.069C393.362 156.069 395.991 159.2 398.775 162.603C399.083 158.432 399.271 154.247 399.268 150.059C396.112 146.531 393.037 143.242 389.873 140.014L390.369 139.401C393.366 142.457 396.278 145.57 399.262 148.886C399.189 141.298 398.464 133.701 396.643 126.163L397.354 125.946C399.203 133.591 399.933 141.272 400.002 148.954C402.854 145.73 405.411 142.711 407.796 139.75L408.345 140.306C405.812 143.456 403.079 146.67 400.008 150.125C400.008 154.27 399.825 158.409 399.524 162.535C402.672 159.28 405.504 156.272 408.152 153.384L408.668 153.977C405.855 157.055 402.826 160.255 399.432 163.756C399.107 167.899 398.673 172.019 398.2 176.129C401.799 172.556 404.632 169.715 407.28 167.025L407.776 167.64C404.971 170.489 401.965 173.503 398.054 177.38C397.829 179.307 397.599 181.229 397.366 183.145C397.099 185.338 396.837 187.538 396.579 189.745C399.018 187.325 401.463 184.904 403.916 182.483L405.745 180.675L406.233 181.297L404.404 183.105C401.744 185.734 399.089 188.363 396.437 190.994C395.971 195.097 395.551 199.223 395.243 203.362C396.518 202.04 397.857 200.667 399.258 199.242C399.361 199.5 399.479 199.754 399.611 200C398.042 201.599 396.564 203.12 395.153 204.586C394.871 208.717 394.71 212.857 394.741 217C396.077 215.486 397.464 213.943 398.917 212.353C399.036 212.601 399.168 212.843 399.311 213.08C397.72 214.821 396.208 216.508 394.756 218.162C394.814 222.34 395.109 226.512 395.642 230.66C396.594 229.402 397.588 228.123 398.625 226.822C398.785 227.028 398.957 227.222 399.137 227.422C397.972 228.887 396.858 230.325 395.796 231.738C395.867 232.237 395.929 232.736 396.008 233.235H395.254C395.203 232.912 395.165 232.59 395.113 232.267L394.99 232.149C391.613 228.886 388.227 225.446 384.929 221.921L385.429 221.323Z" fill="#1C2A47"/>
<path d="M379.496 215.381C379.617 219.085 380.17 223.262 377.96 226.059C375.377 229.329 370.474 228.849 367.137 231.198C366.35 231.752 365.681 232.443 365.167 233.235H360.243C360.699 229.751 362.205 226.237 363.924 224.749C365.558 223.337 367.701 222.652 369.168 221.041C371.796 218.155 371.404 213.478 372.48 209.589C374.189 203.418 379.644 199.394 385.152 196.919C381.015 201.814 379.277 208.7 379.496 215.381Z" fill="#486DB7"/>
<path d="M365.217 227.276C364.04 228.609 362.957 230.741 361.992 233.235H355.687C355.522 231.386 355.384 229.79 355.297 228.673C354.734 221.504 354.36 213.653 358.779 207.846C361.252 204.595 365.018 202.332 367.14 198.861C368.78 196.173 369.287 192.985 369.391 189.873C369.501 187.099 369.241 184.322 368.614 181.61C368.16 179.711 367.34 177.067 366.739 174.773C370.827 179.333 374.123 185.211 376.165 190.879C378.665 197.797 379.182 205.588 376.305 212.367C373.887 218.051 369.339 222.593 365.217 227.276Z" fill="#DAE1F0"/>
<path d="M363.374 233.235H356.147C355.176 226.882 352.067 220.823 348.831 215.11C346.017 210.132 342.993 204.838 343.45 199.195C344.052 191.775 350.394 186.135 356.293 181.298C353.185 186.401 354.183 192.921 356.467 198.41C358.752 203.899 362.199 208.938 363.956 214.597C365.644 220.061 365.587 225.98 363.966 231.453C363.793 232.047 363.589 232.642 363.374 233.235Z" fill="#6C8AC5"/>
<path d="M354.467 233.235C354.189 233.04 353.899 232.862 353.599 232.702C349.519 230.515 343.879 231.353 340.602 228.17C337.799 225.442 338.08 221.107 337.903 217.273C337.583 210.379 334.974 203.401 329.756 198.649C336.357 200.812 343.029 204.576 345.542 210.815C347.126 214.746 347.071 219.595 350.367 222.383C352.209 223.941 354.752 224.495 356.77 225.837C358.678 227.106 360.525 230.074 361.483 233.244L354.467 233.235Z" fill="#DAE1F0"/>
<path fill-rule="evenodd" clip-rule="evenodd" d="M244.637 46.5976C236.818 46.2658 231.212 58.1721 231.212 58.1721C230.691 59.0775 230.13 60.0184 229.562 60.9731C229.045 61.841 228.521 62.7203 228.014 63.5948C226.235 66.6661 224.392 69.767 222.517 72.9214C212.123 90.409 200.752 109.541 193.894 134.398C189.927 148.765 203.158 145.954 232.163 139.792C233.639 139.478 235.156 139.156 236.714 138.827L232.755 116.891C231.317 117.181 224.095 119.129 219.989 120.246C219.705 120.327 219.403 120.334 219.114 120.267C218.826 120.199 218.563 120.059 218.351 119.861C218.14 119.663 217.989 119.415 217.914 119.143C217.838 118.871 217.842 118.584 217.924 118.314L218.827 115.249C223.363 99.8441 230.261 83.1601 236.931 67.0345C237.249 66.2641 237.543 65.5027 237.833 64.7437L244.637 63.5695V46.5976Z" fill="#B5C4E2"/>
<path fill-rule="evenodd" clip-rule="evenodd" d="M231.612 58.3594L231.603 58.3741C231.081 59.2828 230.519 60.2264 229.95 61.1806C229.433 62.0488 228.911 62.9259 228.405 63.7979C226.625 66.8714 224.781 69.9741 222.906 73.1279L222.906 73.1285C212.511 90.6176 201.167 109.707 194.325 134.505C193.341 138.071 193.467 140.435 194.496 141.939C195.512 143.425 197.513 144.212 200.688 144.372C203.851 144.53 208.057 144.058 213.309 143.154C218.556 142.25 224.811 140.921 232.065 139.38C233.41 139.094 234.79 138.801 236.203 138.502L232.395 117.404C230.286 117.899 223.9 119.622 220.115 120.651C219.755 120.754 219.372 120.762 219.007 120.676L219.114 120.267C219.403 120.334 219.705 120.327 219.989 120.246C223.776 119.216 230.215 117.478 232.32 116.987C232.497 116.946 232.644 116.913 232.755 116.891L236.714 138.827C235.156 139.156 233.639 139.478 232.163 139.792C203.158 145.954 189.927 148.765 193.894 134.398C200.752 109.541 212.123 90.409 222.517 72.9214C224.392 69.767 226.235 66.6661 228.014 63.5948C228.521 62.7203 229.045 61.841 229.562 60.9731C230.13 60.0184 230.691 59.0775 231.212 58.1721C231.212 58.1721 236.818 46.2658 244.637 46.5976V63.5695L237.833 64.7437C237.543 65.5027 237.249 66.2641 236.931 67.0345L236.515 66.8805C236.832 66.1157 237.124 65.3587 237.413 64.6002L237.5 64.3718L244.191 63.2172V47.0142C242.522 47.0436 240.945 47.6587 239.495 48.6129C237.921 49.6488 236.52 51.0696 235.346 52.5175C234.174 53.9634 233.241 55.4222 232.6 56.521C232.28 57.0699 232.034 57.5276 231.868 57.8473C231.785 58.0072 231.723 58.1324 231.681 58.2172C231.66 58.2595 231.644 58.2918 231.634 58.3132C231.629 58.3239 231.625 58.3319 231.623 58.337L231.62 58.3427L231.619 58.3439L231.619 58.3441L231.612 58.3594ZM218.398 115.135C222.941 99.706 229.848 83.0012 236.515 66.8805L236.931 67.0345C230.261 83.1601 223.363 99.8441 218.827 115.249L217.924 118.314C217.842 118.584 217.838 118.871 217.914 119.143C217.989 119.415 218.14 119.663 218.351 119.861C218.563 120.059 218.826 120.199 219.114 120.267L219.007 120.676C218.641 120.59 218.306 120.412 218.038 120.161C217.769 119.91 217.577 119.595 217.482 119.25C217.387 118.905 217.391 118.542 217.495 118.199C217.495 118.198 217.495 118.198 217.496 118.197L218.398 115.135C218.398 115.135 218.398 115.135 218.398 115.135Z" fill="#1C2A47"/>
<path d="M245.595 69.8438C249.797 69.8438 253.204 65.2423 253.204 59.5661C253.204 53.8898 249.797 49.2883 245.595 49.2883C241.394 49.2883 237.987 53.8898 237.987 59.5661C237.987 65.2423 241.394 69.8438 245.595 69.8438Z" fill="#ECF0F7"/>
<path d="M339.174 35.9414C339.784 38.7081 339.816 41.672 341.217 44.1455C342.423 46.2551 344.512 47.7664 345.888 49.7748C347.264 51.7831 347.703 54.8323 345.747 56.4569C344.82 57.2285 343.541 57.5111 342.616 58.2787C340.01 60.4456 341.755 64.3198 342.132 67.5316C342.554 71.1299 340.739 74.952 337.59 77.0936C335.327 78.6342 332.223 79.6351 331.428 82.1579C330.806 84.1476 331.933 86.4678 330.76 88.2323C329.035 90.8204 324.647 89.3811 321.932 91.0216C320.02 92.1784 319.442 94.5213 318.371 96.419C316.375 99.96 312.09 102.238 307.961 101.955C305.752 101.803 303.545 100.992 301.377 101.525C298.577 102.215 296.551 105 293.688 105.269C287.742 105.82 287.486 99.1244 284.171 95.101C280.001 90.0368 270.435 89.2372 269.259 82.8309C268.977 81.329 269.228 79.6058 268.229 78.433C267.23 77.2602 265.291 77.1097 264.149 76.0342C262.002 74.0151 263.687 70.2143 263.047 67.5049C262.915 67.2664 262.262 65.879 262.092 65.7271C254.391 50.3225 255.594 33.4546 266.594 24.1911C275.7 16.5161 289.347 15.9097 302.291 21.2591C302.432 21.1712 302.518 21.0632 302.66 20.9793C306.036 18.9669 309.785 18.8709 313.563 19.6466C320.493 21.0566 321.665 27.4548 327.254 29.4232C329.393 30.1735 331.871 29.1407 334.099 29.6258C336.978 30.2521 338.565 33.1761 339.174 35.9414Z" fill="#273B63"/>
<path d="M272.202 63.143C276.056 61.7397 283.099 61.2533 286.115 59.9979C288.15 59.1503 290.233 58.2267 291.948 56.9247C292.819 56.2583 294.023 55.1215 295.028 52.9692C295.014 52.9946 294.378 50.2839 294.941 52.3029C293.607 47.5398 294.189 43.3925 295.975 39.9995C296.062 37.8165 295.816 35.2777 294.039 31.934C290.088 24.4949 286.698 24.3377 283.371 21.9161C280.103 19.5426 280.162 19.9651 275.633 17.99C271.671 16.2575 266.949 16.3428 262.971 18.014C262.971 18.014 260.636 19.1655 259.768 19.8212C258.832 20.5275 257.967 21.3124 257.078 22.0721C255.867 22.3519 251.324 23.6833 250.013 26.29C247.44 31.4103 248.419 34.1529 248.419 34.1529C251.406 34.5194 255.144 31.5982 257.451 32.7576C258.457 33.372 258.887 33.6678 259.409 34.2236C262.223 37.2088 264.55 39.6516 264.474 43.9602C264.413 47.4945 261.942 51.1448 263.703 54.3552C265.273 57.2205 269.541 58.244 271.355 60.9987C271.773 61.6584 272.06 62.3852 272.202 63.143V63.143Z" fill="#273B63"/>
<path d="M260.991 141.132L231.911 147.662C227.831 148.579 224.521 146.038 224.691 142.114L225.685 119.359C225.842 115.76 227.419 114.828 231.171 114.001C244.892 110.963 273.981 101.888 273.981 101.888L276.548 120.798C277.729 129.538 270.49 139 260.991 141.132Z" fill="#486DB7"/>
<path d="M254.525 204.568C254.402 209.887 254.19 214.42 253.916 218.337H335.814C329.297 209.674 322.97 201.514 322.434 186.636C321.872 171.156 326.092 164.469 327.64 150.572C327.64 150.58 333.098 122.06 312.717 109.598L308.38 106.951C295.832 99.6442 277.875 93.2246 260.644 108.397C255.832 112.638 252.454 118.167 250.873 124.326C250.169 127.044 249.606 129.771 249.093 132.098C249.078 132.137 249.067 132.177 249.062 132.218C248.869 133.091 248.728 133.973 248.64 134.861C248.581 135.479 248.543 136.099 248.52 136.726L248.599 136.785C248.308 153.117 255.246 173.152 254.525 204.568Z" fill="#486DB7"/>
<path d="M278.781 73.6447C282.761 70.7967 290.755 68.002 293.813 65.5925C295.877 63.9693 297.969 62.2368 299.503 60.1818C300.281 59.1369 301.28 57.4351 301.693 54.6218C301.693 54.6551 300.005 51.7152 301.358 53.8701C298.151 48.7726 297.378 43.7803 298.263 39.2825C297.602 36.7224 296.434 33.8584 293.199 30.5453C286.024 23.1729 282.04 24.0591 277.339 22.312C272.724 20.5955 272.939 21.0659 267 20.2103C263.095 19.6479 258.431 20.4329 254.646 22.2093C252.71 23.1209 251.113 24.5815 249.964 26.3234C249.716 26.7005 249.466 27.0644 249.249 27.3522C249.119 27.5246 248.992 27.6987 248.868 27.8746C247.584 29.6442 246.031 31.2241 244.259 32.563C242.51 33.9077 240.728 35.8695 240.199 37.9391C238.112 46.0939 241.095 51.434 241.095 51.434C244.684 50.9129 247.998 42.4716 251.083 43.0847C252.462 43.4845 253.064 43.6857 253.863 44.1628C258.164 46.7336 261.715 48.8272 263.133 53.8448C264.297 57.9602 262.711 62.9724 265.864 66.1323C268.677 68.9562 273.987 68.7976 277.051 71.4097C277.769 72.0465 278.356 72.8044 278.781 73.6447Z" fill="#273B63"/>
<path d="M287.593 72.128C286.485 75.3065 284.993 77.9506 283.157 79.951C283.138 79.9696 283.144 80.0469 283.126 80.0296C277.93 74.9747 278.231 69.0509 278.231 69.0509C279.654 68.0193 280.623 65.6365 280.565 62.8752C280.492 59.2102 278.646 56.277 276.443 56.325C276.276 56.325 276.132 56.4436 275.975 56.4942L290.606 43.5671C292.453 50.0133 292.113 59.1409 287.593 72.128Z" fill="#273B63"/>
<path fill-rule="evenodd" clip-rule="evenodd" d="M274.774 102.898L264.37 73.666C263.685 71.7376 264.404 69.7452 265.969 69.2388L277.352 65.5605C278.918 65.0541 280.76 66.2189 281.446 68.1473L294.323 104.329C294.493 104.802 294.577 105.278 294.585 105.736C295.793 107.504 295.373 109.949 293.34 111.681C289.444 115.002 285.606 118.369 281.827 121.782C279.634 123.763 275.989 123.521 274.831 121.306C272.16 116.194 271.485 114.981 270.901 113.73C270.491 112.85 270.126 111.951 269.143 109.663C267.905 106.781 271.017 104.4 274.774 102.898Z" fill="#B5C4E2"/>
<path fill-rule="evenodd" clip-rule="evenodd" d="M275.328 103.135L274.947 103.288C273.095 104.028 271.446 104.969 270.416 106.046C269.4 107.109 269.021 108.257 269.556 109.504C269.882 110.262 270.139 110.866 270.352 111.367C270.785 112.384 271.036 112.975 271.309 113.559C271.695 114.387 272.12 115.195 273.157 117.165C273.673 118.146 274.341 119.415 275.231 121.118C275.724 122.061 276.761 122.614 277.973 122.696C279.183 122.778 280.518 122.381 281.519 121.476C285.301 118.061 289.142 114.691 293.041 111.367C294.944 109.746 295.278 107.527 294.211 105.965L294.141 105.864L294.139 105.743C294.132 105.329 294.056 104.896 293.901 104.464L293.9 104.463L281.023 68.2822C281.023 68.2822 281.023 68.2822 281.023 68.2822C280.709 67.3993 280.135 66.7052 279.481 66.2921C278.828 65.8791 278.12 65.7585 277.496 65.9602L266.114 69.6384C266.114 69.6384 266.114 69.6384 266.114 69.6384C265.49 69.8403 265.003 70.3476 264.748 71.0558C264.492 71.7638 264.479 72.6484 264.792 73.5311C264.792 73.5312 264.793 73.5313 264.793 73.5313L275.328 103.135ZM264.37 73.666C263.685 71.7376 264.404 69.7452 265.969 69.2388L277.352 65.5605C278.918 65.0541 280.76 66.2189 281.446 68.1473L294.323 104.329C294.493 104.802 294.577 105.278 294.585 105.736C295.793 107.504 295.373 109.949 293.34 111.681C289.444 115.002 285.606 118.369 281.827 121.782C279.634 123.763 275.989 123.521 274.831 121.306C273.947 119.613 273.281 118.348 272.765 117.368C271.723 115.387 271.292 114.567 270.901 113.73C270.625 113.139 270.37 112.539 269.935 111.516C269.722 111.016 269.466 110.415 269.143 109.663C267.905 106.781 271.017 104.4 274.774 102.898L264.37 73.666Z" fill="#1C2A47"/>
<path fill-rule="evenodd" clip-rule="evenodd" d="M239.499 50.1489C239.364 43.9119 242.401 38.3319 247.132 34.6284L280.928 49.8611L281.079 56.9237C284.146 57.0837 286.631 59.9571 286.707 63.5265C286.786 67.2394 284.231 70.3019 280.995 70.3645C280.876 70.3668 280.757 70.365 280.639 70.3592C278.416 78.7357 270.484 85.0596 260.974 85.2454C249.582 85.468 240.073 76.8001 239.839 65.9827L239.499 50.1489Z" fill="#B5C4E2"/>
<path fill-rule="evenodd" clip-rule="evenodd" d="M281.079 56.9237L280.928 49.8611L247.132 34.6284C242.401 38.3319 239.364 43.9119 239.499 50.1489L239.839 65.9827C240.073 76.8001 249.582 85.468 260.974 85.2454C270.484 85.0596 278.416 78.7357 280.639 70.3592C280.757 70.365 280.876 70.3668 280.995 70.3645C284.231 70.3019 286.786 67.2394 286.707 63.5265C286.631 59.9571 284.146 57.0837 281.079 56.9237ZM240.285 65.9741C240.285 65.9741 240.285 65.974 240.285 65.9741C240.514 76.5595 249.82 85.0409 260.965 84.8232C270.267 84.6415 278.031 78.4545 280.207 70.2563L280.296 69.9195L280.663 69.9375C280.77 69.9428 280.878 69.9444 280.986 69.9423C283.899 69.8859 286.337 67.0948 286.261 63.535C286.189 60.1169 283.822 57.4897 281.055 57.3453L280.642 57.3238L280.487 50.1303L247.199 35.1262C242.689 38.7538 239.815 44.1383 239.945 50.1403L240.285 65.9741Z" fill="#1C2A47"/>
<path d="M286.954 42.1131C284.538 37.562 283.76 31.7874 279.41 28.8648C276.719 27.0563 273.22 26.8085 269.949 27.0284C266.01 27.2949 262.143 28.1438 258.292 28.9914L249.893 30.8399C249.571 30.9105 249.236 30.9878 248.983 31.193C248.702 31.4209 248.57 31.7701 248.447 32.1019C247.97 33.3933 246.087 36.5331 246.478 37.8632C246.915 39.3544 248.906 39.3758 250.225 39.4384C263.796 40.0794 271.833 47.4479 274.882 51.7138C277.396 55.2308 278.783 59.4155 281.384 62.8725C283.072 65.1139 285.237 66.9949 287.74 68.3938C287.844 68.4525 287.96 68.4978 288.065 68.5538L295.029 52.1803C292.185 48.9299 288.954 45.886 286.954 42.1131Z" fill="#273B63"/>
<path d="M286.522 69.5959C290.724 69.5959 294.13 64.9944 294.13 59.3182C294.13 53.642 290.724 49.0405 286.522 49.0405C282.32 49.0405 278.914 53.642 278.914 59.3182C278.914 64.9944 282.32 69.5959 286.522 69.5959Z" fill="#ECF0F7"/>
<path d="M289.603 69.5959C293.805 69.5959 297.211 64.9944 297.211 59.3182C297.211 53.642 293.805 49.0405 289.603 49.0405C285.401 49.0405 281.995 53.642 281.995 59.3182C281.995 64.9944 285.401 69.5959 289.603 69.5959Z" fill="#1C2A47"/>
<path d="M289.149 51.7925C288.975 51.7923 288.807 51.7287 288.682 51.6148C288.556 51.5008 288.481 51.3454 288.473 51.1808C287.995 41.4628 284.73 33.949 278.766 28.8448C269.664 21.0552 257.241 21.6043 257.122 21.611C257.033 21.6157 256.944 21.6038 256.86 21.576C256.776 21.5482 256.699 21.505 256.633 21.4489C256.566 21.3927 256.512 21.3248 256.474 21.2489C256.435 21.173 256.413 21.0907 256.408 21.0066C256.403 20.9225 256.415 20.8383 256.445 20.7588C256.474 20.6793 256.52 20.6061 256.579 20.5432C256.638 20.4804 256.71 20.4293 256.79 20.3928C256.87 20.3562 256.957 20.335 257.046 20.3302C257.578 20.3049 270.129 19.7372 279.662 27.884C285.909 33.2254 289.327 41.043 289.824 51.1221C289.831 51.2913 289.767 51.4563 289.647 51.5812C289.526 51.706 289.358 51.7805 289.18 51.7885L289.149 51.7925Z" fill="#1C2A47"/>
<path d="M267.582 80.0376C267.492 80.039 267.406 80.0066 267.341 79.9477C267.277 79.8887 267.24 79.8079 267.238 79.7231C267.237 79.6382 267.271 79.5563 267.333 79.4953C267.395 79.4343 267.481 79.3993 267.57 79.3979C285.98 78.7928 288.341 66.6227 288.363 66.5001C288.371 66.4586 288.387 66.4189 288.41 66.3832C288.434 66.3476 288.464 66.3166 288.5 66.2922C288.537 66.2677 288.577 66.2503 288.621 66.2408C288.664 66.2313 288.709 66.23 288.752 66.2369C288.796 66.2438 288.838 66.2588 288.876 66.2811C288.913 66.3033 288.946 66.3324 288.972 66.3666C288.998 66.4008 289.016 66.4395 289.026 66.4805C289.036 66.5215 289.038 66.5639 289.03 66.6054C289.008 66.7386 286.55 79.4152 267.594 80.0376H267.582Z" fill="#1C2A47"/>
<path d="M268.609 78.8475H266.504C266.161 78.8475 265.884 79.1106 265.884 79.4352V80.0815C265.884 80.4061 266.161 80.6693 266.504 80.6693H268.609C268.951 80.6693 269.229 80.4061 269.229 80.0815V79.4352C269.229 79.1106 268.951 78.8475 268.609 78.8475Z" fill="#ECF0F7"/>
<path fill-rule="evenodd" clip-rule="evenodd" d="M229.937 163.278H229.84L220.181 161.085C218.189 160.634 216.101 161.642 215.43 163.484C215.046 164.56 214.798 165.656 215.046 166.365C215.998 169.101 218.546 172.585 220.905 173.862C224.62 175.87 232.691 175.201 237.778 173.297C237.918 173.364 238.058 173.432 238.198 173.5C239.025 173.9 239.863 174.305 240.697 174.695C242.751 175.656 244.804 176.629 246.867 177.607C264.579 186.006 283.051 194.766 309.683 199.074C324.977 201.555 323.723 188.949 320.193 158.484L296.858 164.589C296.999 165.922 298.189 172.461 298.899 176.362L298.944 176.613C299.158 177.809 297.905 179.03 296.693 178.813L293.59 178.254C278.013 175.453 261.368 170.498 245.271 165.7C244.353 165.426 243.115 165.068 241.899 164.717C240.991 164.454 240.095 164.195 239.354 163.977C239.144 163.792 238.954 163.626 238.782 163.474C237.171 162.055 237.04 161.94 234.688 160.516C232.894 159.426 230.904 158.658 228.816 158.251C227.865 158.069 227.468 159.076 228.134 159.669C228.93 160.38 229.697 161.312 230.478 162.956C230.573 163.159 230.181 163.248 229.937 163.278Z" fill="#B5C4E2"/>
<path fill-rule="evenodd" clip-rule="evenodd" d="M229.788 163.7L220.077 161.496C220.077 161.496 220.077 161.496 220.077 161.496C218.295 161.092 216.444 161.998 215.852 163.621C215.665 164.145 215.516 164.662 215.442 165.125C215.367 165.596 215.378 165.97 215.469 166.233L215.469 166.233C215.929 167.552 216.78 169.069 217.809 170.413C218.842 171.762 220.025 172.899 221.127 173.495C222.87 174.438 225.71 174.778 228.804 174.625C231.88 174.472 235.121 173.837 237.614 172.904L237.802 172.834L237.981 172.92C238.115 172.985 238.25 173.05 238.384 173.115L238.401 173.123C239.229 173.524 240.063 173.928 240.894 174.316C242.949 175.277 245.003 176.251 247.065 177.229L247.067 177.23C264.776 185.627 283.197 194.361 309.758 198.657L309.758 198.658C313.535 199.27 316.181 198.932 318.018 197.717C319.852 196.503 320.987 194.343 321.557 191.065C322.127 187.79 322.12 183.476 321.746 178.055C321.38 172.756 320.665 166.429 319.807 159.023L297.346 164.899C297.605 166.765 298.676 172.651 299.338 176.29L299.384 176.542C299.52 177.3 299.189 178.034 298.674 178.537C298.159 179.039 297.399 179.369 296.61 179.228L296.61 179.228L293.507 178.669C277.9 175.863 261.228 170.899 245.137 166.103C244.221 165.83 242.985 165.472 241.769 165.12L241.768 165.12C240.86 164.857 239.963 164.598 239.222 164.38L239.125 164.352L239.051 164.287C238.84 164.102 238.651 163.935 238.478 163.783C237.669 163.07 237.249 162.701 236.741 162.332C236.231 161.961 235.627 161.586 234.448 160.872L234.447 160.872C232.7 159.81 230.761 159.061 228.727 158.665C228.577 158.636 228.478 158.659 228.419 158.688C228.357 158.718 228.309 158.767 228.28 158.833C228.221 158.966 228.236 159.18 228.439 159.361L228.44 159.362C229.283 160.115 230.082 161.093 230.884 162.783L230.885 162.784C230.971 162.968 230.952 163.167 230.835 163.328C230.741 163.456 230.609 163.527 230.523 163.565C230.342 163.644 230.128 163.68 229.994 163.697L229.966 163.7H229.788ZM228.816 158.251C230.904 158.658 232.894 159.426 234.688 160.516C237.04 161.94 237.171 162.055 238.782 163.474C238.954 163.626 239.144 163.792 239.354 163.977C240.095 164.195 240.991 164.454 241.899 164.717L241.899 164.717C243.115 165.068 244.353 165.426 245.271 165.7C261.368 170.498 278.013 175.453 293.59 178.254L296.693 178.813C297.905 179.03 299.158 177.809 298.944 176.613L298.899 176.362C298.189 172.461 296.999 165.922 296.858 164.589L320.193 158.484C320.21 158.626 320.226 158.768 320.243 158.909C323.735 189.067 324.905 201.544 309.683 199.074C283.051 194.766 264.579 186.006 246.867 177.607L246.866 177.607C244.803 176.629 242.751 175.656 240.697 174.695C239.863 174.305 239.026 173.9 238.198 173.5L238.198 173.5L238.185 173.493C238.049 173.427 237.913 173.362 237.778 173.297C232.691 175.201 224.62 175.87 220.905 173.862C218.546 172.585 215.998 169.101 215.046 166.365C214.798 165.656 215.046 164.56 215.43 163.484C216.101 161.642 218.189 160.634 220.181 161.085L229.84 163.278H229.937C230.181 163.248 230.573 163.159 230.478 162.956C229.697 161.312 228.93 160.38 228.134 159.669C227.468 159.076 227.865 158.069 228.816 158.251Z" fill="#1C2A47"/>
<path d="M326.867 134.314L330.458 161.818C330.579 162.73 330.503 163.656 330.233 164.539C329.962 165.422 329.505 166.243 328.887 166.952C328.27 167.661 327.506 168.243 326.642 168.662C325.778 169.081 324.833 169.328 323.865 169.388L300.22 170.779C296.48 170.999 295.686 169.567 295.236 166.02C293.586 153.039 287.336 125.789 287.336 125.789L307.359 121.347C316.614 119.293 325.695 125.33 326.867 134.314Z" fill="#486DB7"/>
<path d="M298.13 171.552C297.381 171.335 296.708 170.928 296.184 170.376C295.66 169.823 295.305 169.147 295.156 168.418L287.586 130.836C287.562 130.743 287.559 130.647 287.576 130.552C287.593 130.458 287.631 130.369 287.685 130.288C287.74 130.208 287.811 130.139 287.895 130.086C287.979 130.033 288.073 129.996 288.172 129.978C288.271 129.96 288.372 129.961 288.471 129.981C288.569 130.001 288.663 130.04 288.745 130.096C288.827 130.151 288.897 130.221 288.949 130.303C289.002 130.384 289.037 130.475 289.051 130.569L296.622 168.151C296.753 168.804 297.137 169.386 297.699 169.783C298.261 170.179 298.96 170.362 299.658 170.294L306.989 169.557C307.185 169.542 307.38 169.6 307.532 169.719C307.683 169.838 307.78 170.008 307.8 170.194C307.82 170.379 307.763 170.565 307.641 170.711C307.518 170.857 307.34 170.952 307.145 170.975L299.812 171.712C299.246 171.768 298.673 171.714 298.13 171.552Z" fill="#91A7D3"/>
<path d="M379.589 87.7859C371.524 87.7859 364.958 81.5129 364.958 73.8032C364.958 66.0936 371.519 59.8206 379.589 59.8206C387.659 59.8206 394.22 66.0923 394.22 73.8032C394.22 81.5142 387.654 87.7859 379.589 87.7859ZM379.589 60.0658C371.668 60.0658 365.225 66.2242 365.225 73.7926C365.225 81.3609 371.668 87.5193 379.589 87.5193C387.509 87.5193 393.953 81.3596 393.953 73.7926C393.953 66.2255 387.509 60.0725 379.589 60.0725V60.0658Z" fill="#6C8AC5"/>
<path d="M374.437 71.7202C371.582 73.2515 370.205 76.3473 370.8 79.2686C370.851 79.5097 370.962 79.736 371.123 79.9288C371.284 80.1216 371.491 80.2756 371.727 80.3779C371.963 80.4803 372.221 80.5281 372.48 80.5176C372.74 80.5071 372.993 80.4385 373.219 80.3174L376.542 78.5343C376.795 78.3979 376.981 78.1725 377.06 77.9068C377.139 77.6411 377.105 77.3566 376.964 77.115L375.838 75.1986C375.708 74.9772 375.676 74.7161 375.747 74.4721C375.819 74.2281 375.99 74.0208 376.222 73.8952L382.031 70.7793C382.146 70.7177 382.272 70.6782 382.403 70.6633C382.534 70.6483 382.667 70.6582 382.794 70.6923C382.92 70.7264 383.039 70.7841 383.142 70.8619C383.245 70.9398 383.331 71.0363 383.394 71.1458L384.52 73.0609C384.589 73.1802 384.682 73.2853 384.794 73.3702C384.907 73.455 385.035 73.5178 385.174 73.555C385.312 73.5922 385.456 73.603 385.599 73.5869C385.741 73.5707 385.879 73.5278 386.004 73.4607L389.327 71.6789C389.553 71.557 389.747 71.3865 389.891 71.1812C390.036 70.9758 390.127 70.7413 390.159 70.4963C390.191 70.2514 390.161 70.0028 390.073 69.7705C389.985 69.5383 389.841 69.3288 389.652 69.1588C388.505 68.1533 387.052 67.5181 385.5 67.3448C383.948 67.1714 382.379 67.4687 381.017 68.1939L374.437 71.7202Z" fill="#6C8AC5"/>
<path d="M385.067 96.7535C385.019 96.757 384.971 96.7499 384.926 96.7326C384.882 96.7154 384.842 96.6886 384.811 96.6543C384.779 96.6201 384.756 96.5793 384.744 96.5352C384.732 96.4911 384.731 96.4449 384.741 96.4004C384.767 96.3007 384.827 96.2122 384.913 96.1491C384.998 96.086 385.104 96.052 385.212 96.0526C385.26 96.0491 385.308 96.0562 385.353 96.0735C385.397 96.0907 385.437 96.1175 385.468 96.1518C385.5 96.186 385.523 96.2268 385.535 96.2709C385.547 96.315 385.548 96.3612 385.538 96.4057C385.512 96.5053 385.452 96.5937 385.366 96.6567C385.281 96.7198 385.175 96.7539 385.067 96.7535Z" fill="#6C8AC5"/>
<path d="M384.691 98.5727C384.643 98.5759 384.595 98.5686 384.551 98.5512C384.506 98.5338 384.467 98.5069 384.435 98.4725C384.403 98.4381 384.381 98.3973 384.368 98.3531C384.356 98.309 384.355 98.2628 384.365 98.2182C384.391 98.1187 384.452 98.0305 384.538 97.9674C384.623 97.9044 384.728 97.8702 384.836 97.8704C384.884 97.8671 384.933 97.8745 384.977 97.8918C385.022 97.9092 385.061 97.9362 385.093 97.9705C385.125 98.0049 385.147 98.0458 385.159 98.0899C385.172 98.134 385.173 98.1802 385.163 98.2249C385.136 98.3243 385.076 98.4126 384.99 98.4756C384.905 98.5386 384.8 98.5728 384.691 98.5727V98.5727Z" fill="#6C8AC5"/>
<path d="M384.316 100.393C384.268 100.396 384.22 100.389 384.176 100.372C384.131 100.354 384.092 100.328 384.06 100.293C384.029 100.259 384.006 100.218 383.993 100.175C383.981 100.131 383.98 100.085 383.99 100.04C384.016 99.9404 384.076 99.852 384.162 99.789C384.247 99.7259 384.353 99.6918 384.461 99.6921C384.509 99.6887 384.557 99.6959 384.602 99.7131C384.646 99.7304 384.686 99.7571 384.718 99.7914C384.749 99.8256 384.772 99.8664 384.785 99.9104C384.797 99.9545 384.798 100.001 384.789 100.045C384.762 100.145 384.701 100.233 384.616 100.296C384.53 100.36 384.424 100.394 384.316 100.393V100.393Z" fill="#6C8AC5"/>
<path d="M383.942 102.218C383.894 102.221 383.845 102.213 383.801 102.196C383.756 102.179 383.717 102.152 383.685 102.117C383.653 102.083 383.63 102.042 383.618 101.998C383.605 101.954 383.604 101.908 383.614 101.863C383.641 101.764 383.701 101.676 383.787 101.613C383.872 101.55 383.977 101.516 384.085 101.515C384.133 101.512 384.181 101.519 384.226 101.537C384.27 101.554 384.31 101.581 384.342 101.615C384.374 101.65 384.397 101.691 384.409 101.735C384.421 101.779 384.423 101.825 384.413 101.87C384.386 101.969 384.325 102.057 384.24 102.12C384.155 102.183 384.05 102.217 383.942 102.218V102.218Z" fill="#6C8AC5"/>
<path d="M381.82 96.2072L375.468 96.1579L375.287 97.0361L381.639 97.0854L381.82 96.2072Z" fill="#6C8AC5"/>
<path d="M381.466 97.9237L375.114 97.8744L374.934 98.7526L381.285 98.8019L381.466 97.9237Z" fill="#6C8AC5"/>
<path d="M380.758 101.357L371.148 101.282L370.966 102.16L380.578 102.235L380.758 101.357Z" fill="#6C8AC5"/>
<path d="M372.209 96.1325L372.027 97.0108L374.288 97.0281L374.468 96.1498L372.209 96.1325Z" fill="#6C8AC5"/>
<path d="M371.854 97.849L371.674 98.7273L373.933 98.7446L374.115 97.8663L371.854 97.849Z" fill="#6C8AC5"/>
<path d="M156.887 220.53C156.738 220.53 156.595 220.479 156.482 220.387C156.369 220.296 156.295 220.168 156.274 220.029L150.335 182.39C150.315 182.237 150.358 182.083 150.456 181.96C150.555 181.838 150.699 181.756 150.86 181.733C151.021 181.711 151.184 181.748 151.316 181.838C151.448 181.928 151.537 182.064 151.565 182.215L157.502 219.854C157.526 220.008 157.484 220.165 157.386 220.29C157.288 220.415 157.142 220.498 156.98 220.521C156.949 220.527 156.918 220.53 156.887 220.53V220.53Z" fill="#324B7F"/>
<path fill-rule="evenodd" clip-rule="evenodd" d="M132.397 118.225C132.221 118.215 132.05 118.246 131.903 118.335C131.897 118.339 131.891 118.343 131.886 118.347C132.088 118.336 132.294 118.324 132.496 118.313C132.463 118.284 132.43 118.255 132.397 118.225ZM134.309 119.419C134.226 120.032 134.189 120.651 134.197 121.271C134.197 122.031 133.234 127.681 132.79 128.688C132.69 128.918 132.534 128.93 132.332 128.946C132.221 128.954 132.096 128.964 131.959 129.011C131.434 129.186 131.151 129.37 130.945 129.504C130.556 129.758 130.443 129.832 129.483 129.315C129.44 129.293 128.991 129.199 128.441 129.085C127.504 128.89 126.274 128.634 126.247 128.561C126.205 128.445 127.65 123.088 127.695 122.981C127.936 122.407 128.024 121.878 128.121 121.292C128.142 121.165 128.164 121.035 128.187 120.902C128.232 120.649 128.23 120.311 128.229 119.972C128.227 119.547 128.225 119.122 128.314 118.866C128.457 118.459 129.016 118.464 129.49 118.469C129.606 118.47 129.716 118.471 129.814 118.466C129.889 118.462 130.133 118.448 130.473 118.428L130.473 118.428L130.603 118.421L129.428 117.734C129.382 117.349 129.325 117.061 129.302 116.943C128.775 115.871 128.546 114.69 128.638 113.511L129.036 108.713C129.192 106.826 130.203 105.325 131.61 104.49L139.813 108.619C139.813 108.617 139.813 108.616 139.813 108.615L140.33 108.881L140.02 115.723C139.946 116.535 139.672 117.319 139.221 118.013C138.77 118.707 138.154 119.292 137.422 119.72C137.158 119.779 136.89 119.815 136.62 119.828C135.824 119.851 135.036 119.71 134.309 119.419ZM139.811 108.913C139.811 109.022 139.813 109.131 139.815 109.242V109.242L139.815 109.242C139.815 109.294 139.816 109.347 139.817 109.4C139.817 109.288 139.816 109.177 139.814 109.067C139.813 109.016 139.812 108.964 139.811 108.913Z" fill="white"/>
<path fill-rule="evenodd" clip-rule="evenodd" d="M132.492 118.019L132.551 118.072C132.583 118.101 132.615 118.129 132.647 118.157L133.037 118.494L132.51 118.523C132.307 118.535 132.102 118.546 131.899 118.558L131.318 118.591L130.489 118.639L130.486 118.639L130.464 118.64C130.136 118.659 129.9 118.673 129.826 118.677L129.825 118.677C129.721 118.682 129.605 118.681 129.493 118.68L129.488 118.68C129.244 118.678 129.015 118.677 128.83 118.719C128.652 118.759 128.563 118.826 128.526 118.932C128.491 119.032 128.47 119.18 128.46 119.367C128.45 119.551 128.451 119.757 128.452 119.971L128.452 119.985C128.453 120.313 128.455 120.666 128.407 120.937L128.407 120.937C128.384 121.069 128.363 121.198 128.341 121.325L128.34 121.334C128.244 121.914 128.153 122.463 127.902 123.059M127.902 123.059C127.904 123.055 127.903 123.057 127.9 123.068C127.897 123.077 127.893 123.092 127.886 123.116C127.873 123.16 127.855 123.222 127.834 123.3C127.79 123.457 127.73 123.675 127.66 123.934C127.519 124.453 127.335 125.136 127.155 125.819C126.974 126.502 126.796 127.185 126.666 127.704C126.601 127.964 126.549 128.181 126.514 128.336C126.506 128.372 126.498 128.404 126.493 128.432C126.505 128.436 126.518 128.44 126.533 128.444C126.661 128.479 126.842 128.523 127.055 128.572C127.48 128.669 128.02 128.781 128.488 128.878L128.489 128.879C128.764 128.936 129.014 128.988 129.202 129.029C129.295 129.049 129.375 129.067 129.434 129.081C129.464 129.088 129.491 129.095 129.512 129.101L129.514 129.102C129.528 129.106 129.562 129.115 129.591 129.131L129.593 129.132C130.081 129.394 130.306 129.478 130.445 129.488C130.552 129.496 130.614 129.464 130.819 129.33C131.031 129.192 131.332 128.996 131.884 128.812C132.049 128.756 132.198 128.744 132.307 128.736L132.313 128.735C132.424 128.727 132.471 128.72 132.505 128.705C132.522 128.698 132.551 128.683 132.585 128.607L132.585 128.606C132.686 128.376 132.825 127.855 132.979 127.167C133.131 126.488 133.292 125.666 133.44 124.851C133.588 124.036 133.722 123.229 133.819 122.579C133.917 121.923 133.974 121.445 133.974 121.272C133.966 120.643 134.004 120.015 134.088 119.392L134.125 119.116L134.396 119.224C135.093 119.504 135.848 119.639 136.611 119.617C136.855 119.605 137.097 119.573 137.335 119.522C138.024 119.113 138.605 118.559 139.031 117.903C139.463 117.238 139.726 116.487 139.798 115.709L140.101 109.003L140.035 108.97C140.036 109.001 140.036 109.032 140.037 109.064L140.037 109.065C140.039 109.174 140.04 109.287 140.04 109.401L139.594 109.402C139.593 109.35 139.592 109.298 139.592 109.246C139.592 109.246 139.592 109.245 139.592 109.245L139.592 109.245V109.243C139.59 109.133 139.588 109.023 139.588 108.913L139.919 108.911L131.621 104.734C130.332 105.545 129.405 106.955 129.258 108.73L128.86 113.526C128.86 113.526 128.86 113.527 128.86 113.527C128.772 114.67 128.993 115.815 129.504 116.853L129.515 116.877L129.521 116.903C129.543 117.014 129.592 117.267 129.637 117.608L131.239 118.544L131.751 118.179C131.758 118.174 131.766 118.169 131.773 118.164L131.777 118.161L131.782 118.158C131.978 118.039 132.199 118.002 132.411 118.014L132.492 118.019M129.428 117.734C129.382 117.349 129.325 117.061 129.302 116.943C128.775 115.871 128.546 114.69 128.638 113.511L129.036 108.713C129.192 106.826 130.203 105.325 131.61 104.49L139.813 108.619L139.813 108.615L140.33 108.881L140.02 115.723C139.946 116.535 139.672 117.319 139.221 118.013C138.77 118.707 138.154 119.292 137.422 119.72C137.158 119.779 136.89 119.815 136.62 119.828C135.902 119.849 135.19 119.736 134.523 119.5C134.451 119.474 134.38 119.447 134.309 119.419C134.299 119.491 134.29 119.564 134.282 119.637C134.218 120.179 134.19 120.725 134.197 121.271C134.197 122.031 133.234 127.681 132.79 128.688C132.69 128.918 132.534 128.93 132.332 128.946C132.221 128.954 132.096 128.964 131.959 129.011C131.434 129.186 131.151 129.37 130.945 129.504C130.556 129.758 130.443 129.832 129.483 129.315C129.44 129.293 128.991 129.199 128.441 129.085C127.504 128.89 126.274 128.634 126.247 128.561C126.205 128.445 127.65 123.088 127.695 122.981C127.936 122.407 128.024 121.878 128.121 121.292C128.142 121.165 128.164 121.035 128.187 120.902C128.232 120.649 128.23 120.311 128.229 119.972C128.227 119.547 128.225 119.122 128.314 118.866C128.457 118.459 129.016 118.464 129.49 118.469C129.606 118.47 129.716 118.471 129.814 118.466C129.868 118.463 130.011 118.455 130.216 118.443C130.288 118.439 130.368 118.434 130.455 118.429L130.473 118.428L130.603 118.421L130.467 118.342L130.465 118.34L129.428 117.734ZM139.817 109.4C139.816 109.347 139.815 109.294 139.815 109.242L139.815 109.242C139.814 109.183 139.813 109.125 139.812 109.067C139.812 109.016 139.811 108.964 139.811 108.913C139.812 108.964 139.813 109.016 139.814 109.067C139.815 109.125 139.816 109.183 139.816 109.242C139.817 109.294 139.817 109.347 139.817 109.4ZM131.911 118.346C131.911 118.346 131.91 118.346 131.91 118.346C131.902 118.346 131.894 118.347 131.886 118.347C131.891 118.343 131.897 118.339 131.903 118.335C132.05 118.246 132.221 118.215 132.397 118.225C132.43 118.255 132.463 118.284 132.496 118.313C132.462 118.315 132.426 118.317 132.391 118.319C132.36 118.32 132.329 118.322 132.298 118.324C132.169 118.331 132.039 118.338 131.911 118.346Z" fill="#273B63"/>
<path d="M141.047 105.683C140.582 104.588 139.069 104.437 137.952 104.014C136.196 103.348 136.868 103.502 135.983 102.681C135.583 102.311 133.699 101.914 133.162 101.856C133.076 101.982 133.659 102.354 133.545 102.467C133.296 102.715 133.657 102.889 133.263 103.061C131.168 103.985 129.864 105.46 128.891 107.177C128.972 107.303 129.039 107.437 129.089 107.576C129.158 107.776 129.156 107.991 129.085 108.189C129.014 108.388 128.877 108.56 128.695 108.679C128.514 108.779 128.301 108.818 128.093 108.788C127.39 110.376 126.835 112.088 126.142 113.743C126.266 114.038 126.349 114.347 126.388 114.662C126.52 116.027 125.074 117.762 127.733 118.431C129.883 118.972 129.317 119.208 130.103 119.685C130.298 119.8 130.523 119.859 130.752 119.856C133.417 119.809 135.59 118.337 136.661 116.074C137.498 115.315 138.236 114.465 138.861 113.542C138.893 113.644 138.94 113.728 139.028 113.724C139.358 113.705 139.41 112.453 139.467 112.136C139.618 111.297 140.662 110.27 140.985 109.489C141.427 108.452 141.514 106.782 141.047 105.683ZM127.601 115.803C127.84 116.137 128.129 116.437 128.457 116.693C128.111 116.455 127.819 116.152 127.601 115.803V115.803Z" fill="#91A7D3"/>
<path d="M137.73 116.611C138.536 116.736 139.216 115.944 139.247 114.852C139.276 114.218 139.062 113.596 138.645 113.1C138.517 113.02 138.373 112.965 138.222 112.938C137.415 112.811 136.737 113.604 136.706 114.697C136.677 115.329 136.891 115.95 137.308 116.445C137.436 116.525 137.58 116.581 137.73 116.611Z" fill="white"/>
<path fill-rule="evenodd" clip-rule="evenodd" d="M139.024 114.844L139.024 114.842C139.05 114.271 138.862 113.71 138.493 113.259C138.398 113.204 138.293 113.166 138.183 113.146C137.876 113.098 137.581 113.22 137.346 113.493C137.108 113.77 136.943 114.194 136.929 114.703L136.929 114.704L136.929 114.706C136.903 115.276 137.091 115.836 137.46 116.286C137.556 116.342 137.661 116.381 137.771 116.403C138.077 116.449 138.372 116.327 138.606 116.054C138.844 115.778 139.009 115.355 139.024 114.846L139.024 114.844ZM137.73 116.611C137.58 116.581 137.436 116.525 137.308 116.445C136.891 115.95 136.677 115.329 136.706 114.697C136.737 113.604 137.415 112.811 138.222 112.938C138.373 112.965 138.517 113.02 138.645 113.1C139.062 113.596 139.276 114.218 139.247 114.852C139.216 115.944 138.536 116.736 137.73 116.611Z" fill="#273B63"/>
<path d="M155.266 207.391L153.577 215.86L157.696 216.995L160.134 207.234L155.266 207.391Z" fill="white"/>
<path fill-rule="evenodd" clip-rule="evenodd" d="M153.833 215.711L157.533 216.73L159.85 207.454L155.452 207.596L153.833 215.711ZM155.266 207.391L153.577 215.86L157.696 216.995L160.134 207.234L155.266 207.391Z" fill="#273B63"/>
<path d="M130.077 207.767L128.387 216.238L132.528 216.551L134.945 207.611L130.077 207.767Z" fill="white"/>
<path fill-rule="evenodd" clip-rule="evenodd" d="M128.387 216.238L132.528 216.551L134.945 207.611L130.077 207.767L128.387 216.238ZM130.263 207.972L128.652 216.046L132.358 216.326L134.655 207.832L130.263 207.972Z" fill="#273B63"/>
<path d="M153.565 215.879C156.444 216.162 162.668 218.233 162.668 218.233C164.725 218.863 164 220.794 161.694 220.825L152.92 220.943C152.498 220.943 152.177 220.717 152.247 220.458L153.464 216.024C153.485 215.969 153.52 215.919 153.565 215.879V215.879Z" fill="#91A7D3"/>
<path d="M128.707 215.736C131.585 216.019 137.809 218.09 137.809 218.09C139.866 218.72 139.141 220.651 136.837 220.682L128.061 220.801C127.639 220.801 127.318 220.574 127.388 220.316L128.605 215.882C128.626 215.826 128.661 215.776 128.707 215.736V215.736Z" fill="#91A7D3"/>
<path d="M139.826 173.37L138.312 174.05C138.056 176.613 136.716 179.799 134.974 185.152C133.037 191.107 130.627 198.518 129.083 205.717C128.997 206.119 129.01 206.535 129.12 206.931C129.231 207.328 129.435 207.696 129.719 208.005C130.002 208.316 130.352 208.564 130.746 208.733C131.14 208.903 131.567 208.99 132 208.988H132.048L137.646 208.908C138.264 208.904 138.865 208.717 139.365 208.373C139.865 208.029 140.238 207.544 140.433 206.989C143.604 197.742 146.286 191.182 148.442 185.911C150.3 181.369 151.641 178.088 152.381 175.269L152.569 174.555L139.826 173.37Z" fill="#11192B"/>
<path d="M133.168 101.838C133.168 101.838 118.456 102.855 124.831 116.599C124.831 116.599 142.091 105.447 133.168 101.838Z" fill="#91A7D3"/>
<path d="M115.405 181.182C115.405 181.348 115.439 181.511 115.505 181.664C115.572 181.817 115.67 181.956 115.793 182.073C115.917 182.19 116.063 182.283 116.224 182.346C116.386 182.409 116.558 182.442 116.733 182.442H152.99C153.335 182.431 153.662 182.294 153.902 182.059C154.142 181.824 154.276 181.51 154.276 181.183C154.276 180.856 154.142 180.542 153.902 180.307C153.662 180.072 153.335 179.935 152.99 179.924H116.733C116.558 179.924 116.386 179.957 116.224 180.02C116.063 180.083 115.917 180.176 115.793 180.292C115.67 180.409 115.572 180.548 115.505 180.701C115.439 180.853 115.405 181.017 115.405 181.182V181.182Z" fill="#DAE1F0"/>
<path d="M111.447 220.961C111.416 220.963 111.385 220.963 111.354 220.961C111.192 220.938 111.046 220.855 110.948 220.73C110.85 220.605 110.808 220.448 110.831 220.294L116.768 182.648C116.796 182.497 116.885 182.361 117.017 182.271C117.148 182.181 117.312 182.144 117.473 182.167C117.633 182.189 117.778 182.271 117.876 182.393C117.974 182.516 118.018 182.67 117.998 182.823L112.061 220.462C112.038 220.601 111.964 220.728 111.851 220.819C111.739 220.91 111.595 220.961 111.447 220.961V220.961Z" fill="#324B7F"/>
<path d="M129.639 220.53C129.608 220.533 129.577 220.533 129.546 220.53C129.384 220.507 129.238 220.424 129.14 220.299C129.041 220.174 129 220.018 129.023 219.864L134.96 182.225C134.988 182.073 135.077 181.938 135.209 181.848C135.34 181.758 135.504 181.72 135.665 181.743C135.825 181.766 135.97 181.847 136.068 181.97C136.166 182.092 136.21 182.246 136.189 182.399L130.253 220.028C130.231 220.167 130.157 220.295 130.044 220.387C129.932 220.479 129.788 220.53 129.639 220.53V220.53Z" fill="#324B7F"/>
<path d="M191.471 49.4043C197.353 50.4504 203.451 52.2443 207.432 56.4769C210.739 59.9939 212.167 64.8435 212.129 69.5546C212.091 74.2657 210.702 78.8835 208.94 83.2813C206.904 88.3774 204.364 93.2796 201.353 97.9223C199.61 100.612 197.65 103.269 194.925 105.084C189.112 108.957 181.227 108.187 174.336 106.534C165.469 104.407 156.963 101.109 149.066 96.7362C144.705 94.3201 140.418 91.4601 137.775 87.382C135.402 83.7211 134.548 79.3859 133.736 75.1573C132.695 69.7345 132.104 63.0617 135.482 58.1627C138.25 54.1447 144.345 52.9213 148.907 51.6179C162.645 47.7011 177.373 46.8948 191.471 49.4043Z" fill="#B5C4E2"/>
<path d="M190.826 74.1724C190.58 73.9938 190.323 73.8272 190.06 73.6686C189.97 73.3565 189.855 73.0513 189.716 72.7557C190.356 70.9526 190.509 69.0055 189.956 67.1504C189.157 64.4664 187.02 62.0862 184.229 61.116C183.615 60.9043 182.976 60.7672 182.326 60.7082C181.68 59.7267 180.892 58.8358 179.985 58.0615C175.623 54.3699 168.855 54.1767 163.91 56.9327C162.67 57.6172 161.561 58.4944 160.628 59.5274C160.199 59.9979 159.822 60.5082 159.502 61.0507C158.821 61.2488 158.244 61.6847 157.889 62.2701C157.268 63.2696 157.346 64.4277 157.714 65.4979L157.588 65.5352C156.012 66.031 154.449 66.8799 153.589 68.2752C152.776 69.5959 152.665 71.2938 153.661 72.5572C153.727 72.6411 153.802 72.7144 153.876 72.7931L154.315 73.2142C154.864 73.661 155.481 74.0276 156.144 74.3017C154.905 75.6237 154.508 77.5708 154.832 79.3379C154.243 79.6693 153.719 80.095 153.284 80.596C152.817 81.153 152.496 81.8407 152.603 82.5657C152.71 83.2907 153.222 83.8571 153.836 84.2755C154.539 84.754 155.359 85.0885 156.153 85.403C156.507 85.5443 156.869 85.6695 157.23 85.7948C157.178 85.9685 157.147 86.1474 157.139 86.3279C157.091 87.6952 157.974 88.9373 158.968 89.8529C160.157 90.9461 161.565 91.8041 163.108 92.377C165.948 93.4493 169.108 93.4807 171.971 92.4649C173.486 93.4605 175.305 93.7683 177.123 93.7177C178.691 93.6708 180.242 93.4086 181.73 92.9394C184.674 91.9949 187.321 90.3692 189.433 88.2097C191.314 86.3026 192.826 83.9797 193.627 81.4729C193.741 81.0982 193.817 80.7139 193.855 80.3254C194.025 78.699 193.547 77.071 192.515 75.761C192.128 75.2745 191.683 74.8314 191.19 74.4403L190.826 74.1724ZM190.532 74.4882C190.446 74.5895 190.359 74.6895 190.27 74.7894C190.255 74.6109 190.229 74.4349 190.197 74.2564C190.311 74.3337 190.422 74.4096 190.532 74.4882V74.4882ZM189.844 75.2012C189.482 75.4658 189.035 75.6038 188.578 75.5917C188.523 75.5038 188.472 75.4118 188.414 75.3252C188.756 74.8177 189.057 74.2867 189.315 73.7366C189.434 73.7992 189.551 73.8699 189.668 73.9325C189.774 74.3483 189.833 74.7736 189.844 75.2012V75.2012ZM157.68 73.2102L157.616 73.2355C157.517 73.2808 157.424 73.3341 157.334 73.3848C157.341 73.3275 157.354 73.2702 157.363 73.2129L157.68 73.2102ZM157.444 72.7851C157.563 72.2968 157.752 71.8264 158.007 71.3871C158.043 71.3244 158.087 71.2658 158.126 71.2045C157.898 71.7059 157.756 72.2385 157.704 72.7824L157.444 72.7851ZM157.711 73.6713C157.741 73.9411 157.793 74.2084 157.865 74.4709C157.676 74.4109 157.491 74.3483 157.302 74.283C157.295 74.1604 157.289 74.0365 157.292 73.9125C157.426 73.825 157.564 73.7444 157.707 73.6713H157.711ZM157.973 74.952L158.025 74.9667C158.292 75.6796 158.705 76.3352 159.242 76.8951C159.421 77.0807 159.613 77.2544 159.817 77.4148L159.159 77.6281C158.405 77.1338 157.842 76.4203 157.554 75.5957C157.462 75.3219 157.395 75.041 157.354 74.7561C157.567 74.8241 157.769 74.8894 157.973 74.952V74.952ZM161.209 66.0696C161.218 66.3584 161.252 66.6459 161.312 66.9292C160.925 67.4623 160.484 67.9527 160.045 68.4445C159.298 67.6598 158.701 66.7579 158.28 65.7791C158.875 65.6231 159.481 65.5117 160.095 65.4459C160.437 65.6987 160.812 65.9084 161.212 66.0696H161.209ZM160.787 65.3913C160.927 65.3846 161.077 65.378 161.223 65.378C161.214 65.4552 161.213 65.5325 161.209 65.6098C161.182 65.5978 161.154 65.5898 161.127 65.5765C161.019 65.5219 160.906 65.4566 160.802 65.3913H160.787ZM166.65 67.8048C166.745 67.8608 166.831 67.9261 166.919 67.9887C167.127 68.2807 167.301 68.5935 167.437 68.9216C167.698 69.5673 167.789 70.2634 167.703 70.9499C166.317 70.8167 164.958 70.4675 163.793 69.7079C163.119 69.2746 162.569 68.6905 162.191 68.0074C163.616 67.4036 165.273 66.9972 166.659 67.8048H166.65ZM162.008 67.6129C161.92 67.4138 161.848 67.2089 161.793 66.9998C161.933 66.8013 162.064 66.6 162.185 66.3908C163.335 66.688 164.55 66.7653 165.753 66.7813C165.905 66.8986 166.051 67.0212 166.19 67.1518C165.347 66.8893 164.441 66.8689 163.585 67.0931C163.047 67.2272 162.521 67.4009 162.012 67.6129H162.008ZM176.78 77.0443C176.819 77.007 176.864 76.9764 176.904 76.9377C176.943 76.8991 176.984 76.8551 177.023 76.8125C177.15 76.9271 177.271 77.0457 177.388 77.1696C177.183 77.1442 176.982 77.1023 176.785 77.0443H176.78ZM177.791 77.6414C177.912 77.8 178.029 77.9626 178.135 78.1318C178.154 78.1625 178.171 78.1945 178.189 78.2251C177.813 77.9845 177.424 77.7621 177.023 77.5588C177.278 77.6097 177.537 77.6374 177.797 77.6414H177.791ZM176.967 76.1888C176.74 76.0097 176.5 75.8458 176.249 75.6983C175.299 75.1648 174.236 74.8351 173.136 74.7321C172.8 74.4763 172.451 74.2164 172.084 73.9818C172.396 73.8327 172.688 73.6469 172.952 73.4288C173.507 72.9408 173.947 72.3467 174.242 71.6856C174.646 71.9974 175.048 72.3093 175.44 72.6331C176.107 73.1822 176.864 73.7966 177.168 74.6082C177.271 74.8673 177.307 75.146 177.273 75.421C177.239 75.696 177.136 75.9593 176.972 76.1888H176.967ZM176.695 76.5326C176.577 76.6577 176.45 76.7748 176.314 76.8831C175.394 76.494 174.596 75.8769 173.82 75.2639C174.21 75.3365 174.593 75.439 174.965 75.5704C175.595 75.7991 176.181 76.1242 176.7 76.5326H176.695ZM167.717 74.4549L167.783 74.3736C168.04 74.4123 168.299 74.4469 168.56 74.4723C168.851 74.5002 169.146 74.5122 169.443 74.5136C169.453 74.6135 169.464 74.7148 169.474 74.8161C169.082 74.8601 168.69 74.9107 168.298 74.9627C168.118 74.7908 167.921 74.6202 167.722 74.4549H167.717ZM167.756 75.036L167.305 75.0973C167.357 74.9947 167.414 74.8921 167.478 74.7921C167.578 74.8721 167.669 74.9547 167.762 75.0307L167.756 75.036ZM168.167 73.9991C168.324 73.8725 168.498 73.7675 168.686 73.6873C168.894 73.6034 169.115 73.5534 169.34 73.5394C169.361 73.7233 169.38 73.9059 169.399 74.0898C168.989 74.083 168.579 74.0527 168.173 73.9991H168.167ZM169.433 75.2452L169.519 75.2359C169.565 75.6237 169.622 76.0102 169.695 76.3913C169.381 76.0237 169.048 75.6714 168.696 75.3358C168.949 75.3038 169.195 75.2732 169.442 75.2452H169.433ZM169.433 71.4404C169.654 71.4404 169.875 71.4404 170.096 71.431C171.32 71.3991 172.542 71.3444 173.765 71.3124L173.879 71.4017C173.602 72.0596 173.175 72.6513 172.628 73.1342C172.333 73.3798 171.998 73.5791 171.636 73.7246C171.149 73.4407 170.608 73.2476 170.044 73.1556C169.936 73.1413 169.827 73.1324 169.717 73.1289C169.665 72.5558 169.571 71.9921 169.444 71.4404H169.433ZM170.46 73.6766C170.666 73.741 170.868 73.8189 171.062 73.9099C170.659 74.0116 170.245 74.0706 169.829 74.0858C169.809 73.9059 169.789 73.7259 169.768 73.5447C170.007 73.5643 170.243 73.6086 170.471 73.6766H170.46ZM171.586 74.1831C171.845 74.3349 172.096 74.499 172.338 74.6748C172.006 74.6615 171.673 74.6562 171.342 74.6668C170.86 74.6828 170.379 74.7188 169.899 74.7668L169.869 74.5002C170.461 74.479 171.046 74.372 171.604 74.1831H171.586ZM174.088 70.878H173.913C173.374 70.4639 172.866 70.0155 172.392 69.536C171.659 68.7763 170.985 67.7941 170.72 66.7533C172.159 66.7395 173.596 66.8286 175.02 67.0198C174.915 67.7584 174.766 68.4908 174.574 69.2134C174.452 69.7763 174.296 70.332 174.107 70.878H174.088ZM170.639 66.3348C170.571 65.8748 170.605 65.4064 170.739 64.9595C170.948 64.2731 171.442 63.5855 172.195 63.3603C173.011 63.1217 173.827 63.5322 174.342 64.1226C174.952 64.8222 175.104 65.7005 175.056 66.6027C173.599 66.4093 172.129 66.3198 170.657 66.3348H170.639ZM173.219 70.8846C171.933 70.9499 170.626 71.0179 169.321 71.0179C169.025 69.9371 168.55 68.9229 167.687 68.074C167.532 67.9218 167.363 67.7827 167.182 67.6582C166.945 67.3449 166.676 67.0539 166.38 66.7893H167.188C168.205 66.7893 169.238 66.7653 170.273 66.7626C170.273 66.7786 170.273 66.7946 170.273 66.8106C170.685 68.4645 171.925 69.7972 173.237 70.8846H173.219ZM167.945 69.0335C168.353 69.6461 168.665 70.3113 168.872 71.0086C168.64 71.0086 168.408 70.9926 168.176 70.9779C168.245 70.3216 168.166 69.6589 167.945 69.0335V69.0335ZM168.085 71.5297C168.095 71.4857 168.098 71.443 168.108 71.3964C168.402 71.415 168.697 71.4257 168.991 71.431C169.131 71.9892 169.233 72.5549 169.3 73.1249C168.958 73.1452 168.626 73.2338 168.323 73.3848C168.065 73.5242 167.832 73.7014 167.632 73.9099C167.405 73.8725 167.177 73.8299 166.952 73.7846C167.494 73.118 167.88 72.3498 168.084 71.531L168.085 71.5297ZM167.143 74.5149C167.071 74.6255 167.002 74.7361 166.94 74.8494C166.878 74.9627 166.842 75.0573 166.8 75.1613C166.43 75.2079 166.061 75.2519 165.691 75.2865C165.591 75.2972 165.493 75.3012 165.394 75.3092C165.45 75.2665 165.508 75.2266 165.564 75.1759C165.951 74.8647 166.31 74.5242 166.638 74.1577L166.732 74.1764C166.869 74.2923 167.004 74.4056 167.141 74.5162L167.143 74.5149ZM164.581 75.3585C164.555 75.3339 164.534 75.3044 164.521 75.2719C164.206 74.6482 163.739 74.1042 163.159 73.6846C162.848 73.4801 162.506 73.3202 162.146 73.2102C162.611 73.2782 163.071 73.3648 163.519 73.4581C164.397 73.6407 165.268 73.8579 166.144 74.0578C165.68 74.5499 165.155 74.9871 164.58 75.3598L164.581 75.3585ZM164.388 76.8245C164.214 77.6001 163.373 77.9919 162.599 78.0239C161.964 78.0297 161.341 77.8637 160.802 77.5454C160.882 77.5188 160.963 77.4935 161.043 77.4655C162.196 77.0924 163.305 76.6046 164.35 76.0102C164.431 76.2777 164.443 76.5595 164.387 76.8325L164.388 76.8245ZM160.327 77.2403C159.55 76.691 158.942 75.9547 158.567 75.1079C160.272 75.5684 162.037 75.8003 163.81 75.7969C162.741 76.4033 161.538 76.8458 160.325 77.2483L160.327 77.2403ZM163.235 78.3597C163.899 78.1998 164.501 77.7787 164.751 77.1603C164.91 76.7092 164.904 76.2205 164.734 75.773C165.369 75.7383 166.001 75.677 166.632 75.601C166.326 76.6032 166.444 77.6547 167.133 78.525C166.772 78.4964 166.409 78.491 166.047 78.509C164.377 78.5876 162.658 78.7609 161.01 78.401C160.538 78.2965 160.083 78.1325 159.657 77.9133C159.857 77.8506 160.057 77.7867 160.255 77.7214C161.131 78.2931 162.188 78.6183 163.233 78.3624L163.235 78.3597ZM166.99 77.3402C166.83 76.742 166.872 76.1114 167.111 75.5371L168.177 75.3971C168.847 76.0131 169.445 76.6954 169.961 77.4322C170.03 77.6574 170.101 77.88 170.199 78.0985C169.776 78.4062 169.388 78.7551 169.042 79.1393C168.678 78.8833 168.258 78.7059 167.814 78.6196C167.424 78.274 167.14 77.8346 166.992 77.3482L166.99 77.3402ZM169.089 79.7644C169.107 79.787 169.129 79.8057 169.148 79.831C169.558 80.3801 169.654 81.1051 169.523 81.7568C169.318 82.7723 168.607 83.4893 167.714 83.9464C167.674 82.571 168.075 81.2163 168.862 80.0602C168.931 79.9616 169.01 79.8697 169.087 79.7724L169.089 79.7644ZM169.47 79.3179C169.748 79.0199 170.053 78.7457 170.381 78.4983C170.483 78.7061 170.596 78.9086 170.72 79.1047C170.753 79.1553 170.792 79.1993 170.826 79.2473C170.38 79.3353 169.923 79.3618 169.468 79.3259L169.47 79.3179ZM170.715 77.76C170.608 77.5823 170.495 77.4104 170.377 77.2443C170.23 76.7242 170.117 76.1959 170.04 75.6623C170.014 75.5038 169.992 75.3425 169.971 75.1812C170.967 75.0667 171.973 75.0493 172.973 75.1293C173.212 75.3172 173.448 75.5064 173.676 75.689C174.265 76.1681 174.893 76.6022 175.554 76.987C174.405 76.6871 173.185 76.7336 172.064 77.1203C171.591 77.2894 171.138 77.5066 170.713 77.768L170.715 77.76ZM172.534 77.4215C173.509 77.1462 174.547 77.1462 175.522 77.4215C175.079 77.688 174.623 77.9026 174.242 78.0879C173.349 78.515 172.414 78.8587 171.451 79.114L171.383 79.13C171.256 78.787 171.103 78.453 170.926 78.1305C171.424 77.827 171.965 77.5911 172.533 77.4295L172.534 77.4215ZM172.126 79.3619C173.041 79.0765 173.93 78.7199 174.783 78.2957C175.22 78.0837 175.642 77.8478 176.05 77.5894C176.398 77.7154 176.735 77.8665 177.058 78.0412C177.594 78.3304 178.102 78.6609 178.606 78.9967C178.769 79.3626 178.903 79.7394 179.007 80.1242C178.196 80.4356 177.349 80.6565 176.484 80.7826C174.753 81.0318 172.866 80.8332 171.624 79.5472C171.611 79.5338 171.601 79.5192 171.589 79.5058C171.776 79.4739 171.951 79.4285 172.125 79.3699L172.126 79.3619ZM178.586 76.0808C178.393 74.5229 178.384 72.9277 178.305 71.3431C179.874 71.411 181.438 71.5681 182.988 71.8135C183.101 72.0337 183.201 72.2593 183.289 72.4892C182.726 73.9059 181.861 75.2026 180.649 76.1568C180.096 76.5995 179.446 76.9184 178.745 77.0897C178.682 76.7632 178.627 76.426 178.585 76.0888L178.586 76.0808ZM178.282 70.9166C178.234 69.8398 178.103 68.7678 177.891 67.7088C178.209 67.8208 178.526 67.9407 178.837 68.0793C180.374 68.7643 181.715 69.7838 182.615 71.1605C182.653 71.2191 182.686 71.2804 182.722 71.3404C181.251 71.1252 179.768 70.9864 178.281 70.9246L178.282 70.9166ZM178.302 77.1603C178.203 77.1723 178.104 77.1829 178.005 77.1869C177.79 76.9292 177.555 76.6869 177.302 76.462C177.598 76.0621 177.747 75.5803 177.724 75.092C177.672 74.319 177.186 73.658 176.639 73.1129C175.956 72.4642 175.229 71.8583 174.463 71.2991C174.951 71.2898 175.439 71.2858 175.929 71.2911C176.572 71.2964 177.215 71.312 177.857 71.3378C177.953 73.2782 177.945 75.2625 178.301 77.163L178.302 77.1603ZM175.08 70.85C174.913 70.85 174.747 70.858 174.581 70.8607C174.73 70.4369 174.862 70.0064 174.961 69.5879C175.192 68.7675 175.368 67.9337 175.485 67.0918C176.132 67.2013 176.77 67.3518 177.395 67.5422C177.566 68.2921 177.686 69.0515 177.755 69.8158C177.788 70.1743 177.814 70.5368 177.835 70.8993C176.915 70.8691 175.996 70.8553 175.079 70.858L175.08 70.85ZM175.519 66.672C175.575 65.9974 175.475 65.3194 175.227 64.6849C174.691 63.4109 173.149 62.3994 171.725 63.0924C170.493 63.6921 170.086 65.0914 170.222 66.3282C168.872 66.3282 167.519 66.3655 166.182 66.3455H165.857C165.015 65.736 164.039 65.3141 163.001 65.1114C162.92 65.0954 162.837 65.0874 162.755 65.0741C162.965 64.3262 162.927 63.5351 162.645 62.8085C162.873 62.4802 163.138 62.1771 163.437 61.905C165.915 59.67 169.888 59.7513 172.722 61.2852C174.183 62.0718 175.397 63.212 176.24 64.589C176.703 65.37 177.053 66.2064 177.281 67.0758C176.702 66.9119 176.113 66.7797 175.518 66.68L175.519 66.672ZM163.983 65.8084C164.372 65.9446 164.745 66.1169 165.097 66.3228C164.184 66.3113 163.275 66.2049 162.386 66.0056C162.472 65.8324 162.548 65.6551 162.617 65.4726C163.083 65.5462 163.54 65.6613 163.983 65.8164V65.8084ZM162.402 64.6343C162.378 64.7609 162.337 64.8809 162.302 65.0021C162.116 64.9821 161.929 64.9688 161.739 64.9595C161.846 64.3694 162.05 63.799 162.346 63.2696C162.472 63.7175 162.491 64.1865 162.402 64.6423V64.6343ZM162.164 65.4206C162.104 65.5765 162.042 65.7324 161.966 65.883C161.862 65.8511 161.757 65.8191 161.656 65.7818C161.656 65.6485 161.667 65.5152 161.682 65.3819C161.843 65.3993 162.004 65.4126 162.164 65.4353V65.4206ZM161.667 68.2352L161.787 68.1793C162.393 69.2734 163.43 70.1063 164.623 70.6221C165.581 71.0194 166.601 71.2661 167.642 71.3524C167.499 72.018 167.222 72.6514 166.826 73.2182C166.746 73.3355 166.658 73.4434 166.572 73.5527C165.587 72.8197 164.57 72.128 163.584 71.4204C162.484 70.6543 161.449 69.8076 160.489 68.8883C160.866 68.6493 161.26 68.4338 161.667 68.2432V68.2352ZM160.882 68.1473C161.079 67.9181 161.272 67.6875 161.458 67.4503C161.501 67.5836 161.551 67.6835 161.599 67.7875C161.349 67.9074 161.11 68.03 160.882 68.1553V68.1473ZM160.124 69.1335C161.804 70.8287 163.923 72.1267 165.892 73.558C164.848 73.3181 163.81 73.0556 162.754 72.8744C161.546 72.6665 160.282 72.5665 159.077 72.7811C158.771 72.7731 158.464 72.77 158.157 72.7717C158.288 71.495 158.978 70.3729 159.846 69.3414C159.94 69.2787 160.03 69.2081 160.124 69.1415V69.1335ZM159.127 73.2009C160.137 73.2209 161.15 73.3115 162.081 73.6287C162.722 73.8521 163.278 74.2539 163.674 74.7814C163.822 74.9669 163.955 75.1629 164.072 75.3678C162.606 75.3932 161.142 75.2536 159.711 74.952C159.26 74.8561 158.814 74.7428 158.374 74.6162C158.274 74.3176 158.203 74.0105 158.164 73.6993C158.155 73.622 158.164 73.5474 158.153 73.4701C158.468 73.3547 158.794 73.2673 159.127 73.2089V73.2009ZM159.075 78.0958C159.91 78.5699 160.846 78.8639 161.815 78.9568C163.512 79.1527 165.192 78.8675 166.88 78.9181C167.11 78.9252 167.338 78.9475 167.565 78.9848C167.886 79.2542 168.263 79.4563 168.672 79.5778C168.64 79.6191 168.605 79.6591 168.574 79.7004C167.638 80.9705 167.226 82.5151 167.255 84.053C167.255 84.085 167.255 84.117 167.255 84.1489C166.864 84.3035 166.456 84.4187 166.039 84.4928C164.103 84.8366 162.137 84.3755 160.199 84.3049C159.981 84.2969 159.758 84.2942 159.536 84.3049C158.975 84.0242 158.443 83.6949 157.946 83.3213C156.784 82.4444 155.866 81.3609 155.437 79.9989C155.392 79.8563 155.352 79.7111 155.317 79.5645C155.438 79.4992 155.556 79.4312 155.669 79.3832C156.77 78.8787 157.908 78.4511 159.075 78.1038V78.0958ZM167.36 85.1898L167.326 85.2018C165.787 85.6802 164.051 85.6282 162.482 85.3111C161.814 85.1747 161.161 84.9825 160.529 84.7367L161.084 84.7833C162.084 84.8633 163.08 84.9979 164.084 85.0325C165.155 85.0672 166.28 84.9645 167.289 84.6007C167.306 84.806 167.33 85.0019 167.36 85.1978V85.1898ZM160.836 85.3057C162.929 86.0254 165.315 86.2199 167.431 85.5896C167.512 85.9949 167.617 86.3953 167.746 86.789C166.286 86.8333 164.825 86.7887 163.371 86.6557C161.488 86.4845 159.631 86.1166 157.834 85.5589L157.792 85.5429C157.909 85.3498 158.072 85.1851 158.269 85.0618C158.616 84.858 159.014 84.7432 159.422 84.7287C159.879 84.9526 160.352 85.148 160.836 85.3137V85.3057ZM167.73 84.4248C168.101 84.2558 168.449 84.0417 168.762 83.7878C169.814 82.9322 170.325 81.4702 169.845 80.2068C169.783 80.0424 169.702 79.8848 169.605 79.7364C170.1 79.7575 170.596 79.7194 171.081 79.6231C171.376 80.576 171.423 81.5822 170.947 82.4911C170.325 83.6825 169.09 84.5408 167.794 85.0352C167.768 84.8406 167.746 84.6367 167.732 84.4328L167.73 84.4248ZM169.858 84.3782C171.159 83.3933 171.921 82.006 171.708 80.4054C171.697 80.3201 171.677 80.2375 171.662 80.1535C172.463 80.8007 173.458 81.1941 174.508 81.2783C176.055 81.4222 177.672 81.0944 179.111 80.5467C179.197 80.9454 179.254 81.3493 179.283 81.7554C178.306 82.6251 177.656 83.7736 177.433 85.0259C177.391 85.2831 177.366 85.5426 177.358 85.8028C176.427 85.8761 175.502 85.9934 174.612 86.1147C172.758 86.3692 170.91 86.6317 169.039 86.741C168.766 86.7557 168.492 86.7637 168.218 86.7743C168.069 86.3438 167.95 85.9044 167.863 85.459C168.584 85.2025 169.258 84.8405 169.861 84.3862L169.858 84.3782ZM177.804 85.7615C177.804 85.6562 177.804 85.5509 177.819 85.4443C177.946 84.2838 178.468 83.1939 179.306 82.3391C179.31 83.4958 179.095 84.6436 178.671 85.7282C178.383 85.7388 178.095 85.7526 177.807 85.7695L177.804 85.7615ZM178.485 86.1613C178.324 86.516 178.141 86.8614 177.936 87.1955C177.856 86.8664 177.809 86.5308 177.796 86.1933C178.029 86.1809 178.26 86.1711 178.488 86.164L178.485 86.1613ZM179.221 78.8955C179.065 78.4505 178.936 77.9976 178.834 77.5388C180.978 77.0537 182.622 74.964 183.486 73.1022C183.718 73.9154 183.748 74.7684 183.573 75.5944C183.175 77.3629 181.871 78.6782 180.259 79.5591C179.91 79.3499 179.565 79.126 179.223 78.8955H179.221ZM184.083 73.7753C184.02 73.3272 183.909 72.8864 183.751 72.4599C183.811 72.3026 183.877 72.1467 183.931 71.9868L184.045 72.0094C184.194 72.4208 184.396 72.8133 184.645 73.1782C185.349 74.2604 186.227 75.3945 187.501 75.8316C186.621 76.9502 185.552 77.9244 184.339 78.7156C183.461 79.2886 182.51 79.7377 181.574 80.2322C181.27 80.1066 180.974 79.9642 180.688 79.8057C181.568 79.308 182.339 78.6547 182.959 77.8813C183.88 76.7029 184.284 75.2323 184.086 73.7779L184.083 73.7753ZM187.954 75.9555C188.076 75.98 188.199 75.9982 188.323 76.0102C188.683 76.5898 188.978 77.2041 189.201 77.8426C189.054 78.1068 188.882 78.3575 188.686 78.5916C187.728 79.6976 186.378 80.4356 184.887 80.6679C183.958 80.8116 183.006 80.7309 182.119 80.4334C183.004 79.9709 183.904 79.5325 184.728 78.9781C185.97 78.1431 187.059 77.1222 187.954 75.9555ZM187.555 75.4078C186.711 75.0946 186.072 74.4109 185.564 73.7233C185.211 73.2475 184.788 72.6958 184.554 72.112C184.768 72.1574 184.976 72.2067 185.2 72.2587C186.201 73.1943 187.103 74.221 187.892 75.3238L187.778 75.4811C187.698 75.4558 187.622 75.4305 187.549 75.4078H187.555ZM188.151 74.9374C187.521 74.0626 186.815 73.2388 186.041 72.4745C187.036 72.7432 188.001 73.1002 188.925 73.5407C188.699 74.0226 188.439 74.4893 188.146 74.9374H188.151ZM185.429 71.8722C185.103 71.5603 184.772 71.2551 184.444 70.9526C184.614 70.4342 185.148 70.153 185.76 70.153C186.491 70.1623 187.176 70.4768 187.729 70.91C188.373 71.4194 188.89 72.0563 189.246 72.7757C189.201 72.8957 189.15 73.0143 189.105 73.1329C187.93 72.5855 186.695 72.1632 185.422 71.8735L185.429 71.8722ZM184.585 71.6816C184.526 71.6696 184.468 71.6563 184.409 71.6456C184.401 71.5976 184.398 71.551 184.392 71.503L184.585 71.6816ZM179.814 79.7924C179.752 79.823 179.689 79.8497 179.626 79.879C179.581 79.7857 179.541 79.6897 179.501 79.5951L179.814 79.7924ZM179.906 81.2583C179.835 81.309 179.765 81.3636 179.702 81.4169C179.681 81.213 179.653 81.0091 179.617 80.8079C179.707 80.9571 179.803 81.1064 179.904 81.2543L179.906 81.2583ZM179.823 80.2655C179.963 80.1988 180.104 80.1322 180.245 80.0576C180.512 80.2122 180.782 80.3614 181.065 80.4947C180.81 80.6653 180.535 80.8332 180.266 81.0104L180.245 80.9798C180.089 80.7439 179.951 80.504 179.821 80.2615L179.823 80.2655ZM181.595 80.7199C182.787 81.1829 184.1 81.2862 185.356 81.0158C186.785 80.7112 188.066 79.9659 189 78.8968C189.131 78.739 189.254 78.5748 189.368 78.405C189.409 78.5556 189.448 78.7076 189.482 78.8635C189.82 80.4627 189.482 82.1752 187.989 83.1401C187.395 83.5086 186.726 83.7543 186.024 83.8611C185.323 83.9679 184.606 83.9333 183.919 83.7598C182.513 83.4053 181.356 82.4657 180.519 81.3609C180.867 81.1264 181.227 80.9158 181.594 80.7159L181.595 80.7199ZM189.461 77.2962C189.441 77.2456 189.423 77.1923 189.402 77.143C189.237 76.7547 189.049 76.3756 188.839 76.0075C189.19 75.9777 189.53 75.8783 189.837 75.7157C189.797 76.2575 189.67 76.7904 189.461 77.2962ZM182.725 61.184C184.234 61.4265 185.635 62.0788 186.76 63.0617C187.922 64.0521 188.802 65.3039 189.318 66.7014C189.834 68.099 189.971 69.5973 189.714 71.0579C189.644 71.4474 189.55 71.8327 189.433 72.212C189.246 71.8958 189.029 71.5961 188.786 71.3164C187.942 70.3569 186.611 69.5026 185.229 69.7758C184.908 69.8397 184.615 69.9923 184.385 70.2143C184.904 67.0986 184.286 63.9084 182.632 61.1706L182.725 61.184ZM182.064 61.1213C183.473 63.333 184.183 65.8809 184.111 68.4631C184.09 69.134 184.015 69.8023 183.886 70.4622L183.713 70.3062C182.545 69.2574 181.365 68.2153 180.297 67.0718C179.281 65.9843 178.104 64.3424 178.586 62.8072C179.027 61.4065 180.661 61.052 182.064 61.1213V61.1213ZM162.551 58.3387C163.69 57.4673 164.974 56.7806 166.349 56.3063C169.1 55.3417 172.099 55.2122 174.931 55.9358C177.74 56.686 180.168 58.3711 181.77 60.6815C181.092 60.6639 180.418 60.7787 179.789 61.0187C179.093 61.283 178.536 61.7983 178.241 62.4514C177.96 63.1177 177.994 63.8507 178.196 64.5277C178.645 66.0243 179.771 67.2064 180.888 68.2979C181.82 69.2108 182.804 70.073 183.773 70.9486C183.73 71.1339 183.68 71.3178 183.633 71.5003L183.291 71.443C182.963 70.8508 182.56 70.2993 182.089 69.8012C180.964 68.6164 179.481 67.8021 177.911 67.269C177.867 67.2544 177.824 67.2437 177.781 67.2291C177.617 66.5648 177.391 65.9155 177.106 65.2887C175.801 62.438 172.918 60.2711 169.65 59.8313C166.977 59.4701 164.035 60.2991 162.424 62.3634C162.189 61.9598 161.859 61.6128 161.459 61.3492C161.051 61.0786 160.561 60.9419 160.064 60.9601C160.695 59.9526 161.61 59.065 162.551 58.3387V58.3387ZM159.629 61.7877C159.685 61.6544 159.751 61.5211 159.819 61.3959C159.902 61.3814 159.986 61.3729 160.071 61.3705C160.849 61.3532 161.528 61.825 161.943 62.4194C162.019 62.5303 162.087 62.6455 162.147 62.7645C162.012 62.9698 161.89 63.183 161.783 63.4029C161.547 63.8983 161.381 64.4206 161.288 64.9568C160.935 64.9528 160.582 64.9662 160.231 64.9968C159.978 64.7838 159.767 64.5291 159.609 64.2452C159.189 63.4682 159.294 62.5726 159.629 61.7877V61.7877ZM158.222 62.562C158.452 62.1549 158.798 61.8179 159.222 61.5904C158.917 62.2821 158.776 63.0204 158.951 63.7694C159.066 64.2522 159.313 64.6979 159.667 65.0621C159.15 65.1348 158.639 65.2394 158.136 65.3753C158.115 65.314 158.091 65.2553 158.072 65.1927C157.814 64.3344 157.762 63.3682 158.228 62.562H158.222ZM153.397 70.8247C153.322 70.0072 153.523 69.1884 153.971 68.4858C154.799 67.1384 156.324 66.3535 157.861 65.895C157.996 66.2206 158.154 66.5375 158.333 66.8439C158.737 67.5306 159.219 68.174 159.768 68.763C159.692 68.8509 159.615 68.9389 159.542 69.0295C159.417 69.1255 159.293 69.2228 159.173 69.3254C158.1 70.2463 157.284 71.443 156.98 72.7904H156.615C155.904 72.7904 155.192 72.7904 154.481 72.7904C153.885 72.2802 153.502 71.584 153.402 70.8287L153.397 70.8247ZM155.029 73.2102C155.651 73.2102 156.275 73.2102 156.9 73.2102C156.879 73.3635 156.86 73.518 156.852 73.6726C156.722 73.7637 156.598 73.8612 156.479 73.9645C155.971 73.7623 155.487 73.5108 155.034 73.2142L155.029 73.2102ZM155.435 76.314C155.66 75.6258 156.051 74.9966 156.577 74.4763L156.873 74.5882C156.953 75.4688 157.284 76.3123 157.831 77.0284C158.058 77.3155 158.323 77.5743 158.619 77.7987C158.306 77.8999 157.994 78.0039 157.687 78.1105C156.844 78.3869 156.023 78.7204 155.23 79.1087C155.075 78.1754 155.147 77.2208 155.441 76.318L155.435 76.314ZM155.182 84.5248C154.445 84.1809 153.615 83.7731 153.212 83.0588C152.472 81.7261 153.727 80.5267 154.92 79.799C155.446 81.7981 156.955 83.3547 158.793 84.3995C158.451 84.4676 158.131 84.6094 157.856 84.814C157.654 84.9743 157.489 85.1726 157.372 85.3963C156.627 85.1465 155.898 84.8568 155.188 84.5288L155.182 84.5248ZM162.253 91.5561C160.815 90.871 159.319 89.8822 158.398 88.6081C157.904 87.9258 157.395 86.805 157.626 85.9268C158.01 86.0494 158.395 86.168 158.785 86.2719C160.578 86.7391 162.416 87.0334 164.272 87.1502C165.477 87.2277 166.685 87.2459 167.893 87.2048C168.093 87.7334 168.333 88.2478 168.61 88.7441C169.335 90.0328 170.317 91.2495 171.535 92.1611C170.024 92.6535 168.424 92.8537 166.829 92.7498C165.235 92.6458 163.679 92.2399 162.253 91.5561V91.5561ZM169.536 89.3958C169.063 88.7037 168.671 87.9645 168.368 87.1915C168.896 87.1688 169.422 87.1395 169.948 87.0982C171.769 86.9543 173.567 86.6664 175.376 86.4318C176.033 86.3479 176.694 86.2719 177.357 86.2199C177.375 86.7171 177.462 87.2098 177.614 87.6859C176.246 89.6125 174.302 91.1082 172.03 91.9812C171.042 91.2692 170.197 90.3948 169.536 89.3998V89.3958ZM178.887 93.142C177.071 93.3992 175.073 93.4245 173.361 92.7222C173.051 92.5923 172.753 92.4399 172.468 92.2664C172.525 92.2424 172.585 92.2224 172.641 92.1971C174.707 91.3158 176.488 89.9272 177.797 88.175C177.956 88.5473 178.16 88.9014 178.403 89.2305C179.302 90.433 180.639 91.2769 182.157 91.5987C182.679 91.7049 183.216 91.7328 183.748 91.6813C182.217 92.4031 180.577 92.8971 178.887 93.146V93.142ZM185.598 90.3433C185.176 90.9004 184.418 91.1736 183.725 91.2589C182.164 91.4521 180.521 90.7391 179.427 89.7156C178.832 89.159 178.379 88.48 178.105 87.7312C178.442 87.228 178.733 86.6983 178.974 86.148C179.534 86.144 180.093 86.1707 180.649 86.2279C182.307 86.4065 184.237 86.9609 185.34 88.227C185.865 88.8347 186.11 89.6743 185.598 90.3566V90.3433ZM192.413 76.3713C192.903 77.0957 193.226 77.91 193.361 78.7609C193.411 79.0977 193.433 79.4376 193.427 79.7777C193.427 79.9296 193.419 80.0816 193.402 80.2335C193.389 80.3854 193.373 80.5 193.359 80.588C193.244 81.1937 193.06 81.7858 192.809 82.3538C191.648 85.1334 189.76 87.5877 187.323 89.4864C186.933 89.7929 186.524 90.0781 186.109 90.3526C186.802 89.1172 185.733 87.7659 184.62 87.0755C182.973 86.0534 181.073 85.7295 179.142 85.7202C179.6 84.5049 179.802 83.2163 179.736 81.9273C179.869 81.8127 180.008 81.7035 180.158 81.5982C180.773 82.4371 181.576 83.1377 182.508 83.6505C183.749 84.3101 185.208 84.4965 186.588 84.1716C187.883 83.8677 189.094 83.0921 189.658 81.9193C190.271 80.6453 190.117 79.1887 189.681 77.8706C190.084 77.0952 190.297 76.2431 190.302 75.3785C190.51 75.176 190.705 74.9629 190.888 74.7401C191.481 75.2108 191.995 75.764 192.413 76.3807V76.3713Z" fill="#DAE1F0"/>
<path d="M260.519 47.7784L265.556 47.7024C265.913 47.6971 266.258 47.8264 266.514 48.0619C266.771 48.2973 266.918 48.6196 266.923 48.9578C266.929 49.2961 266.792 49.6226 266.544 49.8655C266.295 50.1085 265.955 50.2479 265.598 50.2532L260.562 50.3279C260.211 50.3237 259.876 50.1902 259.628 49.9558C259.38 49.7214 259.238 49.4045 259.232 49.0726C259.227 48.7406 259.358 48.4197 259.599 48.178C259.839 47.9364 260.169 47.793 260.519 47.7784V47.7784Z" fill="#11192B"/>
<path d="M241.659 48.0529L245.57 47.9943C246.143 47.985 246.62 48.5527 246.631 49.2537C246.642 49.9547 246.183 50.5357 245.612 50.5437L241.701 50.6024C241.13 50.6104 240.653 50.044 240.642 49.343C240.631 48.642 241.088 48.0609 241.659 48.0529Z" fill="#11192B"/>
<path d="M249.21 63.2496L249.367 62.8218C249.508 63.7894 250.106 64.649 251.033 64.9208L253.294 65.5872C254.073 65.8151 254.771 65.4139 255.175 64.7702L255.225 65.0128C255.531 66.4681 254.335 67.7555 253.032 67.3743L250.77 66.708C249.416 66.3095 248.682 64.6836 249.21 63.2496Z" fill="#91A7D3"/>
<path d="M261.417 55.9238C261.437 57.1419 262.12 58.1201 262.964 58.1081C263.809 58.0961 264.453 57.0979 264.433 55.8798C264.414 54.6618 263.73 53.6836 262.886 53.6956C262.042 53.7076 261.392 54.7057 261.417 55.9238Z" fill="#11192B"/>
<path d="M262.884 53.6956L260.325 53.7342L261.928 55.2148L262.884 53.6956Z" fill="#11192B"/>
<path d="M243.328 56.1944C243.347 57.4124 244.038 58.3893 244.875 58.3773C245.712 58.3653 246.364 57.3671 246.344 56.1491C246.324 54.931 245.64 53.9528 244.796 53.9661C243.952 53.9794 243.308 54.975 243.328 56.1944Z" fill="#11192B"/>
<path d="M244.796 53.9661L242.236 54.0034L243.838 55.484L244.796 53.9661Z" fill="#11192B"/>
<path d="M261.363 70.8993C261.205 72.2493 261.069 73.594 257.997 74.0365C257.997 74.0365 252.862 74.8148 253.299 71.6256L261.363 70.8993Z" fill="white"/>
<path d="M146.806 180.047H119.11L119.392 178.998L117.141 165.162L118.328 165.481C120.198 165.979 125.44 165.447 127.332 165.145L127.314 165.061L128.175 164.951C135.843 163.984 154.974 162.286 166.946 167.412L166.696 168.155L167.004 167.434C170.958 169.072 173.053 173.222 171.994 177.296C170.564 182.787 167.784 193.9 165.224 206.645C165.135 207.138 164.871 207.588 164.474 207.919C164.077 208.25 163.573 208.442 163.045 208.463L156.258 208.657H156.189C155.875 208.656 155.565 208.592 155.279 208.471C154.992 208.35 154.736 208.174 154.525 207.954C154.303 207.722 154.134 207.45 154.028 207.155C153.921 206.859 153.88 206.546 153.906 206.234C154.526 198.718 155.995 190.882 157.177 184.585C157.318 183.83 157.455 183.094 157.589 182.375C157.642 182.098 157.632 181.814 157.56 181.541C157.489 181.268 157.357 181.012 157.174 180.79C156.991 180.569 156.761 180.386 156.498 180.254C156.236 180.123 155.947 180.045 155.65 180.027C152.705 179.861 149.751 179.867 146.806 180.047Z" fill="#273B63"/>
<path fill-rule="evenodd" clip-rule="evenodd" d="M147.754 146.936C147.754 146.936 149.83 152.947 150.646 155.913C150.829 156.58 151.729 157.267 152.43 157.102C154.469 156.627 156.49 156.036 158.526 155.441C160.925 154.741 163.343 154.034 165.832 153.504C165.872 153.478 165.913 153.453 165.955 153.428L166.408 153.146C166.895 152.921 167.393 152.692 167.908 152.648C168.272 152.631 168.636 152.662 168.99 152.743L170.891 153.083C171.204 153.138 171.519 153.196 171.826 153.281C171.896 153.293 171.958 153.33 172.001 153.384C172.02 153.428 172.025 153.477 172.017 153.524C172.008 153.571 171.985 153.615 171.951 153.65C171.886 153.72 171.799 153.769 171.704 153.792C171.457 153.846 171.2 153.85 170.951 153.805L169.848 153.672C169.608 153.644 169.347 153.62 169.118 153.742C169.091 153.754 169.068 153.773 169.053 153.798C169.01 153.882 169.124 153.938 169.211 153.941L171.431 154.031C171.549 154.04 171.669 154.037 171.787 154.023C172.092 153.979 172.371 153.795 172.645 153.616C172.682 153.591 172.72 153.567 172.758 153.542C172.926 153.434 173.167 153.344 173.272 153.494C173.355 153.61 173.286 153.792 173.198 153.923C173.06 154.118 172.899 154.297 172.718 154.457C172.164 154.974 171.592 155.468 171.002 155.94C170.823 156.096 170.622 156.228 170.404 156.332C170.2 156.406 169.983 156.44 169.765 156.43C169.547 156.42 169.333 156.368 169.138 156.276C168.92 156.186 168.716 156.07 168.511 155.953C168.348 155.86 168.184 155.767 168.012 155.687C167.625 155.505 167.193 155.391 166.759 155.508C166.55 155.565 166.304 155.621 166.064 155.612C165.389 155.923 164.702 156.241 164.008 156.563C159.637 158.59 154.949 160.764 150.718 162.349C148.553 163.484 146.696 161.389 146.497 161.051C145.299 158.996 143.243 153.858 141.873 149.099L147.754 146.936Z" fill="white"/>
<path fill-rule="evenodd" clip-rule="evenodd" d="M165.832 153.504C163.343 154.034 160.925 154.741 158.526 155.441C156.49 156.036 154.469 156.627 152.43 157.102C151.729 157.267 150.829 156.58 150.646 155.913C149.919 153.269 148.19 148.206 147.823 147.137C147.778 147.007 147.754 146.936 147.754 146.936L141.873 149.099C143.243 153.858 145.299 158.996 146.497 161.051C146.696 161.389 148.553 163.484 150.718 162.349C154.949 160.764 159.637 158.59 164.008 156.563C164.702 156.241 165.389 155.923 166.064 155.612C166.304 155.621 166.55 155.565 166.759 155.508C167.193 155.391 167.625 155.505 168.012 155.687C168.184 155.767 168.348 155.86 168.511 155.953C168.716 156.07 168.92 156.186 169.138 156.276C169.333 156.368 169.547 156.42 169.765 156.43C169.983 156.44 170.2 156.406 170.404 156.332C170.622 156.228 170.823 156.096 171.002 155.94C171.592 155.468 172.164 154.974 172.718 154.457C172.899 154.297 173.06 154.118 173.198 153.923C173.286 153.792 173.355 153.61 173.272 153.494C173.167 153.344 172.926 153.434 172.758 153.542C172.72 153.567 172.682 153.591 172.645 153.616C172.371 153.795 172.092 153.979 171.787 154.023C171.697 154.034 171.606 154.038 171.516 154.036C171.487 154.035 171.459 154.033 171.431 154.031L169.211 153.941C169.124 153.938 169.01 153.882 169.053 153.798C169.068 153.773 169.091 153.754 169.118 153.742C169.347 153.62 169.608 153.644 169.848 153.672L170.951 153.805C171.113 153.834 171.277 153.843 171.44 153.83C171.442 153.83 171.445 153.83 171.447 153.83C171.467 153.828 171.487 153.826 171.507 153.824C171.573 153.817 171.639 153.806 171.704 153.792C171.799 153.769 171.886 153.72 171.951 153.65C171.985 153.615 172.008 153.571 172.017 153.524C172.025 153.477 172.02 153.428 172.001 153.384C171.958 153.33 171.896 153.293 171.826 153.281C171.519 153.196 171.204 153.138 170.891 153.083L168.99 152.743C168.636 152.662 168.272 152.631 167.908 152.648C167.393 152.692 166.895 152.921 166.408 153.146L165.955 153.428C165.913 153.453 165.872 153.478 165.832 153.504ZM166.519 153.33L166.076 153.606L166.073 153.607C166.034 153.63 165.995 153.654 165.958 153.678L165.923 153.701L165.881 153.71C163.402 154.238 160.992 154.942 158.592 155.643L158.589 155.644C156.555 156.238 154.528 156.83 152.484 157.307C152.043 157.411 151.575 157.243 151.211 156.989C150.846 156.734 150.538 156.357 150.43 155.966C150.024 154.489 149.302 152.249 148.681 150.375C148.371 149.439 148.086 148.596 147.879 147.986C147.775 147.682 147.691 147.435 147.632 147.265C147.626 147.247 147.62 147.23 147.615 147.214L142.141 149.227C143.509 153.927 145.522 158.941 146.692 160.948C146.728 161.009 146.866 161.188 147.095 161.408C147.32 161.624 147.624 161.87 147.983 162.071C148.7 162.471 149.618 162.684 150.61 162.164L150.622 162.157L150.636 162.152C154.857 160.571 159.537 158.401 163.91 156.374L163.91 156.374C164.604 156.052 165.291 155.733 165.966 155.422L166.017 155.398L166.073 155.401C166.275 155.409 166.492 155.361 166.697 155.305L166.698 155.305C167.21 155.167 167.703 155.306 168.111 155.497C168.291 155.582 168.461 155.678 168.622 155.77L168.626 155.772C168.833 155.89 169.025 155.999 169.227 156.082L169.232 156.084L169.237 156.087C169.405 156.166 169.588 156.211 169.775 156.219C169.958 156.227 170.142 156.2 170.314 156.138C170.509 156.044 170.69 155.925 170.85 155.785L170.854 155.782L170.858 155.778C171.443 155.31 172.011 154.819 172.562 154.306L172.564 154.304L172.566 154.302C172.734 154.154 172.883 153.988 173.011 153.808C173.046 153.756 173.071 153.702 173.082 153.657C173.085 153.645 173.086 153.635 173.087 153.628C173.085 153.628 173.083 153.628 173.081 153.629C173.028 153.638 172.955 153.671 172.882 153.717C172.846 153.741 172.809 153.765 172.772 153.789L172.752 153.802C172.493 153.972 172.177 154.18 171.821 154.232L171.818 154.233L171.814 154.233C171.683 154.248 171.55 154.252 171.418 154.242L169.204 154.152C169.203 154.152 169.203 154.152 169.202 154.152C169.121 154.149 169.024 154.123 168.947 154.067C168.906 154.037 168.859 153.99 168.835 153.921C168.81 153.847 168.819 153.771 168.853 153.705L168.856 153.7L168.859 153.694C168.895 153.634 168.95 153.585 169.016 153.554C169.315 153.398 169.645 153.435 169.875 153.462L169.876 153.462L170.986 153.596L170.993 153.598C171.211 153.637 171.435 153.634 171.651 153.586C171.703 153.574 171.75 153.547 171.785 153.509L171.786 153.508C171.791 153.504 171.794 153.498 171.796 153.491C171.793 153.49 171.789 153.489 171.786 153.489L171.774 153.487L171.763 153.484C171.469 153.402 171.164 153.346 170.849 153.29L168.943 152.949L168.938 152.948C168.606 152.873 168.265 152.843 167.924 152.859C167.463 152.899 167.007 153.104 166.519 153.33Z" fill="#273B63"/>
<path d="M141.841 129.28C143.691 131.377 143.493 130.165 144.5 132.725C146.42 137.606 150.02 143.615 149.861 146.178C149.749 147.993 145.579 150.294 143.184 150.521C142.898 150.547 142.61 150.485 142.363 150.345C142.116 150.204 141.923 149.993 141.811 149.741C141.53 149.106 141.108 148.187 140.859 147.646C140.751 147.414 140.642 147.177 140.533 146.955C138.93 143.694 137.437 140.368 135.724 137.159C134.368 134.627 135.773 131.383 137.795 129.231C138.049 128.959 138.363 128.742 138.714 128.595C139.065 128.448 139.446 128.374 139.83 128.379C140.214 128.383 140.592 128.466 140.939 128.622C141.286 128.777 141.594 129.002 141.841 129.28V129.28Z" fill="#486DB7"/>
<path d="M120.102 130.685C120.102 130.685 127.08 119.962 141.716 128.942C142.406 129.411 143.015 129.98 143.521 130.628C144.265 131.601 143.494 132.826 143.651 134.201C143.838 135.841 143.302 141.298 142.982 142.946C141.988 148.054 142.515 152.075 142.52 156.686C142.498 159.121 143.681 164.524 143.847 167.081C143.727 167.915 143.173 170.013 142.616 170.527C142.194 170.915 138.107 173.51 132.909 173.955C127.959 174.379 127.401 171.157 118.278 171.524C117.717 171.541 117.171 171.354 116.75 171.002C116.33 170.65 116.068 170.159 116.018 169.629C114.925 159.22 117.144 152.971 118.512 137.603C118.406 136.853 118.422 133.021 120.102 130.685Z" fill="#486DB7"/>
<path d="M114.162 129.458C115.201 128.574 116.609 127.88 116.952 126.597C117.197 125.684 116.812 124.731 116.761 123.786C116.688 122.453 117.301 121.146 118.255 120.17C119.209 119.195 120.478 118.532 121.807 118.097C122.347 117.921 122.909 117.773 123.377 117.466C123.871 117.142 124.221 116.667 124.597 116.222C125.739 114.857 129.231 113.187 129.921 115.955C130.472 118.175 127.698 119.251 127.014 120.99C126.664 121.879 126.913 122.901 127.415 123.727C127.917 124.554 128.653 125.232 129.354 125.921C131.085 127.625 132.73 129.622 132.983 131.963C133.187 133.864 132.444 135.722 131.692 137.487C130.988 139.128 130.202 140.323 128.643 141.303C127.46 142.046 125.977 142.79 124.552 142.847C121.526 142.97 118.376 142.448 115.863 140.831C113.351 139.215 111.603 136.375 111.942 133.536C112.137 131.967 112.926 130.518 114.162 129.458V129.458Z" fill="#91A7D3"/>
<path d="M116.733 180.344C116.628 180.344 116.526 180.309 116.445 180.244C116.365 180.179 116.312 180.089 116.295 179.991L113.03 160.777C113.011 160.667 113.04 160.555 113.109 160.464C113.178 160.374 113.282 160.313 113.398 160.296C113.514 160.278 113.633 160.305 113.728 160.37C113.824 160.436 113.888 160.534 113.906 160.644L117.172 179.858C117.19 179.968 117.161 180.08 117.092 180.17C117.023 180.261 116.919 180.321 116.803 180.339C116.78 180.343 116.756 180.344 116.733 180.344V180.344Z" fill="#324B7F"/>
<path d="M139.34 180.128C139.234 180.128 139.132 180.092 139.052 180.027C138.972 179.962 138.919 179.872 138.902 179.774L135.637 160.56C135.618 160.45 135.646 160.338 135.715 160.247C135.784 160.157 135.888 160.096 136.005 160.078C136.121 160.061 136.24 160.088 136.335 160.153C136.43 160.218 136.495 160.317 136.513 160.427L139.778 179.647C139.797 179.757 139.768 179.87 139.699 179.96C139.63 180.05 139.526 180.111 139.41 180.128C139.386 180.13 139.363 180.13 139.34 180.128V180.128Z" fill="#324B7F"/>
<path d="M143.204 150.814C142.898 150.811 142.599 150.722 142.346 150.558C142.092 150.395 141.895 150.165 141.779 149.896C141.498 149.26 141.076 148.346 140.828 147.806L140.766 147.673C140.679 147.485 140.593 147.298 140.504 147.121C139.961 146.015 139.431 144.901 138.899 143.789C137.882 141.657 136.831 139.45 135.7 137.334C135.678 137.285 135.676 137.23 135.695 137.179C135.715 137.129 135.753 137.088 135.804 137.064C135.854 137.039 135.912 137.034 135.966 137.049C136.02 137.064 136.066 137.097 136.095 137.143C137.231 139.276 138.284 141.479 139.304 143.616C139.835 144.729 140.364 145.841 140.907 146.948C140.995 147.127 141.084 147.317 141.173 147.508L141.235 147.641C141.486 148.182 141.9 149.099 142.187 149.736C142.277 149.942 142.432 150.117 142.632 150.235C142.832 150.353 143.066 150.409 143.301 150.394C145.727 150.184 149.711 147.881 149.813 146.244C149.817 146.189 149.843 146.137 149.887 146.1C149.931 146.063 149.988 146.044 150.047 146.047C150.106 146.05 150.16 146.075 150.199 146.117C150.239 146.158 150.259 146.213 150.255 146.268C150.131 148.277 145.79 150.601 143.341 150.813C143.296 150.813 143.251 150.814 143.204 150.814Z" fill="#509283"/>
<path d="M113.468 164.238H136.948C137.474 164.238 137.994 164.133 138.474 163.929C138.954 163.725 139.383 163.427 139.733 163.055C140.083 162.683 140.346 162.245 140.505 161.769C140.663 161.294 140.714 160.793 140.653 160.298L137.954 138.293C137.672 135.951 135.578 134.029 133.311 134.029H110.949C108.683 134.029 107.064 135.947 107.351 138.293L110.194 161.482C110.289 162.242 110.674 162.942 111.278 163.45C111.881 163.958 112.66 164.238 113.468 164.238V164.238Z" fill="#324B7F"/>
<path d="M112.438 164.238H135.292C135.778 164.239 136.258 164.143 136.702 163.955C137.145 163.768 137.542 163.493 137.865 163.15C138.189 162.806 138.432 162.402 138.578 161.963C138.724 161.524 138.771 161.061 138.715 160.604L135.972 138.293C135.69 135.951 133.594 134.029 131.329 134.029H108.967C106.701 134.029 105.08 135.947 105.368 138.293L108.102 160.58C108.225 161.588 108.734 162.518 109.534 163.192C110.333 163.867 111.367 164.239 112.438 164.238V164.238Z" fill="#DAE1F0"/>
</svg>
