<svg width="141" height="30" viewBox="0 0 141 30" fill="none" xmlns="http://www.w3.org/2000/svg">
<path fill-rule="evenodd" clip-rule="evenodd" d="M7.05671 9.21V11.0714H0.0987549V1.44434H2.44351V9.21H7.05671Z" fill="#87A2B1"/>
<path fill-rule="evenodd" clip-rule="evenodd" d="M11.0071 9.62659C11.2268 9.62659 11.4379 9.62317 11.6377 9.61312C11.8387 9.60399 11.9994 9.59007 12.1192 9.57135V8.00123C12.0288 7.98297 11.894 7.96448 11.7138 7.94667C11.534 7.9275 11.3671 7.91768 11.2179 7.91768C11.0071 7.91768 10.8095 7.93023 10.6234 7.95352C10.4392 7.97566 10.2757 8.02041 10.1347 8.08478C9.99445 8.14893 9.88507 8.23773 9.80556 8.34936C9.72531 8.4603 9.68432 8.59841 9.68432 8.76506C9.68432 9.08922 9.8026 9.31476 10.0379 9.43872C10.2725 9.56496 10.596 9.62659 11.0071 9.62659ZM10.8271 3.56909C11.4883 3.56909 12.0392 3.63895 12.4795 3.77706C12.9207 3.91699 13.2741 4.11628 13.539 4.3747C13.8054 4.63357 13.9928 4.94973 14.1027 5.31978C14.2131 5.69051 14.2679 6.10278 14.2679 6.55523V10.8636C13.9474 10.9282 13.5012 11.0049 12.9311 11.0923C12.3597 11.1795 11.6686 11.2245 10.8565 11.2245C10.3458 11.2245 9.88262 11.1832 9.46631 11.0996C9.0505 11.0161 8.69247 10.8796 8.39172 10.6889C8.09196 10.5008 7.86109 10.2522 7.70084 9.94635C7.54108 9.64045 7.45959 9.26538 7.45959 8.82138C7.45959 8.39472 7.55318 8.03335 7.73837 7.73704C7.9238 7.44074 8.17171 7.20515 8.48258 7.02869C8.79296 6.85314 9.14877 6.7253 9.54977 6.64655C9.95052 6.56779 10.3663 6.52784 10.7962 6.52784C11.0868 6.52784 11.3449 6.54108 11.5713 6.56322C11.7962 6.58697 11.9782 6.61664 12.1192 6.65385V6.45913C12.1192 6.10735 12.0042 5.82519 11.7738 5.61106C11.5429 5.39899 11.1422 5.29261 10.5705 5.29261C10.1908 5.29261 9.81472 5.31772 9.4436 5.36909C9.07297 5.41931 8.75321 5.49122 8.48258 5.58276L8.19714 3.91699C8.32702 3.87955 8.4895 3.84029 8.68506 3.79897C8.88062 3.75583 9.09322 3.72021 9.32409 3.68825C9.55471 3.65493 9.79793 3.62685 10.0525 3.60379C10.3083 3.58051 10.5658 3.56909 10.8271 3.56909Z" fill="#87A2B1"/>
<path fill-rule="evenodd" clip-rule="evenodd" d="M20.6265 7.19489C20.6265 6.52785 20.5339 6.05623 20.3487 5.77841C20.1635 5.50127 19.845 5.3618 19.3946 5.3618C19.2544 5.3618 19.1085 5.3691 18.9588 5.38257C18.8087 5.39627 18.6635 5.41225 18.5235 5.43165V11.0713H16.2839V4.01402C16.4743 3.9686 16.6965 3.91815 16.9521 3.8677C17.2077 3.81747 17.4783 3.77113 17.7642 3.72845C18.0504 3.68827 18.3418 3.65517 18.643 3.63188C18.9435 3.6086 19.2386 3.59741 19.5309 3.59741C20.1008 3.59741 20.565 3.66384 20.9203 3.79921C21.2757 3.9323 21.569 4.09347 21.7991 4.2786C22.1196 4.06584 22.4878 3.89806 22.9029 3.7773C23.3194 3.65768 23.7029 3.59741 24.0535 3.59741C24.6844 3.59741 25.2029 3.67845 25.6081 3.8403C26.0136 4.00307 26.3378 4.2318 26.5778 4.52789C26.8178 4.82419 26.9825 5.17734 27.0733 5.58277C27.165 5.99254 27.2092 6.44613 27.2092 6.94515V11.0713H24.9701V7.19489C24.9701 6.52785 24.8772 6.05623 24.6918 5.77841C24.5066 5.50127 24.1881 5.3618 23.7377 5.3618C23.6175 5.3618 23.4488 5.38919 23.2345 5.44466C23.0194 5.50127 22.8406 5.56953 22.7006 5.65308C22.7705 5.86698 22.8147 6.09161 22.8364 6.32674C22.856 6.56324 22.8663 6.81503 22.8663 7.08417V11.0713H20.6265V7.19489Z" fill="#4F667C"/>
<path fill-rule="evenodd" clip-rule="evenodd" d="M33.5205 6.68109C33.5104 6.50509 33.4778 6.33433 33.4227 6.16723C33.3671 5.9999 33.2832 5.85266 33.1671 5.72209C33.0516 5.59379 32.9061 5.48604 32.7318 5.40363C32.5553 5.32008 32.3377 5.27831 32.0777 5.27831C31.8273 5.27831 31.6123 5.31803 31.4325 5.39633C31.2505 5.47623 31.1009 5.57964 30.9814 5.70907C30.8604 5.83897 30.7678 5.98895 30.7029 6.15993C30.6382 6.33182 30.5905 6.50509 30.5597 6.68109H33.5205ZM28.2607 7.47408C28.2607 6.82508 28.3682 6.25803 28.5845 5.77202C28.7993 5.28441 29.082 4.88127 29.4324 4.55619C29.7832 4.23181 30.1862 3.98595 30.6423 3.81862C31.0983 3.6522 31.566 3.56934 32.047 3.56934C33.1698 3.56934 34.0564 3.88619 34.7071 4.52081C35.3589 5.15543 35.6844 6.09047 35.6844 7.32022C35.6844 7.44098 35.6804 7.57384 35.6691 7.71697C35.6592 7.85942 35.6491 7.98794 35.6399 8.09866H30.5596C30.6102 8.52486 30.8253 8.8634 31.2065 9.11245C31.5865 9.36333 32.0971 9.48843 32.7391 9.48843C33.1498 9.48843 33.5525 9.4535 33.9485 9.38342C34.3444 9.31494 34.6673 9.22865 34.9179 9.12638L35.2184 10.8074C35.0977 10.8638 34.9382 10.9179 34.7377 10.9745C34.5372 11.0298 34.3145 11.0784 34.0688 11.12C33.8234 11.162 33.5611 11.1964 33.2799 11.2247C32.9991 11.2528 32.7191 11.2658 32.4384 11.2658C31.7268 11.2658 31.1082 11.1693 30.583 10.9745C30.0576 10.7796 29.6205 10.5143 29.2761 10.1753C28.9292 9.83793 28.6746 9.43707 28.5089 8.97457C28.3437 8.51116 28.2607 8.01122 28.2607 7.47408Z" fill="#4F667C"/>
<path fill-rule="evenodd" clip-rule="evenodd" d="M36.8107 4.01402C37.1922 3.91084 37.683 3.81747 38.2838 3.72845C38.8846 3.6417 39.5164 3.59741 40.1774 3.59741C40.8488 3.59741 41.4073 3.67845 41.8533 3.8403C42.299 4.00307 42.6526 4.2318 42.9126 4.52788C43.1728 4.82419 43.359 5.17734 43.4679 5.583C43.5795 5.99253 43.6341 6.44613 43.6341 6.94515V11.0716H41.3947V7.19489C41.3947 6.52785 41.2994 6.05622 41.1083 5.77841C40.9187 5.50127 40.5626 5.36179 40.0424 5.36179C39.8821 5.36179 39.7115 5.3691 39.5312 5.38257C39.3515 5.39626 39.19 5.41224 39.0505 5.43165V11.0716H36.8107V4.01402Z" fill="#4F667C"/>
<path fill-rule="evenodd" clip-rule="evenodd" d="M44.9862 1.94389L47.2253 1.6106V3.76397H49.915V5.48589H47.2253V8.05771C47.2253 8.49258 47.3077 8.8398 47.4739 9.09844C47.6391 9.35868 47.9725 9.48834 48.473 9.48834C48.7142 9.48834 48.9611 9.46711 49.2167 9.42511C49.4722 9.38333 49.7056 9.32604 49.915 9.25047L50.2315 10.8637C49.9602 10.9655 49.6609 11.0534 49.329 11.1276C48.9991 11.2011 48.5927 11.2379 48.1125 11.2379C47.5013 11.2379 46.9944 11.1619 46.5937 11.0087C46.1929 10.8557 45.8731 10.6434 45.6329 10.3709C45.3931 10.0965 45.2255 9.76548 45.1297 9.3774C45.0341 8.98749 44.9862 8.55719 44.9862 8.08487V1.94389Z" fill="#4F667C"/>
<path fill-rule="evenodd" clip-rule="evenodd" d="M55.7149 6.68109C55.7055 6.50509 55.6724 6.33433 55.6178 6.16723C55.5632 5.9999 55.4783 5.85266 55.3632 5.72209C55.2474 5.59379 55.1018 5.48604 54.9277 5.40363C54.7506 5.32008 54.5333 5.27831 54.2726 5.27831C54.0232 5.27831 53.8079 5.31803 53.6269 5.39633C53.4466 5.47623 53.2958 5.57964 53.1763 5.70907C53.0553 5.83897 52.9632 5.98895 52.8982 6.15993C52.8331 6.33182 52.7851 6.50509 52.756 6.68109H55.7149ZM50.4561 7.47408C50.4561 6.82508 50.564 6.25803 50.7795 5.77202C50.9938 5.28441 51.2778 4.88127 51.6282 4.55619C51.9793 4.23181 52.383 3.98595 52.8371 3.81862C53.2946 3.6522 53.7628 3.56934 54.2441 3.56934C55.3638 3.56934 56.2515 3.88619 56.9026 4.52081C57.555 5.15543 57.8799 6.09047 57.8799 7.32022C57.8799 7.44098 57.8748 7.57384 57.8641 7.71697C57.8548 7.85942 57.8449 7.98794 57.8353 8.09866H52.7561C52.8053 8.52486 53.0206 8.8634 53.4023 9.11245C53.7828 9.36333 54.2934 9.48843 54.9357 9.48843C55.3446 9.48843 55.7495 9.4535 56.1446 9.38342C56.5394 9.31494 56.8634 9.22865 57.1128 9.12638L57.414 10.8074C57.2943 10.8638 57.134 10.9179 56.9333 10.9745C56.733 11.0298 56.5103 11.0784 56.2644 11.12C56.0194 11.162 55.7562 11.1964 55.4749 11.2247C55.1954 11.2528 54.9137 11.2658 54.6337 11.2658C53.9223 11.2658 53.3038 11.1693 52.7786 10.9745C52.2521 10.7796 51.8171 10.5143 51.4702 10.1753C51.1257 9.83793 50.8701 9.43707 50.704 8.97457C50.5393 8.51116 50.4561 8.01122 50.4561 7.47408Z" fill="#4F667C"/>
<path fill-rule="evenodd" clip-rule="evenodd" d="M64.367 6.68109C64.3576 6.50509 64.3245 6.33433 64.27 6.16723C64.2149 5.9999 64.1297 5.85266 64.0144 5.72209C63.8993 5.59379 63.7539 5.48604 63.5783 5.40363C63.4028 5.32008 63.186 5.27831 62.9255 5.27831C62.6749 5.27831 62.4586 5.31803 62.2791 5.39633C62.0983 5.47623 61.9479 5.57964 61.8284 5.70907C61.7087 5.83897 61.6148 5.98895 61.5489 6.15993C61.4847 6.33182 61.4373 6.50509 61.4074 6.68109H64.367ZM59.1082 7.47408C59.1082 6.82508 59.2151 6.25803 59.4314 5.77202C59.6459 5.28441 59.9294 4.88127 60.2798 4.55619C60.6302 4.23181 61.0336 3.98595 61.4897 3.81862C61.9453 3.6522 62.4149 3.56934 62.8957 3.56934C64.0167 3.56934 64.9043 3.88619 65.5547 4.52081C66.2064 5.15543 66.5308 6.09047 66.5308 7.32022C66.5308 7.44098 66.5261 7.57384 66.5175 7.71697C66.5071 7.85942 66.4962 7.98794 66.4869 8.09866H61.4075C61.4573 8.52486 61.6714 8.8634 62.0537 9.11245C62.4342 9.36333 62.9453 9.48843 63.5865 9.48843C63.9959 9.48843 64.4004 9.4535 64.7964 9.38342C65.1915 9.31494 65.5147 9.22865 65.7654 9.12638L66.0661 10.8074C65.9459 10.8638 65.7849 10.9179 65.5839 10.9745C65.3844 11.0298 65.1604 11.0784 64.9157 11.12C64.6705 11.162 64.4078 11.1964 64.1278 11.2247C63.847 11.2528 63.5658 11.2658 63.2858 11.2658C62.5744 11.2658 61.9561 11.1693 61.4299 10.9745C60.9042 10.7796 60.4677 10.5143 60.1223 10.1753C59.7763 9.83793 59.5217 9.43707 59.3561 8.97457C59.1899 8.51116 59.1082 8.01122 59.1082 7.47408Z" fill="#87A2B1"/>
<path fill-rule="evenodd" clip-rule="evenodd" d="M69.928 9.58475C70.3384 9.58475 70.6295 9.54777 70.7999 9.47312C70.9695 9.39938 71.0544 9.25534 71.0544 9.04304C71.0544 8.87616 70.9448 8.73029 70.7241 8.60634C70.5038 8.48078 70.168 8.33925 69.7174 8.18196C69.366 8.06143 69.049 7.9361 68.763 7.80713C68.4776 7.67746 68.2351 7.52155 68.0336 7.34098C67.8336 7.16041 67.6793 6.94514 67.5682 6.69403C67.4578 6.44589 67.4032 6.14364 67.4032 5.79232C67.4032 5.10702 67.6793 4.56485 68.2299 4.1665C68.7811 3.76792 69.5376 3.56909 70.4994 3.56909C70.9801 3.56909 71.4406 3.60836 71.8811 3.68803C72.3224 3.7661 72.6728 3.85125 72.9345 3.94507L72.5424 5.55559C72.2821 5.47204 71.9994 5.39899 71.6935 5.33462C71.3875 5.26933 71.0461 5.23714 70.6636 5.23714C69.9633 5.23714 69.6134 5.41634 69.6134 5.77817C69.6134 5.86172 69.6275 5.93545 69.6559 5.9996C69.6873 6.06489 69.748 6.12744 69.8374 6.18839C69.928 6.24934 70.0497 6.31303 70.2058 6.38334C70.3608 6.45319 70.5591 6.52989 70.7999 6.61436C71.2907 6.78237 71.6957 6.94879 72.0167 7.11178C72.3377 7.27569 72.5905 7.45169 72.776 7.64094C72.9609 7.83087 73.0913 8.04043 73.1671 8.27099C73.2412 8.5027 73.2789 8.77093 73.2789 9.07477C73.2789 9.79636 72.9849 10.3422 72.3999 10.7122C71.8135 11.0811 70.9843 11.2656 69.9127 11.2656C69.2119 11.2656 68.628 11.211 68.1628 11.0996C67.6956 10.9878 67.3741 10.8955 67.1931 10.8216L67.5682 9.14074C67.9497 9.27862 68.3393 9.3882 68.7398 9.46673C69.1413 9.54548 69.5376 9.58475 69.928 9.58475Z" fill="#87A2B1"/>
<path fill-rule="evenodd" clip-rule="evenodd" d="M8.0823 21.1729C8.0823 19.9315 7.90946 19.0529 7.56451 18.5358C7.21882 18.0181 6.62819 17.7601 5.78891 17.7601C5.52742 17.7601 5.25828 17.7734 4.97827 17.7994C4.69876 17.8254 4.42789 17.8546 4.16689 17.8898V28.3866H0.00012207V15.252C0.354205 15.1664 0.76903 15.0758 1.24509 14.9813C1.71918 14.8861 2.22314 14.7998 2.75476 14.7219C3.28613 14.6443 3.83158 14.585 4.39085 14.5409C4.94938 14.4987 5.50001 14.4761 6.04077 14.4761C7.10302 14.4761 7.96625 14.6014 8.6275 14.8518C9.28949 15.1011 9.83444 15.3986 10.2633 15.7437C10.8601 15.347 11.5454 15.0365 12.319 14.8128C13.0928 14.5891 13.8054 14.4761 14.4588 14.4761C15.6338 14.4761 16.5983 14.6272 17.3529 14.9297C18.108 15.231 18.7095 15.6574 19.1576 16.2092C19.6048 16.7605 19.9117 17.4156 20.0791 18.1731C20.2478 18.9328 20.3313 19.7774 20.3313 20.7084V28.3866H16.1645V21.1729C16.1645 19.9315 15.9919 19.0529 15.6469 18.5358C15.3022 18.0181 14.7106 17.7601 13.8718 17.7601C13.6484 17.7601 13.335 17.8115 12.934 17.9151C12.5335 18.0181 12.2024 18.148 11.9422 18.303C12.072 18.7 12.1555 19.1173 12.1933 19.5569C12.231 19.997 12.2491 20.4657 12.2491 20.9666V28.3866H8.0823V21.1729Z" fill="#4F667C"/>
<path fill-rule="evenodd" clip-rule="evenodd" d="M28.6104 25.6974C29.0197 25.6974 29.4109 25.689 29.784 25.6718C30.1575 25.6547 30.4551 25.6285 30.679 25.5935V22.6731C30.5106 22.6384 30.2598 22.604 29.924 22.5688C29.5889 22.535 29.281 22.5172 29.0012 22.5172C28.6104 22.5172 28.241 22.5389 27.8958 22.5818C27.5516 22.625 27.2483 22.7074 26.9876 22.8277C26.7259 22.9482 26.5219 23.1117 26.3718 23.3189C26.2234 23.526 26.1483 23.7844 26.1483 24.0942C26.1483 24.6978 26.3676 25.1157 26.8059 25.3484C27.2439 25.5812 27.8447 25.6974 28.6104 25.6974ZM28.2743 14.4241C29.5047 14.4241 30.5286 14.554 31.3504 14.8126C32.1699 15.0708 32.8277 15.4424 33.322 15.9241C33.8149 16.4076 34.1653 16.9934 34.3705 17.6832C34.5764 18.372 34.6789 19.1394 34.6789 19.9834V27.9986C34.0816 28.1196 33.2522 28.2609 32.1894 28.4246C31.1269 28.5894 29.8397 28.6718 28.3303 28.6718C27.3792 28.6718 26.5167 28.5935 25.7433 28.438C24.9687 28.283 24.3035 28.0292 23.744 27.676C23.184 27.3229 22.7546 26.8613 22.4571 26.2926C22.1585 25.7233 22.0092 25.0252 22.0092 24.1977C22.0092 23.4051 22.1815 22.734 22.5269 22.1815C22.8714 21.6293 23.3334 21.1901 23.9117 20.8632C24.4892 20.5354 25.1507 20.2987 25.8974 20.1521C26.6424 20.006 27.4162 19.9314 28.218 19.9314C28.7585 19.9314 29.2392 19.954 29.658 19.9969C30.0775 20.0402 30.4173 20.0959 30.679 20.1651V19.8035C30.679 19.1479 30.4642 18.6226 30.036 18.2254C29.6069 17.8287 28.8612 17.631 27.7977 17.631C27.0905 17.631 26.3898 17.6782 25.7006 17.7734C25.0107 17.8679 24.4151 18.0019 23.9117 18.1731L23.3796 15.0708C23.6218 15.0021 23.9248 14.9297 24.2892 14.8516C24.6524 14.7733 25.0485 14.7049 25.4774 14.6444C25.9063 14.5848 26.3579 14.5325 26.8332 14.4894C27.3098 14.4462 27.7891 14.4241 28.2743 14.4241Z" fill="#4F667C"/>
<path fill-rule="evenodd" clip-rule="evenodd" d="M46.2008 18.1995C45.8272 18.1136 45.3889 18.0232 44.8857 17.9285C44.3817 17.8335 43.8417 17.7863 43.2636 17.7863C43.0019 17.7863 42.6903 17.8077 42.3268 17.8506C41.9629 17.894 41.6876 17.9406 41.5021 17.9922V28.3865H37.3344V15.5112C38.0803 15.2695 38.9611 15.0414 39.9774 14.8266C40.994 14.6104 42.1266 14.5024 43.3757 14.5024C43.5992 14.5024 43.8696 14.5152 44.1861 14.541C44.5029 14.5668 44.8202 14.6013 45.1373 14.6444C45.4536 14.6876 45.7704 14.7403 46.0887 14.7997C46.4055 14.8592 46.6751 14.9334 46.899 15.0193L46.2008 18.1995Z" fill="#4F667C"/>
<path fill-rule="evenodd" clip-rule="evenodd" d="M53.3591 25.6974C53.7695 25.6974 54.1606 25.689 54.5339 25.6718C54.9065 25.6547 55.2043 25.6285 55.429 25.5935V22.6731C55.2616 22.6384 55.0095 22.604 54.6737 22.5688C54.3386 22.535 54.0315 22.5172 53.7507 22.5172C53.3591 22.5172 52.9907 22.5389 52.6455 22.5818C52.3006 22.625 51.9981 22.7074 51.7373 22.8277C51.4761 22.9482 51.2707 23.1117 51.122 23.3189C50.9736 23.526 50.8985 23.7844 50.8985 24.0942C50.8985 24.6978 51.1176 25.1157 51.5558 25.3484C51.9939 25.5812 52.5951 25.6974 53.3591 25.6974ZM53.0233 14.4241C54.2546 14.4241 55.2789 14.554 56.1006 14.8126C56.9197 15.0708 57.5779 15.4424 58.0715 15.9241C58.5649 16.4076 58.916 16.9934 59.1207 17.6832C59.3256 18.372 59.4281 19.1394 59.4281 19.9834V27.9986C58.8308 28.1196 58.0024 28.2609 56.9384 28.4246C55.8767 28.5894 54.59 28.6718 53.0793 28.6718C52.1297 28.6718 51.2664 28.5935 50.4931 28.438C49.7187 28.283 49.0528 28.0292 48.493 27.676C47.934 27.3229 47.5051 26.8613 47.2071 26.2926C46.9083 25.7233 46.7592 25.0252 46.7592 24.1977C46.7592 23.4051 46.9313 22.734 47.2769 22.1815C47.6212 21.6293 48.0834 21.1901 48.6607 20.8632C49.2387 20.5354 49.9007 20.2987 50.6462 20.1521C51.3919 20.006 52.1662 19.9314 52.9677 19.9314C53.5087 19.9314 53.9887 19.954 54.4077 19.9969C54.828 20.0402 55.167 20.0959 55.429 20.1651V19.8035C55.429 19.1479 55.2144 18.6226 54.7855 18.2254C54.3571 17.8287 53.6112 17.631 52.5484 17.631C51.8398 17.631 51.14 17.6782 50.4506 17.7734C49.7615 17.8679 49.1646 18.0019 48.6607 18.1731L48.1296 15.0708C48.372 15.0021 48.675 14.9297 49.0392 14.8516C49.4022 14.7733 49.7987 14.7049 50.2271 14.6444C50.6565 14.5848 51.1079 14.5325 51.5835 14.4894C52.059 14.4462 52.5393 14.4241 53.0233 14.4241Z" fill="#4F667C"/>
<path fill-rule="evenodd" clip-rule="evenodd" d="M65.7421 28.3865C64.7873 26.6634 63.8191 24.6463 62.8364 22.3359C61.8536 20.0264 60.9227 17.5103 60.0437 14.7869H64.4623C64.6492 15.4596 64.869 16.1874 65.1223 16.9711C65.3745 17.7563 65.6372 18.5487 65.9083 19.3495C66.1797 20.1522 66.4518 20.9322 66.7236 21.6908C66.995 22.4493 67.2624 23.1378 67.5249 23.7588C67.7676 23.1378 68.0296 22.4493 68.3101 21.6908C68.5908 20.9322 68.8661 20.1522 69.138 19.3495C69.4094 18.5487 69.6721 17.7563 69.9244 16.9711C70.1773 16.1874 70.3968 15.4596 70.5842 14.7869H74.8937C74.0147 17.5103 73.0848 20.0264 72.103 22.3359C71.1215 24.6463 70.1533 26.6634 69.1997 28.3865H65.7421Z" fill="#4F667C"/>
<path fill-rule="evenodd" clip-rule="evenodd" d="M75.9835 28.3867H80.1515V14.7871H75.9835V28.3867ZM80.5426 10.8566C80.5426 11.5642 80.2952 12.1203 79.8016 12.5244C79.3078 12.9294 78.7255 13.1318 78.0539 13.1318C77.3828 13.1318 76.7998 12.9294 76.3062 12.5244C75.8124 12.1203 75.5649 11.5642 75.5649 10.8566C75.5649 10.15 75.8124 9.59325 76.3062 9.18897C76.7998 8.78468 77.3828 8.58105 78.0539 8.58105C78.7255 8.58105 79.3078 8.78468 79.8016 9.18897C80.2952 9.59325 80.5426 10.15 80.5426 10.8566Z" fill="#4F667C"/>
<path fill-rule="evenodd" clip-rule="evenodd" d="M88.8194 28.6453C87.6083 28.6282 86.6243 28.5069 85.8699 28.283C85.1151 28.0593 84.5173 27.7447 84.0803 27.3386C83.6422 26.9348 83.3432 26.4433 83.1849 25.8657C83.0267 25.2882 82.9469 24.6374 82.9469 23.9135V8.94304L87.1147 8.32349V23.1378C87.1147 23.4825 87.1418 23.7929 87.1979 24.0685C87.2542 24.3449 87.3613 24.5775 87.5201 24.767C87.6781 24.9574 87.906 25.111 88.2056 25.2327C88.5031 25.3526 88.9041 25.4302 89.4081 25.4651L88.8194 28.6453Z" fill="#4F667C"/>
<path fill-rule="evenodd" clip-rule="evenodd" d="M96.538 28.6453C95.3261 28.6282 94.3431 28.5069 93.5878 28.283C92.8332 28.0593 92.2352 27.7447 91.7989 27.3386C91.3601 26.9348 91.0618 26.4433 90.9035 25.8657C90.7453 25.2882 90.6663 24.6374 90.6663 23.9135V8.94304L94.8325 8.32349V23.1378C94.8325 23.4825 94.8597 23.7929 94.9165 24.0685C94.972 24.3449 95.0794 24.5775 95.2387 24.767C95.3967 24.9574 95.6246 25.111 95.9237 25.2327C96.2219 25.3526 96.6229 25.4302 97.1262 25.4651L96.538 28.6453Z" fill="#4F667C"/>
<path fill-rule="evenodd" clip-rule="evenodd" d="M121.024 25.6194C121.788 25.6194 122.329 25.5512 122.646 25.4133C122.962 25.2749 123.121 25.0079 123.121 24.6118C123.121 24.3009 122.916 24.0304 122.506 23.7968C122.096 23.5642 121.472 23.3012 120.633 23.0086C119.98 22.7849 119.388 22.5522 118.857 22.3103C118.326 22.0694 117.873 21.7804 117.5 21.4448C117.127 21.1077 116.838 20.7082 116.633 20.242C116.429 19.7773 116.327 19.2168 116.327 18.5614C116.327 17.2865 116.838 16.2777 117.864 15.5369C118.889 14.7955 120.297 14.4241 122.087 14.4241C122.982 14.4241 123.838 14.4985 124.659 14.6444C125.479 14.7905 126.132 14.9507 126.617 15.1228L125.89 18.1215C125.405 17.9665 124.879 17.8287 124.31 17.7083C123.741 17.5876 123.102 17.5275 122.395 17.5275C121.089 17.5275 120.438 17.8636 120.438 18.5359C120.438 18.6902 120.465 18.8294 120.52 18.95C120.577 19.0707 120.689 19.186 120.856 19.2979C121.024 19.4113 121.252 19.5316 121.542 19.6617C121.831 19.7928 122.199 19.9361 122.646 20.0923C123.56 20.4043 124.314 20.7144 124.911 21.0168C125.508 21.3211 125.979 21.6498 126.324 22.0021C126.668 22.355 126.911 22.7467 127.051 23.1764C127.19 23.6062 127.261 24.1043 127.261 24.6723C127.261 26.0146 126.715 27.0293 125.625 27.7164C124.534 28.4035 122.991 28.7491 120.996 28.7491C119.691 28.7491 118.606 28.6453 117.738 28.438C116.872 28.2314 116.27 28.0593 115.934 27.9219L116.633 24.7926C117.342 25.0515 118.069 25.2537 118.815 25.4C119.56 25.5475 120.297 25.6194 121.024 25.6194Z" fill="#4F667C"/>
<path fill-rule="evenodd" clip-rule="evenodd" d="M134.556 25.6974C134.966 25.6974 135.356 25.689 135.731 25.6718C136.103 25.6547 136.401 25.6285 136.626 25.5935V22.6731C136.458 22.6384 136.206 22.604 135.871 22.5688C135.535 22.535 135.227 22.5172 134.948 22.5172C134.556 22.5172 134.188 22.5389 133.843 22.5818C133.498 22.625 133.195 22.7074 132.934 22.8277C132.672 22.9482 132.467 23.1117 132.319 23.3189C132.17 23.526 132.094 23.7844 132.094 24.0942C132.094 24.6978 132.314 25.1157 132.752 25.3484C133.191 25.5812 133.791 25.6974 134.556 25.6974ZM134.221 14.4241C135.451 14.4241 136.476 14.554 137.297 14.8126C138.116 15.0708 138.774 15.4424 139.268 15.9241C139.762 16.4076 140.113 16.9934 140.317 17.6832C140.522 18.372 140.625 19.1394 140.625 19.9834V27.9986C140.028 28.1196 139.199 28.2609 138.136 28.4246C137.074 28.5894 135.786 28.6718 134.277 28.6718C133.326 28.6718 132.464 28.5935 131.69 28.438C130.915 28.283 130.249 28.0292 129.69 27.676C129.131 27.3229 128.701 26.8613 128.403 26.2926C128.105 25.7233 127.956 25.0252 127.956 24.1977C127.956 23.4051 128.128 22.734 128.474 22.1815C128.818 21.6293 129.281 21.1901 129.857 20.8632C130.436 20.5354 131.098 20.2987 131.843 20.1521C132.588 20.006 133.363 19.9314 134.164 19.9314C134.705 19.9314 135.185 19.954 135.605 19.9969C136.024 20.0402 136.363 20.0959 136.626 20.1651V19.8035C136.626 19.1479 136.411 18.6226 135.982 18.2254C135.554 17.8287 134.808 17.631 133.746 17.631C133.036 17.631 132.336 17.6782 131.647 17.7734C130.958 17.8679 130.361 18.0019 129.857 18.1731L129.326 15.0708C129.569 15.0021 129.872 14.9297 130.236 14.8516C130.599 14.7733 130.995 14.7049 131.424 14.6444C131.853 14.5848 132.305 14.5325 132.78 14.4894C133.255 14.4462 133.736 14.4241 134.221 14.4241Z" fill="#4F667C"/>
<path fill-rule="evenodd" clip-rule="evenodd" d="M104.23 0.990723C104.004 0.990723 103.785 1.01789 103.577 1.06948C104.37 1.88376 105.151 3.21372 105.821 5.21666C106.412 4.78247 106.791 4.11247 106.791 3.35937C106.791 2.05246 105.643 0.990723 104.23 0.990723Z" fill="#992A76"/>
<path fill-rule="evenodd" clip-rule="evenodd" d="M103.577 1.06934C102.478 1.3362 101.667 2.26051 101.667 3.35945C101.667 4.66681 102.817 5.72786 104.23 5.72786C104.831 5.72786 105.382 5.53725 105.821 5.21651C105.151 3.21358 104.37 1.88361 103.577 1.06934Z" fill="#D576AC"/>
<path fill-rule="evenodd" clip-rule="evenodd" d="M117.861 5.54233C116.276 5.47886 114.935 6.61684 114.868 8.08355C114.829 8.91221 115.207 9.66896 115.828 10.1815C117.737 8.38762 119.298 7.55029 120.448 7.30899C120.069 6.31711 119.068 5.58889 117.861 5.54233Z" fill="#D22724"/>
<path fill-rule="evenodd" clip-rule="evenodd" d="M120.449 7.30884C119.299 7.55013 117.737 8.38747 115.828 10.1813C116.307 10.5758 116.927 10.8253 117.617 10.8522C119.203 10.9139 120.545 9.77656 120.612 8.30848C120.627 7.95875 120.569 7.62113 120.449 7.30884Z" fill="#F29325"/>
<path fill-rule="evenodd" clip-rule="evenodd" d="M109.683 5.1561C110.344 5.80625 110.307 6.39886 109.994 6.89218C110.048 6.91044 110.102 6.92437 110.155 6.94377C110.54 7.08759 110.911 7.26405 111.275 7.45535C113.28 6.2797 112.83 4.31991 112.712 3.92179C112.493 3.16915 112.022 2.49914 111.161 2.40326C110.193 2.29757 109.312 2.93744 109.198 3.8323C109.133 4.33909 109.331 4.81368 109.686 5.15428L109.683 5.1561Z" fill="#5567A8"/>
<path fill-rule="evenodd" clip-rule="evenodd" d="M114.317 12.6266C113.896 11.6825 113.254 10.812 112.388 10.0174C111.536 9.23552 110.598 8.65363 109.575 8.27103C108.61 7.91263 107.628 7.73389 106.625 7.73389C106.562 7.73389 106.499 7.73457 106.437 7.73571C105.369 7.76014 104.302 7.99504 103.236 8.4395C103.216 8.44932 103.194 8.46005 103.173 8.46964L114.114 18.5135C114.124 18.4944 114.136 18.4763 114.145 18.4549C114.626 17.4744 114.88 16.4933 114.907 15.513C114.934 14.5323 114.737 13.571 114.317 12.6266Z" fill="#4F667C"/>
<mask id="mask0_5_6004" style="mask-type:alpha" maskUnits="userSpaceOnUse" x="98" y="18" width="17" height="12">
<path fill-rule="evenodd" clip-rule="evenodd" d="M98.0908 18.2407H114.704V30.0001H98.0908V18.2407Z" fill="white"/>
</mask>
<g mask="url(#mask0_5_6004)">
<path fill-rule="evenodd" clip-rule="evenodd" d="M102.296 25.1652H110.761C110.761 25.1652 106.49 31.46 102.296 25.1652ZM114.114 18.2407H98.6945C98.294 19.4997 98.0908 20.4685 98.0908 21.6727C98.0908 22.9011 99.4425 30.0002 106.413 30.0002C113.382 30.0002 114.704 22.8673 114.704 21.6389C114.704 20.434 114.504 19.4997 114.114 18.2407Z" fill="#4F667C"/>
</g>
<path fill-rule="evenodd" clip-rule="evenodd" d="M115.284 3.51362C115.178 2.78426 115.057 2.61602 114.711 2.41444C114.262 2.15124 113.666 2.27474 113.381 2.69089C113.096 3.10773 113.23 3.6588 113.68 3.92178C114.594 4.42674 113.618 5.60604 113.607 5.62088C114.785 5.11067 115.389 4.24137 115.284 3.51362Z" fill="#A762A4"/>
<path fill-rule="evenodd" clip-rule="evenodd" d="M121.24 7.236C121.002 7.22527 120.74 7.24741 120.449 7.30882C120.569 7.62111 120.627 7.95874 120.612 8.30846C120.544 9.77654 119.203 10.9138 117.617 10.8524C116.927 10.8255 116.307 10.5757 115.828 10.1813C115.793 10.2148 115.757 10.2489 115.722 10.2813C115.504 10.4897 115.292 10.6942 115.086 10.8956C115.338 11.2809 115.568 11.6736 115.749 12.0826C115.859 12.3289 115.95 12.5773 116.034 12.8271C117.128 12.1616 118.359 11.5939 119.706 11.2606C123.296 10.3749 123.513 7.32457 121.24 7.236Z" fill="#ED7226"/>
<path fill-rule="evenodd" clip-rule="evenodd" d="M101.831 7.51136L102.462 7.19861C102.502 7.17761 102.543 7.15843 102.599 7.13446C103.77 6.6464 104.967 6.37954 106.157 6.32247C106.152 6.30329 106.148 6.28617 106.142 6.267C106.039 5.89787 105.931 5.54768 105.82 5.21668C105.382 5.53741 104.83 5.72802 104.23 5.72802C102.816 5.72802 101.667 4.66698 101.667 3.35961C101.667 2.26067 102.478 1.33636 103.576 1.0695C102.843 0.315028 102.096 0 101.419 0C98.8874 0.0011414 97.294 4.39144 100.717 6.64275C101.116 6.90458 101.484 7.1977 101.831 7.51136Z" fill="#D35E9E"/>
<path fill-rule="evenodd" clip-rule="evenodd" d="M101.772 11.3616C100.29 11.3616 99.0903 12.471 99.0903 13.84C99.0903 14.466 99.3412 15.0383 99.755 15.4745C100.624 14.4155 101.998 13.7323 103.545 13.7323C103.855 13.7323 104.158 13.7588 104.452 13.811C104.435 12.4557 103.241 11.3616 101.772 11.3616Z" fill="#ACCD6C"/>
<path fill-rule="evenodd" clip-rule="evenodd" d="M110.934 17.6111L105.771 12.8711C104.57 13.802 103.807 15.1966 103.807 16.7578C103.807 17.0498 103.843 17.3331 103.896 17.6111H110.934Z" fill="#F29325"/>
<path fill-rule="evenodd" clip-rule="evenodd" d="M108.26 17.611C108.075 15.6539 106.197 14.479 106.197 14.479C105.678 14.156 105.087 13.9256 104.452 13.811V13.84C104.452 15.2086 103.253 16.3182 101.772 16.3182C100.967 16.3182 100.247 15.9916 99.7552 15.4745C99.2574 16.0815 98.9403 16.8157 98.8396 17.611H108.26Z" fill="#38B5AA"/>
<path fill-rule="evenodd" clip-rule="evenodd" d="M103.545 13.7322C101.998 13.7322 100.624 14.4154 99.7551 15.4744C100.247 15.9915 100.967 16.3181 101.772 16.3181C103.253 16.3181 104.452 15.2085 104.452 13.8402V13.8112C104.158 13.7587 103.855 13.7322 103.545 13.7322Z" fill="#CEDF9A"/>
<path fill-rule="evenodd" clip-rule="evenodd" d="M104.778 13.8856C105.058 13.5076 105.391 13.1661 105.771 12.8711L104.343 11.5608C104.034 11.6455 103.754 11.7868 103.506 11.9639C104.073 12.4125 104.443 13.0686 104.452 13.8112C104.562 13.8315 104.67 13.8594 104.778 13.8856Z" fill="#D22724"/>
</svg>
