<svg width="41" height="33" viewBox="0 0 41 33" fill="none" xmlns="http://www.w3.org/2000/svg">
<path d="M37.4188 27.8806C41.2363 23.7374 40.8519 18.4168 40.8398 18.3561V12.2869V2.17162C40.8398 1.05489 39.9355 0.14856 38.8167 0.14856H26.6784C24.447 0.14856 22.6323 1.96324 22.6323 4.19467V18.3561C22.6323 19.4728 23.5366 20.3791 24.6553 20.3791H26.6784H30.8823C30.8398 21.1924 30.6335 22.2242 30.0144 23.2033C28.9867 24.8238 27.0506 25.9304 24.2568 26.4888L22.6323 26.8124V32.5175H24.6553C30.2855 32.5175 34.5805 30.9577 37.4188 27.8806ZM15.151 27.8806C18.9706 23.7374 18.5841 18.4168 18.572 18.3561V12.2869V2.17162C18.572 1.05489 17.6677 0.14856 16.549 0.14856H4.41061C2.17918 0.14856 0.364502 1.96324 0.364502 4.19467V18.3561C0.364502 19.4728 1.26881 20.3791 2.38756 20.3791H4.41061H8.61453C8.57204 21.1924 8.36569 22.2242 7.74663 23.2033C6.71892 24.8238 4.78286 25.9304 1.98902 26.4888L0.364502 26.8124V32.5175H2.38756C8.01772 32.5175 12.3127 30.9577 15.151 27.8806Z" fill="#F1F1F1"/>
</svg>
