<svg width="123" height="78" viewBox="0 0 123 78" fill="none" xmlns="http://www.w3.org/2000/svg">
<path d="M38.779 15.3852C15.3168 18.4514 3.70725 35.8845 2.21555 48.1852C0.393121 63.2009 8.29708 71.1375 23.0453 70.1075C39.0354 68.9881 57.4285 67.4639 77.2728 70.1075C97.1238 72.751 111.973 75.1742 119.263 59.0808C126.553 42.9875 116.968 12.3308 90.1108 6.94256C70.3273 2.97132 63.2131 12.1939 38.779 15.3852Z" fill="#ECF0F7"/>
<path d="M93.2968 74.9003C93.2968 74.9003 93.4723 63.9452 89.3617 60.6943C85.2511 57.4435 74.2017 42.91 83.1384 39.3318C92.0751 35.7535 94.7615 48.8818 100.492 53.3294C106.223 57.7769 101.369 74.4955 101.369 74.4955L93.2968 74.9003Z" fill="#DAE1F0"/>
<path d="M98.9124 77.0853L98.5074 77.0495C98.5209 76.9186 99.9991 63.9867 97.333 58.1816C96.0978 55.4964 93.6408 52.9184 91.0287 50.1856C87.8833 46.8931 84.6367 43.4934 82.9425 39.3852L83.3205 39.2661C84.9877 43.3148 88.2141 46.6906 91.3324 49.9593C93.9648 52.71 96.442 55.3119 97.7042 58.0507C100.418 63.9331 98.9326 76.9602 98.9124 77.0853Z" fill="#B5C4E2"/>
<path d="M89.9083 49.2032C89.5438 48.322 89.5641 46.4346 89.5843 44.4341C89.6046 42.511 89.6248 40.3319 89.1996 39.7901L89.5303 39.5876C90.0231 40.2247 90.0028 42.2729 89.9826 44.4401C89.9623 46.3215 89.9488 48.2625 90.2863 49.0841L89.9083 49.2032Z" fill="#B5C4E2"/>
<path d="M91.859 51.0548C91.5418 50.7214 89.5641 49.995 87.4784 49.227C83.2328 47.673 79.9592 46.3989 79.6284 45.4284L80.0132 45.3271C80.3169 46.2202 84.549 47.7682 87.6336 48.8995C90.212 49.8462 91.8117 50.4415 92.1695 50.8286L91.859 51.0548Z" fill="#B5C4E2"/>
<path d="M96.1586 56.0679C95.9088 55.6392 95.7401 54.0436 95.4971 51.4596C95.2878 49.2269 95.0516 46.7024 94.7344 46.2023L95.0854 46.0237C95.4498 46.5893 95.6658 48.9411 95.9021 51.4298C96.0911 53.4363 96.28 55.5082 96.5163 55.9012L96.1586 56.0679Z" fill="#B5C4E2"/>
<path d="M98.0215 60.0988C97.3398 59.1402 93.9852 58.39 91.022 57.7291C87.9846 57.0504 85.116 56.4133 84.4208 55.5083L84.7515 55.3059C85.3657 56.0978 88.2951 56.7527 91.1233 57.3838C94.4509 58.1281 97.5963 58.8306 98.3658 59.9083L98.0215 60.0988Z" fill="#B5C4E2"/>
<path d="M98.7436 69.2381C98.4534 67.1423 95.4835 65.9455 93.3168 65.0703C92.5541 64.7667 91.8993 64.4987 91.5214 64.2487L91.7644 63.9629C92.1086 64.1891 92.7498 64.4452 93.4855 64.7429C95.6117 65.6002 98.8246 66.8982 99.1418 69.1904L98.7436 69.2381Z" fill="#B5C4E2"/>
<path d="M99.2431 65.7312L98.8381 65.7074C98.8989 64.9334 99.7089 63.2723 100.566 61.5099C101.477 59.6285 102.517 57.497 102.443 56.7468L102.848 56.717C102.935 57.5506 101.963 59.5451 100.944 61.6469C100.134 63.308 99.3039 65.0168 99.2431 65.7312Z" fill="#B5C4E2"/>
<path d="M97.0631 74.394C101.869 68.4103 96.3409 48.5719 107.289 40.5282C118.23 32.4845 125.945 37.1226 118.939 48.5302C111.933 59.9379 109.55 73.3461 105.75 74.5845C101.95 75.8229 97.0631 74.394 97.0631 74.394Z" fill="#DAE1F0"/>
<path d="M100.951 77.1447L100.553 77.0793C100.573 76.984 102.611 67.4697 106.972 54.9367C109.834 46.7084 113.357 42.8324 115.686 40.2663C116.982 38.8374 117.92 37.8014 118.277 36.6106L118.669 36.6999C118.291 37.9621 117.333 39.0219 116.003 40.4866C113.694 43.0289 110.205 46.8751 107.363 55.0379C103.01 67.559 100.971 77.0554 100.951 77.1447Z" fill="#B5C4E2"/>
<path d="M109.375 50.1079L109.057 49.8816C110.34 48.4705 113.006 47.375 115.591 46.3093C118.224 45.2257 120.714 44.2016 121.153 43.0525L121.538 43.1656C121.038 44.4576 118.48 45.5114 115.767 46.6308C113.222 47.6846 110.596 48.7682 109.375 50.1079Z" fill="#B5C4E2"/>
<path d="M107.363 55.0437L106.979 54.9425C107.269 54.103 107.228 51.5964 107.188 48.9469C107.114 43.9992 107.134 40.4388 108.079 39.7422L108.342 40.0161C107.471 40.6591 107.539 45.2555 107.593 48.941C107.633 51.7333 107.674 54.1447 107.363 55.0437Z" fill="#B5C4E2"/>
<path d="M104.67 63.3019L104.279 63.2066C104.744 61.7241 107.329 60.1463 110.07 58.4852C112.479 57.0205 114.977 55.5023 115.659 54.1746L116.03 54.3234C115.308 55.7404 112.763 57.2884 110.306 58.7829C107.741 60.3309 105.095 61.9444 104.67 63.3019Z" fill="#B5C4E2"/>
<path d="M103.833 66.106L103.442 66.0167C103.867 64.5223 102.524 59.9021 101.545 56.5322C100.823 54.0554 100.418 52.6264 100.506 52.1978L100.904 52.2573C100.83 52.6324 101.37 54.484 101.937 56.4429C102.983 60.045 104.279 64.5223 103.833 66.106Z" fill="#B5C4E2"/>
<path d="M102.011 72.8041L101.612 72.7267C101.822 71.8813 103.617 71.0358 105.696 70.0594C107.633 69.1484 109.827 68.1184 110.191 67.1956L110.576 67.3146C110.158 68.3625 107.984 69.3866 105.885 70.3749C104.069 71.2323 102.179 72.1194 102.011 72.8041Z" fill="#B5C4E2"/>
<path d="M35.7821 54.7939C35.7821 54.7939 35.7686 48.8519 35.6201 43.9221C35.4716 38.9923 40.7634 33.5683 42.0053 30.758C43.2473 27.9418 41.9446 23.6372 46.4264 21.7319C46.4264 21.7319 43.794 25.8758 46.1767 28.0252C48.5594 30.1746 45.5085 37.5693 45.036 40.7427C44.5635 43.9042 41.8501 52.3052 35.7821 54.7939Z" fill="#DAE1F0"/>
<path d="M29.4845 64.5763C29.4845 64.5763 26.2447 51.2991 21.1554 45.6608C16.066 40.0225 16.4103 40.8798 8.9788 39.4985C1.55407 38.1172 1.95906 42.922 1.95906 42.922C1.95906 42.922 6.1169 40.8381 8.51307 43.5888C10.916 46.3395 11.6045 49.9655 16.309 55.6633C21.0136 61.3612 29.4845 64.5763 29.4845 64.5763Z" fill="#DAE1F0"/>
<path d="M13.6496 24.2922C15.1413 29.103 26.4539 31.6393 29.0526 36.7537C31.6512 41.8681 30.5308 54.2403 30.5308 54.2403C30.5308 54.2403 23.4638 48.864 22.9845 44.1128C22.5053 39.3615 18.8267 37.4742 15.9783 32.6396C13.1366 27.7991 13.6496 24.2922 13.6496 24.2922Z" fill="#DAE1F0"/>
<path d="M33.6019 76.6864L33.1969 76.7102C33.1901 76.5732 32.1439 62.9983 30.335 54.2759L30.1932 53.5912C28.4316 45.0831 27.3718 39.9449 22.026 35.3901C16.5317 30.6984 13.4943 24.429 13.4673 24.3635L13.8386 24.2266C13.8656 24.2861 16.876 30.496 22.3095 35.1341C27.7431 39.7662 28.8163 44.9461 30.5915 53.5257L30.7332 54.2104C32.5489 62.9507 33.5951 76.5494 33.6019 76.6864Z" fill="#DAE1F0"/>
<path d="M32.7987 72.1674C32.3262 67.8151 27.9726 62.7245 23.3693 57.3362C20.6289 54.127 17.794 50.8167 15.4181 47.3098L15.7623 47.1252C18.1247 50.6142 20.9529 53.9186 23.6865 57.1159C28.3304 62.5458 32.711 67.6781 33.1969 72.1316L32.7987 72.1674Z" fill="#B5C4E2"/>
<path d="M31.9482 64.4273C31.4217 60.718 33.3251 57.9852 35.161 55.3476C36.3287 53.6686 37.537 51.936 38.1039 49.9653C39.5484 44.9461 40.6418 35.4556 40.6486 35.3604L41.0536 35.3961C41.0401 35.4913 39.9466 45.0057 38.4954 50.0486C37.9149 52.0729 36.6865 53.8293 35.5053 55.5322C33.6221 58.2412 31.8402 60.7954 32.3464 64.3796L31.9482 64.4273Z" fill="#B5C4E2"/>
<path d="M52.7172 57.9438C52.7172 57.9438 51.2255 70.328 49.9431 71.7569C48.6674 73.1858 44.3475 73.9003 44.3475 75.8055C44.3475 77.7108 80.2562 77.4726 80.5262 75.8055C80.7962 74.1385 77.1108 72.9477 75.7136 71.7569C74.3164 70.5661 72.6965 57.9438 72.6965 57.9438H52.7172Z" fill="#273B63"/>
<path d="M49.9565 74.317L49.9363 73.9598C50.0915 73.9538 65.3325 73.2513 75.7203 73.9598L75.6866 74.317C65.3257 73.6145 50.1118 74.311 49.9565 74.317Z" fill="#C8F2E9"/>
<path d="M23.2141 13.6945C20.6222 14.6114 20.2172 58.8012 23.1871 61.1828C26.157 63.5643 99.8643 63.088 100.944 61.1828C102.024 59.2775 104.333 15.701 100.107 13.3194C95.8819 10.9378 29.5183 11.4558 23.2141 13.6945Z" fill="#273B63"/>
<path d="M25.644 16.2366C23.6055 17.5226 24.294 52.1326 25.644 53.5616C26.9939 54.9905 95.8414 54.9905 97.7313 53.5616C99.6213 52.1326 99.0813 17.731 97.7313 16.2366C96.3814 14.7421 27.8039 14.8731 25.644 16.2366Z" fill="#DAE1F0"/>
<path d="M70.4624 54.6332C70.4624 54.6332 70.4624 49.9891 71.4074 48.3221C72.3523 46.655 75.9972 41.1774 77.4821 35.4616C78.9671 29.7459 77.2121 15.4565 75.1872 15.4565C73.1623 15.4565 73.2973 26.0545 73.2973 26.0545C73.2973 26.0545 73.4323 12.7177 71.0024 12.7177C68.5725 12.7177 68.4375 25.2209 68.4375 25.2209C68.4375 25.2209 68.5724 10.3362 65.7375 10.3362C62.9026 10.3362 63.0376 25.1019 63.0376 25.1019C63.0376 25.1019 62.9229 12.9559 60.277 12.9559C57.6311 12.9559 58.1778 31.5321 57.5028 37.0097C56.8279 42.4872 60.277 54.6332 60.277 54.6332H70.4624Z" fill="white"/>
<path d="M76.5236 38.4386C76.8948 37.4681 77.2188 36.4678 77.4821 35.4616C77.8128 34.1875 77.9816 32.4906 78.022 30.6211C71.6975 31.532 61.6404 35.0032 57.5568 36.4678C57.5365 36.6583 57.5163 36.837 57.4961 37.0037C57.4691 37.224 57.4488 37.4621 57.4353 37.7003C61.0532 38.8315 69.7198 40.9868 76.5236 38.4386Z" fill="#ECF0F7"/>
<path d="M33.9935 2.71533C32.9067 4.25144 32.6638 34.1519 33.9935 36.1584C35.3232 38.1648 86.6955 36.8431 88.9702 34.2412C91.2449 31.6394 89.9152 6.5556 88.9702 3.37621C88.0252 0.208741 35.8901 0.0420318 33.9935 2.71533Z" fill="#B5C4E2"/>
<path d="M61.6607 28.1443C56.4904 28.1443 34.7629 3.85832 33.8382 2.82234L34.1554 2.60205C34.3782 2.85211 56.6794 27.787 61.6607 27.787C66.642 27.787 88.5989 3.51895 88.8149 3.27484L89.1322 3.49514C88.2209 4.50134 66.831 28.1443 61.6607 28.1443Z" fill="#3D5C9B"/>
<path d="M34.142 36.2833L33.845 36.0392C33.9462 35.944 44.1518 26.1677 52.157 21.3271L52.3865 21.6248C44.4218 26.4415 34.2432 36.1881 34.142 36.2833Z" fill="#3D5C9B"/>
<path d="M88.8216 34.3719C80.0267 26.0424 72.2307 20.6423 72.1565 20.5887L72.4062 20.3088C72.4872 20.3624 80.3034 25.7805 89.1186 34.1338L88.8216 34.3719Z" fill="#3D5C9B"/>
<path d="M57.2868 24.0898C54.5869 24.0898 56.5578 29.3888 55.7478 31.8895C54.9379 34.3901 52.508 36.6526 53.1829 40.8203C53.8579 44.988 57.6378 47.7268 58.4477 49.6321C59.2577 51.5373 58.4477 54.6333 58.4477 54.6333H67.4924C67.4924 54.6333 66.9524 51.6564 66.6824 45.4643C66.4125 39.2723 61.0329 38.0815 60.2769 37.1289C59.5277 36.1763 61.6876 33.6756 61.5526 30.4605C61.4176 27.2454 58.6975 24.0898 57.2868 24.0898Z" fill="white"/>
<path d="M62.3222 60.6526C62.2547 60.6526 62.1873 60.6526 62.1198 60.6466C60.6888 60.5454 60.2231 59.5868 60.2568 58.8009C60.2973 57.8661 61.0128 56.9016 62.14 56.9016C63.2065 56.9016 64.0029 57.2291 64.3944 57.8185C64.7387 58.3484 64.7117 59.045 64.3269 59.6404C63.9017 60.2715 63.1525 60.6526 62.3222 60.6526ZM62.14 57.2529C61.2625 57.2529 60.6956 58.0448 60.6618 58.8128C60.6348 59.4737 61.006 60.212 62.1535 60.2894C62.2075 60.2953 62.2682 60.2953 62.3222 60.2953C63.0107 60.2953 63.6249 59.9798 63.9692 59.4499C64.2864 58.9676 64.3134 58.4079 64.0367 57.9852C63.7262 57.5149 63.0512 57.2529 62.14 57.2529Z" fill="#C8F2E9"/>
<path d="M29.3833 1.79861C36.4098 2.82864 37.24 6.99637 37.105 12.3072C36.9768 17.6181 40.6419 21.0833 43.1258 21.0833C43.1258 21.0833 39.8522 22.1252 37.3683 21.0833C34.8776 20.0414 32.3937 22.929 25.9814 21.5477C19.5692 20.1604 13.8049 16.0522 16.5588 8.92543C19.3059 1.79861 24.672 1.10201 29.3833 1.79861Z" fill="#F778B9"/>
<path d="M26.1434 10.1636C26.1434 10.1636 28.5733 5.82914 31.0032 8.01422C33.4331 10.1993 27.4394 14.0396 26.3054 16.4807C26.3054 16.4807 19.9876 11.1162 22.5795 8.01422C25.1714 4.91224 26.1434 10.1636 26.1434 10.1636Z" fill="white"/>
<path d="M76.8207 25.7449C76.8207 25.7449 79.2506 21.4104 81.6805 23.5955C84.1104 25.7806 78.1166 29.6209 76.9827 32.062C76.9827 32.062 70.6649 26.6975 73.2568 23.5955C75.8487 20.4935 76.8207 25.7449 76.8207 25.7449Z" fill="#65BAA6"/>
<path d="M80.0401 17.5404C86.9451 18.5585 87.7619 22.6488 87.6336 27.8704C87.5054 33.0919 91.1097 36.4976 93.5531 36.4976C93.5531 36.4976 90.3335 37.5216 87.8901 36.4976C85.4467 35.4735 82.9965 38.3135 76.6923 36.9501C70.388 35.5866 64.725 31.5439 67.4249 24.5422C70.1315 17.5404 75.4098 16.8616 80.0401 17.5404Z" fill="white"/>
<path d="M76.8207 25.7449C76.8207 25.7449 79.2506 21.4104 81.6805 23.5955C84.1104 25.7806 78.1166 29.6209 76.9827 32.062C76.9827 32.062 70.6649 26.6975 73.2568 23.5955C75.8487 20.4935 76.8207 25.7449 76.8207 25.7449Z" fill="#F778B9"/>
<path d="M56.3027 70.7615C56.2593 71.1348 56.1927 71.5003 56.0999 71.8555C54.9117 76.3822 49.5818 79.521 40.0724 80.0912C20.8714 81.2415 10.2927 80.219 6.52487 72.1671C5.67275 70.3471 5.34226 67.9956 5.38887 65.4266C5.5455 56.6182 10.1072 45.2285 13.1912 43.7946C17.1763 41.9413 20.0021 42.9 20.0021 42.9C26.4507 44.114 36.7395 60.7926 44.7824 61.4315C52.8248 62.0707 56.8653 65.7974 56.3027 70.7615Z" fill="#F778B9"/>
<path d="M14.0601 53.9552C14.0601 53.9552 18.8423 57.3419 20.5087 61.1121C22.1752 64.8824 22.1752 68.2054 25.6531 68.8442C29.131 69.4831 35.6524 69.8667 42.246 68.1412C48.8396 66.4158 48.9846 64.371 42.0288 63.2848C35.073 62.1987 27.465 56.3836 25.2914 52.2298C23.1177 48.0759 23.19 46.4147 21.8135 45.3285C20.4369 44.2424 18.4078 43.8588 16.3792 45.9674C14.3505 48.0759 13.1907 51.5909 14.0601 53.9552Z" fill="#CB4E8E"/>
<path d="M28.595 42.6506C28.6784 42.5503 28.7814 42.4599 28.8607 42.3583C29.2159 41.9032 28.8267 41.3873 28.3834 41.1209C28.0822 40.94 28.0375 40.7961 28.1111 40.4644C28.1694 40.2021 28.3381 40.0282 28.2808 39.7548C28.2333 39.5266 28.12 39.2006 27.9177 39.0522C27.7107 38.9001 27.4058 38.9124 27.1672 38.8228C26.5752 38.6004 27.1252 38.1844 26.8726 37.7942C26.4941 37.21 25.4121 37.3502 24.7684 37.2639C24.7731 37.2647 24.7763 37.2635 24.7773 37.2594C24.2244 37.0653 24.1279 36.5531 23.4189 36.6571C23.0842 36.706 22.8521 36.8914 22.5729 37.0366C22.0885 37.2886 21.6807 36.9424 21.2117 37.0978C20.6817 37.2738 20.2589 37.6951 20.1097 38.1766C19.9023 38.8467 19.4623 38.6506 18.8633 38.8911C18.5454 39.0189 18.1496 39.1081 18.2158 39.5007C18.2512 39.7104 18.461 39.8905 18.4778 40.0981C18.4987 40.3632 18.2144 40.5137 18.047 40.711C17.8671 40.9236 17.7497 41.2335 17.8713 41.4884C18.0023 41.7639 18.3692 41.8991 18.3864 42.2346C18.4102 42.702 17.6648 43.0852 17.9687 43.5958C18.1696 43.9333 18.605 43.9333 18.8945 44.1491C19.0889 44.2942 19.0614 44.5109 19.039 44.7049C18.9779 45.2369 19.2581 45.7089 19.9652 45.5859C20.4803 45.4963 20.8565 45.4449 21.2224 45.8359C21.5417 46.1771 21.8555 46.3461 22.3953 46.3058C22.7383 46.2799 23.0562 46.1545 23.3844 46.0735C23.6921 45.9975 23.7867 46.0427 24.0627 46.1179C24.6449 46.2766 24.9819 45.787 25.5231 45.7931C25.731 45.7956 25.8676 45.9337 26.0797 45.965C26.3258 46.0012 26.5948 45.9296 26.8055 45.8203C27.0823 45.6764 27.2133 45.5058 27.3075 45.239C27.3886 45.0087 27.4469 44.9269 27.6991 44.8332C28.3381 44.5952 28.6859 44.3345 28.6439 43.6759C28.6272 43.4153 28.4169 43.2065 28.4491 42.9503C28.464 42.8336 28.5223 42.7382 28.595 42.6506Z" fill="#1C2A47"/>
<path d="M28.6966 50.9307C28.6966 50.9307 32.7302 54.6796 34.3724 55.0417L31.7396 56.5115L28.2375 54.786C28.2379 54.786 26.9337 51.7188 28.6966 50.9307Z" fill="#B5C4E2"/>
<path d="M28.6967 50.9307L28.6627 50.9591C28.6631 50.9595 29.6719 51.8972 30.8871 52.8806C31.4945 53.3723 32.1536 53.8759 32.7647 54.2796C33.0705 54.4814 33.3637 54.6582 33.6336 54.7967C33.9035 54.9349 34.1492 55.0348 34.3613 55.0816L34.3725 55.0418L34.3478 55.0072L31.7387 56.4638L28.2608 54.7503L28.238 54.7861L28.2818 54.7717C28.2818 54.7717 28.28 54.7676 28.2767 54.7597C28.2264 54.6385 27.8199 53.6189 27.8203 52.6458C27.8203 52.2952 27.873 51.9511 28.0119 51.6575C28.1508 51.364 28.3737 51.1219 28.7181 50.9673L28.6967 50.9307L28.6627 50.9591L28.6967 50.9307L28.6757 50.8941C28.3093 51.0577 28.0702 51.3184 27.9257 51.6259C27.7807 51.9334 27.7271 52.2878 27.7271 52.6458C27.7276 53.7044 28.1937 54.7984 28.1947 54.8009L28.2007 54.8148L31.742 56.5596L34.4899 55.0253L34.3841 55.0019C34.1855 54.9583 33.9459 54.8617 33.6807 54.7256C32.7517 54.2496 31.5117 53.2925 30.5072 52.4559C30.0047 52.0374 29.5605 51.6489 29.2421 51.3652C29.0827 51.2234 28.9549 51.1075 28.8668 51.0273C28.823 50.987 28.789 50.9558 28.7657 50.9348C28.7428 50.9134 28.7307 50.9023 28.7307 50.9023L28.7069 50.8801L28.6762 50.8941L28.6967 50.9307Z" fill="#3D5C9B"/>
<path d="M30.8339 58.9714C30.8339 58.9714 37.2704 58.0875 41.2317 59.6637C45.1925 61.2399 44.1302 63.8812 42.8739 66.139C41.6177 68.3968 40.4588 69.249 40.4588 69.249L38.0437 68.3545C38.0437 68.3545 38.9131 64.5205 40.3623 62.6031C40.3623 62.6031 34.7108 65.2445 31.6673 65.1166C28.6243 64.9887 28.6723 59.9617 28.6723 59.9617L30.8339 58.9714Z" fill="#1C2A47"/>
<path d="M21.5902 46.8519C21.5902 46.8519 19.9293 47.6289 18.6735 48.0548C17.4177 48.4807 17.0313 50.121 17.7557 51.3137C18.48 52.5067 20.2915 55.5526 21.0644 57.3631C21.8372 59.1736 22.2843 60.6647 22.2843 60.6647C22.2843 60.6647 26.4987 61.3784 28.8415 60.6326C31.1844 59.8873 30.8343 58.9713 30.8343 58.9713C30.8343 58.9713 29.3249 54.2958 29.1072 53.0391C29.1072 53.0391 29.7594 51.7396 29.228 50.5897C28.6965 49.4394 27.32 48.9708 26.6436 48.2678C25.9673 47.5652 23.3471 46.6501 21.5902 46.8519Z" fill="white"/>
<path d="M26.7169 42.0108C26.6618 42.6496 26.598 43.2914 26.6963 44.1835C26.7747 44.912 26.3775 45.4896 25.2299 46.3077C25.2299 46.3077 24.8094 46.341 24.3344 46.218C24.3255 46.218 24.3171 46.2156 24.3083 46.2131L24.4155 46.9136L24.4388 47.0621L24.4533 47.1693C24.4533 47.1693 24.4705 47.6191 23.8734 47.747C23.2734 47.8748 22.0419 47.3634 21.5897 46.8524C21.5897 46.8524 21.662 44.9354 21.4797 44.1839C21.4797 44.1839 20.9203 43.3687 20.6103 42.2517C20.3032 41.1322 21.2536 40.0432 22.1379 39.642C23.025 39.2432 25.703 39.2305 26.5173 40.8613C26.5169 40.8605 26.7723 41.3715 26.7169 42.0108Z" fill="#B5C4E2"/>
<path d="M26.7169 42.0109L26.6703 42.0076C26.6363 42.4039 26.5985 42.8027 26.5985 43.2627C26.5985 43.5439 26.6125 43.8477 26.6503 44.1873C26.6563 44.2449 26.6596 44.3012 26.6596 44.3567C26.6591 44.6737 26.558 44.9635 26.3254 45.271C26.0923 45.5781 25.7268 45.9012 25.201 46.2757L25.2304 46.3078L25.2262 46.2667H25.2243C25.2141 46.2675 25.1661 46.2704 25.0905 46.2704C24.9311 46.2704 24.65 46.2564 24.348 46.1783L24.3414 46.1767H24.3349V46.1808L24.3354 46.1767H24.3349V46.1808L24.3354 46.1767L24.3326 46.1762L24.3237 46.1738L24.2529 46.1528L24.3703 46.9183L24.3937 47.0667L24.4398 47.0609L24.3937 47.0659L24.4081 47.1732L24.4543 47.1682L24.4076 47.1691V47.1695V47.1719C24.4076 47.19 24.4039 47.2969 24.3349 47.4108C24.3004 47.4679 24.2496 47.5267 24.1746 47.5789C24.099 47.6312 23.9988 47.6768 23.8636 47.7056C23.8049 47.7183 23.7378 47.7245 23.6651 47.7241C23.3565 47.7245 22.9425 47.6122 22.5598 47.4425C22.1767 47.2731 21.8224 47.0461 21.6275 46.8254L21.5907 46.8509L21.6373 46.8521C21.6373 46.8517 21.6513 46.4759 21.6513 45.9917C21.6513 45.6866 21.6457 45.3384 21.6271 45.0136C21.6084 44.6885 21.5777 44.3875 21.5259 44.1737L21.5241 44.1672L21.5199 44.1614C21.5199 44.1614 21.518 44.1585 21.5138 44.1524C21.4527 44.0607 20.9446 43.2816 20.6556 42.2403C20.616 42.0968 20.5978 41.9538 20.5978 41.8123C20.5978 41.3449 20.7983 40.8968 21.0947 40.5219C21.3907 40.1474 21.7828 39.8473 22.1589 39.6767C22.3016 39.6125 22.4964 39.5574 22.7244 39.5188C22.9523 39.4801 23.2143 39.4579 23.4917 39.4579C24.044 39.4579 24.6584 39.5467 25.1996 39.7683C25.7408 39.9903 26.2084 40.3439 26.4741 40.8758L26.4745 40.8767C26.4852 40.8985 26.6782 41.3018 26.6778 41.8267C26.6778 41.8851 26.6754 41.9451 26.6703 42.0064L26.7169 42.0109L26.7635 42.0142C26.7691 41.9509 26.7715 41.8888 26.7715 41.8284C26.7715 41.2685 26.5612 40.8475 26.5598 40.8442C26.2839 40.2908 25.7958 39.9229 25.2392 39.6951C24.6822 39.467 24.0552 39.377 23.4917 39.377C23.2087 39.377 22.9416 39.3996 22.7071 39.4394C22.4727 39.4793 22.2708 39.5356 22.117 39.6051C21.725 39.7831 21.3241 40.091 21.0188 40.4767C20.7139 40.8619 20.5055 41.3256 20.5051 41.814C20.5051 41.9616 20.5242 42.1112 20.5652 42.2613C20.877 43.3848 21.4388 44.2029 21.4402 44.205L21.4802 44.1836L21.4346 44.1922C21.4844 44.3974 21.5157 44.6963 21.5338 45.019C21.552 45.3417 21.5576 45.6887 21.5576 45.9929C21.5576 46.2342 21.5539 46.4488 21.5506 46.603C21.5488 46.6799 21.5469 46.7419 21.546 46.7847C21.5446 46.8274 21.5436 46.8505 21.5436 46.8505L21.5432 46.8653L21.5534 46.8772C21.7627 47.1136 22.1249 47.3438 22.5174 47.5173C22.9099 47.6908 23.3313 47.8071 23.6646 47.8075C23.7434 47.8075 23.8175 47.8009 23.8851 47.7866C24.0319 47.7553 24.1452 47.7043 24.2314 47.6447C24.361 47.5551 24.4286 47.4457 24.4631 47.3553C24.4976 47.2649 24.5004 47.1929 24.5004 47.1728V47.1678V47.1658L24.4855 47.056L24.4622 46.9076L24.355 46.2075L24.3088 46.2128L24.2939 46.2519C24.3028 46.2544 24.3153 46.2589 24.3349 46.2593V46.2182L24.3219 46.2576C24.636 46.3386 24.9255 46.353 25.091 46.353C25.1805 46.353 25.2336 46.3489 25.235 46.3489L25.249 46.3477L25.2602 46.3399C25.7898 45.9625 26.1622 45.6348 26.4037 45.317C26.6451 44.9992 26.7542 44.6901 26.7537 44.3571C26.7537 44.2987 26.7505 44.2399 26.744 44.1803C26.7067 43.8432 26.6927 43.5423 26.6927 43.2636C26.6927 42.8076 26.73 42.4113 26.7645 42.0146L26.7169 42.0109Z" fill="#3D5C9B"/>
<path d="M21.6895 43.2002C21.6895 43.2002 21.6946 43.2051 21.7044 43.2146C21.7375 43.2471 21.821 43.3314 21.8955 43.4276C21.9706 43.5233 22.0358 43.6319 22.0354 43.7088C22.0354 43.7207 22.034 43.7318 22.0307 43.7421C22.0097 43.8103 21.9664 43.8493 21.9263 43.8884C21.8862 43.927 21.8489 43.9669 21.8489 44.0331C21.8489 44.0648 21.8573 44.1022 21.8774 44.1478C21.9771 44.3801 22.041 44.4763 22.0414 44.4767C22.0447 44.4816 22.0517 44.4833 22.0573 44.4804C22.0629 44.4775 22.0647 44.4714 22.0615 44.4664C22.0615 44.4664 22.0578 44.4607 22.0503 44.4483C22.0279 44.4109 21.9738 44.3139 21.8993 44.1404C21.8802 44.096 21.8727 44.0611 21.8727 44.0327C21.8727 43.9743 21.9039 43.941 21.944 43.902C21.9836 43.8633 22.0312 43.8206 22.0536 43.7474C22.0573 43.7351 22.0592 43.7223 22.0592 43.7088C22.0587 43.6105 21.9701 43.4818 21.8825 43.3753C21.7949 43.2693 21.7072 43.1866 21.7067 43.1866C21.7026 43.1825 21.6951 43.1821 21.6904 43.1862C21.6853 43.1895 21.6848 43.1961 21.6895 43.2002Z" fill="#273B63"/>
<path d="M26.444 42.2507C26.444 42.2507 26.0999 42.1548 25.6378 42.4423C25.6378 42.4423 25.7194 42.1145 25.9912 42.0747C26.2631 42.0352 26.444 42.2507 26.444 42.2507Z" fill="#273B63"/>
<path d="M24.5874 42.5413C24.5874 42.5413 24.3407 42.2773 23.9798 42.3238C23.619 42.3702 23.3462 42.4944 23.3462 42.4944C23.3462 42.4944 23.5047 42.1839 23.8568 42.114C24.2092 42.0445 24.4909 42.223 24.5874 42.5413Z" fill="#273B63"/>
<path d="M25.7604 43.0572C25.7478 43.218 25.7958 43.3516 25.8681 43.3561C25.9403 43.3607 26.0094 43.234 26.0224 43.0732C26.035 42.9124 25.987 42.7788 25.9147 42.7743C25.8424 42.7702 25.773 42.8968 25.7604 43.0572Z" fill="#273B63"/>
<path d="M24.1755 43.2491C24.1629 43.4099 24.2109 43.5435 24.2832 43.548C24.3554 43.5526 24.4245 43.4259 24.4375 43.2651C24.4501 43.1043 24.4021 42.9707 24.3298 42.9662C24.2571 42.9617 24.1881 43.0883 24.1755 43.2491Z" fill="#273B63"/>
<path d="M25.3227 43.2786C25.3227 43.2786 25.3488 43.3189 25.3885 43.3822C25.4477 43.4772 25.5363 43.6248 25.6104 43.7671C25.6845 43.909 25.7428 44.0475 25.7428 44.1191C25.7428 44.1401 25.7377 44.1545 25.7298 44.161C25.7032 44.1845 25.651 44.2104 25.5885 44.2351C25.4948 44.2717 25.3773 44.3062 25.2831 44.3309C25.236 44.3432 25.195 44.3535 25.1656 44.3605C25.1362 44.3675 25.119 44.3716 25.119 44.3716C25.1129 44.3728 25.1092 44.3786 25.1106 44.3839C25.112 44.3893 25.1185 44.3926 25.1246 44.3913C25.1246 44.3913 25.25 44.3634 25.3903 44.3226C25.4603 44.3021 25.5339 44.2786 25.5978 44.254C25.6617 44.2289 25.7153 44.203 25.7461 44.1758C25.761 44.1627 25.7661 44.143 25.7661 44.1191C25.7661 44.0656 25.7391 43.9875 25.6995 43.8979C25.5806 43.6306 25.3432 43.2683 25.3432 43.2683C25.34 43.2634 25.333 43.2617 25.3274 43.2646C25.3218 43.2671 25.3195 43.2736 25.3227 43.2786Z" fill="#273B63"/>
<path d="M25.1866 44.7754C25.1866 44.7754 25.1736 44.777 25.1493 44.7787C25.1251 44.7803 25.0906 44.782 25.0482 44.782C24.8854 44.782 24.6085 44.7569 24.3735 44.6117C24.3683 44.6084 24.3609 44.6097 24.3571 44.6142C24.3534 44.6187 24.3548 44.6253 24.3599 44.6286C24.601 44.777 24.8826 44.8025 25.0477 44.8025C25.1344 44.8025 25.189 44.7955 25.1894 44.7955C25.196 44.7947 25.2002 44.7894 25.1992 44.784C25.1988 44.7787 25.1927 44.7746 25.1866 44.7754Z" fill="#273B63"/>
<path d="M22.9001 41.3666C22.9001 41.3666 23.0991 41.7021 22.9905 42.4528C22.8819 43.2035 22.8274 42.9321 22.7551 43.2676C22.6829 43.6031 22.8819 43.8588 22.6283 44.1301C22.3748 44.4018 22.7551 43.4111 21.958 42.8199C21.1609 42.2287 21.3604 43.9702 21.5595 44.3056C21.7585 44.6411 22.0848 44.769 22.0848 44.769L21.5776 45.296C21.5776 45.296 19.1322 44.2736 19.259 42.1169C19.3858 39.9602 20.8169 39.3691 20.8169 39.3691C20.8169 39.3691 22.0126 37.8833 25.0374 38.5703C28.0627 39.2573 27.6916 41.4431 27.6641 41.7654C27.5919 42.6123 26.6498 42.6279 26.6498 42.6279C26.6498 42.6279 26.7402 41.7334 26.0881 41.2059C26.0881 41.2059 25.9067 41.5734 25.2728 41.7173C24.6388 41.8612 24.9469 41.3498 25.0737 41.1261C25.0737 41.1261 24.7115 41.5574 24.1317 41.5574C23.5522 41.5582 22.9001 41.3666 22.9001 41.3666Z" fill="#1C2A47"/>
<path d="M24.4388 47.0617C24.1633 46.998 23.7372 46.8545 23.2072 46.5429C22.2306 45.9677 22.3928 44.8816 22.3928 44.8816C22.81 45.761 24.132 46.1441 24.132 46.1441L24.3348 46.2181C24.326 46.2181 24.3176 46.2156 24.3087 46.2132L24.4159 46.9137L24.4388 47.0617Z" fill="#273B63"/>
<path d="M18.4559 48.4809C19.7313 48.365 20.7023 49.5885 21.9338 51.8039C23.1654 54.0194 24.4697 57.4061 24.4697 57.4061C24.4697 57.4061 30.2904 56.8309 32.1741 55.5105C32.1741 55.5105 32.5848 54.1686 32.8747 53.8492C33.1647 53.5297 33.7199 53.2954 34.0825 53.1248C34.4447 52.9542 34.6862 52.784 34.6862 52.784L33.2612 56.1283C33.2612 56.1283 32.2948 56.9164 31.7639 57.3637C31.2325 57.811 25.5325 60.4524 23.2623 59.9409C20.9922 59.4295 18.166 54.1686 17.8523 52.8905C17.5386 51.6123 16.8137 48.6302 18.4559 48.4809Z" fill="#B5C4E2"/>
<path d="M18.4558 48.4808L18.4605 48.5215C18.5146 48.5166 18.5677 48.5141 18.6204 48.5141C18.9103 48.5141 19.184 48.5873 19.4525 48.7308C19.8552 48.9458 20.2454 49.3207 20.6439 49.8416C21.0425 50.362 21.4504 51.028 21.8918 51.8215C22.5066 52.9269 23.1401 54.3268 23.6198 55.4495C23.8599 56.0111 24.0612 56.5032 24.2025 56.8551C24.2733 57.031 24.3288 57.172 24.367 57.2686C24.4053 57.3657 24.4253 57.4183 24.4253 57.4183L24.4374 57.4495L24.4747 57.4458C24.4756 57.4458 25.9319 57.3019 27.6249 56.9924C28.4714 56.8378 29.3772 56.6417 30.1906 56.4012C31.004 56.1607 31.7247 55.8762 32.2034 55.5412L32.2155 55.5329L32.2197 55.5198C32.2197 55.5198 32.2262 55.4988 32.2379 55.4618C32.2789 55.3315 32.3861 55.0014 32.5143 54.6692C32.5782 54.5031 32.6476 54.337 32.7162 54.1952C32.7847 54.0538 32.8537 53.9366 32.9115 53.8729C33.0508 53.7191 33.2583 53.5826 33.476 53.4643C33.6941 53.3459 33.9225 53.2447 34.1043 53.1592C34.4703 52.987 34.7136 52.8151 34.7154 52.8143L34.6865 52.7822L34.6427 52.7678L33.2177 56.1122L33.2615 56.1266L33.2298 56.0966C33.2298 56.0966 32.2635 56.8847 31.7317 57.3324C31.7042 57.3554 31.6585 57.3875 31.5974 57.4253C31.3671 57.5687 30.9201 57.8002 30.3439 58.0658C29.4792 58.4641 28.3223 58.939 27.1578 59.3139C25.9939 59.6892 24.8215 59.9639 23.9321 59.9634C23.6892 59.9634 23.4678 59.9429 23.2739 59.8993C22.7225 59.776 22.1239 59.3567 21.5385 58.7741C20.6593 57.9009 19.8063 56.6643 19.1453 55.5272C18.8148 54.9586 18.5318 54.4151 18.3169 53.9543C18.102 53.4934 17.9557 53.1148 17.8979 52.8797C17.7361 52.2219 17.4662 51.1131 17.4667 50.177C17.4667 49.7367 17.5268 49.3351 17.682 49.0399C17.7594 48.8919 17.8601 48.771 17.9874 48.6827C18.1151 48.5943 18.2698 48.5375 18.4614 48.5203L18.4558 48.4808L18.4512 48.4401C18.2442 48.4586 18.0708 48.5215 17.9291 48.6198C17.717 48.7669 17.5786 48.991 17.4928 49.2599C17.407 49.5287 17.373 49.844 17.373 50.1791C17.373 51.1283 17.6447 52.2404 17.8065 52.899C17.8867 53.2246 18.1225 53.7931 18.468 54.476C18.9858 55.4996 19.7489 56.7757 20.5973 57.8458C21.0215 58.3811 21.4667 58.8646 21.9146 59.2395C22.3626 59.6144 22.8129 59.8816 23.2506 59.9803C23.4543 60.0263 23.6832 60.0469 23.9316 60.0469C24.5791 60.0469 25.3613 59.9063 26.1803 59.6896C27.4086 59.3649 28.7185 58.8687 29.7678 58.4156C30.2927 58.1891 30.7518 57.9729 31.1033 57.794C31.279 57.7048 31.4277 57.6247 31.5447 57.5568C31.6617 57.489 31.7461 57.4343 31.796 57.3928C32.0612 57.1696 32.4355 56.8604 32.7437 56.6076C32.8975 56.481 33.035 56.3687 33.1338 56.2877C33.1832 56.2474 33.2229 56.215 33.2504 56.1924C33.2779 56.1697 33.2928 56.1578 33.2928 56.1578L33.3007 56.1512L34.7891 52.6581L34.6567 52.7514L34.6544 52.753C34.6278 52.7715 34.3966 52.9298 34.0605 53.0881C33.8801 53.1728 33.6498 53.2747 33.427 53.3956C33.2042 53.5169 32.9888 53.6571 32.8383 53.8227C32.7987 53.8663 32.7595 53.9243 32.7199 53.9929C32.581 54.233 32.4341 54.6084 32.3209 54.9249C32.2081 55.2415 32.1293 55.4988 32.1293 55.4992L32.1745 55.5099L32.1456 55.4779C31.6822 55.8026 30.969 56.0859 30.1612 56.3243C28.9492 56.6828 27.5242 56.943 26.4031 57.1137C25.8424 57.1988 25.3576 57.2617 25.0131 57.3032C24.8406 57.3237 24.7036 57.3393 24.6094 57.3496C24.5623 57.3546 24.526 57.3587 24.5017 57.3611C24.477 57.3636 24.4645 57.3648 24.4645 57.3648L24.4696 57.4055L24.5139 57.3924C24.5134 57.3916 23.2096 54.0049 21.9757 51.7853C21.386 50.7246 20.8556 49.8901 20.3195 49.3174C20.0515 49.0313 19.7816 48.8101 19.5009 48.6601C19.2203 48.51 18.9285 48.4315 18.6204 48.4319C18.5645 48.4319 18.508 48.4344 18.4512 48.4397L18.4558 48.4808Z" fill="#3D5C9B"/>
<path d="M22.2843 60.6652C22.2843 60.6652 20.8957 64.9465 24.3736 67.1192C27.8515 69.2918 36.8364 64.4355 40.0244 61.1125C40.0244 61.1125 44.9031 67.0341 49.0574 68.8232L51.038 67.2042C51.038 67.2042 45.4345 59.9622 42.488 58.3005C39.5415 56.6388 30.1701 59.8767 30.1701 59.8767C30.1701 59.8767 24.7358 61.027 22.2843 60.6652Z" fill="#3D5C9B"/>
<path d="M57.6555 67.8646C57.4621 67.8218 57.3176 67.9924 57.0999 68.0348C56.8827 68.0775 54.1776 68.887 53.0421 69.1L51.0377 67.2043L49.057 68.8233L51.0987 70.2659C51.3099 70.6087 51.7579 71.2661 52.3419 71.7204C53.1633 72.3592 53.8154 72.0825 54.1776 71.8482C54.5398 71.6139 55.1919 70.975 55.8441 70.5273C56.4962 70.08 57.4141 69.2492 57.6555 68.6954C57.897 68.1417 57.8485 67.9073 57.6555 67.8646Z" fill="#B5C4E2"/>
<path d="M57.6553 67.8647L57.6665 67.8248C57.6418 67.8195 57.6171 67.8166 57.5933 67.817C57.5448 67.817 57.4996 67.8273 57.4572 67.8421C57.3933 67.8647 57.3351 67.8972 57.2754 67.9264C57.2157 67.956 57.1556 67.9823 57.0899 67.995C57.074 67.9983 57.0503 68.0041 57.0181 68.0123C56.7762 68.0752 56.0457 68.2873 55.2421 68.5085C54.4385 68.7301 53.5616 68.9607 53.033 69.0598L53.0428 69.1001L53.0768 69.0721L51.0403 67.1465L48.986 68.8259L51.0696 70.298L51.099 70.266L51.058 70.2857C51.2705 70.6306 51.7199 71.2909 52.311 71.7513C52.6941 72.0498 53.0479 72.1554 53.3542 72.1554C53.715 72.1554 54.0049 72.0107 54.2049 71.8816C54.3909 71.7612 54.644 71.5425 54.934 71.2978C55.2234 71.0532 55.5488 70.7823 55.8723 70.5603C56.2009 70.335 56.5948 70.0144 56.9379 69.6793C57.281 69.3443 57.5733 68.9969 57.6987 68.7107C57.8138 68.4464 57.8651 68.2528 57.8651 68.1114C57.8651 68.0324 57.8488 67.9687 57.8147 67.9198C57.7807 67.8704 57.7271 67.8384 57.6665 67.8252L57.6553 67.8647L57.6441 67.9046C57.6851 67.914 57.7136 67.9313 57.7355 67.9621C57.7574 67.9934 57.7723 68.0415 57.7723 68.1105C57.7728 68.2343 57.7252 68.4213 57.612 68.6803C57.4954 68.948 57.2083 69.2929 56.8689 69.6234C56.5296 69.9543 56.1385 70.2725 55.8154 70.4945C55.4868 70.7198 55.16 70.9924 54.8696 71.2374C54.5802 71.4824 54.3261 71.7007 54.1499 71.8146C53.9579 71.9388 53.6861 72.0728 53.3542 72.0724C53.0727 72.072 52.7436 71.9774 52.3725 71.6888C51.7963 71.2407 51.3489 70.5866 51.1396 70.2458L51.1349 70.2384L49.1281 68.8205L51.0351 67.262L53.026 69.1449L53.0517 69.1399C53.6232 69.0326 54.583 68.7769 55.429 68.5426C55.8518 68.4254 56.2462 68.3136 56.5478 68.2285C56.6988 68.1858 56.8265 68.15 56.9235 68.1233C56.9719 68.1101 57.0125 68.099 57.0442 68.0908C57.0759 68.0826 57.0987 68.0768 57.1099 68.0748C57.2162 68.0538 57.3029 68.0065 57.3808 67.9675C57.4194 67.9477 57.4563 67.9301 57.4917 67.9177C57.5271 67.9054 57.5602 67.8984 57.5933 67.8984C57.6096 67.8984 57.6264 67.9 57.6441 67.9042L57.6553 67.8647Z" fill="#3D5C9B"/>
<path d="M38.3132 68.2588C38.3132 68.2588 37.9016 69.6286 37.655 69.9904C37.408 70.3521 36.4482 71.2825 36.6127 71.8251C36.7773 72.3678 37.4658 72.5845 38.5631 72.8171C39.6604 73.0498 39.8217 73.6069 40.5074 73.8396C41.1931 74.0722 41.9818 74.1713 42.1739 74.0418C42.3659 73.9127 42.6568 74.0204 43.0073 73.6796C43.3742 73.3224 42.5966 73.0408 42.186 72.7316C41.9203 72.5318 41.2215 71.9283 40.4258 71.308C39.6301 70.6876 40.4589 69.0358 40.4589 69.0358L38.3132 68.2588Z" fill="#B5C4E2"/>
<path d="M38.3132 68.2588L38.2679 68.2481C38.2679 68.2481 38.2614 68.2695 38.2498 68.3073C38.2087 68.4405 38.1029 68.7789 37.9803 69.1234C37.9193 69.2956 37.8535 69.4691 37.7906 69.6188C37.7277 69.7684 37.6657 69.8946 37.6149 69.969C37.5599 70.0496 37.4657 70.1631 37.3552 70.295C37.1898 70.4932 36.9893 70.7341 36.829 70.9783C36.6691 71.2229 36.5474 71.4708 36.5469 71.6911C36.5469 71.7409 36.5535 71.7894 36.5674 71.8359C36.6103 71.9777 36.6886 72.0998 36.7982 72.2042C36.9627 72.3613 37.1958 72.4801 37.4899 72.5824C37.7841 72.6844 38.1398 72.7695 38.5518 72.857C39.0925 72.9722 39.3979 73.1641 39.6589 73.3594C39.7894 73.4573 39.9083 73.5563 40.0393 73.6464C40.1703 73.7364 40.3134 73.8174 40.4901 73.8774C40.9739 74.0415 41.5048 74.1393 41.8554 74.1397C41.9314 74.1397 41.999 74.1352 42.0572 74.1249C42.115 74.1146 42.164 74.0994 42.2017 74.0739C42.2428 74.0464 42.2898 74.0308 42.3467 74.018C42.432 73.9987 42.5374 73.9876 42.6562 73.9477C42.7751 73.9078 42.9056 73.8388 43.0413 73.7068C43.1135 73.6369 43.1494 73.5633 43.1489 73.4906C43.1489 73.4092 43.1056 73.3348 43.0422 73.2665C42.9466 73.1641 42.8017 73.07 42.6497 72.9767C42.4977 72.8838 42.3383 72.7921 42.2157 72.6996C42.0847 72.6009 41.8433 72.3999 41.5361 72.1467C41.2289 71.8934 40.8546 71.5871 40.4565 71.2763C40.3344 71.1814 40.2528 71.0605 40.2006 70.9224C40.1484 70.7847 40.1269 70.6297 40.1269 70.4697C40.1269 70.1363 40.2202 69.7803 40.3138 69.5094C40.3609 69.3737 40.4075 69.259 40.443 69.1785C40.4607 69.1382 40.4751 69.1065 40.4854 69.0847C40.4905 69.074 40.4947 69.0658 40.497 69.0601C40.4998 69.0547 40.5012 69.0518 40.5012 69.0518L40.5208 69.0132L38.2819 68.2017L38.2684 68.2469L38.3132 68.2588L38.2954 68.2966L40.4411 69.074L40.4588 69.0362L40.4164 69.0198C40.4159 69.021 40.3208 69.2105 40.2253 69.4864C40.1302 69.7622 40.0342 70.124 40.0342 70.471C40.0342 70.6375 40.0561 70.8007 40.1125 70.9499C40.1684 71.0987 40.2593 71.2336 40.3954 71.3397C40.7926 71.6492 41.166 71.9551 41.4731 72.2083C41.7803 72.4616 42.0213 72.6622 42.1561 72.7637C42.3285 72.8932 42.5583 73.0149 42.7425 73.1374C42.8348 73.1987 42.9154 73.2599 42.9709 73.3195C43.0268 73.38 43.0566 73.4367 43.0562 73.4914C43.0562 73.5403 43.0338 73.5921 42.9723 73.6521C42.8026 73.8166 42.6548 73.8692 42.5192 73.9004C42.4516 73.9157 42.3868 73.9251 42.3239 73.9391C42.2614 73.9531 42.2003 73.9724 42.1449 74.0094C42.1248 74.023 42.0885 74.0365 42.0386 74.0452C41.9892 74.0538 41.9267 74.0583 41.8549 74.0583C41.523 74.0587 40.9967 73.9621 40.5231 73.8014C40.3572 73.745 40.2229 73.669 40.0962 73.5822C39.9064 73.4519 39.7349 73.2953 39.506 73.1485C39.2771 73.0018 38.99 72.8657 38.5728 72.7773C38.0251 72.6614 37.5813 72.5491 37.2583 72.4011C37.0965 72.3271 36.9655 72.2445 36.8653 72.1487C36.7651 72.0529 36.6956 71.944 36.656 71.8149C36.6444 71.7762 36.6388 71.7351 36.6388 71.6916C36.6388 71.5629 36.6882 71.4132 36.7684 71.2574C36.8886 71.0231 37.076 70.7748 37.2555 70.554C37.4349 70.3333 37.6051 70.1409 37.6932 70.0118C37.7584 69.916 37.8302 69.7618 37.9039 69.5813C38.1248 69.0407 38.356 68.2703 38.3565 68.2695L38.3132 68.2588L38.2954 68.2966L38.3132 68.2588Z" fill="#3D5C9B"/>
<path d="M41.8955 48.8636L39.6147 54.6787L39.1569 55.8339C39.1252 55.9108 39.0525 55.9696 38.9625 55.9897L33.1399 57.332C33.021 57.3599 32.911 57.3168 32.85 57.2423C32.795 57.1811 32.7744 57.0968 32.8066 57.0121L33.1166 56.2351L35.954 48.8965C35.9918 48.7995 36.0901 48.7329 36.2062 48.7304L41.1595 48.554L41.6205 48.5388C41.8172 48.5314 41.9594 48.7 41.8955 48.8636Z" fill="#6C8AC5"/>
<path d="M41.8954 48.8637L39.6146 54.6788L39.1568 55.834C39.1251 55.9109 39.0524 55.9697 38.9625 55.9898L33.1399 57.3321C33.021 57.36 32.911 57.3169 32.8499 57.2425C33.9076 56.4729 36.8005 54.2776 38.7448 51.931C40.1302 50.2594 40.8228 49.1728 41.1589 48.5545L41.62 48.5393C41.8171 48.5315 41.9593 48.7001 41.8954 48.8637Z" fill="#486DB7"/>
<path d="M40.7158 52.2339C40.713 52.2298 40.7088 52.2265 40.706 52.2224C40.7745 52.1612 40.8644 52.0559 40.8286 51.9466C40.7731 51.7768 40.4887 51.6695 40.0879 51.6785C39.687 51.688 39.4772 51.8072 39.5611 51.8804C39.645 51.9535 39.8683 52.0452 40.1168 52.0148L40.1732 52.0748C40.0962 52.0806 40.0147 52.0913 39.928 52.1102C39.5387 52.194 39.3621 52.3498 39.4614 52.4058C39.5611 52.4617 39.8012 52.5098 40.0366 52.4337L40.092 52.4719C40.0324 52.4785 39.9704 52.4876 39.9056 52.5015C39.5164 52.5854 39.3397 52.7412 39.439 52.7971C39.5387 52.853 39.7788 52.9011 40.0142 52.8251L40.1443 52.9155C39.9224 52.9776 39.6762 53.0697 39.7196 53.1408C39.783 53.2448 40.1452 53.2687 40.1452 53.2687L39.9914 53.6921C39.9914 53.6921 40.4715 53.4923 40.6342 53.2769C40.7283 53.1527 40.6999 53.022 40.6244 52.9381C40.6785 52.8691 40.7605 52.7363 40.6929 52.6257C40.6785 52.6023 40.658 52.5817 40.6342 52.5628C40.6859 52.5003 40.7885 52.3535 40.7158 52.2339Z" fill="#B5C4E2"/>
<path d="M40.7157 52.2338L40.7567 52.2141C40.7525 52.2075 40.7488 52.2034 40.7465 52.2013L40.7446 52.1993L40.7441 52.1997L40.7446 52.1993L40.7441 52.1997L40.7446 52.1993L40.7315 52.2075L40.7451 52.2001L40.7446 52.1993L40.7315 52.2075L40.7451 52.2001L40.7054 52.2219L40.7385 52.2507C40.7693 52.2231 40.8043 52.1874 40.8327 52.1446C40.8607 52.1019 40.8826 52.0521 40.8826 51.997C40.8826 51.9765 40.8793 51.9555 40.8728 51.9345C40.8569 51.886 40.8257 51.8429 40.7828 51.8059C40.718 51.7504 40.6281 51.7084 40.519 51.6801C40.4094 51.6517 40.2803 51.6365 40.1358 51.6365C40.1195 51.6365 40.1032 51.6365 40.0869 51.6369C39.9116 51.641 39.7708 51.6653 39.6706 51.6994C39.6203 51.7166 39.5802 51.736 39.5499 51.7586C39.5349 51.7701 39.5219 51.7824 39.5126 51.7964C39.5032 51.8104 39.4967 51.8272 39.4967 51.8445C39.4963 51.8688 39.5098 51.8922 39.5289 51.9086C39.5718 51.9456 39.6384 51.9826 39.7228 52.0118C39.8067 52.0406 39.9083 52.0611 40.0188 52.0611C40.0533 52.0611 40.0883 52.0591 40.1237 52.055L40.1172 52.0143L40.0813 52.0406L40.1377 52.1006L40.1736 52.0743L40.1698 52.0332C40.0906 52.0389 40.0067 52.05 39.9172 52.0694C39.7545 52.1043 39.6268 52.152 39.5373 52.2013C39.4925 52.226 39.4571 52.2515 39.4315 52.2778C39.4184 52.291 39.4082 52.3045 39.4002 52.3189C39.3928 52.3333 39.3876 52.3485 39.3876 52.365C39.3876 52.3798 39.3923 52.395 39.4012 52.4081C39.41 52.4213 39.4226 52.4316 39.4366 52.4398C39.4734 52.4603 39.5228 52.4784 39.5811 52.4916C39.6394 52.5047 39.7074 52.5134 39.7801 52.5134C39.8659 52.5134 39.9596 52.5014 40.0524 52.4714L40.0365 52.4328L40.0076 52.4653L40.0631 52.5035L40.092 52.471L40.0864 52.4303C40.0253 52.4369 39.9619 52.4459 39.8943 52.4607C39.7317 52.4957 39.6039 52.5434 39.5144 52.5927C39.4697 52.6174 39.4343 52.6429 39.4086 52.6692C39.3956 52.6823 39.3853 52.6959 39.3774 52.7103C39.3699 52.7247 39.3648 52.7399 39.3648 52.7563C39.3648 52.7711 39.3695 52.7863 39.3783 52.7995C39.3872 52.8127 39.3998 52.8229 39.4137 52.8312C39.4506 52.8517 39.5 52.8698 39.5583 52.883C39.6165 52.8961 39.6846 52.9047 39.7573 52.9047C39.8431 52.9047 39.9368 52.8928 40.0295 52.8628L40.0137 52.8242L39.9848 52.8566L40.1148 52.9471L40.1437 52.9146L40.1297 52.8756C40.0258 52.9047 39.9172 52.9401 39.8314 52.9779C39.7885 52.9972 39.7512 53.0166 39.7223 53.0384C39.7079 53.0495 39.6953 53.0606 39.685 53.0741C39.6753 53.0877 39.6673 53.1041 39.6673 53.1226C39.6673 53.135 39.6711 53.1481 39.6781 53.1592C39.6902 53.179 39.7079 53.195 39.7275 53.2077C39.762 53.2303 39.8044 53.2464 39.8487 53.2595C39.982 53.2982 40.1391 53.308 40.1409 53.3085L40.1442 53.2673L40.0999 53.2546L39.913 53.7681L40.01 53.7278C40.0109 53.7274 40.1321 53.6768 40.2752 53.5987C40.4178 53.5202 40.5824 53.4158 40.6719 53.2982C40.7185 53.2365 40.7395 53.1716 40.739 53.1103C40.739 53.0338 40.7078 52.9644 40.6598 52.9113L40.6234 52.9368L40.6616 52.9602C40.6826 52.9335 40.7078 52.8973 40.7278 52.8558C40.7479 52.8143 40.7637 52.7666 40.7637 52.7165C40.7637 52.6799 40.7548 52.6412 40.7329 52.605C40.7148 52.5759 40.6905 52.552 40.6644 52.5315L40.6332 52.5619L40.6709 52.5861C40.6919 52.5611 40.7199 52.5236 40.7437 52.4788C40.767 52.434 40.7865 52.3814 40.7865 52.3251C40.7865 52.2881 40.7777 52.2498 40.7558 52.2137L40.7157 52.2338L40.6747 52.2531C40.6887 52.2762 40.6943 52.3 40.6943 52.3255C40.6943 52.3641 40.6798 52.4065 40.6598 52.4447C40.6397 52.4825 40.6145 52.5162 40.5964 52.538L40.5712 52.568L40.6024 52.5931C40.6239 52.61 40.6406 52.6268 40.6514 52.6449C40.6654 52.6679 40.6709 52.6918 40.6709 52.7173C40.6709 52.7522 40.6593 52.7896 40.6425 52.8242C40.6257 52.8587 40.6038 52.8908 40.5852 52.9142L40.5656 52.9393L40.587 52.9631C40.6229 53.0026 40.6462 53.0548 40.6462 53.1107C40.6462 53.1559 40.6318 53.204 40.5945 53.253C40.5213 53.3508 40.3638 53.4544 40.2262 53.5292C40.1573 53.567 40.0929 53.5983 40.0463 53.6201C40.023 53.6308 40.0039 53.6394 39.9908 53.6452C39.9843 53.648 39.9792 53.6501 39.9759 53.6517L39.9708 53.6538L39.9908 53.6908L40.0351 53.7035L40.2071 53.2303L40.1484 53.2266L40.1447 53.2262C40.126 53.225 40.037 53.2172 39.948 53.1987C39.9037 53.1896 39.8589 53.1773 39.8244 53.1629C39.7895 53.1489 39.7666 53.1313 39.7601 53.1202L39.7545 53.1226H39.7606L39.7601 53.1202L39.7545 53.1226H39.7606H39.7559L39.7606 53.1235V53.1226H39.7559L39.7606 53.1235L39.7615 53.1218C39.7638 53.1165 39.7778 53.1025 39.8016 53.0881C39.837 53.0659 39.8925 53.0416 39.9554 53.0182C40.0183 52.9952 40.0892 52.973 40.1582 52.9537L40.2421 52.9302L40.0221 52.7777L39.9978 52.7855C39.9163 52.8118 39.8337 52.8221 39.7573 52.8221C39.6925 52.8221 39.6324 52.8147 39.5816 52.8032C39.5308 52.7917 39.4893 52.7761 39.4636 52.7617C39.4594 52.7592 39.4585 52.7576 39.458 52.7576V52.7563C39.458 52.7551 39.4585 52.7514 39.4618 52.7456C39.4674 52.7354 39.4809 52.7193 39.5033 52.7021C39.5708 52.649 39.713 52.5845 39.9163 52.5409C39.9792 52.5273 40.0389 52.5187 40.0976 52.5121L40.2085 52.4998L40.0449 52.3863L40.0207 52.3942C39.9391 52.4205 39.8566 52.4307 39.7801 52.4307C39.7153 52.4307 39.6552 52.4233 39.6044 52.4118C39.5536 52.4003 39.5121 52.3847 39.4865 52.3703C39.4823 52.3678 39.4813 52.3662 39.4809 52.3662V52.365C39.4809 52.3637 39.4813 52.36 39.4846 52.3543C39.4902 52.344 39.5037 52.328 39.5261 52.3107C39.5937 52.2577 39.7359 52.1931 39.9391 52.1495C40.0235 52.1315 40.1027 52.1208 40.1773 52.1154L40.2663 52.1088L40.1363 51.9703L40.1106 51.9736C40.0794 51.9773 40.0486 51.9789 40.0183 51.9789C39.9214 51.9789 39.8305 51.9608 39.7564 51.9353C39.6822 51.9099 39.624 51.8766 39.5941 51.8502C39.5886 51.8449 39.59 51.8449 39.5895 51.8449C39.5895 51.8449 39.5895 51.8429 39.5923 51.8387C39.5969 51.8313 39.6119 51.8178 39.6366 51.8046C39.6739 51.7845 39.7326 51.7639 39.809 51.7483C39.8855 51.7327 39.9796 51.7216 40.0892 51.7191C40.105 51.7187 40.1204 51.7187 40.1358 51.7187C40.3185 51.7187 40.4724 51.7446 40.5838 51.7882C40.6397 51.81 40.6845 51.8359 40.7176 51.8646C40.7507 51.8934 40.7726 51.9243 40.7833 51.9576C40.7875 51.9711 40.7898 51.9843 40.7898 51.9974C40.7898 52.0328 40.7754 52.0694 40.7525 52.1035C40.7297 52.1376 40.6994 52.1693 40.6723 52.1935L40.6462 52.2166L40.6658 52.2441C40.67 52.2498 40.6733 52.2527 40.6747 52.2544L40.6756 52.2552L40.6905 52.2453L40.6742 52.2531L40.6756 52.2552L40.6905 52.2453L40.6742 52.2531L40.7157 52.2338Z" fill="#3D5C9B"/>
<path d="M39.018 52.7612C38.8553 53.236 38.4148 53.539 38.034 53.4374C37.6531 53.3359 37.4769 52.8689 37.6396 52.3936C37.8023 51.9188 38.2428 51.6158 38.6236 51.7174C39.0045 51.8189 39.1807 52.2863 39.018 52.7612Z" fill="#486DB7"/>
<path d="M56.0999 71.8554C54.9117 76.3821 49.5818 79.5209 40.0724 80.0911C20.8714 81.2414 10.2927 80.219 6.52487 72.167C5.67275 70.3471 5.34226 67.9955 5.38887 65.4265C6.83812 65.9379 9.53617 67.3357 12.4664 71.0805C16.8136 76.6399 25.5809 79.4518 36.1601 78.2374C46.4544 77.0571 52.7031 75.7535 56.0999 71.8554Z" fill="#CB4E8E"/>
</svg>
