<svg width="274" height="274" viewBox="0 0 274 274" fill="none" xmlns="http://www.w3.org/2000/svg">
<g opacity="0.05" clip-path="url(#clip0_832_601)">
<path d="M227.424 119.428C224.716 101.036 215.537 81.2136 202.556 63.081C227.658 33.1831 252.79 19.8385 252.79 19.8385C322.251 181.633 194.902 256.603 194.902 256.603C194.169 256.663 193.466 256.693 192.742 256.743C223.377 220.727 235.381 173.526 227.424 119.428Z" fill="white"/>
<path fill-rule="evenodd" clip-rule="evenodd" d="M114.063 196.477C92.0102 183.272 58.4233 173.206 29.0005 172.616C18.8736 172.417 9.2257 173.316 0.71167 175.635C0.71167 175.635 14.5628 219.887 69.9578 246.447C117.816 269.387 179.027 258.842 179.027 258.842C179.03 258.839 179.033 258.836 179.035 258.833C178.714 258.888 170.365 260.294 157.589 260.941C154.148 244.277 152.301 226.765 152.301 208.692C152.301 154.346 168.878 105.037 195.807 68.8319C177.547 43.3489 151.439 21.446 127.102 12.7612C109.83 60.082 93.32 122.197 105.314 172.107C107.357 180.623 110.211 188.8 114.063 196.477Z" fill="white"/>
<path opacity="0.5" fill-rule="evenodd" clip-rule="evenodd" d="M195.807 68.8311C196.147 69.3055 196.484 69.7811 196.818 70.2579C208.235 86.5413 216.417 104.184 218.851 120.757C227.893 182.213 209.78 226.685 180.367 257.412C180.18 257.608 179.996 257.808 179.812 258.009C179.557 258.287 179.303 258.566 179.038 258.831C178.751 258.88 170.392 260.291 157.59 260.939C154.149 244.276 152.301 226.763 152.301 208.69C152.301 154.344 168.878 105.036 195.807 68.8311Z" fill="white" fill-opacity="0.8"/>
</g>
<defs>
<clipPath id="clip0_832_601">
<rect width="272.809" height="272.809" fill="white" transform="translate(0.712158 0.443237)"/>
</clipPath>
</defs>
</svg>
