<svg width="274" height="274" viewBox="0 0 274 274" fill="none" xmlns="http://www.w3.org/2000/svg">
<g opacity="0.2" clip-path="url(#clip0_832_589)">
<path d="M227.024 119.428C224.317 101.036 215.138 81.2136 202.157 63.081C227.259 33.1831 252.39 19.8385 252.39 19.8385C321.852 181.633 194.503 256.603 194.503 256.603C193.77 256.663 193.066 256.693 192.343 256.743C222.978 220.727 234.981 173.526 227.024 119.428Z" fill="white"/>
<path fill-rule="evenodd" clip-rule="evenodd" d="M113.663 196.477C91.6108 183.272 58.0239 173.206 28.6011 172.617C18.4742 172.417 8.82628 173.316 0.312256 175.635C0.312256 175.635 14.1634 219.887 69.5584 246.447C117.417 269.387 178.628 258.842 178.628 258.842C178.631 258.839 178.633 258.836 178.636 258.833C178.312 258.888 169.963 260.294 157.19 260.941C153.749 244.277 151.902 226.765 151.902 208.692C151.902 154.346 168.479 105.037 195.407 68.8321C177.148 43.349 151.04 21.4461 126.703 12.7613C109.431 60.0821 92.9206 122.197 104.915 172.107C106.958 180.623 109.812 188.8 113.663 196.477Z" fill="white"/>
<path opacity="0.5" fill-rule="evenodd" clip-rule="evenodd" d="M195.407 68.8312C195.747 69.3056 196.084 69.7812 196.418 70.258C207.836 86.5414 216.017 104.184 218.451 120.758C227.493 182.213 209.38 226.685 179.967 257.412C179.78 257.608 179.596 257.809 179.412 258.009C179.158 258.288 178.903 258.566 178.638 258.831C178.349 258.88 169.991 260.291 157.19 260.939C153.749 244.276 151.902 226.763 151.902 208.69C151.902 154.344 168.479 105.036 195.407 68.8312Z" fill="white" fill-opacity="0.8"/>
</g>
<defs>
<clipPath id="clip0_832_589">
<rect width="272.809" height="272.809" fill="white" transform="translate(0.312744 0.443237)"/>
</clipPath>
</defs>
</svg>
