<svg width="273" height="274" viewBox="0 0 273 274" fill="none" xmlns="http://www.w3.org/2000/svg">
<g opacity="0.1" clip-path="url(#clip0_832_613)">
<path d="M226.824 119.428C224.116 101.036 214.937 81.2137 201.956 63.0811C227.058 33.1832 252.19 19.8386 252.19 19.8386C321.651 181.633 194.302 256.603 194.302 256.603C193.569 256.663 192.865 256.693 192.142 256.743C222.777 220.727 234.781 173.526 226.824 119.428Z" fill="#53273C"/>
<path fill-rule="evenodd" clip-rule="evenodd" d="M113.463 196.477C91.4103 183.272 57.8234 173.206 28.4007 172.617C18.2738 172.417 8.62584 173.316 0.111816 175.635C0.111816 175.635 13.963 219.887 69.3579 246.447C117.216 269.387 178.427 258.842 178.427 258.842C178.43 258.839 178.433 258.836 178.436 258.833C178.114 258.888 169.764 260.294 156.989 260.941C153.548 244.278 151.701 226.765 151.701 208.692C151.701 154.346 168.278 105.037 195.207 68.8321C176.947 43.3491 150.839 21.4462 126.503 12.7614C109.23 60.0822 92.7202 122.197 104.714 172.107C106.757 180.623 109.611 188.8 113.463 196.477Z" fill="#53273C"/>
<path opacity="0.5" fill-rule="evenodd" clip-rule="evenodd" d="M195.206 68.831C195.546 69.3054 195.883 69.7811 196.217 70.258C207.635 86.5414 215.816 104.184 218.25 120.758C227.292 182.213 209.179 226.685 179.766 257.412C179.579 257.608 179.395 257.809 179.211 258.009C178.957 258.287 178.702 258.566 178.438 258.831C178.16 258.878 169.799 260.29 156.988 260.939C153.548 244.276 151.7 226.763 151.7 208.69C151.7 154.344 168.277 105.036 195.206 68.831Z" fill="#53273C"/>
</g>
<defs>
<clipPath id="clip0_832_613">
<rect width="272.809" height="272.809" fill="white" transform="translate(0.111328 0.443237)"/>
</clipPath>
</defs>
</svg>
