<svg width="427" height="300" viewBox="0 0 427 300" fill="none" xmlns="http://www.w3.org/2000/svg">
<path d="M127.286 298.514H287.368C286.296 285.038 301.853 276.439 316.013 270.931C333.822 264.003 351.985 257.063 366.862 246.073C381.738 235.076 393.111 219.19 392.706 202.193C392.257 183.487 378.111 167.222 373.153 149.02C367.281 127.462 374.637 105.103 378.531 83.2037C382.426 61.3048 381.666 36.2135 363.691 20.5417C348.894 7.63333 326.068 4.61127 305.183 5.91094C284.298 7.21061 263.775 12.1065 242.839 12.2074C218.537 12.3273 194.886 6.00558 170.939 2.38416C146.991 -1.23726 120.966 -1.85556 99.8712 8.66802C76.4161 20.3714 63.1972 45.8538 68.605 68.9325C72.3694 85.0018 84.0969 99.4244 85.0453 115.809C85.8344 129.449 78.986 142.534 70.907 154.238C57.6954 173.386 40.6253 190.862 32.1699 211.96C23.7144 233.057 26.6174 260.022 47.5388 272.943C69.8573 286.716 110.375 279.789 127.286 298.514Z" fill="#ECF0F7"/>
<path d="M314.906 83.1718L344.085 37.1125L348.253 40.264L317.963 88.7474L314.906 83.1718Z" fill="white"/>
<path d="M162.706 276.579C162.772 276.567 162.837 276.548 162.895 276.523C163.396 276.326 163.629 275.814 163.396 275.371C104.558 160.665 54.6204 80.625 22.7906 49.9941C22.0864 49.311 21.5709 48.824 21.3676 48.571C21.0481 48.1789 20.4237 48.084 19.9736 48.356C19.5234 48.6342 19.4145 49.1719 19.7267 49.5703C20.0026 49.9119 20.4963 50.3862 21.3022 51.1642C53.0013 81.6623 102.815 161.544 161.574 276.092C161.777 276.472 162.256 276.668 162.706 276.579Z" fill="#B378FF"/>
<path d="M3.15134 45.9525C6.89047 49.3742 23.9307 54.5036 25.0488 53.5739C26.1669 52.6441 21.1064 37.5722 17.3673 34.1505C13.6282 30.7287 7.41322 30.6023 3.49258 33.8595C-0.435315 37.1231 -0.587785 42.5371 3.15134 45.9525Z" fill="#B378FF"/>
<path d="M35.7652 53.966C34.8649 58.7349 40.5353 74.0219 42.1036 74.2433C43.6646 74.471 54.6786 61.581 55.5862 56.8122C56.4865 52.0433 52.7837 47.54 47.3166 46.7558C41.8422 45.9715 36.6728 49.1971 35.7652 53.966Z" fill="#B378FF"/>
<path d="M20.7283 83.5027C26.2607 83.1991 42.0812 74.9326 41.9795 73.5601C41.8779 72.1813 24.9901 65.7364 19.4504 66.04C13.918 66.3436 9.71417 70.5053 10.0627 75.3247C10.4184 80.1505 15.1958 83.8063 20.7283 83.5027Z" fill="#B378FF"/>
<path d="M94.5095 127.776C92.0119 135.587 98.314 161.993 100.87 162.613C103.433 163.233 124.488 143.468 126.985 135.657C129.483 127.846 124.234 119.75 115.267 117.574C106.3 115.399 97.0071 119.965 94.5095 127.776Z" fill="#B378FF"/>
<path d="M63.2808 174.7C72.5814 175.06 100.694 163.771 100.81 161.456C100.926 159.141 74.0771 145.72 64.7765 145.359C55.4759 144.999 47.5983 151.273 47.1844 159.375C46.7706 167.477 53.9802 174.339 63.2808 174.7Z" fill="#B378FF"/>
<path d="M122.925 154.929C117.53 163.669 116.884 196.666 119.745 198.007C122.605 199.347 153.861 180.696 159.256 171.955C164.65 163.214 160.897 152.316 150.863 147.617C140.829 142.911 128.319 146.188 122.925 154.929Z" fill="#B378FF"/>
<path d="M77.5048 216.842C88.8746 216.26 121.467 199.43 121.278 196.603C121.089 193.775 86.4642 180.379 75.0943 180.961C63.7245 181.543 55.041 190.044 55.7089 199.955C56.3696 209.866 66.1277 217.424 77.5048 216.842Z" fill="#B378FF"/>
<path d="M143.537 192.169C138.143 200.91 137.496 233.906 140.357 235.247C143.218 236.588 174.474 217.936 179.868 209.195C185.263 200.454 181.509 189.557 171.475 184.857C161.441 180.158 148.932 183.434 143.537 192.169Z" fill="#B378FF"/>
<path d="M98.1171 254.088C109.487 253.507 142.079 236.676 141.89 233.849C141.701 231.022 107.076 217.626 95.7066 218.208C84.3368 218.79 75.6533 227.29 76.3212 237.201C76.9819 247.112 86.74 254.67 98.1171 254.088Z" fill="#B378FF"/>
<path d="M183.347 237.416C174.532 243.709 159.511 273.999 161.572 276.194C163.634 278.382 200.684 271.507 209.499 265.214C218.313 258.921 219.598 247.599 212.381 239.927C205.15 232.249 192.153 231.123 183.347 237.416Z" fill="#B378FF"/>
<path d="M116.951 291.107C128.321 291.772 163.062 278.622 163.28 275.795C163.498 272.968 131.065 255.91 119.703 255.246C108.333 254.582 98.5023 262.077 97.7472 271.975C96.9849 281.88 105.581 290.443 116.951 291.107Z" fill="#B378FF"/>
<path d="M53.9161 76.9629C53.0013 81.8077 58.7661 97.335 60.3561 97.5627C61.9462 97.7904 73.1345 84.6981 74.0566 79.8533C74.9714 75.0086 71.2105 70.4357 65.649 69.6388C60.0875 68.8419 54.8382 72.1181 53.9161 76.9629Z" fill="#B378FF"/>
<path d="M39.4098 107.189C45.0366 106.879 61.104 98.4861 61.0023 97.0884C60.9007 95.6906 43.737 89.1381 38.1102 89.448C32.4833 89.7579 28.2142 93.9829 28.5772 98.8846C28.933 103.78 33.7829 107.499 39.4098 107.189Z" fill="#B378FF"/>
<path d="M73.8607 97.9738C71.9149 104.741 77.9991 127.314 80.2208 127.802C82.4353 128.289 100.035 110.883 101.98 104.122C103.926 97.354 99.2141 90.4979 91.4455 88.8029C83.6841 87.1015 75.8065 91.2126 73.8607 97.9738Z" fill="#B378FF"/>
<path d="M49.6543 141.349C57.6408 140.906 80.4748 128.984 80.3296 126.998C80.1844 125.012 55.8039 115.702 47.8101 116.145C39.8236 116.588 33.7539 122.59 34.2621 129.547C34.7776 136.504 41.6678 141.792 49.6543 141.349Z" fill="#B378FF"/>
<path d="M311.217 254.822C311.188 254.81 311.159 254.791 311.13 254.772C310.912 254.62 310.876 254.341 311.05 254.145C356.878 204.129 393.238 170.216 413.422 158.654C413.872 158.394 414.191 158.211 414.329 158.11C414.547 157.952 414.867 157.971 415.048 158.16C415.23 158.35 415.208 158.628 414.99 158.787C414.801 158.926 414.496 159.103 413.981 159.4C393.884 170.911 357.604 204.755 311.841 254.702C311.696 254.866 311.427 254.917 311.217 254.822Z" fill="#B378FF"/>
<path d="M423.703 158.856C421.358 160.127 412.203 160.76 411.789 160.178C411.375 159.596 416.08 152.727 418.425 151.456C420.77 150.185 423.856 150.811 425.308 152.854C426.767 154.897 426.048 157.585 423.703 158.856Z" fill="#B378FF"/>
<path d="M406.445 159.172C406.191 161.626 401.152 168.527 400.346 168.464C399.54 168.4 395.997 160.823 396.251 158.369C396.505 155.915 398.988 154.113 401.806 154.334C404.623 154.555 406.699 156.725 406.445 159.172Z" fill="#B378FF"/>
<path d="M409.532 175.408C406.846 174.643 400.26 168.805 400.507 168.141C400.761 167.471 410.033 166.174 412.719 166.939C415.406 167.705 416.865 170.222 415.987 172.562C415.108 174.902 412.218 176.18 409.532 175.408Z" fill="#B378FF"/>
<path d="M366.658 189.038C366.745 193.168 359.768 205.489 358.417 205.508C357.067 205.527 349.581 193.44 349.494 189.31C349.407 185.18 353.182 181.771 357.924 181.695C362.665 181.619 366.578 184.908 366.658 189.038Z" fill="#B378FF"/>
<path d="M375.182 215.646C370.542 214.793 358.337 206.096 358.621 204.939C358.904 203.787 374.107 200.157 378.746 201.011C383.386 201.865 386.348 205.837 385.361 209.878C384.381 213.92 379.821 216.5 375.182 215.646Z" fill="#B378FF"/>
<path d="M348.666 199.259C350.045 204.167 345.529 220.51 343.918 220.852C342.306 221.193 329.636 208.518 328.257 203.61C326.877 198.702 330.326 193.744 335.96 192.542C341.602 191.347 347.286 194.351 348.666 199.259Z" fill="#B378FF"/>
<path d="M361.988 234.842C356.463 233.293 342.864 221.37 343.372 219.992C343.88 218.619 362.917 215.868 368.435 217.417C373.96 218.967 376.988 224.128 375.209 228.935C373.43 233.754 367.513 236.398 361.988 234.842Z" fill="#B378FF"/>
<path d="M333.042 215.33C334.421 220.238 329.905 236.581 328.294 236.923C326.682 237.265 314.012 224.59 312.633 219.682C311.253 214.774 314.702 209.815 320.336 208.613C325.97 207.412 331.662 210.422 333.042 215.33Z" fill="#B378FF"/>
<path d="M346.364 250.913C340.839 249.364 327.24 237.442 327.748 236.063C328.256 234.69 347.293 231.939 352.811 233.489C358.336 235.038 361.364 240.199 359.585 245.006C357.806 249.826 351.889 252.469 346.364 250.913Z" fill="#B378FF"/>
<path d="M306.788 233.21C310.208 237.29 313.178 253.899 311.842 254.753C310.506 255.606 293.24 248.093 289.821 244.007C286.401 239.927 287.425 234.197 292.108 231.218C296.791 228.239 303.361 229.131 306.788 233.21Z" fill="#B378FF"/>
<path d="M331.65 267.073C325.951 266.137 310.74 255.79 311.052 254.367C311.357 252.95 329.849 248.143 335.549 249.086C341.248 250.022 345.002 254.809 343.92 259.781C342.853 264.746 337.357 268.009 331.65 267.073Z" fill="#B378FF"/>
<path d="M394.125 168.495C393.871 170.987 388.745 178.001 387.932 177.938C387.119 177.875 383.518 170.171 383.772 167.686C384.026 165.194 386.553 163.359 389.413 163.581C392.274 163.802 394.387 166.003 394.125 168.495Z" fill="#B378FF"/>
<path d="M396.848 185.016C394.118 184.238 387.424 178.311 387.678 177.635C387.932 176.958 397.356 175.636 400.086 176.414C402.816 177.192 404.297 179.753 403.404 182.125C402.511 184.497 399.578 185.793 396.848 185.016Z" fill="#B378FF"/>
<path d="M381.207 176.635C381.178 180.19 374.862 190.645 373.7 190.632C372.538 190.626 366.411 180.088 366.44 176.534C366.469 172.979 369.801 170.127 373.882 170.152C377.962 170.184 381.244 173.087 381.207 176.635Z" fill="#B378FF"/>
<path d="M386.783 200.714C382.906 199.607 373.395 191.189 373.758 190.221C374.121 189.259 387.509 187.381 391.387 188.488C395.264 189.595 397.369 193.231 396.099 196.603C394.835 199.986 390.66 201.82 386.783 200.714Z" fill="#B378FF"/>
<path d="M254.638 277.604C254.638 277.604 210.015 211.25 352.283 164.099C352.283 164.106 349.524 300.658 254.638 277.604Z" fill="#B378FF"/>
<path d="M352.465 163.891L250.761 268.521C244.219 248.883 241.773 200.574 352.465 163.891Z" fill="#B378FF"/>
<path d="M255.051 264.499C254.95 264.499 254.841 264.468 254.754 264.404C254.558 264.259 254.536 264.012 254.703 263.841L352.116 163.631C352.283 163.461 352.574 163.442 352.762 163.587C352.958 163.733 352.98 163.979 352.813 164.15L255.4 264.36C255.313 264.455 255.182 264.499 255.051 264.499Z" fill="#1C2A47"/>
<path d="M301.613 216.601C301.388 216.601 301.192 216.456 301.163 216.254C301.127 216.032 301.308 215.836 301.555 215.805L343.055 210.96C343.302 210.922 343.535 211.08 343.571 211.301C343.607 211.523 343.426 211.719 343.179 211.75L301.678 216.595C301.649 216.601 301.627 216.601 301.613 216.601Z" fill="#1C2A47"/>
<path d="M280.748 238.068C280.719 238.068 280.682 238.068 280.653 238.061C280.406 238.017 280.247 237.808 280.298 237.587L288.495 202.497C288.545 202.282 288.792 202.143 289.039 202.187C289.286 202.232 289.446 202.44 289.395 202.662L281.198 237.752C281.154 237.941 280.958 238.068 280.748 238.068Z" fill="#1C2A47"/>
<path d="M243.405 281.886C243.405 281.886 252.604 227.094 356.929 256.372C356.929 256.365 284.833 332.035 243.405 281.886Z" fill="#B378FF"/>
<path d="M356.93 256.365L243.406 281.879C243.406 281.886 274.422 334.938 356.93 256.365Z" fill="#6B358C"/>
<path d="M327.329 273.101C327.315 273.101 327.3 273.101 327.278 273.094L300.77 268.389C300.567 268.351 300.436 268.18 300.48 268.009C300.524 267.832 300.72 267.725 300.916 267.756L327.424 272.462C327.627 272.5 327.758 272.671 327.714 272.841C327.685 273.006 327.518 273.113 327.329 273.101Z" fill="#B378FF"/>
<path d="M289.705 288.736C289.676 288.736 289.647 288.729 289.625 288.723L255.436 279.463C255.24 279.413 255.131 279.229 255.189 279.059C255.247 278.888 255.458 278.793 255.654 278.844L289.843 288.103C290.039 288.154 290.148 288.337 290.09 288.508C290.039 288.66 289.879 288.748 289.705 288.736Z" fill="#B378FF"/>
<path d="M144.59 278.9C144.59 278.9 186.556 216.494 52.7529 172.151C52.7602 172.151 55.3522 300.582 144.59 278.9Z" fill="#B378FF"/>
<path d="M52.585 171.948L148.241 270.356C154.391 251.887 156.692 206.45 52.585 171.948Z" fill="#B378FF"/>
<path d="M144.206 266.599C144.075 266.599 143.944 266.548 143.857 266.46L52.2376 172.208C52.0778 172.037 52.0996 171.784 52.2884 171.645C52.4844 171.506 52.7676 171.525 52.9346 171.689L144.554 265.941C144.714 266.112 144.692 266.365 144.503 266.504C144.416 266.567 144.307 266.599 144.206 266.599Z" fill="#1C2A47"/>
<path d="M100.418 221.554C100.396 221.554 100.375 221.554 100.353 221.547L61.3207 216.994C61.0666 216.962 60.8923 216.766 60.9286 216.545C60.9649 216.323 61.1972 216.165 61.4441 216.203L100.476 220.757C100.73 220.788 100.905 220.985 100.868 221.206C100.839 221.408 100.643 221.554 100.418 221.554Z" fill="#1C2A47"/>
<path d="M120.043 241.742C119.832 241.742 119.636 241.61 119.593 241.42L111.882 208.417C111.831 208.202 111.991 207.987 112.238 207.943C112.477 207.899 112.731 208.038 112.782 208.253L120.493 241.255C120.544 241.47 120.384 241.685 120.137 241.73C120.101 241.742 120.072 241.742 120.043 241.742Z" fill="#1C2A47"/>
<path d="M155.156 282.923C155.156 282.923 146.501 231.389 48.3838 258.927C48.391 258.927 116.196 330.093 155.156 282.923Z" fill="#6B358C"/>
<path d="M48.3911 258.927L155.163 282.923C155.156 282.923 125.991 332.826 48.3911 258.927Z" fill="#B378FF"/>
<path d="M76.2282 274.669C76.2427 274.669 76.2572 274.669 76.2717 274.663L101.204 270.236C101.393 270.204 101.516 270.04 101.48 269.875C101.444 269.711 101.255 269.609 101.066 269.635L76.1338 274.062C75.945 274.094 75.8216 274.258 75.8579 274.423C75.8942 274.574 76.0539 274.676 76.2282 274.669Z" fill="#3A6B5F"/>
<path d="M111.609 289.374C111.638 289.374 111.66 289.368 111.689 289.362L143.845 280.652C144.027 280.602 144.129 280.431 144.078 280.273C144.02 280.115 143.824 280.02 143.642 280.071L111.486 288.78C111.304 288.83 111.202 289.001 111.253 289.159C111.304 289.298 111.457 289.381 111.609 289.374Z" fill="#3A6B5F"/>
<path d="M185.488 45.7057C184.58 46.3761 183.716 47.0908 182.903 47.8498C176.209 54.0544 176.644 64.8445 167.358 69.0315C160.715 72.0295 152.75 69.5059 145.294 69.0378C139.791 68.69 134.077 69.5691 129.437 72.1749C124.805 74.7807 121.407 79.2524 121.247 84.0529C121.088 88.7712 123.897 93.1985 124.355 97.8978C124.769 102.18 123.113 106.588 119.861 109.826C116.39 113.286 111.417 115.285 107.315 118.175C103.212 121.065 99.8073 125.689 101.405 130.072C103.118 134.771 109.674 136.922 112.005 141.412C114.51 146.244 111.344 151.703 109.057 156.611C106.77 161.519 105.986 168.305 111.177 171.063C113.479 172.29 116.361 172.296 119.047 172.081C120.819 171.936 122.707 171.721 124.304 172.41C125.27 172.827 126.025 173.53 126.7 174.257C130.751 178.596 133.394 184.573 139.442 186.451C142.564 187.419 145.998 187.046 149.28 186.641C156.141 185.793 163.358 184.718 168.687 180.854C177.922 174.149 178.278 161.569 186.279 153.752C192.654 147.522 202.753 145.397 212.286 144.587C221.819 143.778 231.664 143.911 240.594 140.894C245.938 139.091 250.788 136.175 254.622 132.469C257.141 130.028 259.297 127.08 259.53 123.804C260.031 116.727 251.79 111.42 250.156 104.476C248.835 98.8465 251.267 93.3946 251.362 87.7908C251.449 82.3009 248.53 76.9059 246.04 71.9536C240.994 61.9414 232.833 47.2679 221.492 41.7401C210.253 36.2628 195.071 38.5967 185.488 45.7057Z" fill="#1C2A47"/>
<mask id="path-54-inside-1_804_614" fill="white">
<path fill-rule="evenodd" clip-rule="evenodd" d="M335.551 113.065L344.665 125.417L327.048 136.831L327.05 136.833C327.05 136.833 301.943 184.509 279.037 184.889C256.13 185.275 238.952 163.018 239.395 161.867C239.837 160.716 254.373 147.231 254.373 147.231H261.858V147.237C261.858 147.237 272.43 159.571 281.236 159.571C288.899 159.571 312.57 134.882 318.594 128.464C318.667 128.36 321.802 123.879 324.792 119.975C324.979 119.684 329.526 112.623 332.221 110.554C334.972 108.441 338.893 106.335 339.358 107.195C339.578 107.604 338.252 109.4 336.587 111.656C336.252 112.11 335.903 112.582 335.551 113.065ZM133.239 183.263C131.591 179.235 145.909 164.675 145.909 164.675L125.71 147.231C125.71 147.231 106.151 165.706 105.163 177.793C104.224 189.207 142.18 223.973 148.767 230.006L148.771 230.01L148.78 230.018L148.789 230.026C149.165 230.371 149.437 230.62 149.59 230.763C150.559 231.666 151.273 233.318 151.792 235.094C151.308 237.57 150.067 240.989 147.171 245.291C144.398 249.414 147.549 261.141 148.964 261.128C150.38 261.115 149.763 253.943 149.763 253.943C149.763 253.943 150.823 262.893 152.609 262.842C154.395 262.785 153.444 253.563 153.444 253.563C153.444 253.563 155.063 263.291 156.886 262.722C158.708 262.146 158.105 253.032 158.105 253.032C158.105 253.032 160.487 263.43 161.474 262.115C162.101 261.28 162.239 257.569 162.351 254.564C162.416 252.833 162.471 251.337 162.607 250.762C162.79 249.981 164.059 247.391 165.432 244.591C165.891 243.655 166.361 242.696 166.806 241.773C167.262 242.32 167.838 243.845 168.455 245.481C169.382 247.938 170.403 250.643 171.253 250.654C172.392 250.668 172.113 247.166 171.868 244.102L171.868 244.101C171.786 243.064 171.707 242.077 171.689 241.293C171.616 238.201 166.062 230.073 166.062 230.073L166.062 230.075C164.826 228.129 163.382 226.109 162.114 224.408C159.319 220.124 153.697 212.371 148.144 204.712L148.142 204.71L148.142 204.71C141.054 194.935 134.079 185.316 133.239 183.263Z"/>
</mask>
<path fill-rule="evenodd" clip-rule="evenodd" d="M335.551 113.065L344.665 125.417L327.048 136.831L327.05 136.833C327.05 136.833 301.943 184.509 279.037 184.889C256.13 185.275 238.952 163.018 239.395 161.867C239.837 160.716 254.373 147.231 254.373 147.231H261.858V147.237C261.858 147.237 272.43 159.571 281.236 159.571C288.899 159.571 312.57 134.882 318.594 128.464C318.667 128.36 321.802 123.879 324.792 119.975C324.979 119.684 329.526 112.623 332.221 110.554C334.972 108.441 338.893 106.335 339.358 107.195C339.578 107.604 338.252 109.4 336.587 111.656C336.252 112.11 335.903 112.582 335.551 113.065ZM133.239 183.263C131.591 179.235 145.909 164.675 145.909 164.675L125.71 147.231C125.71 147.231 106.151 165.706 105.163 177.793C104.224 189.207 142.18 223.973 148.767 230.006L148.771 230.01L148.78 230.018L148.789 230.026C149.165 230.371 149.437 230.62 149.59 230.763C150.559 231.666 151.273 233.318 151.792 235.094C151.308 237.57 150.067 240.989 147.171 245.291C144.398 249.414 147.549 261.141 148.964 261.128C150.38 261.115 149.763 253.943 149.763 253.943C149.763 253.943 150.823 262.893 152.609 262.842C154.395 262.785 153.444 253.563 153.444 253.563C153.444 253.563 155.063 263.291 156.886 262.722C158.708 262.146 158.105 253.032 158.105 253.032C158.105 253.032 160.487 263.43 161.474 262.115C162.101 261.28 162.239 257.569 162.351 254.564C162.416 252.833 162.471 251.337 162.607 250.762C162.79 249.981 164.059 247.391 165.432 244.591C165.891 243.655 166.361 242.696 166.806 241.773C167.262 242.32 167.838 243.845 168.455 245.481C169.382 247.938 170.403 250.643 171.253 250.654C172.392 250.668 172.113 247.166 171.868 244.102L171.868 244.101C171.786 243.064 171.707 242.077 171.689 241.293C171.616 238.201 166.062 230.073 166.062 230.073L166.062 230.075C164.826 228.129 163.382 226.109 162.114 224.408C159.319 220.124 153.697 212.371 148.144 204.712L148.142 204.71L148.142 204.71C141.054 194.935 134.079 185.316 133.239 183.263Z" fill="#B5C4E2"/>
<path d="M335.551 113.065L334.743 112.476L334.31 113.068L334.746 113.659L335.551 113.065ZM344.665 125.417L345.209 126.256L346.101 125.678L345.47 124.823L344.665 125.417ZM327.048 136.831L326.504 135.991L325.627 136.56L326.234 137.411L327.048 136.831ZM327.05 136.833L327.935 137.299L328.222 136.754L327.864 136.253L327.05 136.833ZM279.037 184.889L279.02 183.889L279.02 183.889L279.037 184.889ZM239.395 161.867L238.461 161.508V161.508L239.395 161.867ZM254.373 147.231V146.231H253.98L253.693 146.498L254.373 147.231ZM261.858 147.231H262.858V146.231H261.858V147.231ZM261.858 147.237H260.858V147.607L261.099 147.888L261.858 147.237ZM318.594 128.464L319.323 129.148L319.372 129.096L319.413 129.037L318.594 128.464ZM324.792 119.975L325.586 120.583L325.611 120.55L325.633 120.515L324.792 119.975ZM332.221 110.554L331.612 109.761V109.761L332.221 110.554ZM339.358 107.195L340.238 106.72L340.238 106.72L339.358 107.195ZM336.587 111.656L335.782 111.062V111.062L336.587 111.656ZM145.909 164.675L146.622 165.376L147.37 164.615L146.562 163.918L145.909 164.675ZM133.239 183.263L132.314 183.642V183.642L133.239 183.263ZM125.71 147.231L126.364 146.474L125.68 145.884L125.024 146.504L125.71 147.231ZM105.163 177.793L106.16 177.875L106.16 177.874L105.163 177.793ZM148.767 230.006L148.091 230.743L148.093 230.745L148.767 230.006ZM148.771 230.01L149.446 229.272L149.445 229.271L148.771 230.01ZM148.78 230.018L148.105 230.756L148.105 230.756L148.78 230.018ZM148.789 230.026L149.464 229.289L149.464 229.289L148.789 230.026ZM149.59 230.763L150.272 230.031L150.272 230.031L149.59 230.763ZM151.792 235.094L152.773 235.285L152.82 235.047L152.752 234.813L151.792 235.094ZM147.171 245.291L146.342 244.732L146.341 244.733L147.171 245.291ZM148.964 261.128L148.955 260.128L148.964 261.128ZM149.763 253.943L150.756 253.825L148.767 254.029L149.763 253.943ZM152.609 262.842L152.637 263.842L152.641 263.841L152.609 262.842ZM153.444 253.563L154.431 253.399L152.449 253.666L153.444 253.563ZM156.886 262.722L157.184 263.676L157.187 263.675L156.886 262.722ZM158.105 253.032L159.08 252.809L157.107 253.098L158.105 253.032ZM161.474 262.115L160.674 261.514H160.674L161.474 262.115ZM162.351 254.564L163.35 254.602L162.351 254.564ZM162.607 250.762L163.58 250.99H163.58L162.607 250.762ZM165.432 244.591L164.534 244.151H164.534L165.432 244.591ZM166.806 241.773L167.574 241.132L166.579 239.94L165.905 241.338L166.806 241.773ZM168.455 245.481L169.391 245.128L168.455 245.481ZM171.253 250.654L171.241 251.654L171.253 250.654ZM171.868 244.102L172.865 244.022L172.864 244.011L171.868 244.102ZM171.868 244.101L170.871 244.181L170.872 244.192L171.868 244.101ZM171.689 241.293L172.688 241.27V241.27L171.689 241.293ZM166.062 230.073L166.887 229.509L165.308 227.197L165.066 229.987L166.062 230.073ZM166.062 230.075L165.218 230.611L166.802 233.106L167.058 230.161L166.062 230.075ZM162.114 224.408L161.276 224.955L161.293 224.981L161.312 225.006L162.114 224.408ZM148.144 204.712L147.332 205.296L147.334 205.299L148.144 204.712ZM148.142 204.71L148.954 204.126L148.948 204.118L148.942 204.11L148.142 204.71ZM148.142 204.71L147.332 205.297L147.337 205.303L147.342 205.31L148.142 204.71ZM334.746 113.659L343.86 126.011L345.47 124.823L336.355 112.471L334.746 113.659ZM344.121 124.578L326.504 135.991L327.592 137.67L345.209 126.256L344.121 124.578ZM326.234 137.411L326.236 137.414L327.864 136.253L327.862 136.25L326.234 137.411ZM327.05 136.833C326.165 136.367 326.165 136.367 326.165 136.367C326.165 136.368 326.164 136.368 326.164 136.369C326.164 136.37 326.162 136.372 326.161 136.375C326.158 136.38 326.154 136.388 326.148 136.399C326.136 136.421 326.119 136.455 326.095 136.499C326.048 136.587 325.977 136.719 325.883 136.892C325.696 137.237 325.417 137.746 325.054 138.393C324.327 139.689 323.263 141.543 321.914 143.77C319.214 148.226 315.38 154.166 310.838 160.112C306.292 166.064 301.061 171.99 295.572 176.444C290.064 180.912 284.416 183.8 279.02 183.889L279.053 185.889C285.11 185.788 291.19 182.574 296.832 177.997C302.493 173.404 307.834 167.34 312.428 161.326C317.026 155.305 320.901 149.302 323.624 144.807C324.987 142.558 326.063 140.684 326.799 139.372C327.167 138.715 327.45 138.199 327.641 137.846C327.737 137.669 327.81 137.533 327.859 137.441C327.884 137.395 327.902 137.36 327.915 137.336C327.921 137.324 327.926 137.315 327.929 137.309C327.931 137.306 327.932 137.304 327.933 137.302C327.934 137.301 327.934 137.3 327.934 137.3C327.934 137.299 327.935 137.299 327.05 136.833ZM279.02 183.889C267.892 184.076 258.094 178.759 251.083 173.172C247.585 170.385 244.81 167.553 242.942 165.356C242.008 164.256 241.31 163.327 240.867 162.653C240.643 162.312 240.498 162.058 240.419 161.891C240.378 161.805 240.369 161.771 240.371 161.778C240.372 161.781 240.381 161.818 240.385 161.878C240.388 161.93 240.39 162.063 240.328 162.226L238.461 161.508C238.325 161.861 238.411 162.19 238.438 162.293C238.48 162.451 238.545 162.607 238.611 162.747C238.746 163.033 238.947 163.374 239.196 163.752C239.696 164.513 240.447 165.509 241.419 166.651C243.363 168.939 246.231 171.863 249.836 174.736C257.03 180.469 267.274 186.087 279.053 185.889L279.02 183.889ZM240.328 162.226C240.29 162.324 240.268 162.321 240.414 162.141C240.525 162.003 240.688 161.816 240.902 161.584C241.327 161.12 241.92 160.511 242.629 159.801C244.045 158.384 245.897 156.597 247.74 154.841C249.581 153.086 251.41 151.367 252.778 150.086C253.462 149.446 254.031 148.915 254.429 148.545C254.628 148.359 254.784 148.214 254.89 148.115C254.943 148.066 254.984 148.028 255.012 148.003C255.025 147.99 255.036 147.98 255.043 147.974C255.046 147.971 255.049 147.968 255.05 147.967C255.051 147.966 255.052 147.965 255.052 147.965C255.053 147.965 255.053 147.964 255.053 147.964C255.053 147.964 255.053 147.964 254.373 147.231C253.693 146.498 253.693 146.498 253.693 146.498C253.692 146.498 253.692 146.498 253.692 146.499C253.692 146.499 253.691 146.5 253.69 146.501C253.688 146.502 253.686 146.505 253.682 146.508C253.675 146.514 253.664 146.524 253.651 146.537C253.623 146.563 253.582 146.601 253.529 146.65C253.422 146.75 253.265 146.895 253.066 147.081C252.667 147.452 252.097 147.984 251.411 148.626C250.04 149.909 248.207 151.633 246.36 153.393C244.514 155.152 242.648 156.953 241.214 158.387C240.498 159.104 239.883 159.737 239.429 160.231C239.203 160.477 239.008 160.699 238.858 160.884C238.741 161.028 238.554 161.266 238.461 161.508L240.328 162.226ZM254.373 148.231H261.858V146.231H254.373V148.231ZM260.858 147.231V147.237H262.858V147.231H260.858ZM261.858 147.237C261.099 147.888 261.099 147.888 261.099 147.889C261.1 147.889 261.1 147.889 261.1 147.889C261.101 147.89 261.101 147.891 261.102 147.892C261.104 147.894 261.106 147.896 261.109 147.9C261.115 147.906 261.123 147.916 261.134 147.929C261.156 147.954 261.187 147.99 261.229 148.037C261.312 148.131 261.433 148.267 261.589 148.44C261.903 148.785 262.358 149.275 262.932 149.863C264.078 151.037 265.702 152.605 267.609 154.176C269.513 155.744 271.72 157.332 274.033 158.531C276.337 159.726 278.812 160.571 281.236 160.571V158.571C279.257 158.571 277.108 157.874 274.954 156.756C272.807 155.643 270.72 154.147 268.881 152.632C267.044 151.12 265.474 149.604 264.363 148.466C263.808 147.897 263.369 147.425 263.07 147.095C262.92 146.93 262.806 146.802 262.73 146.715C262.691 146.672 262.663 146.639 262.644 146.617C262.634 146.606 262.628 146.598 262.623 146.593C262.621 146.591 262.619 146.589 262.618 146.588C262.618 146.587 262.618 146.587 262.618 146.587C262.617 146.587 262.617 146.587 262.617 146.587C262.617 146.587 262.618 146.587 261.858 147.237ZM281.236 160.571C282.427 160.571 283.802 160.103 285.237 159.394C286.695 158.674 288.32 157.651 290.039 156.427C293.478 153.978 297.378 150.66 301.204 147.162C308.861 140.162 316.306 132.363 319.323 129.148L317.865 127.779C314.858 130.982 307.455 138.737 299.855 145.686C296.052 149.162 292.221 152.418 288.879 154.798C287.207 155.989 285.678 156.946 284.352 157.601C283.002 158.267 281.961 158.571 281.236 158.571V160.571ZM319.413 129.037C319.485 128.934 322.61 124.469 325.586 120.583L323.998 119.367C320.994 123.289 317.848 127.785 317.774 127.89L319.413 129.037ZM325.633 120.515C325.722 120.377 326.894 118.557 328.375 116.519C329.885 114.44 331.616 112.279 332.83 111.347L331.612 109.761C330.131 110.897 328.24 113.302 326.757 115.343C325.243 117.426 324.048 119.282 323.95 119.435L325.633 120.515ZM332.83 111.347C334.161 110.325 335.774 109.307 337.09 108.656C337.756 108.327 338.294 108.118 338.658 108.035C338.846 107.991 338.914 107.999 338.9 107.997C338.875 107.994 338.628 107.948 338.478 107.671L340.238 106.72C339.972 106.228 339.5 106.059 339.161 106.014C338.833 105.971 338.497 106.019 338.209 106.086C337.621 106.221 336.919 106.51 336.204 106.863C334.756 107.579 333.032 108.67 331.612 109.761L332.83 111.347ZM338.478 107.671C338.405 107.536 338.387 107.415 338.383 107.343C338.379 107.273 338.387 107.227 338.389 107.217C338.393 107.202 338.387 107.234 338.343 107.332C338.255 107.522 338.092 107.805 337.843 108.185C337.35 108.938 336.622 109.925 335.782 111.062L337.391 112.25C338.217 111.131 338.985 110.092 339.516 109.281C339.779 108.879 340.01 108.495 340.162 108.163C340.236 107.999 340.311 107.807 340.351 107.606C340.386 107.433 340.431 107.078 340.238 106.72L338.478 107.671ZM335.782 111.062C335.448 111.515 335.097 111.99 334.743 112.476L336.359 113.654C336.709 113.174 337.056 112.704 337.391 112.25L335.782 111.062ZM145.909 164.675C145.196 163.974 145.196 163.974 145.195 163.974C145.195 163.974 145.195 163.974 145.195 163.975C145.194 163.975 145.194 163.976 145.193 163.977C145.191 163.979 145.188 163.982 145.184 163.985C145.177 163.993 145.166 164.004 145.152 164.018C145.125 164.046 145.084 164.088 145.031 164.143C144.925 164.252 144.77 164.412 144.574 164.617C144.182 165.027 143.625 165.616 142.962 166.335C141.637 167.772 139.884 169.734 138.18 171.827C136.482 173.913 134.807 176.16 133.657 178.161C133.083 179.159 132.617 180.134 132.352 181.022C132.096 181.882 131.978 182.822 132.314 183.642L134.165 182.885C134.088 182.698 134.058 182.301 134.269 181.594C134.471 180.915 134.854 180.091 135.39 179.158C136.461 177.296 138.056 175.147 139.731 173.09C141.401 171.039 143.124 169.11 144.433 167.691C145.086 166.982 145.635 166.402 146.019 166C146.212 165.798 146.363 165.642 146.466 165.536C146.517 165.483 146.557 165.443 146.583 165.416C146.596 165.402 146.606 165.392 146.612 165.386C146.616 165.382 146.618 165.38 146.62 165.378C146.62 165.377 146.621 165.377 146.621 165.376C146.621 165.376 146.622 165.376 146.622 165.376C146.622 165.376 146.622 165.376 145.909 164.675ZM125.057 147.988L145.255 165.432L146.562 163.918L126.364 146.474L125.057 147.988ZM106.16 177.874C106.389 175.07 107.711 171.802 109.657 168.417C111.593 165.049 114.094 161.654 116.581 158.612C119.066 155.574 121.523 152.908 123.359 151C124.277 150.047 125.038 149.284 125.57 148.761C125.835 148.499 126.043 148.298 126.184 148.162C126.255 148.094 126.308 148.042 126.344 148.008C126.362 147.991 126.376 147.978 126.384 147.97C126.389 147.966 126.392 147.963 126.394 147.961C126.395 147.96 126.396 147.959 126.396 147.959C126.397 147.958 126.397 147.958 126.397 147.958C126.397 147.958 126.397 147.958 125.71 147.231C125.024 146.504 125.023 146.504 125.023 146.505C125.023 146.505 125.023 146.505 125.022 146.505C125.021 146.506 125.02 146.507 125.019 146.508C125.016 146.511 125.013 146.515 125.008 146.519C124.998 146.529 124.983 146.543 124.964 146.561C124.926 146.597 124.869 146.651 124.796 146.721C124.65 146.862 124.437 147.069 124.166 147.336C123.624 147.87 122.85 148.646 121.918 149.613C120.056 151.547 117.561 154.255 115.033 157.346C112.507 160.435 109.933 163.924 107.923 167.42C105.924 170.898 104.431 174.472 104.166 177.711L106.16 177.874ZM149.442 229.269C146.149 226.253 135.038 216.075 124.872 205.233C119.786 199.809 114.959 194.243 111.468 189.338C109.722 186.885 108.328 184.621 107.403 182.642C106.466 180.638 106.064 179.039 106.16 177.875L104.167 177.711C104.028 179.399 104.606 181.384 105.591 183.489C106.587 185.62 108.056 187.992 109.839 190.498C113.406 195.51 118.304 201.152 123.413 206.601C133.636 217.504 144.797 227.726 148.091 230.743L149.442 229.269ZM149.445 229.271L149.44 229.267L148.093 230.745L148.097 230.749L149.445 229.271ZM149.455 229.281L149.446 229.272L148.095 230.747L148.105 230.756L149.455 229.281ZM149.464 229.289L149.455 229.281L148.105 230.756L148.113 230.764L149.464 229.289ZM150.272 230.031C150.115 229.885 149.839 229.632 149.464 229.289L148.113 230.764C148.492 231.11 148.759 231.355 148.908 231.494L150.272 230.031ZM152.752 234.813C152.227 233.02 151.454 231.133 150.272 230.031L148.908 231.494C149.663 232.198 150.318 233.616 150.832 235.374L152.752 234.813ZM148.001 245.849C150.96 241.452 152.261 237.911 152.773 235.285L150.81 234.902C150.356 237.229 149.174 240.525 146.342 244.732L148.001 245.849ZM148.955 260.128C149.087 260.127 149.188 260.16 149.247 260.188C149.304 260.214 149.332 260.239 149.333 260.239C149.335 260.241 149.322 260.23 149.297 260.199C149.272 260.17 149.24 260.127 149.202 260.069C149.041 259.826 148.843 259.427 148.629 258.877C148.206 257.787 147.781 256.257 147.481 254.584C147.181 252.911 147.013 251.135 147.081 249.55C147.151 247.936 147.461 246.652 148.001 245.849L146.341 244.733C145.495 245.991 145.158 247.719 145.083 249.464C145.007 251.236 145.195 253.165 145.512 254.937C145.83 256.709 146.286 258.367 146.765 259.6C147.002 260.212 147.26 260.759 147.533 261.171C147.667 261.375 147.831 261.586 148.028 261.755C148.213 261.914 148.538 262.132 148.973 262.128L148.955 260.128ZM149.763 253.943C148.767 254.029 148.767 254.029 148.767 254.029C148.767 254.029 148.767 254.029 148.767 254.029C148.767 254.029 148.767 254.029 148.767 254.029C148.767 254.03 148.767 254.031 148.767 254.032C148.767 254.035 148.768 254.04 148.768 254.046C148.769 254.059 148.771 254.078 148.773 254.103C148.777 254.153 148.783 254.227 148.789 254.323C148.803 254.514 148.821 254.788 148.839 255.117C148.874 255.777 148.906 256.65 148.895 257.518C148.884 258.4 148.828 259.218 148.708 259.795C148.646 260.091 148.582 260.245 148.548 260.3C148.515 260.356 148.635 260.131 148.955 260.128L148.973 262.128C149.648 262.122 150.059 261.67 150.262 261.331C150.466 260.992 150.586 260.583 150.665 260.205C150.827 259.433 150.883 258.456 150.895 257.543C150.906 256.616 150.872 255.696 150.836 255.011C150.818 254.667 150.799 254.381 150.784 254.179C150.777 254.079 150.771 253.999 150.767 253.944C150.764 253.917 150.763 253.896 150.761 253.881C150.761 253.874 150.76 253.868 150.76 253.864C150.76 253.862 150.76 253.86 150.76 253.859C150.76 253.859 150.759 253.858 150.759 253.858C150.759 253.858 150.759 253.858 150.759 253.857C150.759 253.857 150.759 253.857 149.763 253.943ZM152.581 261.842C152.81 261.836 152.863 261.979 152.742 261.834C152.634 261.704 152.492 261.463 152.332 261.084C152.018 260.339 151.734 259.296 151.493 258.198C151.255 257.111 151.071 256.016 150.945 255.19C150.883 254.778 150.835 254.435 150.803 254.196C150.788 254.076 150.776 253.982 150.768 253.919C150.764 253.888 150.761 253.864 150.759 253.848C150.758 253.84 150.757 253.834 150.757 253.83C150.757 253.828 150.756 253.827 150.756 253.826C150.756 253.826 150.756 253.825 150.756 253.825C150.756 253.825 150.756 253.825 150.756 253.825C150.756 253.825 150.756 253.825 149.763 253.943C148.77 254.061 148.77 254.061 148.77 254.061C148.77 254.061 148.77 254.061 148.77 254.061C148.77 254.062 148.77 254.062 148.77 254.063C148.77 254.064 148.771 254.066 148.771 254.069C148.772 254.073 148.772 254.08 148.773 254.089C148.776 254.107 148.779 254.134 148.783 254.168C148.792 254.235 148.804 254.334 148.821 254.459C148.854 254.709 148.903 255.064 148.968 255.491C149.097 256.341 149.289 257.481 149.539 258.625C149.787 259.757 150.103 260.943 150.489 261.861C150.681 262.315 150.914 262.764 151.206 263.114C151.485 263.449 151.962 263.861 152.637 263.842L152.581 261.842ZM153.444 253.563C152.449 253.666 152.449 253.666 152.449 253.666C152.449 253.666 152.449 253.666 152.449 253.666C152.449 253.666 152.449 253.667 152.45 253.667C152.45 253.668 152.45 253.669 152.45 253.671C152.45 253.675 152.451 253.681 152.452 253.689C152.453 253.706 152.456 253.731 152.459 253.763C152.465 253.829 152.474 253.925 152.485 254.049C152.508 254.296 152.537 254.65 152.567 255.076C152.628 255.929 152.689 257.061 152.696 258.188C152.704 259.328 152.654 260.409 152.51 261.186C152.436 261.582 152.351 261.821 152.286 261.937C152.219 262.057 152.294 261.851 152.577 261.842L152.641 263.841C153.371 263.818 153.807 263.312 154.029 262.917C154.254 262.518 154.388 262.027 154.476 261.551C154.656 260.582 154.704 259.347 154.696 258.175C154.689 256.99 154.624 255.812 154.562 254.935C154.531 254.495 154.501 254.128 154.478 253.871C154.466 253.742 154.456 253.641 154.45 253.571C154.446 253.536 154.444 253.509 154.442 253.49C154.441 253.481 154.44 253.474 154.44 253.469C154.439 253.467 154.439 253.465 154.439 253.463C154.439 253.463 154.439 253.462 154.439 253.462C154.439 253.461 154.439 253.461 154.439 253.461C154.439 253.461 154.439 253.461 153.444 253.563ZM156.587 261.767C156.856 261.683 156.999 261.859 156.91 261.773C156.815 261.681 156.663 261.47 156.477 261.09C156.113 260.349 155.76 259.263 155.447 258.097C155.139 256.945 154.884 255.77 154.706 254.879C154.617 254.434 154.548 254.062 154.501 253.803C154.478 253.673 154.46 253.571 154.448 253.502C154.442 253.468 154.438 253.441 154.435 253.424C154.433 253.415 154.432 253.409 154.431 253.405C154.431 253.403 154.431 253.401 154.431 253.4C154.431 253.4 154.431 253.399 154.431 253.399C154.431 253.399 154.431 253.399 154.431 253.399C154.431 253.399 154.431 253.399 153.444 253.563C152.458 253.728 152.458 253.728 152.458 253.728C152.458 253.728 152.458 253.728 152.458 253.728C152.458 253.729 152.458 253.729 152.458 253.73C152.458 253.732 152.459 253.734 152.459 253.736C152.46 253.741 152.461 253.749 152.463 253.759C152.466 253.778 152.471 253.806 152.477 253.843C152.49 253.916 152.509 254.023 152.533 254.158C152.582 254.428 152.653 254.812 152.745 255.27C152.928 256.185 153.192 257.406 153.516 258.615C153.836 259.81 154.229 261.049 154.681 261.971C154.903 262.423 155.177 262.879 155.519 263.21C155.867 263.547 156.459 263.903 157.184 263.676L156.587 261.767ZM158.105 253.032C157.107 253.098 157.107 253.098 157.107 253.098C157.107 253.098 157.107 253.098 157.107 253.098C157.108 253.098 157.108 253.099 157.108 253.099C157.108 253.1 157.108 253.101 157.108 253.103C157.108 253.107 157.108 253.113 157.109 253.121C157.11 253.137 157.111 253.162 157.113 253.194C157.117 253.258 157.123 253.354 157.129 253.476C157.142 253.721 157.158 254.073 157.172 254.498C157.199 255.348 157.217 256.482 157.179 257.628C157.141 258.785 157.048 259.908 156.867 260.756C156.776 261.184 156.673 261.489 156.574 261.679C156.463 261.892 156.438 261.814 156.584 261.768L157.187 263.675C157.789 263.485 158.143 262.997 158.349 262.601C158.566 262.183 158.714 261.682 158.823 261.174C159.041 260.151 159.139 258.888 159.178 257.694C159.218 256.489 159.199 255.309 159.17 254.433C159.156 253.994 159.14 253.629 159.126 253.373C159.12 253.245 159.114 253.145 159.11 253.075C159.108 253.041 159.106 253.014 159.105 252.996C159.104 252.986 159.104 252.979 159.104 252.974C159.104 252.972 159.103 252.97 159.103 252.969C159.103 252.968 159.103 252.967 159.103 252.967C159.103 252.967 159.103 252.967 159.103 252.966C159.103 252.966 159.103 252.966 158.105 253.032ZM160.674 261.514C160.737 261.431 160.957 261.211 161.328 261.231C161.48 261.239 161.592 261.288 161.654 261.323C161.715 261.357 161.747 261.388 161.75 261.392C161.754 261.396 161.72 261.361 161.654 261.251C161.593 261.148 161.521 261.01 161.44 260.834C161.11 260.114 160.736 258.996 160.379 257.784C160.025 256.585 159.7 255.341 159.463 254.394C159.345 253.921 159.249 253.524 159.182 253.245C159.149 253.106 159.124 252.996 159.106 252.922C159.097 252.884 159.091 252.856 159.087 252.837C159.084 252.827 159.083 252.82 159.082 252.816C159.081 252.813 159.081 252.811 159.08 252.81C159.08 252.81 159.08 252.809 159.08 252.809C159.08 252.809 159.08 252.809 159.08 252.809C159.08 252.809 159.08 252.809 158.105 253.032C157.131 253.255 157.131 253.255 157.131 253.256C157.131 253.256 157.131 253.256 157.131 253.256C157.131 253.256 157.131 253.257 157.131 253.258C157.131 253.259 157.132 253.261 157.132 253.264C157.134 253.269 157.136 253.277 157.138 253.287C157.143 253.307 157.149 253.337 157.158 253.376C157.176 253.453 157.203 253.565 157.237 253.708C157.305 253.993 157.402 254.398 157.523 254.879C157.763 255.84 158.095 257.114 158.46 258.35C158.821 259.572 159.228 260.808 159.622 261.667C159.806 262.069 160.042 262.515 160.341 262.812C160.486 262.955 160.784 263.204 161.219 263.228C161.733 263.256 162.088 262.963 162.274 262.715L160.674 261.514ZM161.352 254.527C161.295 256.036 161.234 257.687 161.11 259.063C161.047 259.752 160.972 260.347 160.879 260.808C160.833 261.039 160.786 261.218 160.741 261.35C160.692 261.493 160.662 261.53 160.674 261.514L162.274 262.715C162.58 262.307 162.738 261.713 162.84 261.202C162.953 260.638 163.037 259.962 163.101 259.243C163.231 257.804 163.295 256.097 163.35 254.602L161.352 254.527ZM161.633 250.533C161.543 250.919 161.492 251.524 161.454 252.171C161.414 252.846 161.384 253.665 161.352 254.527L163.35 254.602C163.383 253.733 163.412 252.938 163.451 252.288C163.49 251.611 163.536 251.18 163.58 250.99L161.633 250.533ZM164.534 244.151C163.849 245.548 163.184 246.905 162.668 248.01C162.409 248.563 162.184 249.061 162.01 249.475C161.845 249.87 161.7 250.248 161.633 250.533L163.58 250.99C163.605 250.885 163.688 250.646 163.855 250.249C164.014 249.87 164.226 249.4 164.479 248.857C164.986 247.772 165.642 246.434 166.33 245.031L164.534 244.151ZM165.905 241.338C165.462 242.258 164.993 243.215 164.534 244.151L166.33 245.031C166.788 244.096 167.26 243.134 167.707 242.207L165.905 241.338ZM169.391 245.128C169.084 244.316 168.778 243.504 168.49 242.827C168.218 242.188 167.91 241.535 167.574 241.132L166.038 242.413C166.158 242.557 166.365 242.941 166.65 243.61C166.918 244.241 167.209 245.011 167.52 245.834L169.391 245.128ZM171.265 249.654C171.346 249.655 171.41 249.672 171.452 249.688C171.472 249.696 171.487 249.704 171.496 249.709C171.506 249.714 171.51 249.717 171.51 249.717C171.51 249.717 171.507 249.715 171.5 249.709C171.493 249.703 171.483 249.694 171.471 249.681C171.446 249.656 171.414 249.62 171.375 249.57C171.211 249.361 171.011 249.02 170.783 248.549C170.33 247.613 169.859 246.37 169.391 245.128L167.52 245.834C167.978 247.049 168.482 248.387 168.983 249.421C169.232 249.935 169.505 250.426 169.8 250.803C169.948 250.992 170.128 251.187 170.343 251.342C170.559 251.496 170.864 251.649 171.241 251.654L171.265 249.654ZM170.872 244.181C170.995 245.733 171.12 247.311 171.08 248.499C171.06 249.105 170.998 249.512 170.92 249.739C170.828 250.002 170.874 249.649 171.265 249.654L171.241 251.654C172.202 251.666 172.64 250.881 172.809 250.396C172.99 249.874 173.057 249.217 173.079 248.566C173.123 247.24 172.986 245.535 172.865 244.022L170.872 244.181ZM170.872 244.192L170.873 244.192L172.864 244.011L172.864 244.011L170.872 244.192ZM170.689 241.317C170.708 242.135 170.79 243.153 170.872 244.181L172.865 244.022C172.782 242.975 172.706 242.019 172.688 241.27L170.689 241.317ZM166.062 230.073C165.236 230.637 165.236 230.637 165.236 230.637C165.236 230.637 165.236 230.637 165.236 230.637C165.236 230.638 165.237 230.638 165.237 230.638C165.237 230.639 165.238 230.64 165.239 230.642C165.242 230.646 165.246 230.651 165.251 230.659C165.261 230.673 165.276 230.695 165.295 230.725C165.335 230.783 165.393 230.87 165.468 230.983C165.618 231.207 165.832 231.533 166.09 231.933C166.606 232.734 167.294 233.833 167.982 235.024C168.672 236.218 169.354 237.49 169.865 238.641C170.393 239.831 170.676 240.76 170.689 241.317L172.688 241.27C172.665 240.281 172.227 239.033 171.693 237.83C171.142 236.587 170.421 235.247 169.714 234.023C169.005 232.796 168.299 231.669 167.771 230.85C167.507 230.44 167.287 230.106 167.133 229.874C167.056 229.758 166.995 229.668 166.953 229.606C166.932 229.575 166.916 229.551 166.905 229.535C166.899 229.526 166.895 229.52 166.892 229.516C166.891 229.514 166.89 229.512 166.889 229.511C166.888 229.51 166.888 229.51 166.888 229.51C166.888 229.509 166.888 229.509 166.888 229.509C166.887 229.509 166.887 229.509 166.062 230.073ZM167.058 230.161L167.058 230.16L165.066 229.987L165.065 229.988L167.058 230.161ZM161.312 225.006C162.573 226.697 164 228.694 165.218 230.611L166.906 229.538C165.651 227.563 164.192 225.521 162.915 223.81L161.312 225.006ZM147.334 205.299C152.896 212.97 158.499 220.697 161.276 224.955L162.951 223.862C160.14 219.552 154.498 211.772 148.953 204.125L147.334 205.299ZM147.33 205.294L147.332 205.296L148.955 204.128L148.954 204.126L147.33 205.294ZM147.342 205.31L147.342 205.31L148.942 204.11L148.942 204.11L147.342 205.31ZM132.314 183.642C132.567 184.262 133.22 185.332 134.09 186.655C134.981 188.012 136.16 189.722 137.53 191.667C140.269 195.557 143.79 200.411 147.332 205.297L148.951 204.122C145.406 199.233 141.895 194.391 139.165 190.515C137.8 188.577 136.635 186.887 135.761 185.557C134.865 184.193 134.331 183.291 134.165 182.885L132.314 183.642Z" fill="#1C2A47" mask="url(#path-54-inside-1_804_614)"/>
<path d="M335.306 98.6505C320.632 98.6505 308.696 84.0782 308.696 66.1601C308.696 48.242 320.632 33.6697 335.306 33.6697C349.979 33.6697 361.915 48.242 361.915 66.1601C361.915 84.0719 349.979 98.6505 335.306 98.6505ZM335.306 36.8637C322.658 36.8637 312.363 50.0066 312.363 66.1538C312.363 82.3073 322.651 95.4438 335.306 95.4438C347.953 95.4438 358.249 82.3009 358.249 66.1538C358.249 50.0066 347.953 36.8637 335.306 36.8637Z" fill="#1C2A47"/>
<path d="M336.476 124.007V97.0503H332.802V122.754C332.802 127.548 332.199 132.4 330.232 136.877C329.912 137.592 329.825 138.408 330.028 139.256C330.406 140.799 331.843 142.045 333.615 142.367C336.664 142.924 339.358 140.913 339.358 138.351C339.358 137.927 339.285 137.516 339.147 137.13C337.615 132.855 336.476 128.484 336.476 124.007Z" fill="#1C2A47"/>
<path d="M236.754 216.93C236.754 216.93 250.425 231.357 256.589 248.238C262.754 265.119 258.775 300 258.775 300H212.969C212.969 300 212.526 267.769 210.769 267.383C209.005 266.997 198.876 300 198.876 300H150.427C150.427 300 138.317 247.435 172.557 216.93L204.597 218.657L236.754 216.93Z" fill="#8325FC"/>
<path d="M236.755 209.448V216.93C236.755 216.93 220.455 230.744 172.558 216.93L172.449 209.448L214.516 207.146L236.755 209.448Z" fill="#1C2A47"/>
<path d="M220.468 119.206C220.468 119.206 237.443 118.656 246.054 123.836C252.218 127.542 265.817 148.439 265.817 148.439L250.199 160.001C250.199 160.001 253.924 172.613 239.381 178.937L236.746 209.442C236.746 209.442 209.439 223.255 172.44 209.442C172.44 209.442 165.39 152.272 158.783 157.256C152.176 162.246 148.212 166.655 148.212 166.655L123.548 145.359C123.548 145.359 150.441 121.894 159.335 118.213C180.216 109.58 197.097 117.884 197.097 117.884L220.468 119.206Z" fill="#B983FF"/>
<path d="M250.208 160.406C249.983 160.406 249.779 160.254 249.75 160.052C249.743 159.982 248.676 152.772 242.272 147.528C242.091 147.377 242.076 147.124 242.25 146.966C242.425 146.807 242.715 146.795 242.896 146.947C249.547 152.399 250.614 159.653 250.651 159.963C250.68 160.184 250.505 160.38 250.251 160.406C250.244 160.406 250.222 160.406 250.208 160.406Z" fill="#95E7D4"/>
<mask id="path-62-inside-2_804_614" fill="white">
<path fill-rule="evenodd" clip-rule="evenodd" d="M180.269 62.9218C181.104 50.715 192.466 40.7978 206.479 40.0831C222.771 39.2482 236.232 50.5569 236.123 64.5473C236.116 64.8513 236.103 65.1493 236.089 65.4528L236.087 65.4897L236.116 65.4834C236.111 66.2368 236.123 67.1521 236.138 68.1952C236.282 78.7277 236.606 102.291 220.586 103.862L220.47 119.206C220.47 119.206 213.311 125.075 197.098 117.897L198.151 111.768C199.197 105.696 197.403 99.574 193.425 94.5078C191.891 92.5569 190.478 90.3234 189.1 87.8195C183.157 89.0519 178.148 82.509 181.206 79.8786C182.202 79.024 183.384 78.6656 184.561 78.5886C183.913 77.1669 183.252 75.6907 182.57 74.161C180.85 70.7519 179.993 66.9381 180.269 62.9218Z"/>
</mask>
<path fill-rule="evenodd" clip-rule="evenodd" d="M180.269 62.9218C181.104 50.715 192.466 40.7978 206.479 40.0831C222.771 39.2482 236.232 50.5569 236.123 64.5473C236.116 64.8513 236.103 65.1493 236.089 65.4528L236.087 65.4897L236.116 65.4834C236.111 66.2368 236.123 67.1521 236.138 68.1952C236.282 78.7277 236.606 102.291 220.586 103.862L220.47 119.206C220.47 119.206 213.311 125.075 197.098 117.897L198.151 111.768C199.197 105.696 197.403 99.574 193.425 94.5078C191.891 92.5569 190.478 90.3234 189.1 87.8195C183.157 89.0519 178.148 82.509 181.206 79.8786C182.202 79.024 183.384 78.6656 184.561 78.5886C183.913 77.1669 183.252 75.6907 182.57 74.161C180.85 70.7519 179.993 66.9381 180.269 62.9218Z" fill="#B5C4E2"/>
<path d="M206.479 40.0831L206.53 41.0818L206.53 41.0817L206.479 40.0831ZM180.269 62.9218L181.266 62.9904L181.266 62.9901L180.269 62.9218ZM236.123 64.5473L237.123 64.5703L237.123 64.5627L237.123 64.5551L236.123 64.5473ZM236.089 65.4528L235.09 65.4069V65.407L236.089 65.4528ZM236.087 65.4897L235.088 65.4438L235.028 66.7435L236.3 66.4668L236.087 65.4897ZM236.116 65.4834L237.116 65.4903L237.125 64.2405L235.903 64.5063L236.116 65.4834ZM236.138 68.1952L237.138 68.1815V68.1815L236.138 68.1952ZM220.586 103.862L220.488 102.867L219.593 102.955L219.586 103.855L220.586 103.862ZM220.47 119.206L221.104 119.979L221.466 119.682L221.47 119.214L220.47 119.206ZM197.098 117.897L196.113 117.728L195.981 118.496L196.694 118.811L197.098 117.897ZM198.151 111.768L197.166 111.598L197.166 111.599L198.151 111.768ZM193.425 94.5078L194.211 93.8902L194.211 93.8898L193.425 94.5078ZM189.1 87.8195L189.976 87.3373L189.62 86.6904L188.897 86.8403L189.1 87.8195ZM181.206 79.8786L180.555 79.1195L180.554 79.1204L181.206 79.8786ZM184.561 78.5886L184.626 79.5864L186.072 79.4919L185.471 78.1737L184.561 78.5886ZM182.57 74.161L183.484 73.7538L183.474 73.7318L183.463 73.7104L182.57 74.161ZM206.428 39.0844C192.019 39.8192 180.148 50.0391 179.271 62.8536L181.266 62.9901C182.06 51.3909 192.913 41.7763 206.53 41.0818L206.428 39.0844ZM237.123 64.5551C237.238 49.856 223.153 38.2273 206.428 39.0844L206.53 41.0817C222.39 40.269 235.227 51.2578 235.123 64.5395L237.123 64.5551ZM237.088 65.4987C237.101 65.197 237.116 64.8876 237.123 64.5703L235.123 64.5244C235.117 64.8149 235.104 65.1016 235.09 65.4069L237.088 65.4987ZM237.086 65.5356L237.088 65.4987L235.09 65.407L235.088 65.4438L237.086 65.5356ZM235.903 64.5063L235.874 64.5126L236.3 66.4668L236.329 66.4605L235.903 64.5063ZM237.138 68.1815C237.123 67.1349 237.111 66.2312 237.116 65.4903L235.116 65.4764C235.111 66.2425 235.123 67.1694 235.138 68.209L237.138 68.1815ZM220.684 104.857C229.334 104.009 233.453 97.1796 235.392 89.6382C237.334 82.0845 237.21 73.4271 237.138 68.1815L235.138 68.209C235.21 73.4958 235.32 81.8864 233.455 89.1402C231.587 96.4064 227.858 102.144 220.488 102.867L220.684 104.857ZM221.47 119.214L221.586 103.87L219.586 103.855L219.47 119.199L221.47 119.214ZM196.694 118.811C204.947 122.466 210.981 122.835 215.011 122.232C217.023 121.932 218.518 121.392 219.526 120.915C220.03 120.676 220.41 120.454 220.672 120.285C220.803 120.201 220.904 120.13 220.976 120.077C221.012 120.051 221.04 120.03 221.061 120.013C221.072 120.005 221.081 119.998 221.088 119.992C221.092 119.989 221.095 119.987 221.097 119.985C221.099 119.984 221.1 119.983 221.101 119.982C221.101 119.981 221.102 119.981 221.102 119.981C221.103 119.98 221.104 119.979 220.47 119.206C219.836 118.433 219.836 118.432 219.837 118.432C219.837 118.432 219.838 118.431 219.838 118.431C219.839 118.43 219.839 118.43 219.84 118.43C219.84 118.429 219.841 118.429 219.841 118.429C219.841 118.429 219.839 118.43 219.836 118.432C219.829 118.438 219.816 118.448 219.795 118.463C219.754 118.493 219.686 118.541 219.589 118.604C219.396 118.728 219.091 118.908 218.67 119.107C217.829 119.506 216.521 119.985 214.716 120.254C211.114 120.792 205.463 120.507 197.503 116.982L196.694 118.811ZM197.166 111.599L196.113 117.728L198.084 118.066L199.137 111.937L197.166 111.599ZM192.638 95.1255C196.465 99.9978 198.157 105.839 197.166 111.598L199.137 111.938C200.236 105.553 198.342 99.1501 194.211 93.8902L192.638 95.1255ZM188.224 88.3018C189.619 90.8366 191.061 93.1194 192.638 95.1258L194.211 93.8898C192.721 91.9943 191.337 89.8102 189.976 87.3373L188.224 88.3018ZM180.554 79.1204C179.491 80.0351 179.152 81.2963 179.323 82.5384C179.489 83.7476 180.129 84.9506 181.031 85.9628C182.832 87.985 185.915 89.5013 189.303 88.7987L188.897 86.8403C186.342 87.3701 183.948 86.2313 182.524 84.6325C181.813 83.8342 181.403 82.9853 181.304 82.2663C181.21 81.5803 181.392 81.0373 181.858 80.6367L180.554 79.1204ZM184.496 77.5907C183.16 77.6781 181.754 78.0908 180.555 79.1195L181.857 80.6376C182.65 79.9572 183.608 79.653 184.626 79.5864L184.496 77.5907ZM181.657 74.5682C182.339 76.0984 183.001 77.5778 183.651 79.0034L185.471 78.1737C184.825 76.7561 184.165 75.2829 183.484 73.7538L181.657 74.5682ZM179.271 62.8533C178.982 67.0589 179.88 71.0513 181.678 74.6116L183.463 73.7104C181.819 70.4526 181.003 66.8172 181.266 62.9904L179.271 62.8533Z" fill="#1C2A47" mask="url(#path-62-inside-2_804_614)"/>
<path d="M230.395 76.6972C230.533 75.5271 229.56 74.4835 228.217 74.3633C226.874 74.2432 225.676 75.0907 225.538 76.2608C225.4 77.4309 226.373 78.4745 227.716 78.5946C229.052 78.7148 230.25 77.8673 230.395 76.6972Z" fill="#1C2A47"/>
<path d="M207.351 78.816C207.489 77.6459 206.516 76.6023 205.173 76.4821C203.83 76.3619 202.632 77.2095 202.494 78.3795C202.356 79.5496 203.329 80.5932 204.672 80.7134C206.015 80.8336 207.213 79.986 207.351 78.816Z" fill="#1C2A47"/>
<path d="M226.678 90.2196C226.678 90.2196 223.323 88.5625 222.096 88.9166C220.869 89.2708 220.259 90.6054 220.259 90.6054C220.259 90.6054 219.446 89.3278 217.929 89.372C216.411 89.4163 211.496 92.117 211.496 92.117C211.496 92.117 216.571 97.531 221.116 96.6139C225.748 95.6779 226.678 90.2196 226.678 90.2196Z" fill="#6C8AC5"/>
<path d="M199.123 74.9136C198.832 74.9326 198.535 74.844 198.317 74.6479C197.925 74.3001 197.939 73.7372 198.339 73.3956C198.462 73.2944 201.366 70.91 205.904 70.7835C206.463 70.7709 206.935 71.1503 206.949 71.6373C206.964 72.1244 206.485 72.5418 205.969 72.5481C202.187 72.6493 199.776 74.6416 199.747 74.6606C199.573 74.8124 199.348 74.8946 199.123 74.9136Z" fill="#1C2A47"/>
<path d="M224.201 69.7526C223.947 69.6324 223.751 69.4173 223.685 69.1517C223.577 68.671 223.925 68.2093 224.477 68.1081C224.644 68.0765 228.528 67.4124 232.463 69.4553C232.942 69.7083 233.102 70.2459 232.819 70.6633C232.536 71.0808 231.89 71.2136 231.432 70.9732C228.18 69.2845 224.92 69.8348 224.883 69.8348C224.637 69.8854 224.404 69.8474 224.201 69.7526Z" fill="#1C2A47"/>
<path d="M218.269 86.975C221.151 86.6081 222.124 84.7297 222.226 83.6418C222.24 83.4521 222.175 83.2623 222.037 83.1169C219.467 80.3529 219.765 76.3304 219.772 76.2861C219.808 75.875 219.452 75.5208 218.98 75.4892C218.516 75.4575 218.102 75.7675 218.066 76.1786C218.051 76.362 217.724 80.5806 220.469 83.7809C220.295 84.3692 219.59 85.6721 216.853 85.5392C216.374 85.5203 215.975 85.8302 215.953 86.2413C215.924 86.6524 216.287 87.0003 216.759 87.0256C217.31 87.0509 217.811 87.0319 218.269 86.975Z" fill="#1C2A47"/>
<path d="M211.496 92.1233C211.496 92.1233 220.782 91.3959 226.678 90.2195C226.678 90.2195 224.158 94.4445 220.608 94.6152C217.058 94.7797 211.496 92.1233 211.496 92.1233Z" fill="white"/>
<path d="M204.09 64.6991C199.138 69.7336 193.874 74.6669 190.164 80.4288C189.75 81.0613 186.839 85.8302 187.666 86.3868C183.15 83.3572 180.283 78.8603 177.872 74.3697C173.69 66.5775 174.997 57.2548 180.239 50.0951C185.423 43.0177 194.056 39.3746 203.531 38.7548C213.695 38.0907 224.753 41.1266 230.902 48.5456C236.674 55.5092 236.878 64.2753 237.48 72.4975C236.798 63.2633 222.611 56.2998 214.102 52.9919C214.349 53.0868 207.691 60.9295 207.342 61.309C206.282 62.4538 205.193 63.5796 204.09 64.6991Z" fill="#1C2A47"/>
<path d="M194.686 174.738C182.3 174.738 177.131 163.948 177.08 163.84C176.985 163.638 177.094 163.404 177.334 163.321C177.566 163.233 177.835 163.334 177.929 163.543C177.98 163.65 182.917 173.941 194.686 173.941C206.47 173.941 211.037 166.465 211.08 166.389C211.196 166.193 211.472 166.117 211.697 166.218C211.923 166.319 212.01 166.56 211.893 166.756C211.857 166.832 207.051 174.738 194.686 174.738Z" fill="#95E7D4"/>
<path d="M209.388 84.6664C209.388 85.9757 207.537 87.0382 205.257 87.0382C202.977 87.0382 201.126 85.9757 201.126 84.6664C201.126 83.3572 202.977 82.2946 205.257 82.2946C207.537 82.2946 209.388 83.3572 209.388 84.6664Z" fill="#91A7D3"/>
<path d="M232.962 82.8259C232.962 84.1351 231.111 85.1977 228.831 85.1977C226.551 85.1977 224.7 84.1351 224.7 82.8259C224.7 81.5167 226.551 80.4541 228.831 80.4541C231.111 80.4541 232.962 81.5103 232.962 82.8259Z" fill="#91A7D3"/>
<path d="M343.234 121.679L343.548 122.069L342.928 121.284L343.234 121.679ZM343.234 121.679L342.928 121.284L342.927 121.285L342.926 121.285L342.921 121.289L342.901 121.304L342.824 121.364C342.756 121.417 342.655 121.494 342.527 121.592C342.27 121.788 341.902 122.067 341.457 122.399C340.566 123.063 339.369 123.937 338.138 124.781C336.904 125.627 335.651 126.433 334.644 126.966C334.138 127.234 333.717 127.422 333.403 127.515C333.335 127.535 333.276 127.55 333.226 127.559C333.23 127.549 333.234 127.538 333.239 127.527C333.339 127.278 333.548 126.932 333.857 126.506C334.468 125.661 335.395 124.606 336.371 123.566C337.344 122.529 338.352 121.521 339.118 120.771C339.501 120.396 339.823 120.086 340.049 119.87C340.162 119.762 340.251 119.677 340.311 119.62L340.381 119.555L340.398 119.538L340.401 119.535L340.402 119.535L340.402 119.534L340.404 119.533L340.404 119.533L340.062 119.168M343.234 121.679L343.547 122.069L343.547 122.069L343.546 122.07L343.542 122.073L343.524 122.088L343.453 122.145C343.392 122.195 343.301 122.269 343.185 122.364C342.955 122.554 342.626 122.826 342.236 123.157C341.455 123.818 340.43 124.711 339.448 125.637C338.461 126.567 337.536 127.515 336.942 128.291C336.641 128.683 336.452 128.999 336.37 129.225C336.344 129.294 336.334 129.34 336.33 129.369C336.376 129.384 336.474 129.402 336.66 129.379C336.926 129.347 337.276 129.246 337.698 129.078C338.536 128.743 339.554 128.185 340.551 127.578C341.544 126.974 342.499 126.333 343.206 125.842C343.56 125.597 343.851 125.39 344.053 125.244C344.154 125.171 344.233 125.114 344.286 125.074L344.327 125.045C345.068 124.213 345.37 123.591 345.46 123.126C345.549 122.673 345.447 122.314 345.261 121.974C345.165 121.798 345.047 121.628 344.915 121.45C344.885 121.409 344.853 121.367 344.82 121.323C344.719 121.188 344.61 121.042 344.517 120.901C344.267 120.525 344.018 120.025 344.191 119.422C344.247 119.229 344.204 118.977 344.003 118.648C343.803 118.323 343.488 117.99 343.134 117.682C342.784 117.377 342.417 117.114 342.135 116.927C341.995 116.833 341.878 116.76 341.796 116.71C341.755 116.685 341.723 116.666 341.702 116.653L341.679 116.64L341.673 116.637L341.673 116.636L341.672 116.636L341.672 116.636L341.445 116.506L341.422 116.245C341.389 115.866 341.071 115.513 340.616 115.218C340.404 115.08 340.192 114.975 340.031 114.904C339.951 114.869 339.886 114.843 339.841 114.826C339.819 114.818 339.802 114.812 339.792 114.808L339.781 114.804L339.78 114.804L339.779 114.804L339.779 114.804L339.779 114.804L339.779 114.804L339.523 114.718L339.455 114.458L339.455 114.457L339.455 114.457L339.455 114.457L339.455 114.457L339.454 114.454L339.448 114.435C339.444 114.418 339.436 114.391 339.425 114.356C339.403 114.287 339.369 114.187 339.323 114.069C339.23 113.83 339.092 113.533 338.91 113.271C338.724 113.004 338.52 112.814 338.309 112.726C338.124 112.649 337.88 112.628 337.532 112.807L337.53 112.808L337.53 112.808C337.36 112.895 337.078 113.106 336.699 113.452C336.33 113.789 335.898 114.226 335.433 114.732C334.502 115.743 333.453 117.012 332.528 118.269C331.598 119.532 330.81 120.759 330.385 121.689C330.168 122.163 330.071 122.507 330.063 122.719C330.062 122.769 330.065 122.801 330.069 122.819C330.171 122.843 330.359 122.832 330.665 122.697C330.971 122.563 331.331 122.333 331.733 122.021C332.502 121.423 333.357 120.575 334.172 119.684C334.903 118.76 335.618 117.888 336.189 117.202C336.552 116.766 336.857 116.405 337.071 116.152C337.179 116.026 337.263 115.927 337.321 115.859L337.387 115.782L337.404 115.762L337.409 115.757L337.41 115.756L337.41 115.755C337.41 115.755 337.41 115.755 337.789 116.082M340.062 119.168L340.404 119.533L339.721 118.802L340.062 119.168ZM340.062 119.168L339.721 118.802L339.721 118.802L339.72 118.803L339.719 118.804L339.719 118.804L339.716 118.807L339.698 118.823L339.631 118.886C339.571 118.941 339.483 119.021 339.371 119.124C339.147 119.329 338.825 119.621 338.436 119.969C337.658 120.667 336.611 121.587 335.534 122.482C334.455 123.38 333.358 124.242 332.476 124.83C332.045 125.118 331.684 125.327 331.413 125.444C331.522 125.175 331.717 124.814 331.987 124.379C332.571 123.438 333.45 122.24 334.37 121.053C334.557 120.811 334.746 120.57 334.934 120.332C334.961 120.303 334.988 120.274 335.015 120.244C335.876 119.295 336.67 118.329 337.247 117.602C337.536 117.238 337.771 116.933 337.935 116.719C338.017 116.612 338.08 116.527 338.124 116.469L338.174 116.403L338.186 116.385L338.19 116.381L338.191 116.379L338.191 116.379C338.191 116.379 338.191 116.379 337.789 116.082M337.789 116.082L337.41 115.755L338.191 116.379L337.789 116.082ZM331.094 125.541C331.094 125.541 331.096 125.541 331.098 125.541C331.096 125.542 331.094 125.541 331.094 125.541ZM336.33 129.41C336.329 129.41 336.328 129.407 336.328 129.397C336.33 129.405 336.331 129.409 336.33 129.41ZM333.04 127.575C333.04 127.575 333.041 127.576 333.042 127.576L333.04 127.575Z" fill="#91A7D3" stroke="#1C2A47"/>
<path d="M214.152 226.171C209.694 226.171 206.071 223.015 206.071 219.131C206.071 215.248 209.694 212.092 214.152 212.092C218.61 212.092 222.233 215.248 222.233 219.131C222.225 223.008 218.602 226.171 214.152 226.171ZM214.152 215.286C211.719 215.286 209.745 217.013 209.745 219.125C209.745 221.244 211.727 222.964 214.152 222.964C216.584 222.964 218.559 221.244 218.559 219.125C218.559 217.013 216.577 215.286 214.152 215.286Z" fill="#7BE1C9"/>
<path d="M150.947 50.0213L155.579 43.8007L150.947 33.8854L146.315 43.8007L150.947 50.0213Z" fill="white"/>
<path d="M250.954 20.9767L246.358 27.2222L251.053 37.1126L255.621 27.1722L250.954 20.9767Z" fill="white"/>
<path d="M284.302 87.1339L279.706 93.377L284.4 103.27L288.969 93.3332L284.302 87.1339Z" fill="white"/>
<path d="M93.4768 59.7028L88.8838 65.946L93.5751 75.8387L98.147 65.9022L93.4768 59.7028Z" fill="white"/>
</svg>
