<svg width="340" height="254" viewBox="0 0 340 254" fill="none" xmlns="http://www.w3.org/2000/svg">
<path d="M105.776 41.7339C40.6888 51.3788 8.4825 106.215 4.34437 144.907C-0.711273 192.139 21.2152 217.103 62.1285 213.863C106.487 210.343 157.512 205.548 212.562 213.863C267.631 222.179 308.825 229.801 329.048 179.179C349.27 128.557 322.681 32.1264 248.176 15.1775C193.294 2.68587 173.559 31.6956 105.776 41.7339Z" fill="#F1F1F1"/>
<path d="M257.014 228.939C257.014 228.939 257.501 194.48 246.098 184.254C234.694 174.029 204.042 128.314 228.834 117.058C253.625 105.802 261.077 147.098 276.974 161.088C292.872 175.077 279.409 227.666 279.409 227.666L257.014 228.939Z" fill="#E4E4E4"/>
<path d="M272.593 235.813L271.469 235.7C271.507 235.288 275.607 194.611 268.211 176.351C264.784 167.905 257.969 159.795 250.722 151.199C241.997 140.843 232.99 130.149 228.29 117.226L229.339 116.852C233.964 129.587 242.914 140.206 251.565 150.488C258.868 159.14 265.739 167.324 269.241 175.939C276.768 194.442 272.649 235.419 272.593 235.813Z" fill="#CACACA"/>
<path d="M247.614 148.109C246.603 145.337 246.659 139.401 246.715 133.108C246.772 127.059 246.828 120.204 245.648 118.5L246.566 117.863C247.933 119.867 247.876 126.31 247.82 133.127C247.764 139.045 247.727 145.15 248.663 147.735L247.614 148.109Z" fill="#CACACA"/>
<path d="M253.026 153.934C252.146 152.885 246.659 150.6 240.873 148.184C229.096 143.296 220.014 139.288 219.097 136.235L220.164 135.917C221.007 138.726 232.747 143.596 241.304 147.154C248.457 150.132 252.895 152.005 253.887 153.222L253.026 153.934Z" fill="#CACACA"/>
<path d="M264.953 169.702C264.26 168.354 263.792 163.335 263.118 155.207C262.538 148.184 261.882 140.243 261.002 138.67L261.976 138.108C262.987 139.887 263.586 147.285 264.242 155.113C264.766 161.425 265.29 167.942 265.946 169.178L264.953 169.702Z" fill="#CACACA"/>
<path d="M270.121 182.382C268.23 179.366 258.924 177.007 250.704 174.928C242.278 172.793 234.32 170.789 232.391 167.942L233.309 167.305C235.013 169.796 243.139 171.856 250.985 173.842C260.216 176.183 268.942 178.392 271.076 181.782L270.121 182.382Z" fill="#CACACA"/>
<path d="M272.125 211.129C271.32 204.537 263.081 200.772 257.07 198.019C254.954 197.064 253.138 196.221 252.089 195.435L252.763 194.536C253.718 195.248 255.497 196.053 257.538 196.989C263.436 199.686 272.349 203.769 273.229 210.979L272.125 211.129Z" fill="#CACACA"/>
<path d="M273.51 200.098L272.387 200.023C272.555 197.589 274.802 192.363 277.18 186.82C279.708 180.902 282.592 174.197 282.386 171.838L283.509 171.744C283.753 174.366 281.056 180.64 278.229 187.251C275.982 192.476 273.679 197.851 273.51 200.098Z" fill="#CACACA"/>
<path d="M267.462 227.347C280.794 208.526 265.459 146.124 295.83 120.822C326.183 95.5207 347.585 110.11 328.149 145.993C308.713 181.876 302.103 224.051 291.561 227.947C281.019 231.842 267.462 227.347 267.462 227.347Z" fill="#E4E4E4"/>
<path d="M278.248 236L277.143 235.794C277.199 235.494 282.854 205.567 294.95 166.144C302.889 140.262 312.663 128.07 319.123 119.998C322.719 115.503 325.321 112.245 326.314 108.499L327.4 108.78C326.351 112.75 323.692 116.084 320.003 120.691C313.6 128.688 303.919 140.786 296.036 166.462C283.959 205.848 278.304 235.719 278.248 236Z" fill="#CACACA"/>
<path d="M301.616 150.956L300.736 150.244C304.294 145.805 311.69 142.359 318.861 139.007C326.164 135.599 333.073 132.377 334.29 128.763L335.358 129.119C333.972 133.183 326.875 136.498 319.348 140.018C312.289 143.333 305.005 146.742 301.616 150.956Z" fill="#CACACA"/>
<path d="M296.036 166.481L294.969 166.163C295.774 163.522 295.662 155.638 295.549 147.304C295.343 131.741 295.399 120.541 298.021 118.35L298.751 119.212C296.336 121.234 296.523 135.692 296.673 147.285C296.785 156.068 296.897 163.653 296.036 166.481Z" fill="#CACACA"/>
<path d="M288.565 192.457L287.479 192.157C288.771 187.494 295.942 182.531 303.544 177.306C310.229 172.699 317.157 167.923 319.048 163.747L320.078 164.215C318.075 168.672 311.016 173.542 304.2 178.242C297.084 183.112 289.744 188.187 288.565 192.457Z" fill="#CACACA"/>
<path d="M286.243 201.278L285.157 200.997C286.337 196.296 282.611 181.763 279.896 171.163C277.892 163.372 276.769 158.878 277.012 157.529L278.117 157.717C277.911 158.896 279.409 164.721 280.982 170.882C283.884 182.213 287.479 196.296 286.243 201.278Z" fill="#CACACA"/>
<path d="M281.187 222.347L280.083 222.104C280.663 219.444 285.644 216.785 291.411 213.714C296.785 210.848 302.87 207.608 303.881 204.705L304.949 205.08C303.788 208.376 297.759 211.597 291.935 214.706C286.898 217.403 281.655 220.193 281.187 222.347Z" fill="#CACACA"/>
<path d="M97.4618 165.695C97.4618 165.695 97.4243 147.004 97.0124 131.497C96.6005 115.99 111.281 98.9292 114.726 90.0896C118.171 81.2312 114.557 67.6909 126.991 61.6979C126.991 61.6979 119.688 74.7326 126.298 81.4934C132.907 88.2543 124.444 111.514 123.133 121.497C121.823 131.441 114.295 157.866 97.4618 165.695Z" fill="#E4E4E4"/>
<path d="M79.9916 196.465C79.9916 196.465 71.0038 154.701 56.8854 136.966C42.7671 119.23 43.7221 121.927 23.1063 117.582C2.50922 113.237 3.6327 128.351 3.6327 128.351C3.6327 128.351 15.167 121.796 21.8143 130.449C28.4802 139.101 30.3901 150.506 43.4412 168.429C56.4922 186.352 79.9916 196.465 79.9916 196.465Z" fill="#E4E4E4"/>
<path d="M36.0638 69.751C40.2019 84.8832 71.5843 92.8614 78.7933 108.949C86.0023 125.036 82.894 163.953 82.894 163.953C82.894 163.953 63.2893 147.042 61.9599 132.097C60.6304 117.152 50.4255 111.215 42.5238 96.0077C34.6407 80.7818 36.0638 69.751 36.0638 69.751Z" fill="#E4E4E4"/>
<path d="M91.4136 234.558L90.2901 234.633C90.2714 234.202 87.3691 191.502 82.3509 164.065L81.9577 161.912C77.0705 135.149 74.1308 118.987 59.3009 104.66C44.0591 89.9023 35.633 70.1817 35.5581 69.9757L36.588 69.5449C36.6629 69.7322 45.014 89.2656 60.0873 103.855C75.1606 118.425 78.1378 134.719 83.0624 161.706L83.4556 163.859C88.4925 191.352 91.3949 234.127 91.4136 234.558Z" fill="#E4E4E4"/>
<path d="M89.1853 220.343C87.8746 206.653 75.7972 190.641 63.0271 173.692C55.4249 163.597 47.5605 153.184 40.9695 142.154L41.9244 141.573C48.478 152.548 56.3237 162.942 63.9071 172.999C76.7896 190.079 88.9419 206.222 90.2901 220.231L89.1853 220.343Z" fill="#CACACA"/>
<path d="M86.8261 195.997C85.3656 184.329 90.6459 175.733 95.739 167.437C98.9783 162.155 102.33 156.705 103.903 150.506C107.91 134.719 110.943 104.866 110.962 104.566L112.086 104.679C112.048 104.978 109.015 134.906 104.989 150.769C103.379 157.136 99.9707 162.661 96.6939 168.017C91.4698 176.538 86.5265 184.573 87.9308 195.847L86.8261 195.997Z" fill="#CACACA"/>
<path d="M144.442 175.602C144.442 175.602 140.304 214.556 136.746 219.051C133.207 223.546 121.223 225.793 121.223 231.786C121.223 237.779 220.838 237.03 221.587 231.786C222.336 226.542 212.112 222.797 208.236 219.051C204.36 215.305 199.866 175.602 199.866 175.602H144.442Z" fill="#414141"/>
<path d="M136.783 227.104L136.727 225.98C137.158 225.962 179.438 223.752 208.255 225.98L208.161 227.104C179.419 224.894 137.214 227.085 136.783 227.104Z" fill="#CACACA"/>
<path d="M62.5965 36.4151C55.4062 39.2992 54.2827 178.299 62.5216 185.79C70.7604 193.281 275.233 191.783 278.229 185.79C281.225 179.797 287.629 42.7265 275.907 35.2353C264.186 27.744 80.0852 29.3734 62.5965 36.4151Z" fill="#414141"/>
<path d="M69.3372 44.4119C63.6824 48.4571 65.5923 157.323 69.3372 161.818C73.0821 166.313 264.073 166.313 269.316 161.818C274.559 157.323 273.061 49.1126 269.316 44.4119C265.571 39.7111 75.3291 40.1232 69.3372 44.4119Z" fill="#E4E4E4"/>
<path d="M193.669 165.189C193.669 165.189 193.669 150.581 196.29 145.337C198.912 140.094 209.023 122.864 213.142 104.885C217.262 86.9059 212.393 41.9585 206.776 41.9585C201.159 41.9585 201.533 75.2945 201.533 75.2945C201.533 75.2945 201.908 33.3436 195.167 33.3436C188.426 33.3436 188.051 72.6726 188.051 72.6726C188.051 72.6726 188.426 25.8524 180.562 25.8524C172.697 25.8524 173.072 72.298 173.072 72.298C173.072 72.298 172.753 34.0928 165.413 34.0928C158.073 34.0928 159.59 92.5243 157.718 109.754C155.845 126.984 165.413 165.189 165.413 165.189H193.669Z" fill="white"/>
<path d="M210.483 114.249C211.513 111.196 212.412 108.05 213.142 104.885C214.06 100.877 214.528 95.5395 214.64 89.6589C197.095 92.5243 169.195 103.443 157.867 108.05C157.811 108.649 157.755 109.211 157.699 109.735C157.624 110.428 157.567 111.177 157.53 111.927C167.566 115.485 191.609 122.264 210.483 114.249Z" fill="#F1F1F1"/>
<path d="M92.4996 1.88051C89.4849 6.71234 88.8108 100.765 92.4996 107.076C96.1883 113.387 238.701 109.23 245.012 101.046C251.322 92.8614 247.633 13.9601 245.012 3.95932C242.39 -6.004 97.7612 -6.52839 92.4996 1.88051Z" fill="#CACACA"/>
<path d="M169.252 81.868C154.909 81.868 94.6344 5.47628 92.0691 2.2176L92.9491 1.52466C93.5671 2.31124 155.433 80.7443 169.252 80.7443C183.071 80.7443 243.982 4.40878 244.581 3.64093L245.461 4.33387C242.933 7.49891 183.595 81.868 169.252 81.868Z" fill="#696969"/>
<path d="M92.9115 107.469L92.0876 106.701C92.3685 106.402 120.68 75.6504 142.887 60.4244L143.524 61.3608C121.429 76.5118 93.1924 107.17 92.9115 107.469Z" fill="#696969"/>
<path d="M244.599 101.457C220.201 75.2569 198.574 58.2706 198.368 58.102L199.061 57.2218C199.286 57.3904 220.969 74.4329 245.423 100.708L244.599 101.457Z" fill="#696969"/>
<path d="M157.118 69.1141C149.628 69.1141 155.096 85.7821 152.849 93.6479C150.602 101.514 143.861 108.63 145.734 121.74C147.606 134.85 158.092 143.465 160.339 149.458C162.586 155.45 160.339 165.189 160.339 165.189H185.43C185.43 165.189 183.932 155.825 183.183 136.348C182.434 116.871 167.51 113.125 165.413 110.129C163.335 107.132 169.327 99.2663 168.952 89.1532C168.578 79.04 161.032 69.1141 157.118 69.1141Z" fill="white"/>
<path d="M171.087 184.123C170.9 184.123 170.712 184.123 170.525 184.105C166.556 183.786 165.264 180.771 165.357 178.299C165.47 175.359 167.454 172.325 170.581 172.325C173.54 172.325 175.749 173.355 176.835 175.209C177.79 176.876 177.715 179.067 176.648 180.939C175.469 182.925 173.39 184.123 171.087 184.123ZM170.581 173.43C168.147 173.43 166.574 175.92 166.481 178.336C166.406 180.415 167.436 182.737 170.619 182.981C170.769 183 170.937 183 171.087 183C172.997 183 174.701 182.007 175.656 180.34C176.536 178.823 176.611 177.063 175.843 175.733C174.982 174.254 173.109 173.43 170.581 173.43Z" fill="#CACACA"/>
<path d="M79.7108 -1.00304C99.2031 2.23691 101.506 15.3466 101.132 32.052C100.776 48.7574 110.943 59.6571 117.834 59.6571C117.834 59.6571 108.753 62.9345 101.862 59.6571C94.9526 56.3797 88.062 65.4628 70.2736 61.1179C52.4852 56.7543 36.4944 43.8319 44.1341 21.4144C51.755 -1.00304 66.641 -3.19422 79.7108 -1.00304Z" fill="#7D7D7D"/>
<path d="M70.723 25.3093C70.723 25.3093 77.4638 11.6753 84.2047 18.5485C90.9455 25.4217 74.3181 37.5013 71.1724 45.1798C71.1724 45.1798 53.6461 28.3058 60.8364 18.5485C68.0266 8.79115 70.723 25.3093 70.723 25.3093Z" fill="white"/>
<path d="M211.307 74.3206C211.307 74.3206 218.048 60.6866 224.789 67.5598C231.53 74.433 214.902 86.5126 211.757 94.1911C211.757 94.1911 194.23 77.3171 201.421 67.5598C208.611 57.8025 211.307 74.3206 211.307 74.3206Z" fill="#696969"/>
<path d="M220.239 48.5134C239.394 51.7159 241.66 64.582 241.304 81.0065C240.948 97.431 250.947 108.143 257.726 108.143C257.726 108.143 248.794 111.365 242.016 108.143C235.237 104.922 228.44 113.856 210.952 109.567C193.463 105.278 177.753 92.5617 185.243 70.5376C192.751 48.5134 207.394 46.3784 220.239 48.5134Z" fill="white"/>
<path d="M211.307 74.3206C211.307 74.3206 218.048 60.6866 224.789 67.5598C231.53 74.433 214.902 86.5126 211.757 94.1911C211.757 94.1911 194.23 77.3171 201.421 67.5598C208.611 57.8025 211.307 74.3206 211.307 74.3206Z" fill="#7D7D7D"/>
<path d="M154.388 215.921C154.268 217.095 154.083 218.245 153.826 219.362C150.53 233.601 135.744 243.474 109.364 245.268C56.098 248.886 26.7515 245.67 16.299 220.343C13.9352 214.618 13.0183 207.221 13.1476 199.14C13.5821 171.433 26.2368 135.607 34.7922 131.096C45.8473 125.267 53.6863 128.283 53.6863 128.283C71.5756 132.101 100.118 184.564 122.43 186.573C144.74 188.584 155.949 200.307 154.388 215.921Z" fill="#979797"/>
<path d="M37.2027 163.056C37.2027 163.056 50.4691 173.709 55.0921 185.569C59.715 197.428 59.715 207.881 69.3632 209.89C79.0113 211.9 97.1023 213.106 115.394 207.679C133.685 202.252 134.087 195.819 114.791 192.403C95.4949 188.986 74.3896 170.695 68.3597 157.629C62.3298 144.563 62.5302 139.338 58.7116 135.921C54.8929 132.505 49.2639 131.298 43.6361 137.931C38.0084 144.563 34.791 155.62 37.2027 163.056Z" fill="#696969"/>
<path d="M77.5239 127.498C77.7554 127.182 78.0412 126.898 78.261 126.578C79.2464 125.147 78.1666 123.524 76.9368 122.686C76.1015 122.117 75.9773 121.664 76.1817 120.621C76.3433 119.796 76.8114 119.249 76.6524 118.389C76.5205 117.671 76.2062 116.646 75.645 116.179C75.0708 115.7 74.2251 115.739 73.563 115.457C71.9208 114.758 73.4467 113.449 72.7458 112.222C71.6958 110.384 68.6944 110.825 66.9085 110.554C66.9215 110.556 66.9305 110.552 66.9331 110.539C65.3994 109.929 65.1318 108.318 63.1649 108.645C62.2364 108.799 61.5924 109.382 60.8178 109.839C59.4743 110.631 58.3428 109.542 57.0419 110.031C55.5716 110.585 54.3987 111.91 53.9849 113.424C53.4094 115.532 52.1887 114.915 50.527 115.672C49.6451 116.074 48.5472 116.355 48.7309 117.59C48.8291 118.249 49.4111 118.815 49.4576 119.469C49.5158 120.303 48.727 120.776 48.2627 121.397C47.7636 122.065 47.4377 123.04 47.7752 123.842C48.1386 124.708 49.1563 125.134 49.2042 126.189C49.2701 127.659 47.2024 128.865 48.0455 130.471C48.6028 131.532 49.8106 131.532 50.6137 132.211C51.1529 132.668 51.0766 133.349 51.0145 133.959C50.8451 135.633 51.6223 137.117 53.584 136.731C55.0129 136.449 56.0565 136.287 57.0716 137.517C57.9574 138.59 58.8277 139.122 60.3252 138.995C61.2769 138.914 62.1588 138.519 63.0692 138.264C63.9227 138.025 64.1852 138.167 64.9507 138.404C66.5659 138.903 67.5008 137.363 69.0021 137.382C69.5789 137.39 69.9578 137.825 70.5462 137.923C71.2289 138.037 71.9751 137.812 72.5596 137.468C73.3277 137.015 73.6911 136.479 73.9523 135.639C74.1773 134.915 74.3389 134.658 75.0385 134.363C76.8114 133.614 77.7761 132.794 77.6597 130.723C77.6132 129.903 77.03 129.246 77.1192 128.44C77.1606 128.073 77.3222 127.773 77.5239 127.498Z" fill="#2D2D2D"/>
<path d="M142.194 248.417C142.194 251.265 115.736 253.576 83.0989 253.576C50.4613 253.576 24.0037 251.267 24.0037 248.417C24.0037 245.567 50.4613 243.257 83.0989 243.257C115.736 243.258 142.194 245.568 142.194 248.417Z" fill="#E4E4E4"/>
<path d="M77.806 153.543C77.806 153.543 88.9955 165.335 93.5513 166.474L86.2476 171.097L76.5322 165.67C76.5335 165.67 72.9153 156.022 77.806 153.543Z" fill="#CACACA"/>
<path d="M77.8062 153.543L77.7118 153.632C77.7131 153.633 80.5114 156.583 83.8827 159.676C85.5676 161.223 87.3961 162.807 89.0914 164.077C89.9397 164.712 90.7531 165.268 91.5018 165.704C92.2505 166.138 92.932 166.452 93.5204 166.6L93.5514 166.474L93.4829 166.366L86.2452 170.947L76.5971 165.557L76.5337 165.67L76.6553 165.625C76.6553 165.625 76.6501 165.612 76.6411 165.587C76.5014 165.206 75.3738 161.999 75.3751 158.938C75.3751 157.835 75.5212 156.752 75.9066 155.829C76.2919 154.906 76.91 154.144 77.8657 153.658L77.8062 153.543L77.7118 153.632L77.8062 153.543L77.748 153.428C76.7316 153.942 76.0682 154.762 75.6673 155.73C75.2652 156.697 75.1165 157.812 75.1165 158.938C75.1177 162.268 76.4109 165.709 76.4135 165.716L76.4303 165.76L86.2543 171.249L93.8773 166.423L93.5838 166.349C93.0329 166.212 92.3682 165.908 91.6324 165.48C89.0552 163.982 85.6155 160.972 82.8287 158.34C81.4347 157.024 80.2024 155.802 79.3192 154.91C78.8769 154.464 78.5226 154.099 78.2782 153.847C78.1566 153.72 78.0622 153.622 77.9976 153.556C77.9342 153.489 77.9006 153.454 77.9006 153.454L77.8346 153.384L77.7493 153.428L77.8062 153.543Z" fill="#696969"/>
<path d="M83.7349 178.835C83.7349 178.835 101.591 176.055 112.58 181.013C123.568 185.971 120.621 194.279 117.135 201.381C113.65 208.483 110.436 211.164 110.436 211.164L103.736 208.35C103.736 208.35 106.148 196.29 110.168 190.259C110.168 190.259 94.49 198.567 86.0471 198.165C77.6055 197.763 77.7387 181.951 77.7387 181.951L83.7349 178.835Z" fill="#2D2D2D"/>
<path d="M58.092 140.714C58.092 140.714 53.4846 143.158 50.0009 144.497C46.5171 145.837 45.4451 150.997 47.4547 154.748C49.4642 158.501 54.4894 168.082 56.6334 173.777C58.7774 179.472 60.0175 184.162 60.0175 184.162C60.0175 184.162 71.7088 186.407 78.2081 184.061C84.7075 181.717 83.7363 178.835 83.7363 178.835C83.7363 178.835 79.5491 164.128 78.9452 160.175C78.9452 160.175 80.7543 156.088 79.2801 152.471C77.806 148.853 73.9873 147.378 72.111 145.167C70.2346 142.957 62.9659 140.079 58.092 140.714Z" fill="white"/>
<path d="M72.3139 125.485C72.1613 127.495 71.9841 129.514 72.257 132.32C72.4742 134.611 71.3725 136.428 68.1888 139.001C68.1888 139.001 67.0224 139.106 65.7046 138.719C65.6801 138.719 65.6568 138.712 65.6322 138.704L65.9297 140.907L65.9943 141.374L66.0344 141.712C66.0344 141.712 66.0822 143.126 64.4257 143.529C62.7615 143.931 59.345 142.322 58.0906 140.715C58.0906 140.715 58.2911 134.685 57.7855 132.321C57.7855 132.321 56.2337 129.757 55.3737 126.243C54.5216 122.722 57.1583 119.296 59.6114 118.034C62.0722 116.78 69.5013 116.74 71.7604 121.87C71.7591 121.867 72.4678 123.475 72.3139 125.485Z" fill="#CACACA"/>
<path d="M72.314 125.485L72.1847 125.475C72.0903 126.722 71.9855 127.976 71.9855 129.423C71.9855 130.308 72.0243 131.263 72.1291 132.331C72.1459 132.512 72.1549 132.69 72.1549 132.864C72.1536 133.861 71.873 134.773 71.2277 135.74C70.5812 136.706 69.5673 137.722 68.1087 138.901L68.1901 139.001L68.1785 138.872H68.1733C68.1449 138.875 68.0117 138.884 67.8022 138.884C67.3599 138.884 66.5802 138.84 65.7422 138.594L65.7241 138.589H65.706V138.602L65.7073 138.589H65.706V138.602L65.7073 138.589L65.6996 138.588L65.675 138.58L65.4784 138.514L65.8043 140.922L65.8689 141.389L65.997 141.37L65.8689 141.386L65.909 141.723L66.0371 141.708L65.9077 141.711V141.712V141.72C65.9077 141.776 65.8974 142.113 65.706 142.471C65.6103 142.651 65.4694 142.836 65.2612 143C65.0517 143.164 64.7737 143.308 64.3986 143.398C64.2357 143.438 64.0495 143.458 63.8478 143.456C62.9917 143.458 61.8434 143.105 60.7817 142.57C59.7188 142.038 58.736 141.324 58.1954 140.629L58.0933 140.71L58.2226 140.714C58.2226 140.712 58.2614 139.53 58.2614 138.007C58.2614 137.047 58.2459 135.952 58.1941 134.931C58.1424 133.908 58.0571 132.961 57.9135 132.289L57.9084 132.268L57.8967 132.25C57.8967 132.25 57.8915 132.241 57.8799 132.221C57.7105 131.933 56.301 129.483 55.4992 126.207C55.3893 125.756 55.3389 125.306 55.3389 124.861C55.3389 123.391 55.8949 121.981 56.7174 120.802C57.5385 119.624 58.626 118.68 59.6696 118.143C60.0653 117.941 60.6059 117.768 61.2382 117.646C61.8705 117.525 62.5973 117.455 63.3667 117.455C64.8991 117.455 66.6035 117.734 68.1048 118.431C69.6061 119.13 70.9032 120.242 71.6402 121.915L71.6415 121.918C71.6713 121.986 72.2066 123.255 72.2053 124.906C72.2053 125.09 72.1989 125.279 72.1847 125.471L72.314 125.485L72.4433 125.496C72.4588 125.297 72.4653 125.101 72.4653 124.911C72.4653 123.15 71.8821 121.826 71.8782 121.816C71.1126 120.075 69.7587 118.918 68.2147 118.201C66.6694 117.484 64.9301 117.2 63.3667 117.2C62.5818 117.2 61.8408 117.271 61.1904 117.397C60.5399 117.522 59.98 117.699 59.5532 117.918C58.4657 118.478 57.3536 119.447 56.5066 120.659C55.6609 121.871 55.0828 123.33 55.0815 124.866C55.0815 125.33 55.1346 125.801 55.2484 126.273C56.1135 129.807 57.6717 132.381 57.6756 132.387L57.7868 132.32L57.6601 132.347C57.7984 132.992 57.8851 133.932 57.9355 134.947C57.9859 135.963 58.0015 137.054 58.0015 138.011C58.0015 138.77 57.9911 139.445 57.9821 139.93C57.9769 140.172 57.9717 140.367 57.9691 140.501C57.9653 140.636 57.9627 140.708 57.9627 140.708L57.9614 140.755L57.9898 140.792C58.5704 141.536 59.5752 142.26 60.664 142.806C61.7529 143.352 62.9219 143.717 63.8465 143.719C64.065 143.719 64.2706 143.698 64.4581 143.653C64.8655 143.555 65.1797 143.394 65.4189 143.207C65.7784 142.925 65.9659 142.581 66.0616 142.296C66.1573 142.012 66.1651 141.786 66.1651 141.722V141.707V141.7L66.1237 141.355L66.059 140.888L65.7616 138.686L65.6336 138.703L65.5922 138.826C65.6168 138.833 65.6517 138.847 65.706 138.849V138.719L65.6698 138.844C66.5414 139.098 67.3444 139.144 67.8035 139.144C68.0518 139.144 68.1992 139.131 68.2031 139.131L68.2419 139.127L68.2729 139.102C69.7419 137.915 70.7751 136.885 71.445 135.885C72.1148 134.885 72.4174 133.913 72.4161 132.865C72.4161 132.682 72.4071 132.497 72.389 132.309C72.2855 131.249 72.2467 130.302 72.2467 129.426C72.2467 127.992 72.3502 126.745 72.4459 125.497L72.314 125.485Z" fill="#696969"/>
<path d="M58.3676 129.227C58.3676 129.227 58.3818 129.242 58.409 129.272C58.5008 129.374 58.7323 129.639 58.9392 129.942C59.1474 130.243 59.3284 130.584 59.3271 130.826C59.3271 130.864 59.3232 130.899 59.3142 130.931C59.256 131.146 59.1357 131.268 59.0245 131.391C58.9133 131.513 58.8098 131.638 58.8098 131.847C58.8098 131.946 58.8331 132.064 58.8887 132.207C59.1655 132.938 59.3426 133.241 59.3439 133.242C59.353 133.257 59.3724 133.263 59.3879 133.253C59.4034 133.244 59.4086 133.225 59.3995 133.209C59.3995 133.209 59.3892 133.191 59.3685 133.153C59.3064 133.035 59.1564 132.73 58.9495 132.184C58.8965 132.044 58.8758 131.934 58.8758 131.845C58.8758 131.662 58.9624 131.557 59.0736 131.434C59.1836 131.312 59.3155 131.178 59.3775 130.948C59.3879 130.909 59.393 130.869 59.393 130.826C59.3917 130.517 59.1461 130.112 58.9029 129.778C58.6598 129.444 58.4167 129.184 58.4154 129.184C58.4038 129.171 58.3831 129.17 58.3702 129.183C58.3559 129.193 58.3547 129.214 58.3676 129.227Z" fill="#414141"/>
<path d="M71.557 126.24C71.557 126.24 70.6024 125.938 69.3206 126.842C69.3206 126.842 69.5469 125.811 70.301 125.686C71.0551 125.562 71.557 126.24 71.557 126.24Z" fill="#414141"/>
<path d="M66.4066 127.154C66.4066 127.154 65.7224 126.324 64.7212 126.47C63.7201 126.616 62.9634 127.006 62.9634 127.006C62.9634 127.006 63.4032 126.03 64.3797 125.81C65.3576 125.591 66.1389 126.153 66.4066 127.154Z" fill="#414141"/>
<path d="M69.6606 128.777C69.6257 129.283 69.7589 129.703 69.9594 129.717C70.1599 129.731 70.3513 129.333 70.3875 128.827C70.4225 128.322 70.2892 127.901 70.0887 127.887C69.8882 127.874 69.6955 128.272 69.6606 128.777Z" fill="#414141"/>
<path d="M65.2639 129.381C65.2289 129.886 65.3622 130.307 65.5627 130.321C65.7631 130.335 65.9546 129.937 65.9908 129.431C66.0257 128.925 65.8925 128.505 65.692 128.491C65.4902 128.476 65.2988 128.875 65.2639 129.381Z" fill="#414141"/>
<path d="M68.4465 129.472C68.4465 129.472 68.5189 129.599 68.6289 129.798C68.7932 130.097 69.0389 130.561 69.2446 131.009C69.4502 131.455 69.6119 131.891 69.6119 132.116C69.6119 132.182 69.5977 132.227 69.5757 132.248C69.502 132.322 69.3571 132.403 69.1838 132.481C68.9238 132.596 68.5978 132.705 68.3366 132.782C68.2059 132.821 68.0921 132.853 68.0106 132.875C67.9291 132.897 67.8813 132.91 67.8813 132.91C67.8645 132.914 67.8541 132.932 67.858 132.949C67.8619 132.966 67.88 132.976 67.8968 132.972C67.8968 132.972 68.2447 132.884 68.6341 132.756C68.8281 132.692 69.0324 132.618 69.2097 132.54C69.3869 132.461 69.5356 132.38 69.621 132.295C69.6624 132.253 69.6766 132.191 69.6766 132.116C69.6766 131.948 69.6016 131.702 69.4916 131.42C69.1618 130.579 68.5034 129.44 68.5034 129.44C68.4944 129.424 68.475 129.419 68.4595 129.428C68.4439 129.436 68.4375 129.457 68.4465 129.472Z" fill="#414141"/>
<path d="M68.0691 134.181C68.0691 134.181 68.0329 134.186 67.9657 134.191C67.8984 134.196 67.8027 134.201 67.685 134.201C67.2336 134.201 66.4652 134.123 65.8133 133.666C65.7991 133.656 65.7784 133.66 65.7681 133.674C65.7577 133.688 65.7616 133.709 65.7758 133.719C66.4445 134.186 67.2258 134.266 67.6837 134.266C67.9243 134.266 68.0756 134.244 68.0769 134.244C68.095 134.242 68.1067 134.225 68.1041 134.208C68.1028 134.191 68.086 134.178 68.0691 134.181Z" fill="#414141"/>
<path d="M61.7258 123.459C61.7258 123.459 62.2779 124.514 61.9766 126.876C61.6753 129.237 61.524 128.383 61.3236 129.439C61.1232 130.494 61.6753 131.298 60.9719 132.152C60.2684 133.006 61.3236 129.89 59.1123 128.03C56.9011 126.171 57.4545 131.649 58.0067 132.704C58.5589 133.759 59.4641 134.161 59.4641 134.161L58.0571 135.819C58.0571 135.819 51.2733 132.603 51.625 125.819C51.9768 119.035 55.9467 117.176 55.9467 117.176C55.9467 117.176 59.2636 112.502 67.6548 114.663C76.0473 116.824 75.018 123.7 74.9417 124.713C74.7412 127.377 72.1278 127.426 72.1278 127.426C72.1278 127.426 72.3787 124.613 70.5696 122.954C70.5696 122.954 70.0665 124.11 68.3078 124.562C66.5492 125.015 67.4039 123.406 67.7557 122.703C67.7557 122.703 66.7509 124.059 65.1422 124.059C63.5349 124.062 61.7258 123.459 61.7258 123.459Z" fill="#2D2D2D"/>
<path d="M65.9944 141.373C65.2301 141.173 64.0482 140.721 62.5779 139.741C59.8687 137.932 60.3188 134.516 60.3188 134.516C61.4761 137.282 65.1435 138.487 65.1435 138.487L65.706 138.72C65.6814 138.72 65.6582 138.712 65.6336 138.704L65.931 140.908L65.9944 141.373Z" fill="#414141"/>
<path d="M49.3972 145.837C52.9352 145.472 55.6288 149.321 59.0453 156.289C62.4618 163.258 66.08 173.911 66.08 173.911C66.08 173.911 82.2275 172.102 87.453 167.948C87.453 167.948 88.5923 163.728 89.3966 162.723C90.201 161.718 91.7411 160.981 92.7472 160.444C93.7519 159.908 94.4218 159.372 94.4218 159.372L90.4686 169.892C90.4686 169.892 87.788 172.371 86.3151 173.778C84.8409 175.185 69.0284 183.493 62.7308 181.885C56.4332 180.276 48.5929 163.728 47.7226 159.707C46.8523 155.687 44.8414 146.306 49.3972 145.837Z" fill="#CACACA"/>
<path d="M49.397 145.837L49.41 145.965C49.56 145.949 49.7074 145.942 49.8535 145.942C50.6578 145.942 51.4169 146.172 52.1618 146.623C53.279 147.299 54.3614 148.479 55.467 150.117C56.5727 151.754 57.7042 153.849 58.9288 156.345C60.6344 159.822 62.3918 164.225 63.7224 167.757C64.3884 169.523 64.947 171.071 65.3389 172.178C65.5354 172.732 65.6893 173.175 65.7954 173.479C65.9014 173.784 65.957 173.95 65.957 173.95L65.9906 174.048L66.0941 174.036C66.0966 174.036 70.1364 173.584 74.8331 172.61C77.1814 172.124 79.694 171.507 81.9505 170.751C84.2071 169.994 86.2063 169.099 87.5343 168.045L87.568 168.019L87.5796 167.978C87.5796 167.978 87.5977 167.912 87.63 167.796C87.7438 167.386 88.0412 166.347 88.3969 165.303C88.574 164.78 88.7667 164.258 88.9568 163.812C89.1469 163.367 89.3383 162.998 89.4986 162.798C89.8853 162.314 90.4607 161.885 91.0646 161.512C91.6698 161.14 92.3034 160.822 92.8078 160.553C93.8229 160.011 94.4979 159.47 94.5031 159.468L94.4229 159.367L94.3013 159.322L90.3482 169.841L90.4698 169.887L90.3818 169.792C90.3818 169.792 87.7011 172.271 86.2257 173.68C86.1494 173.752 86.0227 173.853 85.8533 173.972C85.2144 174.423 83.9743 175.151 82.376 175.986C79.9772 177.24 76.7676 178.733 73.5374 179.912C70.3084 181.093 67.0562 181.957 64.5888 181.956C63.9151 181.956 63.3009 181.891 62.7629 181.754C61.2331 181.366 59.5728 180.047 57.9486 178.215C55.5097 175.468 53.1433 171.578 51.3096 168.001C50.3928 166.213 49.6078 164.503 49.0117 163.054C48.4155 161.604 48.0095 160.413 47.8491 159.673C47.4004 157.604 46.6517 154.117 46.653 151.172C46.653 149.787 46.8198 148.524 47.2504 147.596C47.4651 147.13 47.7444 146.75 48.0974 146.472C48.4517 146.194 48.8811 146.015 49.4125 145.961L49.397 145.837L49.3841 145.709C48.8099 145.767 48.3289 145.965 47.9358 146.274C47.3474 146.737 46.9633 147.442 46.7254 148.287C46.4875 149.133 46.3931 150.125 46.3931 151.179C46.3931 154.165 47.147 157.663 47.5957 159.734C47.8181 160.758 48.4724 162.547 49.4307 164.695C50.8673 167.915 52.9842 171.929 55.3377 175.295C56.5145 176.978 57.7494 178.499 58.9921 179.678C60.2348 180.858 61.484 181.698 62.6983 182.009C63.2634 182.153 63.8983 182.218 64.5875 182.218C66.3837 182.218 68.5536 181.776 70.8257 181.094C74.2331 180.073 77.8668 178.512 80.7777 177.087C82.2338 176.374 83.5075 175.694 84.4825 175.132C84.97 174.851 85.3825 174.599 85.7071 174.386C86.0317 174.172 86.2658 174 86.4041 173.87C87.1399 173.167 88.1783 172.195 89.0331 171.4C89.4598 171.001 89.8413 170.648 90.1154 170.394C90.2525 170.267 90.3624 170.165 90.4387 170.094C90.515 170.023 90.5564 169.985 90.5564 169.985L90.5784 169.964L94.7074 158.976L94.3401 159.27L94.3337 159.275C94.26 159.333 93.6186 159.831 92.6862 160.329C92.1858 160.596 91.547 160.916 90.9288 161.296C90.3107 161.678 89.7133 162.119 89.2956 162.64C89.1857 162.777 89.077 162.959 88.9671 163.175C88.5818 163.931 88.1744 165.111 87.8602 166.107C87.5473 167.103 87.3287 167.912 87.3287 167.913L87.4542 167.947L87.374 167.846C86.0886 168.868 84.1101 169.759 81.8691 170.509C78.5069 171.636 74.5538 172.455 71.4438 172.992C69.8881 173.259 68.5433 173.457 67.5876 173.588C67.1092 173.652 66.729 173.701 66.4678 173.734C66.3372 173.749 66.2363 173.762 66.1691 173.77C66.1005 173.778 66.0656 173.782 66.0656 173.782L66.0798 173.91L66.2027 173.868C66.2014 173.866 62.5845 163.213 59.1615 156.231C57.5257 152.895 56.0541 150.27 54.567 148.468C53.8234 147.568 53.0747 146.873 52.2962 146.401C51.5178 145.929 50.7083 145.682 49.8535 145.683C49.6983 145.683 49.5419 145.691 49.3841 145.708L49.397 145.837Z" fill="#696969"/>
<path d="M60.0175 184.163C60.0175 184.163 56.1652 197.63 65.8133 204.464C75.4614 211.298 100.387 196.023 109.231 185.57C109.231 185.57 122.765 204.197 134.289 209.824L139.784 204.732C139.784 204.732 124.239 181.952 116.065 176.725C107.891 171.498 81.8935 181.683 81.8935 181.683C81.8935 181.683 66.8181 185.301 60.0175 184.163Z" fill="#696969"/>
<path d="M158.141 206.809C157.605 206.674 157.204 207.211 156.6 207.344C155.997 207.478 148.493 210.025 145.343 210.694L139.783 204.732L134.288 209.824L139.952 214.362C140.538 215.44 141.781 217.508 143.401 218.937C145.679 220.946 147.488 220.076 148.493 219.339C149.498 218.602 151.307 216.592 153.116 215.184C154.925 213.777 157.472 211.164 158.141 209.422C158.811 207.68 158.677 206.943 158.141 206.809Z" fill="#CACACA"/>
<path d="M158.141 206.809L158.172 206.683C158.104 206.666 158.035 206.657 157.969 206.659C157.835 206.659 157.709 206.691 157.592 206.737C157.414 206.809 157.253 206.911 157.087 207.003C156.922 207.096 156.755 207.178 156.573 207.218C156.529 207.229 156.463 207.247 156.373 207.273C155.702 207.471 153.676 208.138 151.447 208.834C149.217 209.531 146.785 210.256 145.318 210.568L145.346 210.694L145.44 210.607L139.79 204.549L134.091 209.832L139.872 214.463L139.953 214.362L139.839 214.424C140.429 215.509 141.676 217.586 143.315 219.034C144.378 219.973 145.36 220.305 146.209 220.305C147.21 220.305 148.015 219.85 148.569 219.444C149.085 219.065 149.787 218.377 150.592 217.608C151.395 216.838 152.297 215.986 153.195 215.288C154.107 214.579 155.199 213.57 156.151 212.516C157.103 211.463 157.914 210.37 158.261 209.47C158.581 208.638 158.723 208.029 158.723 207.584C158.723 207.336 158.678 207.136 158.583 206.982C158.489 206.827 158.34 206.726 158.172 206.684L158.141 206.809L158.11 206.934C158.224 206.964 158.303 207.018 158.364 207.115C158.424 207.213 158.466 207.365 158.466 207.582C158.467 207.971 158.335 208.559 158.021 209.374C157.698 210.216 156.901 211.301 155.96 212.341C155.018 213.382 153.933 214.382 153.037 215.081C152.125 215.789 151.219 216.647 150.413 217.418C149.61 218.188 148.906 218.875 148.417 219.233C147.884 219.624 147.13 220.045 146.209 220.044C145.428 220.043 144.515 219.745 143.486 218.837C141.888 217.428 140.646 215.37 140.066 214.298L140.053 214.275L134.486 209.815L139.776 204.913L145.299 210.835L145.37 210.82C146.955 210.482 149.618 209.678 151.965 208.941C153.138 208.572 154.232 208.221 155.069 207.953C155.488 207.818 155.842 207.706 156.111 207.622C156.245 207.581 156.358 207.546 156.446 207.52C156.534 207.494 156.597 207.476 156.628 207.469C156.923 207.403 157.164 207.255 157.379 207.132C157.487 207.07 157.589 207.014 157.687 206.975C157.786 206.937 157.877 206.915 157.969 206.915C158.014 206.915 158.061 206.92 158.11 206.933L158.141 206.809Z" fill="#696969"/>
<path d="M104.484 208.049C104.484 208.049 103.342 212.357 102.658 213.495C101.972 214.633 99.3097 217.56 99.7662 219.267C100.223 220.974 102.133 221.655 105.177 222.387C108.221 223.119 108.668 224.871 110.57 225.603C112.473 226.335 114.661 226.647 115.193 226.239C115.726 225.833 116.533 226.172 117.506 225.1C118.523 223.976 116.366 223.091 115.227 222.118C114.49 221.49 112.551 219.591 110.344 217.64C108.137 215.689 110.436 210.493 110.436 210.493L104.484 208.049Z" fill="#CACACA"/>
<path d="M104.483 208.049L104.358 208.015C104.358 208.015 104.34 208.082 104.308 208.201C104.194 208.62 103.9 209.684 103.56 210.768C103.391 211.31 103.208 211.856 103.034 212.326C102.859 212.797 102.687 213.194 102.546 213.428C102.394 213.682 102.133 214.038 101.826 214.454C101.367 215.077 100.811 215.835 100.366 216.603C99.9225 217.372 99.585 218.152 99.5837 218.845C99.5837 219.002 99.6019 219.154 99.6406 219.3C99.7596 219.746 99.9769 220.13 100.281 220.459C100.737 220.953 101.384 221.327 102.2 221.649C103.016 221.969 104.002 222.237 105.146 222.512C106.646 222.875 107.493 223.478 108.217 224.093C108.579 224.4 108.909 224.712 109.272 224.995C109.635 225.278 110.032 225.533 110.522 225.722C111.865 226.238 113.338 226.546 114.31 226.547C114.521 226.547 114.708 226.533 114.87 226.501C115.03 226.468 115.166 226.42 115.271 226.34C115.385 226.254 115.515 226.204 115.673 226.164C115.91 226.104 116.202 226.069 116.532 225.943C116.861 225.818 117.223 225.6 117.6 225.185C117.8 224.966 117.9 224.734 117.898 224.505C117.898 224.249 117.778 224.015 117.602 223.8C117.337 223.478 116.935 223.182 116.514 222.889C116.092 222.597 115.65 222.308 115.31 222.017C114.946 221.707 114.276 221.074 113.424 220.278C112.572 219.481 111.534 218.518 110.429 217.54C110.09 217.242 109.864 216.861 109.719 216.427C109.575 215.994 109.515 215.506 109.515 215.003C109.515 213.954 109.774 212.835 110.034 211.982C110.164 211.556 110.294 211.195 110.392 210.941C110.441 210.815 110.481 210.715 110.509 210.647C110.524 210.613 110.535 210.587 110.542 210.569C110.55 210.552 110.553 210.543 110.553 210.543L110.608 210.422L104.397 207.869L104.359 208.011L104.483 208.049L104.434 208.168L110.387 210.613L110.436 210.494L110.318 210.442C110.317 210.446 110.053 211.042 109.788 211.91C109.524 212.778 109.258 213.916 109.258 215.007C109.258 215.531 109.318 216.044 109.475 216.514C109.63 216.982 109.882 217.406 110.26 217.739C111.362 218.713 112.397 219.675 113.25 220.472C114.102 221.268 114.77 221.9 115.144 222.219C115.623 222.626 116.26 223.009 116.771 223.394C117.027 223.587 117.251 223.78 117.405 223.967C117.56 224.157 117.642 224.336 117.641 224.508C117.641 224.662 117.579 224.825 117.408 225.013C116.938 225.531 116.528 225.696 116.151 225.794C115.964 225.842 115.784 225.872 115.61 225.916C115.436 225.96 115.267 226.021 115.113 226.137C115.057 226.18 114.957 226.222 114.818 226.25C114.681 226.277 114.508 226.291 114.309 226.291C113.388 226.292 111.928 225.988 110.614 225.483C110.154 225.306 109.781 225.066 109.43 224.794C108.903 224.384 108.428 223.891 107.793 223.429C107.158 222.968 106.361 222.54 105.204 222.262C103.684 221.897 102.453 221.544 101.557 221.078C101.108 220.846 100.745 220.586 100.467 220.284C100.189 219.983 99.9963 219.64 99.8863 219.234C99.854 219.113 99.8385 218.983 99.8385 218.846C99.8385 218.442 99.9756 217.971 100.198 217.481C100.532 216.744 101.051 215.963 101.549 215.268C102.047 214.574 102.519 213.969 102.764 213.563C102.945 213.261 103.144 212.776 103.348 212.209C103.961 210.508 104.602 208.085 104.604 208.082L104.483 208.049L104.434 208.168L104.483 208.049Z" fill="#696969"/>
<path d="M114.421 147.041L108.094 165.332L106.824 168.966C106.736 169.208 106.535 169.393 106.285 169.456L90.1323 173.678C89.8026 173.766 89.4974 173.63 89.328 173.396C89.1754 173.204 89.1185 172.939 89.2077 172.672L90.0676 170.228L97.939 147.144C98.0438 146.839 98.3166 146.63 98.6386 146.622L112.38 146.067L113.658 146.019C114.204 145.996 114.599 146.526 114.421 147.041Z" fill="#979797"/>
<path d="M114.421 147.041L108.094 165.332L106.824 168.966C106.736 169.208 106.534 169.393 106.285 169.456L90.132 173.678C89.8022 173.766 89.497 173.63 89.3276 173.396C92.2618 170.976 100.287 164.07 105.681 156.689C109.524 151.431 111.445 148.013 112.378 146.068L113.657 146.021C114.204 145.996 114.598 146.526 114.421 147.041Z" fill="#7D7D7D"/>
<path d="M111.149 157.642C111.141 157.629 111.129 157.619 111.121 157.606C111.312 157.413 111.561 157.082 111.461 156.738C111.308 156.204 110.519 155.867 109.407 155.895C108.295 155.925 107.713 156.3 107.945 156.53C108.178 156.76 108.798 157.048 109.487 156.953L109.643 157.142C109.43 157.16 109.204 157.193 108.963 157.253C107.883 157.517 107.393 158.007 107.669 158.183C107.945 158.358 108.611 158.51 109.264 158.27L109.418 158.391C109.253 158.411 109.081 158.44 108.901 158.484C107.821 158.748 107.331 159.238 107.607 159.414C107.883 159.589 108.549 159.741 109.202 159.502L109.563 159.786C108.948 159.981 108.265 160.271 108.385 160.495C108.561 160.822 109.566 160.897 109.566 160.897L109.139 162.229C109.139 162.229 110.471 161.6 110.922 160.923C111.183 160.532 111.105 160.121 110.895 159.857C111.045 159.64 111.273 159.222 111.085 158.874C111.045 158.801 110.988 158.736 110.922 158.677C111.066 158.48 111.35 158.018 111.149 157.642Z" fill="#CACACA"/>
<path d="M111.148 157.642L111.262 157.58C111.25 157.559 111.24 157.546 111.234 157.54L111.228 157.533L111.227 157.535L111.228 157.533L111.227 157.535L111.228 157.533L111.192 157.559L111.23 157.536L111.228 157.533L111.192 157.559L111.23 157.536L111.12 157.605L111.212 157.695C111.297 157.608 111.394 157.496 111.473 157.361C111.55 157.227 111.611 157.07 111.611 156.897C111.611 156.832 111.602 156.767 111.584 156.701C111.54 156.548 111.453 156.412 111.334 156.296C111.155 156.121 110.905 155.989 110.602 155.9C110.299 155.811 109.94 155.763 109.539 155.763C109.494 155.763 109.449 155.763 109.404 155.764C108.917 155.777 108.527 155.854 108.249 155.961C108.109 156.015 107.998 156.076 107.914 156.147C107.873 156.183 107.836 156.222 107.811 156.266C107.785 156.31 107.767 156.363 107.767 156.417C107.765 156.494 107.803 156.567 107.856 156.619C107.975 156.736 108.16 156.852 108.394 156.944C108.627 157.034 108.908 157.099 109.215 157.099C109.311 157.099 109.408 157.092 109.506 157.079L109.488 156.951L109.388 157.034L109.545 157.223L109.644 157.14L109.634 157.011C109.414 157.029 109.181 157.064 108.933 157.125C108.482 157.235 108.127 157.385 107.879 157.54C107.755 157.617 107.657 157.698 107.586 157.78C107.549 157.822 107.521 157.864 107.499 157.91C107.478 157.955 107.464 158.003 107.464 158.055C107.464 158.101 107.477 158.149 107.501 158.19C107.526 158.232 107.561 158.264 107.6 158.29C107.702 158.355 107.839 158.411 108.001 158.453C108.162 158.494 108.351 158.521 108.553 158.521C108.791 158.521 109.051 158.484 109.308 158.389L109.264 158.268L109.184 158.37L109.338 158.49L109.418 158.388L109.402 158.26C109.233 158.281 109.057 158.309 108.87 158.356C108.418 158.466 108.064 158.616 107.816 158.771C107.692 158.849 107.593 158.929 107.522 159.011C107.486 159.053 107.458 159.096 107.436 159.141C107.415 159.186 107.401 159.234 107.401 159.286C107.401 159.332 107.414 159.38 107.438 159.421C107.463 159.463 107.498 159.495 107.536 159.521C107.639 159.586 107.776 159.643 107.937 159.684C108.099 159.725 108.288 159.752 108.489 159.752C108.727 159.752 108.987 159.715 109.245 159.621L109.201 159.499L109.121 159.601L109.481 159.886L109.561 159.783L109.523 159.661C109.234 159.752 108.933 159.864 108.695 159.983C108.576 160.043 108.473 160.104 108.392 160.173C108.352 160.208 108.317 160.243 108.289 160.285C108.262 160.328 108.24 160.38 108.24 160.438C108.24 160.477 108.25 160.518 108.27 160.553C108.303 160.615 108.352 160.665 108.407 160.705C108.502 160.777 108.62 160.827 108.743 160.868C109.113 160.99 109.549 161.021 109.554 161.022L109.563 160.893L109.44 160.853L108.921 162.468L109.19 162.341C109.193 162.34 109.529 162.181 109.926 161.935C110.322 161.688 110.778 161.36 111.027 160.99C111.156 160.796 111.214 160.592 111.213 160.399C111.213 160.158 111.126 159.94 110.993 159.773L110.892 159.853L110.998 159.927C111.056 159.843 111.126 159.729 111.182 159.599C111.237 159.468 111.281 159.318 111.281 159.16C111.281 159.045 111.257 158.924 111.196 158.81C111.146 158.718 111.078 158.643 111.006 158.578L110.919 158.674L111.024 158.75C111.082 158.671 111.16 158.554 111.226 158.413C111.29 158.272 111.345 158.106 111.345 157.929C111.345 157.813 111.32 157.692 111.259 157.579L111.148 157.642L111.034 157.703C111.073 157.775 111.089 157.85 111.089 157.93C111.089 158.052 111.049 158.185 110.993 158.305C110.937 158.424 110.868 158.53 110.817 158.599L110.747 158.693L110.834 158.772C110.893 158.825 110.94 158.878 110.97 158.935C111.008 159.008 111.024 159.083 111.024 159.163C111.024 159.273 110.992 159.39 110.945 159.499C110.899 159.608 110.838 159.708 110.786 159.782L110.732 159.861L110.791 159.936C110.891 160.06 110.955 160.224 110.955 160.4C110.955 160.543 110.915 160.694 110.812 160.848C110.609 161.155 110.172 161.481 109.79 161.717C109.599 161.836 109.421 161.934 109.291 162.003C109.227 162.036 109.174 162.063 109.137 162.081C109.119 162.09 109.105 162.097 109.096 162.102L109.082 162.109L109.137 162.225L109.26 162.265L109.737 160.777L109.574 160.765L109.564 160.764C109.512 160.76 109.265 160.735 109.018 160.677C108.896 160.649 108.771 160.61 108.676 160.565C108.579 160.521 108.515 160.465 108.497 160.43L108.482 160.438H108.499L108.497 160.43L108.482 160.438H108.499H108.486L108.499 160.44V160.438H108.486L108.499 160.44L108.501 160.435C108.508 160.418 108.546 160.374 108.612 160.329C108.711 160.259 108.864 160.183 109.039 160.109C109.214 160.037 109.41 159.967 109.602 159.906L109.834 159.833L109.224 159.353L109.157 159.377C108.93 159.46 108.702 159.493 108.489 159.493C108.31 159.493 108.143 159.469 108.002 159.433C107.861 159.397 107.746 159.348 107.675 159.302C107.663 159.295 107.661 159.289 107.659 159.289V159.286C107.659 159.282 107.661 159.27 107.67 159.252C107.685 159.22 107.723 159.169 107.785 159.115C107.972 158.948 108.367 158.745 108.93 158.608C109.105 158.565 109.271 158.538 109.433 158.517L109.741 158.479L109.287 158.122L109.22 158.146C108.994 158.229 108.765 158.261 108.553 158.261C108.373 158.261 108.206 158.238 108.065 158.202C107.924 158.166 107.809 158.117 107.738 158.071C107.727 158.064 107.724 158.058 107.723 158.058V158.055C107.723 158.051 107.724 158.039 107.733 158.021C107.748 157.989 107.786 157.938 107.848 157.884C108.036 157.717 108.43 157.514 108.994 157.377C109.228 157.32 109.448 157.286 109.655 157.27L109.902 157.249L109.541 156.813L109.47 156.823C109.383 156.835 109.298 156.84 109.214 156.84C108.945 156.84 108.692 156.783 108.487 156.703C108.281 156.623 108.12 156.518 108.037 156.435C108.021 156.419 108.025 156.419 108.024 156.419C108.024 156.419 108.024 156.412 108.032 156.399C108.045 156.376 108.086 156.333 108.155 156.292C108.258 156.229 108.421 156.164 108.633 156.115C108.845 156.066 109.106 156.031 109.41 156.023C109.454 156.022 109.497 156.022 109.539 156.022C110.046 156.022 110.473 156.103 110.782 156.24C110.937 156.309 111.062 156.39 111.153 156.481C111.245 156.571 111.306 156.668 111.336 156.773C111.347 156.816 111.354 156.857 111.354 156.898C111.354 157.01 111.314 157.125 111.25 157.232C111.187 157.339 111.103 157.439 111.028 157.515L110.955 157.588L111.01 157.674C111.021 157.692 111.03 157.701 111.034 157.707L111.037 157.709L111.078 157.678L111.033 157.703L111.037 157.709L111.078 157.678L111.033 157.703L111.148 157.642Z" fill="#696969"/>
<path d="M106.439 159.301C105.988 160.795 104.766 161.748 103.709 161.428C102.653 161.109 102.164 159.64 102.615 158.145C103.066 156.651 104.288 155.698 105.345 156.018C106.401 156.337 106.89 157.808 106.439 159.301Z" fill="#7D7D7D"/>
<path d="M153.826 219.362C150.53 233.601 135.744 243.474 109.364 245.268C56.098 248.886 26.7515 245.67 16.299 220.343C13.9352 214.618 13.0183 207.221 13.1476 199.14C17.168 200.749 24.6527 205.146 32.7814 216.925C44.8412 234.412 69.1626 243.257 98.5105 239.437C127.068 235.725 144.403 231.624 153.826 219.362Z" fill="#696969"/>
</svg>
