<svg width="401" height="250" viewBox="0 0 401 250" fill="none" xmlns="http://www.w3.org/2000/svg">
<path d="M124.934 47.6394C48.0585 57.6862 10.0189 114.807 5.13125 155.111C-0.840089 204.311 25.0578 230.316 73.3814 226.941C125.774 223.273 186.041 218.279 251.062 226.941C316.105 235.603 364.761 243.543 388.646 190.811C412.531 138.08 381.126 37.6316 293.127 19.9765C228.304 6.96445 204.994 37.1829 124.934 47.6394Z" fill="#ECF0F7"/>
<path d="M303.565 242.645C303.565 242.645 304.14 206.75 290.672 196.098C277.203 185.447 240.999 137.827 270.281 126.102C299.562 114.378 308.364 157.394 327.141 171.966C345.918 186.539 330.016 241.319 330.016 241.319L303.565 242.645Z" fill="#DAE1F0"/>
<path d="M321.966 249.805L320.639 249.688C320.683 249.259 325.526 206.886 316.791 187.866C312.743 179.067 304.693 170.62 296.134 161.666C285.828 150.878 275.19 139.739 269.639 126.278L270.878 125.888C276.34 139.153 286.912 150.215 297.129 160.925C305.755 169.938 313.871 178.463 318.007 187.437C326.898 206.711 322.032 249.395 321.966 249.805Z" fill="#B5C4E2"/>
<path d="M292.463 158.447C291.269 155.56 291.335 149.376 291.401 142.821C291.468 136.52 291.534 129.38 290.141 127.604L291.224 126.941C292.839 129.028 292.772 135.739 292.706 142.84C292.64 149.005 292.596 155.365 293.701 158.057L292.463 158.447Z" fill="#B5C4E2"/>
<path d="M298.855 164.514C297.815 163.422 291.335 161.042 284.501 158.525C270.59 153.433 259.864 149.259 258.78 146.079L260.041 145.747C261.036 148.673 274.903 153.746 285.01 157.452C293.458 160.554 298.7 162.505 299.872 163.773L298.855 164.514Z" fill="#B5C4E2"/>
<path d="M312.943 180.94C312.124 179.536 311.571 174.307 310.775 165.841C310.09 158.525 309.316 150.254 308.276 148.615L309.426 148.03C310.62 149.883 311.328 157.589 312.102 165.743C312.721 172.318 313.341 179.106 314.115 180.394L312.943 180.94Z" fill="#B5C4E2"/>
<path d="M319.046 194.147C316.813 191.007 305.821 188.549 296.112 186.383C286.16 184.159 276.76 182.072 274.482 179.107L275.566 178.443C277.579 181.038 287.177 183.184 296.444 185.252C307.347 187.69 317.653 189.992 320.174 193.523L319.046 194.147Z" fill="#B5C4E2"/>
<path d="M321.413 224.093C320.462 217.226 310.731 213.305 303.631 210.437C301.132 209.442 298.987 208.564 297.749 207.745L298.545 206.808C299.673 207.55 301.774 208.389 304.184 209.364C311.151 212.173 321.678 216.426 322.718 223.937L321.413 224.093Z" fill="#B5C4E2"/>
<path d="M323.049 212.602L321.722 212.524C321.921 209.988 324.575 204.545 327.384 198.771C330.37 192.606 333.776 185.622 333.532 183.164L334.859 183.067C335.147 185.798 331.962 192.333 328.623 199.22C325.969 204.662 323.248 210.261 323.049 212.602Z" fill="#B5C4E2"/>
<path d="M315.906 240.987C331.653 221.381 313.54 156.379 349.412 130.023C385.262 103.667 410.541 118.865 387.584 156.243C364.628 193.621 356.821 237.554 344.369 241.611C331.918 245.669 315.906 240.987 315.906 240.987Z" fill="#DAE1F0"/>
<path d="M328.645 250L327.34 249.785C327.406 249.473 334.085 218.299 348.372 177.234C357.749 150.273 369.294 137.573 376.924 129.165C381.17 124.483 384.245 121.088 385.417 117.187L386.699 117.479C385.461 121.615 382.32 125.088 377.964 129.887C370.4 138.217 358.966 150.819 349.655 177.565C335.39 218.591 328.711 249.707 328.645 250Z" fill="#B5C4E2"/>
<path d="M356.246 161.412L355.206 160.671C359.408 156.047 368.144 152.458 376.614 148.966C385.24 145.415 393.401 142.06 394.838 138.295L396.099 138.666C394.462 142.899 386.08 146.352 377.19 150.019C368.852 153.472 360.249 157.023 356.246 161.412Z" fill="#B5C4E2"/>
<path d="M349.655 177.585L348.394 177.253C349.345 174.502 349.213 166.289 349.08 157.608C348.837 141.397 348.903 129.731 351.999 127.448L352.862 128.346C350.009 130.452 350.23 145.513 350.407 157.589C350.54 166.738 350.672 174.639 349.655 177.585Z" fill="#B5C4E2"/>
<path d="M340.831 204.643L339.548 204.331C341.074 199.473 349.544 194.303 358.523 188.861C366.419 184.062 374.602 179.087 376.835 174.737L378.052 175.224C375.685 179.867 367.348 184.939 359.297 189.836C350.893 194.908 342.224 200.195 340.831 204.643Z" fill="#B5C4E2"/>
<path d="M338.088 213.831L336.806 213.539C338.199 208.642 333.798 193.504 330.591 182.462C328.225 174.346 326.898 169.664 327.185 168.26L328.49 168.455C328.247 169.684 330.016 175.751 331.874 182.169C335.302 193.972 339.548 208.642 338.088 213.831Z" fill="#B5C4E2"/>
<path d="M332.117 235.778L330.812 235.525C331.498 232.755 337.38 229.984 344.192 226.785C350.54 223.8 357.727 220.425 358.922 217.401L360.182 217.792C358.811 221.225 351.69 224.581 344.811 227.819C338.862 230.628 332.67 233.535 332.117 235.778Z" fill="#B5C4E2"/>
<path d="M115.114 176.765C115.114 176.765 115.07 157.296 114.584 141.143C114.097 124.99 131.436 107.218 135.505 98.0101C139.575 88.7826 135.306 74.678 149.991 68.4354C149.991 68.4354 141.366 82.0132 149.173 89.0557C156.98 96.0983 146.984 120.328 145.435 130.726C143.887 141.085 134.997 168.611 115.114 176.765Z" fill="#DAE1F0"/>
<path d="M94.48 208.818C94.48 208.818 83.8643 165.314 67.1888 146.84C50.5132 128.365 51.6412 131.174 27.2914 126.648C2.96371 122.122 4.29067 137.866 4.29067 137.866C4.29067 137.866 17.9142 131.038 25.7654 140.051C33.6387 149.063 35.8945 160.944 51.3094 179.614C66.7243 198.283 94.48 208.818 94.48 208.818Z" fill="#DAE1F0"/>
<path d="M42.5956 76.824C47.4832 92.5867 84.5498 100.897 93.0645 117.655C101.579 134.413 97.9079 174.951 97.9079 174.951C97.9079 174.951 74.7523 157.335 73.1821 141.767C71.6119 126.2 59.5586 120.016 50.2256 104.175C40.9148 88.3144 42.5956 76.824 42.5956 76.824Z" fill="#DAE1F0"/>
<path d="M107.971 248.498L106.644 248.576C106.622 248.127 103.194 203.648 97.2666 175.068L96.8022 172.825C91.0299 144.947 87.5577 128.112 70.0417 113.188C52.0392 97.815 42.087 77.2727 41.9985 77.0581L43.2149 76.6094C43.3034 76.8045 53.1672 97.1517 70.9706 112.349C88.774 127.526 92.2905 144.499 98.107 172.61L98.5715 174.854C104.521 203.492 107.949 248.049 107.971 248.498Z" fill="#DAE1F0"/>
<path d="M105.339 233.691C103.791 219.43 89.526 202.751 74.4429 185.096C65.4637 174.58 56.175 163.734 48.3901 152.243L49.5181 151.639C57.2587 163.071 66.5253 173.898 75.4823 184.374C90.6982 202.165 105.051 218.982 106.644 233.574L105.339 233.691Z" fill="#B5C4E2"/>
<path d="M102.552 208.33C100.827 196.176 107.064 187.222 113.079 178.58C116.906 173.078 120.864 167.401 122.722 160.944C127.455 144.499 131.038 113.402 131.06 113.09L132.387 113.207C132.343 113.519 128.76 144.694 124.005 161.217C122.103 167.85 118.078 173.605 114.207 179.184C108.037 188.061 102.198 196.43 103.857 208.174L102.552 208.33Z" fill="#B5C4E2"/>
<path d="M170.603 187.085C170.603 187.085 165.716 227.663 161.514 232.345C157.334 237.027 143.179 239.368 143.179 245.611C143.179 251.853 260.837 251.073 261.722 245.611C262.606 240.148 250.531 236.247 245.953 232.345C241.375 228.443 236.067 187.085 236.067 187.085H170.603Z" fill="#273B63"/>
<path d="M161.558 240.733L161.491 239.563C162 239.543 211.938 237.242 245.975 239.563L245.864 240.733C211.916 238.431 162.066 240.714 161.558 240.733Z" fill="#C8F2E9"/>
<path d="M73.934 42.0991C65.4415 45.1034 64.1145 189.895 73.8456 197.698C83.5766 205.501 325.084 203.941 328.623 197.698C332.161 191.455 339.725 48.6734 325.88 40.87C312.036 33.0667 94.5904 34.7639 73.934 42.0991Z" fill="#273B63"/>
<path d="M81.8957 50.4291C75.2166 54.6429 77.4724 168.045 81.8957 172.727C86.3189 177.409 311.903 177.409 318.095 172.727C324.288 168.045 322.518 55.3257 318.095 50.4291C313.672 45.5325 88.9728 45.9617 81.8957 50.4291Z" fill="#DAE1F0"/>
<path d="M228.747 176.239C228.747 176.239 228.747 161.022 231.843 155.56C234.939 150.098 246.882 132.15 251.747 113.422C256.613 94.6937 250.863 47.8735 244.228 47.8735C237.593 47.8735 238.035 82.5985 238.035 82.5985C238.035 82.5985 238.478 38.8997 230.516 38.8997C222.554 38.8997 222.112 79.8673 222.112 79.8673C222.112 79.8673 222.554 31.0963 213.265 31.0963C203.977 31.0963 204.419 79.4771 204.419 79.4771C204.419 79.4771 204.043 39.68 195.373 39.68C186.704 39.68 188.495 100.546 186.284 118.494C184.072 136.442 195.373 176.239 195.373 176.239H228.747Z" fill="white"/>
<path d="M248.607 123.176C249.823 119.996 250.885 116.719 251.747 113.422C252.831 109.247 253.384 103.687 253.517 97.5614C232.794 100.546 199.841 111.92 186.461 116.719C186.394 117.343 186.328 117.928 186.262 118.474C186.173 119.196 186.107 119.977 186.062 120.757C197.917 124.463 226.314 131.526 248.607 123.176Z" fill="#ECF0F7"/>
<path d="M109.253 6.12558C105.693 11.1587 104.897 109.13 109.253 115.704C113.61 122.278 281.936 117.948 289.389 109.422C296.842 100.897 292.485 18.7085 289.389 8.29101C286.293 -2.08745 115.468 -2.63368 109.253 6.12558Z" fill="#B5C4E2"/>
<path d="M199.907 89.4458C182.966 89.4458 111.775 9.87115 108.745 6.47669L109.784 5.75488C110.514 6.57423 183.586 88.2753 199.907 88.2753C216.229 88.2753 288.172 8.75917 288.88 7.95933L289.92 8.68114C286.934 11.9781 216.848 89.4458 199.907 89.4458Z" fill="#3D5C9B"/>
<path d="M109.74 116.114L108.767 115.314C109.099 115.002 142.538 82.9692 168.768 67.1088L169.52 68.0842C143.423 83.8665 110.072 115.802 109.74 116.114Z" fill="#3D5C9B"/>
<path d="M288.902 109.852C260.085 82.5594 234.541 64.8653 234.298 64.6897L235.116 63.7728C235.381 63.9484 260.992 81.701 289.875 109.071L288.902 109.852Z" fill="#3D5C9B"/>
<path d="M185.576 76.1606C176.729 76.1606 183.187 93.5231 180.533 101.717C177.879 109.91 169.918 117.323 172.129 130.979C174.341 144.635 186.726 153.609 189.38 159.852C192.034 166.094 189.38 176.239 189.38 176.239H219.015C219.015 176.239 217.246 166.484 216.361 146.196C215.477 125.907 197.85 122.005 195.373 118.884C192.918 115.763 199.996 107.569 199.553 97.0346C199.111 86.5001 190.198 76.1606 185.576 76.1606Z" fill="white"/>
<path d="M202.075 195.962C201.853 195.962 201.632 195.962 201.411 195.942C196.722 195.611 195.196 192.47 195.307 189.895C195.44 186.832 197.784 183.671 201.477 183.671C204.972 183.671 207.581 184.744 208.864 186.676C209.992 188.412 209.904 190.694 208.643 192.645C207.25 194.713 204.795 195.962 202.075 195.962ZM201.477 184.822C198.602 184.822 196.745 187.417 196.634 189.934C196.546 192.099 197.762 194.518 201.522 194.772C201.699 194.791 201.898 194.791 202.075 194.791C204.33 194.791 206.343 193.757 207.471 192.021C208.51 190.441 208.599 188.607 207.692 187.222C206.675 185.681 204.463 184.822 201.477 184.822Z" fill="#C8F2E9"/>
<path d="M94.1482 3.12187C117.171 6.49682 119.891 20.1527 119.449 37.5542C119.029 54.9556 131.038 66.3095 139.176 66.3095C139.176 66.3095 128.45 69.7235 120.311 66.3095C112.151 62.8956 104.012 72.3571 83.0017 67.8312C61.9914 63.2857 43.1043 49.8249 52.1277 26.4734C61.1289 3.12188 78.7112 0.839394 94.1482 3.12187Z" fill="#F778B9"/>
<path d="M83.5326 30.5305C83.5326 30.5305 91.4944 16.3284 99.4562 23.488C107.418 30.6476 87.7789 43.2305 84.0634 51.2289C84.0634 51.2289 63.3628 33.6519 71.8553 23.488C80.3479 13.3241 83.5326 30.5305 83.5326 30.5305Z" fill="white"/>
<path d="M249.58 81.584C249.58 81.584 257.542 67.3819 265.504 74.5414C273.465 81.701 253.826 94.2839 250.111 102.282C250.111 102.282 229.41 84.7053 237.903 74.5414C246.395 64.3776 249.58 81.584 249.58 81.584Z" fill="#65BAA6"/>
<path d="M260.129 54.7015C282.754 58.0374 285.43 71.4397 285.01 88.5485C284.59 105.657 296.4 116.816 304.406 116.816C304.406 116.816 293.856 120.172 285.85 116.816C277.844 113.461 269.816 122.766 249.16 118.299C228.503 113.831 209.948 100.585 218.794 77.6434C227.663 54.7015 244.958 52.4775 260.129 54.7015Z" fill="white"/>
<path d="M249.58 81.5841C249.58 81.5841 257.542 67.382 265.504 74.5416C273.465 81.7011 253.826 94.284 250.111 102.282C250.111 102.282 229.41 84.7054 237.903 74.5416C246.395 64.3777 249.58 81.5841 249.58 81.5841Z" fill="#F778B9"/>
<path d="M182.352 229.085C182.21 230.308 181.991 231.505 181.687 232.669C177.794 247.501 160.33 257.786 129.172 259.654C66.2587 263.423 31.5968 260.073 19.2511 233.69C16.4591 227.727 15.3762 220.022 15.5289 211.604C16.0421 182.743 30.9889 145.424 41.0939 140.725C54.1513 134.653 63.4102 137.794 63.4102 137.794C84.5396 141.772 118.252 196.421 144.605 198.514C170.956 200.609 184.195 212.819 182.352 229.085Z" fill="#F778B9"/>
<path d="M43.941 174.017C43.941 174.017 59.6102 185.114 65.0705 197.467C70.5308 209.821 70.5308 220.709 81.9264 222.802C93.322 224.895 114.69 226.152 136.294 220.499C157.899 214.845 158.374 208.145 135.583 204.586C112.791 201.028 87.8633 181.974 80.7412 168.364C73.6191 154.753 73.8558 149.31 69.3456 145.751C64.8353 142.192 58.1867 140.936 51.5396 147.844C44.8925 154.753 41.0925 166.27 43.941 174.017Z" fill="#CB4E8E"/>
<path d="M91.5654 136.977C91.8388 136.648 92.1763 136.352 92.4359 136.019C93.5998 134.528 92.3244 132.837 90.8719 131.964C89.8853 131.372 89.7386 130.9 89.98 129.813C90.1709 128.954 90.7238 128.384 90.5359 127.488C90.3801 126.741 90.009 125.672 89.3461 125.186C88.6679 124.688 87.6691 124.728 86.8871 124.435C84.9473 123.706 86.7496 122.343 85.9218 121.064C84.6816 119.15 81.1365 119.61 79.0273 119.327C79.0425 119.329 79.0532 119.325 79.0563 119.312C77.2448 118.676 76.9287 116.998 74.6055 117.338C73.5089 117.499 72.7483 118.106 71.8334 118.582C70.2465 119.407 68.91 118.273 67.3735 118.782C65.6369 119.359 64.2516 120.74 63.7628 122.317C63.0831 124.513 61.6413 123.87 59.6787 124.658C58.637 125.077 57.3403 125.369 57.5572 126.656C57.6732 127.343 58.3606 127.933 58.4155 128.613C58.4843 129.482 57.5526 129.975 57.0043 130.621C56.4147 131.318 56.0298 132.334 56.4284 133.169C56.8576 134.071 58.0597 134.514 58.1162 135.614C58.1941 137.145 55.7518 138.401 56.7477 140.074C57.406 141.179 58.8325 141.179 59.781 141.887C60.4179 142.362 60.3278 143.072 60.2545 143.708C60.0544 145.451 60.9723 146.997 63.2893 146.594C64.9771 146.301 66.2097 146.132 67.4086 147.413C68.4549 148.531 69.4828 149.085 71.2515 148.953C72.3756 148.868 73.4173 148.457 74.4925 148.192C75.5006 147.943 75.8106 148.091 76.7148 148.338C78.6225 148.857 79.7268 147.253 81.5001 147.273C82.1813 147.281 82.6288 147.734 83.3237 147.836C84.1302 147.955 85.0115 147.721 85.7018 147.362C86.6091 146.891 87.0383 146.332 87.3468 145.458C87.6125 144.703 87.8035 144.435 88.6298 144.128C90.7238 143.348 91.8632 142.494 91.7257 140.336C91.6707 139.482 90.9819 138.798 91.0873 137.959C91.1362 137.576 91.3271 137.264 91.5654 136.977Z" fill="#1C2A47"/>
<path d="M91.8985 164.107C91.8985 164.107 105.115 176.391 110.496 177.577L101.869 182.393L90.394 176.74C90.3956 176.74 86.122 166.689 91.8985 164.107Z" fill="#B5C4E2"/>
<path d="M91.8988 164.107L91.7873 164.2C91.7888 164.201 95.0941 167.274 99.0759 170.496C101.066 172.107 103.226 173.757 105.228 175.08C106.23 175.741 107.191 176.321 108.075 176.774C108.959 177.227 109.764 177.554 110.459 177.708L110.496 177.577L110.415 177.464L101.866 182.237L90.4707 176.622L90.3959 176.739L90.5395 176.692C90.5395 176.692 90.5334 176.679 90.5227 176.653C90.3577 176.256 89.0259 172.915 89.0274 169.727C89.0274 168.578 89.2 167.45 89.6551 166.489C90.1103 165.527 90.8404 164.733 91.9691 164.227L91.8988 164.107L91.7873 164.2L91.8988 164.107L91.8301 163.987C90.6296 164.523 89.8461 165.377 89.3726 166.385C88.8976 167.392 88.7219 168.554 88.7219 169.727C88.7235 173.195 90.2508 176.78 90.2539 176.788L90.2737 176.834L101.877 182.551L110.881 177.523L110.534 177.447C109.883 177.304 109.098 176.987 108.229 176.541C105.185 174.982 101.123 171.846 97.8311 169.105C96.1846 167.733 94.729 166.46 93.6858 165.531C93.1635 165.066 92.745 164.686 92.4563 164.424C92.3127 164.292 92.2012 164.189 92.1249 164.121C92.05 164.051 92.0103 164.014 92.0103 164.014L91.9324 163.941L91.8316 163.987L91.8988 164.107Z" fill="#3D5C9B"/>
<path d="M98.9014 190.454C98.9014 190.454 119.991 187.557 132.971 192.722C145.949 197.886 142.468 206.541 138.352 213.939C134.235 221.337 130.438 224.129 130.438 224.129L122.525 221.198C122.525 221.198 125.374 208.636 130.122 202.353C130.122 202.353 111.604 211.008 101.632 210.589C91.6617 210.17 91.819 193.698 91.819 193.698L98.9014 190.454Z" fill="#1C2A47"/>
<path d="M68.6138 150.743C68.6138 150.743 63.1718 153.289 59.0571 154.685C54.9424 156.08 53.6762 161.455 56.0497 165.363C58.4232 169.272 64.3586 179.252 66.8909 185.184C69.4233 191.116 70.888 196.002 70.888 196.002C70.888 196.002 84.6969 198.34 92.3734 195.897C100.05 193.455 98.9028 190.454 98.9028 190.454C98.9028 190.454 93.9572 175.134 93.244 171.016C93.244 171.016 95.3807 166.758 93.6396 162.99C91.8984 159.222 87.3881 157.686 85.1719 155.383C82.9557 153.08 74.3704 150.082 68.6138 150.743Z" fill="white"/>
<path d="M85.4118 134.881C85.2316 136.974 85.0223 139.077 85.3446 142C85.6012 144.387 84.2999 146.279 80.5395 148.96C80.5395 148.96 79.1618 149.069 77.6055 148.666C77.5764 148.666 77.5489 148.658 77.5199 148.65L77.8712 150.945L77.9476 151.432L77.9949 151.783C77.9949 151.783 78.0514 153.257 76.0949 153.676C74.1292 154.095 70.0939 152.419 68.6123 150.745C68.6123 150.745 68.8491 144.463 68.2519 142.001C68.2519 142.001 66.4191 139.33 65.4034 135.67C64.3968 132.002 67.5111 128.434 70.4085 127.119C73.3151 125.813 82.0898 125.771 84.7581 131.114C84.7566 131.112 85.5935 132.786 85.4118 134.881Z" fill="#B5C4E2"/>
<path d="M85.4117 134.881L85.259 134.87C85.1475 136.168 85.0238 137.475 85.0238 138.982C85.0238 139.904 85.0696 140.899 85.1933 142.012C85.2132 142.2 85.2238 142.385 85.2238 142.567C85.2223 143.605 84.8909 144.555 84.1287 145.563C83.3651 146.569 82.1676 147.628 80.4447 148.855L80.5409 148.96L80.5272 148.825H80.5211C80.4875 148.828 80.3302 148.837 80.0827 148.837C79.5604 148.837 78.6394 148.791 77.6497 148.535L77.6283 148.53H77.6069V148.544L77.6084 148.53H77.6069V148.544L77.6084 148.53L77.5993 148.529L77.5702 148.521L77.3381 148.452L77.723 150.96L77.7993 151.446L77.9505 151.428L77.7993 151.444L77.8467 151.795L77.9979 151.779L77.8452 151.782V151.783V151.791C77.8452 151.851 77.8329 152.201 77.6069 152.574C77.4939 152.761 77.3274 152.954 77.0815 153.125C76.8341 153.296 76.5057 153.445 76.0627 153.54C75.8703 153.581 75.6503 153.602 75.4121 153.6C74.401 153.602 73.0447 153.234 71.7907 152.678C70.5352 152.123 69.3744 151.379 68.736 150.656L68.6153 150.739L68.7681 150.743C68.7681 150.742 68.8139 149.511 68.8139 147.924C68.8139 146.924 68.7956 145.784 68.7345 144.719C68.6734 143.654 68.5726 142.668 68.403 141.967L68.3969 141.946L68.3832 141.927C68.3832 141.927 68.3771 141.918 68.3633 141.897C68.1632 141.597 66.4984 139.044 65.5514 135.632C65.4216 135.162 65.362 134.693 65.362 134.23C65.362 132.699 66.0188 131.23 66.9902 130.002C67.9601 128.775 69.2446 127.791 70.4772 127.232C70.9445 127.022 71.583 126.842 72.3299 126.715C73.0767 126.588 73.9351 126.516 74.8439 126.516C76.6538 126.516 78.6669 126.807 80.4402 127.533C82.2134 128.26 83.7454 129.419 84.616 131.162L84.6175 131.164C84.6526 131.236 85.2849 132.557 85.2834 134.277C85.2834 134.469 85.2758 134.665 85.259 134.866L85.4117 134.881L85.5644 134.892C85.5828 134.684 85.5904 134.481 85.5904 134.283C85.5904 132.448 84.9016 131.069 84.897 131.058C83.9928 129.245 82.3936 128.039 80.57 127.293C78.7448 126.545 76.6905 126.25 74.8439 126.25C73.9168 126.25 73.0416 126.324 72.2734 126.455C71.5051 126.586 70.8437 126.77 70.3397 126.998C69.0552 127.581 67.7417 128.59 66.7413 129.854C65.7424 131.116 65.0596 132.635 65.0581 134.236C65.0581 134.719 65.1207 135.209 65.2551 135.701C66.2769 139.382 68.1174 142.063 68.122 142.07L68.2533 142L68.1037 142.028C68.2671 142.7 68.3694 143.679 68.429 144.737C68.4886 145.794 68.5069 146.931 68.5069 147.928C68.5069 148.719 68.4947 149.422 68.484 149.927C68.4779 150.179 68.4718 150.382 68.4687 150.522C68.4641 150.662 68.4611 150.738 68.4611 150.738L68.4595 150.786L68.4931 150.825C69.1789 151.6 70.3657 152.354 71.6517 152.923C72.9378 153.491 74.3185 153.872 75.4105 153.874C75.6687 153.874 75.9115 153.852 76.133 153.805C76.6141 153.703 76.9853 153.536 77.2678 153.34C77.6924 153.047 77.9139 152.688 78.0269 152.392C78.1399 152.096 78.1491 151.86 78.1491 151.794V151.778V151.771L78.1002 151.411L78.0239 150.925L77.6726 148.631L77.5214 148.649L77.4725 148.777C77.5015 148.785 77.5427 148.8 77.6069 148.801V148.666L77.5641 148.795C78.5936 149.061 79.5421 149.108 80.0843 149.108C80.3775 149.108 80.5517 149.095 80.5562 149.095L80.602 149.09L80.6387 149.065C82.3738 147.828 83.5941 146.755 84.3853 145.713C85.1765 144.672 85.5339 143.659 85.5324 142.568C85.5324 142.377 85.5217 142.184 85.5003 141.989C85.3781 140.884 85.3323 139.898 85.3323 138.985C85.3323 137.491 85.4545 136.193 85.5675 134.893L85.4117 134.881Z" fill="#3D5C9B"/>
<path d="M68.9393 138.778C68.9393 138.778 68.9561 138.794 68.9881 138.825C69.0966 138.931 69.37 139.207 69.6144 139.523C69.8603 139.836 70.0741 140.192 70.0726 140.444C70.0726 140.483 70.068 140.519 70.0573 140.553C69.9886 140.777 69.8465 140.905 69.7152 141.033C69.5838 141.159 69.4616 141.29 69.4616 141.507C69.4616 141.611 69.4891 141.733 69.5548 141.883C69.8816 142.644 70.0909 142.959 70.0924 142.96C70.1031 142.976 70.126 142.982 70.1444 142.972C70.1627 142.963 70.1688 142.943 70.1581 142.927C70.1581 142.927 70.1459 142.908 70.1214 142.867C70.0481 142.745 69.871 142.427 69.6266 141.858C69.564 141.713 69.5395 141.598 69.5395 141.505C69.5395 141.314 69.6419 141.205 69.7732 141.077C69.903 140.95 70.0588 140.81 70.1321 140.571C70.1443 140.53 70.1505 140.488 70.1505 140.444C70.1489 140.122 69.8587 139.7 69.5716 139.352C69.2845 139.004 68.9973 138.733 68.9958 138.733C68.982 138.72 68.9576 138.718 68.9423 138.732C68.9255 138.743 68.924 138.764 68.9393 138.778Z" fill="#273B63"/>
<path d="M84.5175 135.666C84.5175 135.666 83.39 135.352 81.876 136.294C81.876 136.294 82.1433 135.22 83.034 135.089C83.9247 134.96 84.5175 135.666 84.5175 135.666Z" fill="#273B63"/>
<path d="M78.4343 136.619C78.4343 136.619 77.6261 135.754 76.4436 135.906C75.2612 136.058 74.3674 136.465 74.3674 136.465C74.3674 136.465 74.8869 135.448 76.0403 135.219C77.1953 134.991 78.1181 135.576 78.4343 136.619Z" fill="#273B63"/>
<path d="M82.2776 138.309C82.2363 138.836 82.3937 139.274 82.6305 139.289C82.8673 139.304 83.0934 138.889 83.1362 138.362C83.1774 137.835 83.0201 137.397 82.7833 137.382C82.5465 137.369 82.3188 137.784 82.2776 138.309Z" fill="#273B63"/>
<path d="M77.0847 138.938C77.0434 139.465 77.2008 139.903 77.4376 139.918C77.6744 139.933 77.9005 139.518 77.9433 138.991C77.9846 138.464 77.8272 138.026 77.5904 138.011C77.3521 137.996 77.1259 138.411 77.0847 138.938Z" fill="#273B63"/>
<path d="M80.8438 139.034C80.8438 139.034 80.9293 139.166 81.0592 139.373C81.2532 139.684 81.5435 140.168 81.7864 140.634C82.0293 141.099 82.2203 141.553 82.2203 141.788C82.2203 141.856 82.2035 141.904 82.1775 141.925C82.0904 142.002 81.9193 142.087 81.7146 142.168C81.4075 142.288 81.0225 142.401 80.7139 142.482C80.5596 142.522 80.4252 142.556 80.3289 142.579C80.2327 142.602 80.1762 142.615 80.1762 142.615C80.1563 142.619 80.1441 142.638 80.1487 142.655C80.1532 142.673 80.1746 142.684 80.1945 142.68C80.1945 142.68 80.6055 142.588 81.0653 142.455C81.2945 142.387 81.5358 142.31 81.7451 142.23C81.9544 142.147 82.1301 142.063 82.231 141.974C82.2799 141.931 82.2967 141.866 82.2967 141.788C82.2967 141.613 82.2081 141.357 82.0782 141.063C81.6886 140.187 80.911 139 80.911 139C80.9003 138.984 80.8774 138.978 80.8591 138.988C80.8407 138.996 80.8331 139.017 80.8438 139.034Z" fill="#273B63"/>
<path d="M80.3981 143.938C80.3981 143.938 80.3553 143.944 80.2759 143.949C80.1964 143.954 80.0834 143.96 79.9444 143.96C79.4112 143.96 78.5037 143.878 77.7337 143.402C77.7169 143.391 77.6925 143.395 77.6802 143.41C77.668 143.425 77.6726 143.446 77.6894 143.457C78.4793 143.944 79.402 144.027 79.9428 144.027C80.227 144.027 80.4057 144.004 80.4073 144.004C80.4287 144.002 80.4424 143.984 80.4394 143.967C80.4378 143.949 80.418 143.936 80.3981 143.938Z" fill="#273B63"/>
<path d="M72.9058 132.77C72.9058 132.77 73.558 133.869 73.2021 136.329C72.8462 138.788 72.6675 137.899 72.4308 138.999C72.194 140.098 72.8462 140.936 72.0153 141.825C71.1845 142.715 72.4308 139.469 69.819 137.532C67.2072 135.595 67.8609 141.301 68.5131 142.4C69.1653 143.499 70.2344 143.918 70.2344 143.918L68.5727 145.645C68.5727 145.645 60.5601 142.295 60.9756 135.228C61.391 128.162 66.08 126.225 66.08 126.225C66.08 126.225 69.9977 121.357 79.9087 123.608C89.8213 125.858 88.6055 133.021 88.5154 134.077C88.2787 136.851 85.1919 136.903 85.1919 136.903C85.1919 136.903 85.4882 133.972 83.3514 132.243C83.3514 132.243 82.7573 133.448 80.68 133.919C78.6028 134.39 79.6124 132.715 80.0279 131.982C80.0279 131.982 78.8411 133.395 76.9411 133.395C75.0426 133.398 72.9058 132.77 72.9058 132.77Z" fill="#1C2A47"/>
<path d="M77.9473 151.43C77.0447 151.222 75.6487 150.751 73.9121 149.73C70.7122 147.846 71.2437 144.287 71.2437 144.287C72.6107 147.168 76.9423 148.424 76.9423 148.424L77.6068 148.666C77.5777 148.666 77.5502 148.658 77.5212 148.65L77.8725 150.945L77.9473 151.43Z" fill="#273B63"/>
<path d="M58.344 156.08C62.5229 155.7 65.7043 159.709 69.7396 166.968C73.7749 174.227 78.0485 185.324 78.0485 185.324C78.0485 185.324 97.1206 183.44 103.293 179.113C103.293 179.113 104.638 174.716 105.588 173.67C106.538 172.623 108.357 171.855 109.546 171.296C110.732 170.737 111.524 170.179 111.524 170.179L106.854 181.138C106.854 181.138 103.688 183.72 101.949 185.185C100.207 186.651 81.5308 195.305 74.0926 193.63C66.6544 191.954 57.394 174.716 56.3661 170.528C55.3382 166.34 52.9631 156.569 58.344 156.08Z" fill="#B5C4E2"/>
<path d="M58.344 156.08L58.3592 156.213C58.5364 156.197 58.7105 156.189 58.8831 156.189C59.8331 156.189 60.7297 156.429 61.6094 156.899C62.9291 157.604 64.2075 158.832 65.5134 160.539C66.8193 162.244 68.1557 164.426 69.6021 167.026C71.6167 170.648 73.6924 175.235 75.264 178.914C76.0506 180.754 76.7104 182.366 77.1732 183.519C77.4054 184.096 77.5872 184.558 77.7124 184.874C77.8376 185.192 77.9033 185.364 77.9033 185.364L77.943 185.467L78.0652 185.455C78.0683 185.455 82.8397 184.983 88.3871 183.969C91.1608 183.462 94.1284 182.82 96.7937 182.032C99.4589 181.244 101.82 180.312 103.389 179.214L103.429 179.187L103.442 179.144C103.442 179.144 103.464 179.075 103.502 178.954C103.636 178.527 103.988 177.445 104.408 176.357C104.617 175.813 104.844 175.268 105.069 174.804C105.293 174.34 105.519 173.956 105.709 173.748C106.166 173.244 106.845 172.797 107.559 172.409C108.273 172.021 109.022 171.689 109.617 171.409C110.816 170.845 111.614 170.282 111.62 170.279L111.525 170.174L111.381 170.127L106.712 181.085L106.856 181.132L106.752 181.034C106.752 181.034 103.586 183.616 101.843 185.083C101.753 185.158 101.603 185.263 101.403 185.387C100.649 185.857 99.184 186.616 97.2962 187.486C94.4629 188.791 90.672 190.347 86.8567 191.576C83.0429 192.805 79.2016 193.705 76.2874 193.704C75.4916 193.704 74.7661 193.636 74.1307 193.494C72.3239 193.09 70.3627 191.716 68.4444 189.807C65.5638 186.946 62.7687 182.894 60.6029 179.168C59.52 177.305 58.5929 175.524 57.8888 174.014C57.1847 172.504 56.7051 171.264 56.5157 170.493C55.9857 168.338 55.1014 164.705 55.1029 161.638C55.1029 160.195 55.2999 158.879 55.8085 157.912C56.0621 157.427 56.392 157.031 56.809 156.741C57.2275 156.452 57.7345 156.266 58.3623 156.209L58.344 156.08L58.3287 155.947C57.6505 156.007 57.0824 156.213 56.618 156.535C55.9231 157.018 55.4695 157.752 55.1884 158.633C54.9074 159.514 54.7959 160.547 54.7959 161.645C54.7959 164.755 55.6863 168.399 56.2163 170.557C56.479 171.623 57.2519 173.486 58.3837 175.724C60.0806 179.078 62.5808 183.259 65.3606 186.765C66.7505 188.519 68.2092 190.103 69.677 191.332C71.1447 192.56 72.6202 193.436 74.0544 193.759C74.7218 193.91 75.4718 193.977 76.2858 193.977C78.4073 193.977 80.9702 193.517 83.6538 192.807C87.6784 191.743 91.9703 190.117 95.4084 188.632C97.1282 187.89 98.6326 187.182 99.7843 186.596C100.36 186.303 100.847 186.041 101.231 185.818C101.614 185.596 101.89 185.417 102.054 185.281C102.923 184.549 104.149 183.536 105.159 182.708C105.663 182.293 106.114 181.925 106.437 181.66C106.599 181.528 106.729 181.422 106.819 181.348C106.909 181.273 106.958 181.234 106.958 181.234L106.984 181.213L111.861 169.767L111.427 170.073L111.42 170.078C111.333 170.139 110.575 170.658 109.474 171.176C108.883 171.454 108.128 171.788 107.398 172.184C106.668 172.581 105.962 173.04 105.469 173.583C105.339 173.726 105.211 173.916 105.081 174.141C104.626 174.928 104.145 176.157 103.774 177.195C103.404 178.232 103.146 179.075 103.146 179.076L103.294 179.112L103.199 179.006C101.681 180.071 99.3444 180.999 96.6975 181.78C92.7263 182.955 88.0572 183.807 84.3839 184.366C82.5465 184.645 80.958 184.851 79.8293 184.987C79.2642 185.055 78.8151 185.106 78.5066 185.139C78.3524 185.156 78.2332 185.169 78.1538 185.177C78.0728 185.185 78.0316 185.189 78.0316 185.189L78.0484 185.323L78.1935 185.28C78.192 185.277 73.92 174.18 69.877 166.907C67.9449 163.432 66.2068 160.698 64.4503 158.821C63.5721 157.884 62.6878 157.159 61.7683 156.667C60.8488 156.176 59.8927 155.918 58.8831 155.92C58.6998 155.92 58.515 155.928 58.3287 155.945L58.344 156.08Z" fill="#3D5C9B"/>
<path d="M70.8879 196.003C70.8879 196.003 66.3379 210.031 77.7335 217.15C89.1292 224.269 118.569 208.357 129.015 197.469C129.015 197.469 145 216.871 158.612 222.734L165.102 217.429C165.102 217.429 146.741 193.7 137.087 188.255C127.432 182.811 96.7263 193.42 96.7263 193.42C96.7263 193.42 78.9203 197.189 70.8879 196.003Z" fill="#3D5C9B"/>
<path d="M186.785 219.592C186.151 219.452 185.677 220.011 184.964 220.15C184.252 220.29 175.389 222.942 171.668 223.64L165.101 217.429L158.611 222.734L165.301 227.46C165.993 228.584 167.46 230.738 169.374 232.226C172.065 234.319 174.202 233.413 175.389 232.645C176.576 231.877 178.712 229.784 180.849 228.317C182.986 226.851 185.993 224.129 186.785 222.315C187.576 220.5 187.417 219.732 186.785 219.592Z" fill="#B5C4E2"/>
<path d="M186.784 219.592L186.821 219.462C186.74 219.444 186.659 219.435 186.581 219.436C186.422 219.436 186.274 219.47 186.135 219.518C185.926 219.592 185.735 219.699 185.539 219.794C185.344 219.891 185.147 219.977 184.931 220.019C184.879 220.03 184.801 220.049 184.696 220.076C183.903 220.282 181.51 220.977 178.877 221.702C176.244 222.428 173.371 223.183 171.639 223.508L171.671 223.64L171.782 223.548L165.109 217.239L158.378 222.742L165.205 227.565L165.302 227.46L165.167 227.525C165.864 228.655 167.336 230.818 169.273 232.327C170.528 233.305 171.688 233.651 172.691 233.651C173.873 233.651 174.823 233.177 175.478 232.754C176.088 232.359 176.917 231.643 177.867 230.841C178.816 230.04 179.882 229.152 180.942 228.425C182.019 227.686 183.309 226.636 184.433 225.538C185.557 224.44 186.515 223.302 186.926 222.364C187.303 221.498 187.471 220.864 187.471 220.4C187.471 220.142 187.418 219.933 187.306 219.773C187.195 219.611 187.019 219.506 186.821 219.463L186.784 219.592L186.747 219.723C186.882 219.754 186.975 219.81 187.047 219.911C187.118 220.014 187.167 220.171 187.167 220.398C187.169 220.803 187.013 221.416 186.642 222.265C186.26 223.142 185.319 224.272 184.207 225.355C183.095 226.439 181.814 227.482 180.755 228.209C179.679 228.947 178.608 229.84 177.656 230.643C176.708 231.446 175.876 232.161 175.298 232.534C174.669 232.941 173.779 233.38 172.691 233.379C171.769 233.378 170.69 233.068 169.474 232.122C167.587 230.654 166.12 228.511 165.435 227.394L165.419 227.37L158.844 222.724L165.092 217.617L171.616 223.787L171.7 223.771C173.572 223.419 176.717 222.581 179.489 221.813C180.875 221.43 182.167 221.063 183.155 220.784C183.65 220.644 184.068 220.527 184.386 220.439C184.545 220.396 184.678 220.36 184.782 220.333C184.885 220.306 184.96 220.287 184.997 220.281C185.345 220.212 185.629 220.057 185.884 219.929C186.011 219.864 186.132 219.806 186.248 219.766C186.364 219.726 186.472 219.703 186.581 219.703C186.634 219.703 186.689 219.708 186.747 219.722L186.784 219.592Z" fill="#3D5C9B"/>
<path d="M123.408 220.884C123.408 220.884 122.059 225.372 121.251 226.558C120.442 227.743 117.297 230.791 117.836 232.569C118.375 234.348 120.631 235.057 124.227 235.82C127.822 236.582 128.351 238.407 130.597 239.17C132.844 239.932 135.428 240.257 136.058 239.833C136.687 239.41 137.64 239.763 138.789 238.646C139.991 237.475 137.443 236.553 136.097 235.54C135.227 234.885 132.937 232.908 130.33 230.875C127.723 228.842 130.438 223.43 130.438 223.43L123.408 220.884Z" fill="#B5C4E2"/>
<path d="M123.408 220.884L123.26 220.849C123.26 220.849 123.238 220.919 123.2 221.043C123.066 221.479 122.719 222.588 122.317 223.717C122.117 224.281 121.902 224.85 121.696 225.34C121.49 225.83 121.287 226.244 121.12 226.488C120.94 226.752 120.631 227.123 120.269 227.556C119.727 228.205 119.07 228.994 118.545 229.795C118.021 230.596 117.622 231.408 117.621 232.13C117.621 232.293 117.642 232.452 117.688 232.604C117.829 233.069 118.085 233.469 118.444 233.811C118.983 234.326 119.747 234.715 120.711 235.051C121.674 235.385 122.84 235.664 124.19 235.95C125.962 236.328 126.962 236.957 127.817 237.597C128.245 237.917 128.635 238.242 129.064 238.537C129.493 238.832 129.962 239.097 130.541 239.294C132.126 239.831 133.866 240.152 135.014 240.153C135.263 240.153 135.485 240.138 135.676 240.105C135.865 240.071 136.025 240.021 136.149 239.938C136.284 239.847 136.438 239.796 136.624 239.754C136.904 239.691 137.249 239.655 137.638 239.524C138.028 239.393 138.456 239.167 138.9 238.735C139.137 238.506 139.254 238.265 139.253 238.026C139.253 237.76 139.111 237.516 138.903 237.292C138.59 236.957 138.115 236.648 137.617 236.342C137.119 236.038 136.597 235.738 136.195 235.435C135.766 235.111 134.975 234.453 133.968 233.623C132.962 232.793 131.735 231.79 130.431 230.771C130.031 230.46 129.763 230.064 129.592 229.611C129.421 229.16 129.351 228.652 129.351 228.128C129.351 227.036 129.656 225.869 129.963 224.982C130.118 224.537 130.27 224.161 130.386 223.897C130.445 223.765 130.492 223.662 130.525 223.59C130.542 223.555 130.556 223.528 130.564 223.509C130.573 223.492 130.577 223.482 130.577 223.482L130.642 223.356L123.306 220.697L123.261 220.845L123.408 220.884L123.35 221.008L130.38 223.555L130.438 223.431L130.299 223.377C130.298 223.381 129.986 224.002 129.673 224.906C129.362 225.81 129.047 226.995 129.047 228.132C129.047 228.678 129.119 229.213 129.304 229.702C129.487 230.189 129.785 230.631 130.231 230.979C131.532 231.993 132.755 232.995 133.762 233.825C134.768 234.655 135.558 235.312 136 235.645C136.565 236.069 137.318 236.468 137.921 236.869C138.223 237.07 138.488 237.271 138.669 237.466C138.853 237.664 138.95 237.85 138.949 238.029C138.949 238.189 138.876 238.359 138.674 238.556C138.118 239.094 137.634 239.267 137.189 239.369C136.968 239.419 136.756 239.45 136.549 239.496C136.345 239.542 136.145 239.605 135.963 239.726C135.897 239.771 135.778 239.815 135.615 239.843C135.453 239.872 135.248 239.887 135.013 239.887C133.925 239.888 132.201 239.571 130.649 239.045C130.105 238.86 129.666 238.611 129.25 238.327C128.629 237.9 128.066 237.386 127.316 236.906C126.567 236.425 125.626 235.979 124.259 235.689C122.464 235.309 121.01 234.942 119.952 234.457C119.422 234.214 118.992 233.943 118.664 233.63C118.336 233.316 118.108 232.959 117.978 232.536C117.94 232.409 117.922 232.274 117.922 232.132C117.922 231.71 118.084 231.22 118.346 230.709C118.74 229.941 119.354 229.128 119.942 228.404C120.53 227.681 121.088 227.051 121.377 226.628C121.59 226.314 121.826 225.809 122.067 225.217C122.791 223.446 123.549 220.922 123.55 220.919L123.408 220.884L123.35 221.008L123.408 220.884Z" fill="#3D5C9B"/>
<path d="M135.145 157.334L127.672 176.388L126.172 180.173C126.068 180.425 125.83 180.617 125.535 180.683L106.457 185.081C106.068 185.173 105.707 185.032 105.507 184.788C105.327 184.587 105.26 184.311 105.365 184.034L106.381 181.488L115.678 157.442C115.801 157.124 116.124 156.906 116.504 156.898L132.734 156.32L134.244 156.27C134.889 156.246 135.355 156.798 135.145 157.334Z" fill="#6C8AC5"/>
<path d="M135.145 157.334L127.672 176.388L126.172 180.173C126.068 180.425 125.83 180.618 125.535 180.684L106.457 185.082C106.068 185.173 105.707 185.032 105.507 184.788C108.973 182.266 118.451 175.073 124.822 167.384C129.361 161.907 131.631 158.347 132.732 156.321L134.243 156.271C134.889 156.246 135.355 156.798 135.145 157.334Z" fill="#486DB7"/>
<path d="M131.28 168.377C131.271 168.364 131.257 168.353 131.248 168.339C131.473 168.139 131.767 167.794 131.65 167.436C131.468 166.879 130.536 166.528 129.223 166.557C127.909 166.588 127.222 166.979 127.497 167.219C127.772 167.459 128.503 167.759 129.317 167.659L129.502 167.856C129.25 167.875 128.983 167.91 128.699 167.972C127.423 168.247 126.845 168.757 127.17 168.94C127.497 169.123 128.283 169.281 129.055 169.032L129.236 169.157C129.041 169.179 128.838 169.208 128.625 169.254C127.35 169.529 126.771 170.039 127.097 170.223C127.423 170.406 128.21 170.563 128.981 170.314L129.408 170.611C128.68 170.814 127.874 171.116 128.016 171.349C128.224 171.689 129.411 171.768 129.411 171.768L128.907 173.155C128.907 173.155 130.48 172.5 131.013 171.795C131.321 171.388 131.228 170.959 130.981 170.685C131.158 170.458 131.427 170.023 131.205 169.661C131.158 169.584 131.091 169.517 131.013 169.455C131.182 169.25 131.518 168.769 131.28 168.377Z" fill="#B5C4E2"/>
<path d="M131.28 168.377L131.414 168.313C131.4 168.291 131.388 168.277 131.381 168.271L131.374 168.264L131.373 168.265L131.374 168.264L131.373 168.265L131.374 168.264L131.332 168.291L131.376 168.267L131.374 168.264L131.332 168.291L131.376 168.267L131.246 168.338L131.355 168.432C131.455 168.342 131.57 168.225 131.663 168.085C131.755 167.945 131.827 167.782 131.827 167.601C131.827 167.534 131.816 167.465 131.795 167.397C131.743 167.238 131.64 167.096 131.5 166.975C131.287 166.793 130.993 166.656 130.635 166.563C130.276 166.47 129.853 166.42 129.38 166.42C129.326 166.42 129.273 166.42 129.219 166.421C128.645 166.435 128.184 166.514 127.855 166.626C127.69 166.683 127.559 166.746 127.46 166.82C127.411 166.858 127.368 166.898 127.338 166.944C127.307 166.99 127.286 167.045 127.286 167.102C127.284 167.181 127.329 167.258 127.391 167.312C127.532 167.433 127.75 167.554 128.027 167.65C128.301 167.744 128.634 167.811 128.996 167.811C129.109 167.811 129.224 167.805 129.34 167.791L129.319 167.658L129.201 167.744L129.386 167.941L129.503 167.855L129.491 167.72C129.232 167.739 128.957 167.775 128.663 167.838C128.13 167.953 127.712 168.109 127.419 168.271C127.272 168.352 127.156 168.435 127.072 168.521C127.029 168.564 126.996 168.609 126.97 168.656C126.945 168.703 126.928 168.753 126.928 168.807C126.928 168.855 126.944 168.905 126.973 168.948C127.002 168.991 127.043 169.025 127.089 169.052C127.209 169.119 127.371 169.179 127.562 169.222C127.753 169.265 127.976 169.293 128.214 169.293C128.495 169.293 128.802 169.254 129.106 169.156L129.054 169.029L128.96 169.136L129.141 169.261L129.236 169.154L129.218 169.021C129.018 169.043 128.81 169.072 128.589 169.121C128.056 169.235 127.637 169.391 127.344 169.553C127.197 169.634 127.081 169.717 126.997 169.804C126.954 169.847 126.921 169.891 126.895 169.938C126.87 169.986 126.854 170.035 126.854 170.089C126.854 170.138 126.869 170.188 126.898 170.231C126.927 170.274 126.968 170.307 127.014 170.334C127.135 170.402 127.296 170.461 127.487 170.504C127.678 170.547 127.901 170.576 128.14 170.576C128.421 170.576 128.728 170.536 129.032 170.438L128.98 170.311L128.885 170.418L129.311 170.714L129.406 170.608L129.36 170.48C129.019 170.576 128.663 170.691 128.382 170.815C128.242 170.879 128.12 170.942 128.025 171.013C127.978 171.05 127.936 171.086 127.903 171.13C127.871 171.175 127.845 171.229 127.845 171.289C127.845 171.33 127.857 171.373 127.88 171.409C127.92 171.474 127.978 171.527 128.042 171.568C128.155 171.642 128.294 171.695 128.439 171.738C128.876 171.865 129.39 171.897 129.397 171.898L129.407 171.764L129.262 171.722L128.65 173.404L128.967 173.272C128.97 173.271 129.368 173.105 129.836 172.849C130.304 172.592 130.843 172.25 131.136 171.865C131.289 171.663 131.358 171.45 131.356 171.249C131.356 170.998 131.254 170.771 131.097 170.597L130.977 170.681L131.103 170.757C131.171 170.67 131.254 170.551 131.32 170.415C131.385 170.279 131.437 170.123 131.437 169.959C131.437 169.839 131.408 169.712 131.336 169.594C131.277 169.498 131.197 169.42 131.112 169.352L131.009 169.452L131.133 169.532C131.202 169.449 131.294 169.327 131.371 169.18C131.448 169.033 131.512 168.861 131.512 168.676C131.512 168.555 131.483 168.43 131.411 168.311L131.28 168.377L131.145 168.44C131.191 168.516 131.21 168.594 131.21 168.678C131.21 168.804 131.162 168.943 131.097 169.068C131.031 169.192 130.948 169.303 130.889 169.374L130.806 169.472L130.909 169.554C130.979 169.61 131.034 169.665 131.069 169.724C131.115 169.8 131.133 169.878 131.133 169.961C131.133 170.076 131.095 170.198 131.04 170.311C130.985 170.425 130.913 170.53 130.852 170.606L130.788 170.689L130.858 170.767C130.976 170.896 131.052 171.067 131.052 171.25C131.052 171.399 131.005 171.556 130.883 171.716C130.643 172.037 130.127 172.376 129.676 172.622C129.45 172.746 129.239 172.848 129.087 172.919C129.01 172.954 128.948 172.983 128.905 173.002C128.883 173.011 128.867 173.018 128.856 173.023L128.839 173.03L128.905 173.151L129.05 173.193L129.613 171.642L129.421 171.63L129.409 171.629C129.348 171.625 129.056 171.599 128.764 171.539C128.619 171.509 128.473 171.469 128.359 171.421C128.245 171.376 128.17 171.318 128.149 171.281L128.13 171.289H128.15L128.149 171.281L128.13 171.289H128.15H128.135L128.15 171.292V171.289H128.135L128.15 171.292L128.153 171.287C128.161 171.269 128.207 171.223 128.285 171.176C128.401 171.104 128.582 171.024 128.789 170.947C128.995 170.872 129.227 170.799 129.453 170.736L129.728 170.659L129.007 170.159L128.928 170.185C128.66 170.271 128.39 170.305 128.14 170.305C127.927 170.305 127.73 170.281 127.564 170.243C127.397 170.205 127.261 170.154 127.177 170.107C127.164 170.099 127.161 170.093 127.159 170.093V170.089C127.159 170.085 127.161 170.073 127.171 170.054C127.19 170.021 127.234 169.968 127.307 169.911C127.529 169.738 127.994 169.526 128.66 169.383C128.867 169.339 129.062 169.311 129.255 169.289L129.618 169.249L129.082 168.877L129.003 168.903C128.735 168.989 128.465 169.022 128.214 169.022C128.002 169.022 127.805 168.998 127.639 168.96C127.472 168.923 127.336 168.872 127.252 168.824C127.238 168.816 127.235 168.811 127.234 168.811V168.807C127.234 168.803 127.235 168.791 127.246 168.772C127.264 168.738 127.309 168.686 127.382 168.629C127.603 168.455 128.069 168.244 128.735 168.101C129.012 168.042 129.271 168.007 129.516 167.989L129.807 167.968L129.381 167.514L129.297 167.524C129.195 167.537 129.094 167.542 128.995 167.542C128.677 167.542 128.379 167.483 128.136 167.399C127.894 167.316 127.703 167.207 127.605 167.12C127.587 167.103 127.591 167.103 127.59 167.103C127.59 167.103 127.59 167.096 127.599 167.083C127.614 167.058 127.663 167.014 127.744 166.971C127.866 166.905 128.059 166.837 128.309 166.786C128.56 166.735 128.868 166.699 129.227 166.691C129.279 166.689 129.329 166.689 129.38 166.689C129.978 166.689 130.483 166.774 130.848 166.917C131.031 166.988 131.177 167.073 131.286 167.168C131.394 167.262 131.466 167.363 131.501 167.472C131.515 167.516 131.523 167.56 131.523 167.603C131.523 167.718 131.475 167.838 131.4 167.95C131.326 168.062 131.226 168.166 131.138 168.245L131.052 168.321L131.116 168.411C131.13 168.43 131.141 168.439 131.145 168.445L131.148 168.447L131.197 168.415L131.144 168.44L131.148 168.447L131.197 168.415L131.144 168.44L131.28 168.377Z" fill="#3D5C9B"/>
<path d="M125.717 170.105C125.184 171.661 123.741 172.654 122.493 172.321C121.245 171.988 120.668 170.458 121.201 168.901C121.734 167.345 123.177 166.353 124.425 166.685C125.673 167.018 126.25 168.55 125.717 170.105Z" fill="#486DB7"/>
<path d="M181.687 232.669C177.794 247.501 160.33 257.786 129.172 259.654C66.2587 263.423 31.5968 260.073 19.2511 233.69C16.4591 227.727 15.3762 220.022 15.5289 211.604C20.2775 213.28 29.1179 217.86 38.7188 230.13C52.963 248.346 81.6896 257.559 116.353 253.58C150.083 249.713 170.557 245.442 181.687 232.669Z" fill="#CB4E8E"/>
</svg>
