<svg width="20" height="19" viewBox="0 0 20 19" fill="none" xmlns="http://www.w3.org/2000/svg">
<path d="M8.55566 16C10.4017 16 12.0987 15.365 13.4527 14.312L17.8487 18.708L19.2627 17.294L14.8667 12.898C15.9207 11.543 16.5557 9.846 16.5557 8C16.5557 3.589 12.9667 0 8.55566 0C4.14466 0 0.555664 3.589 0.555664 8C0.555664 12.411 4.14466 16 8.55566 16ZM8.55566 2C11.8647 2 14.5557 4.691 14.5557 8C14.5557 11.309 11.8647 14 8.55566 14C5.24666 14 2.55566 11.309 2.55566 8C2.55566 4.691 5.24666 2 8.55566 2Z" fill="white"/>
</svg>
